<svg preserveAspectRatio="none" overflow="visible" style="display: block;" width="28.9294" height="28.9294" viewBox="0 0 28.9294 28.9294" fill="none" xmlns="http://www.w3.org/2000/svg">
<g id="lineicons:emoji-smile">
<path id="Vector" d="M12.0534 11.1303C12.0534 10.7307 11.8947 10.3474 11.6121 10.0648C11.3295 9.78227 10.9463 9.62353 10.5467 9.62353C10.1471 9.62353 9.76381 9.78227 9.48124 10.0648C9.19867 10.3474 9.03993 10.7307 9.03993 11.1303C9.03993 11.5299 9.19867 11.9131 9.48124 12.1957C9.76381 12.4783 10.1471 12.637 10.5467 12.637C10.9463 12.637 11.3295 12.4783 11.6121 12.1957C11.8947 11.9131 12.0534 11.5299 12.0534 11.1303ZM18.3817 9.62353C18.5796 9.62353 18.7755 9.6625 18.9583 9.73822C19.1411 9.81394 19.3072 9.92493 19.4471 10.0648C19.587 10.2048 19.698 10.3709 19.7737 10.5537C19.8495 10.7365 19.8884 10.9324 19.8884 11.1303C19.8884 11.3281 19.8495 11.5241 19.7737 11.7069C19.698 11.8897 19.587 12.0558 19.4471 12.1957C19.3072 12.3356 19.1411 12.4466 18.9583 12.5223C18.7755 12.598 18.5796 12.637 18.3817 12.637C17.9821 12.637 17.5988 12.4783 17.3163 12.1957C17.0337 11.9131 16.875 11.5299 16.875 11.1303C16.875 10.7307 17.0337 10.3474 17.3163 10.0648C17.5988 9.78227 17.9821 9.62353 18.3817 9.62353ZM11.1253 16.5292C10.9736 16.3491 10.7576 16.2354 10.5233 16.2121C10.289 16.1887 10.0549 16.2578 9.87071 16.4044C9.68652 16.5511 9.56681 16.7638 9.53705 16.9974C9.50728 17.2309 9.56981 17.4669 9.71133 17.655C10.2796 18.3706 11.0022 18.9485 11.8253 19.3456C12.6483 19.7426 13.5504 19.9484 14.4642 19.9477C15.378 19.9484 16.2801 19.7426 17.1031 19.3456C17.9261 18.9485 18.6488 18.3706 19.217 17.655C19.2949 17.5626 19.3534 17.4556 19.3892 17.3402C19.4249 17.2248 19.4372 17.1033 19.4252 16.9831C19.4133 16.8629 19.3773 16.7463 19.3195 16.6402C19.2618 16.5341 19.1833 16.4406 19.0888 16.3654C18.9942 16.2901 18.8856 16.2346 18.7692 16.202C18.6529 16.1694 18.5312 16.1605 18.4113 16.1758C18.2915 16.1911 18.1759 16.2302 18.0714 16.2909C17.967 16.3516 17.8757 16.4327 17.8031 16.5292C17.4041 17.0321 16.8965 17.4382 16.3182 17.7171C15.74 17.996 15.1062 18.1405 14.4642 18.1396C13.8222 18.1405 13.1884 17.996 12.6101 17.7171C12.0319 17.4382 11.5243 17.0321 11.1253 16.5292Z" fill="#387440"/>
<path id="Vector_2" fill-rule="evenodd" clip-rule="evenodd" d="M14.4633 2.4117C7.80594 2.4117 2.40941 7.80823 2.40941 14.4656C2.40941 21.123 7.80594 26.5195 14.4633 26.5195C21.1207 26.5195 26.5172 21.123 26.5172 14.4656C26.5172 7.80823 21.1207 2.4117 14.4633 2.4117ZM4.21749 14.4656C4.21749 11.7482 5.29696 9.14218 7.21843 7.22071C9.13989 5.29925 11.746 4.21978 14.4633 4.21978C17.1807 4.21978 19.7867 5.29925 21.7082 7.22071C23.6297 9.14218 24.7091 11.7482 24.7091 14.4656C24.7091 17.183 23.6297 19.789 21.7082 21.7105C19.7867 23.632 17.1807 24.7114 14.4633 24.7114C11.746 24.7114 9.13989 23.632 7.21843 21.7105C5.29696 19.789 4.21749 17.183 4.21749 14.4656Z" fill="#387440"/>
</g>
</svg>
