<svg preserveAspectRatio="none" width="100%" height="100%" overflow="visible" style="display: block;" viewBox="0 0 1065.71 1065.71" fill="none" xmlns="http://www.w3.org/2000/svg">
<g id="Group">
<path id="Vector" d="M0.223002 0.223003L56.2893 56.2893" stroke="var(--stroke-0, #FFFEFC)" stroke-width="0.630746"/>
<path id="Vector_2" d="M56.2894 0.223003L112.356 56.2893" stroke="var(--stroke-0, #FFFEFC)" stroke-width="0.630746"/>
<path id="Vector_3" d="M112.356 0.223003L168.422 56.2893" stroke="var(--stroke-0, #FFFEFC)" stroke-width="0.630746"/>
<path id="Vector_4" d="M168.422 0.223003L224.488 56.2893" stroke="var(--stroke-0, #FFFEFC)" stroke-width="0.630746"/>
<path id="Vector_5" d="M224.489 0.223003L280.555 56.2893" stroke="var(--stroke-0, #FFFEFC)" stroke-width="0.630746"/>
<path id="Vector_6" d="M280.555 0.223003L336.621 56.2893" stroke="var(--stroke-0, #FFFEFC)" stroke-width="0.630746"/>
<path id="Vector_7" d="M336.621 0.223003L392.687 56.2893" stroke="var(--stroke-0, #FFFEFC)" stroke-width="0.630746"/>
<path id="Vector_8" d="M392.687 0.223003L448.754 56.2893" stroke="var(--stroke-0, #FFFEFC)" stroke-width="0.630746"/>
<path id="Vector_9" d="M448.754 0.223003L504.82 56.2893" stroke="var(--stroke-0, #FFFEFC)" stroke-width="0.630746"/>
<path id="Vector_10" d="M504.82 0.223003L560.886 56.2893" stroke="var(--stroke-0, #FFFEFC)" stroke-width="0.630746"/>
<path id="Vector_11" d="M560.886 0.223003L616.953 56.2893" stroke="var(--stroke-0, #FFFEFC)" stroke-width="0.630746"/>
<path id="Vector_12" d="M616.953 0.223003L673.019 56.2893" stroke="var(--stroke-0, #FFFEFC)" stroke-width="0.630746"/>
<path id="Vector_13" d="M673.019 0.223003L729.085 56.2893" stroke="var(--stroke-0, #FFFEFC)" stroke-width="0.630746"/>
<path id="Vector_14" d="M729.085 0.223003L785.152 56.2893" stroke="var(--stroke-0, #FFFEFC)" stroke-width="0.630746"/>
<path id="Vector_15" d="M785.152 0.223003L841.218 56.2893" stroke="var(--stroke-0, #FFFEFC)" stroke-width="0.630746"/>
<path id="Vector_16" d="M841.218 0.223003L897.284 56.2893" stroke="var(--stroke-0, #FFFEFC)" stroke-width="0.630746"/>
<path id="Vector_17" d="M897.284 0.223003L953.351 56.2893" stroke="var(--stroke-0, #FFFEFC)" stroke-width="0.630746"/>
<path id="Vector_18" d="M953.351 0.223003L1009.42 56.2893" stroke="var(--stroke-0, #FFFEFC)" stroke-width="0.630746"/>
<path id="Vector_19" d="M1009.42 0.223003L1065.48 56.2893" stroke="var(--stroke-0, #FFFEFC)" stroke-width="0.630746"/>
<path id="Vector_20" d="M0.223125 56.2889L56.2895 112.355" stroke="var(--stroke-0, #FFFEFC)" stroke-width="0.630746"/>
<path id="Vector_21" d="M56.2894 56.2889L112.356 112.355" stroke="var(--stroke-0, #FFFEFC)" stroke-width="0.630746"/>
<path id="Vector_22" d="M112.356 56.2889L168.422 112.355" stroke="var(--stroke-0, #FFFEFC)" stroke-width="0.630746"/>
<path id="Vector_23" d="M168.422 56.2889L224.488 112.355" stroke="var(--stroke-0, #FFFEFC)" stroke-width="0.630746"/>
<path id="Vector_24" d="M224.489 56.2889L280.555 112.355" stroke="var(--stroke-0, #FFFEFC)" stroke-width="0.630746"/>
<path id="Vector_25" d="M280.555 56.2889L336.621 112.355" stroke="var(--stroke-0, #FFFEFC)" stroke-width="0.630746"/>
<path id="Vector_26" d="M336.621 56.2889L392.687 112.355" stroke="var(--stroke-0, #FFFEFC)" stroke-width="0.630746"/>
<path id="Vector_27" d="M392.687 56.2889L448.754 112.355" stroke="var(--stroke-0, #FFFEFC)" stroke-width="0.630746"/>
<path id="Vector_28" d="M448.754 56.2889L504.82 112.355" stroke="var(--stroke-0, #FFFEFC)" stroke-width="0.630746"/>
<path id="Vector_29" d="M504.82 56.2889L560.886 112.355" stroke="var(--stroke-0, #FFFEFC)" stroke-width="0.630746"/>
<path id="Vector_30" d="M560.886 56.2889L616.953 112.355" stroke="var(--stroke-0, #FFFEFC)" stroke-width="0.630746"/>
<path id="Vector_31" d="M616.953 56.2889L673.019 112.355" stroke="var(--stroke-0, #FFFEFC)" stroke-width="0.630746"/>
<path id="Vector_32" d="M673.019 56.2889L729.085 112.355" stroke="var(--stroke-0, #FFFEFC)" stroke-width="0.630746"/>
<path id="Vector_33" d="M729.085 56.2889L785.152 112.355" stroke="var(--stroke-0, #FFFEFC)" stroke-width="0.630746"/>
<path id="Vector_34" d="M785.152 56.2889L841.218 112.355" stroke="var(--stroke-0, #FFFEFC)" stroke-width="0.630746"/>
<path id="Vector_35" d="M841.218 56.2889L897.284 112.355" stroke="var(--stroke-0, #FFFEFC)" stroke-width="0.630746"/>
<path id="Vector_36" d="M897.284 56.2889L953.351 112.355" stroke="var(--stroke-0, #FFFEFC)" stroke-width="0.630746"/>
<path id="Vector_37" d="M953.351 56.2889L1009.42 112.355" stroke="var(--stroke-0, #FFFEFC)" stroke-width="0.630746"/>
<path id="Vector_38" d="M1009.42 56.2889L1065.48 112.355" stroke="var(--stroke-0, #FFFEFC)" stroke-width="0.630746"/>
<path id="Vector_39" d="M0.223125 112.355L56.2895 168.422" stroke="var(--stroke-0, #FFFEFC)" stroke-width="0.630746"/>
<path id="Vector_40" d="M56.2894 112.355L112.356 168.422" stroke="var(--stroke-0, #FFFEFC)" stroke-width="0.630746"/>
<path id="Vector_41" d="M112.356 112.355L168.422 168.422" stroke="var(--stroke-0, #FFFEFC)" stroke-width="0.630746"/>
<path id="Vector_42" d="M168.422 112.355L224.488 168.422" stroke="var(--stroke-0, #FFFEFC)" stroke-width="0.630746"/>
<path id="Vector_43" d="M224.489 112.355L280.555 168.422" stroke="var(--stroke-0, #FFFEFC)" stroke-width="0.630746"/>
<path id="Vector_44" d="M280.555 112.355L336.621 168.422" stroke="var(--stroke-0, #FFFEFC)" stroke-width="0.630746"/>
<path id="Vector_45" d="M336.621 112.355L392.687 168.422" stroke="var(--stroke-0, #FFFEFC)" stroke-width="0.630746"/>
<path id="Vector_46" d="M392.687 112.355L448.754 168.422" stroke="var(--stroke-0, #FFFEFC)" stroke-width="0.630746"/>
<path id="Vector_47" d="M448.754 112.355L504.82 168.422" stroke="var(--stroke-0, #FFFEFC)" stroke-width="0.630746"/>
<path id="Vector_48" d="M504.82 112.355L560.886 168.422" stroke="var(--stroke-0, #FFFEFC)" stroke-width="0.630746"/>
<path id="Vector_49" d="M560.886 112.355L616.953 168.422" stroke="var(--stroke-0, #FFFEFC)" stroke-width="0.630746"/>
<path id="Vector_50" d="M616.953 112.355L673.019 168.422" stroke="var(--stroke-0, #FFFEFC)" stroke-width="0.630746"/>
<path id="Vector_51" d="M673.019 112.355L729.085 168.422" stroke="var(--stroke-0, #FFFEFC)" stroke-width="0.630746"/>
<path id="Vector_52" d="M729.085 112.355L785.152 168.422" stroke="var(--stroke-0, #FFFEFC)" stroke-width="0.630746"/>
<path id="Vector_53" d="M785.152 112.355L841.218 168.422" stroke="var(--stroke-0, #FFFEFC)" stroke-width="0.630746"/>
<path id="Vector_54" d="M841.218 112.355L897.284 168.422" stroke="var(--stroke-0, #FFFEFC)" stroke-width="0.630746"/>
<path id="Vector_55" d="M897.284 112.355L953.351 168.422" stroke="var(--stroke-0, #FFFEFC)" stroke-width="0.630746"/>
<path id="Vector_56" d="M953.351 112.355L1009.42 168.422" stroke="var(--stroke-0, #FFFEFC)" stroke-width="0.630746"/>
<path id="Vector_57" d="M1009.42 112.355L1065.48 168.422" stroke="var(--stroke-0, #FFFEFC)" stroke-width="0.630746"/>
<path id="Vector_58" d="M0.223125 168.422L56.2895 224.488" stroke="var(--stroke-0, #FFFEFC)" stroke-width="0.630746"/>
<path id="Vector_59" d="M56.2894 168.422L112.356 224.488" stroke="var(--stroke-0, #FFFEFC)" stroke-width="0.630746"/>
<path id="Vector_60" d="M112.356 168.422L168.422 224.488" stroke="var(--stroke-0, #FFFEFC)" stroke-width="0.630746"/>
<path id="Vector_61" d="M168.422 168.422L224.488 224.488" stroke="var(--stroke-0, #FFFEFC)" stroke-width="0.630746"/>
<path id="Vector_62" d="M224.489 168.422L280.555 224.488" stroke="var(--stroke-0, #FFFEFC)" stroke-width="0.630746"/>
<path id="Vector_63" d="M280.555 168.422L336.621 224.488" stroke="var(--stroke-0, #FFFEFC)" stroke-width="0.630746"/>
<path id="Vector_64" d="M336.621 168.422L392.687 224.488" stroke="var(--stroke-0, #FFFEFC)" stroke-width="0.630746"/>
<path id="Vector_65" d="M392.687 168.422L448.754 224.488" stroke="var(--stroke-0, #FFFEFC)" stroke-width="0.630746"/>
<path id="Vector_66" d="M448.754 168.422L504.82 224.488" stroke="var(--stroke-0, #FFFEFC)" stroke-width="0.630746"/>
<path id="Vector_67" d="M504.82 168.422L560.886 224.488" stroke="var(--stroke-0, #FFFEFC)" stroke-width="0.630746"/>
<path id="Vector_68" d="M560.886 168.422L616.953 224.488" stroke="var(--stroke-0, #FFFEFC)" stroke-width="0.630746"/>
<path id="Vector_69" d="M616.953 168.422L673.019 224.488" stroke="var(--stroke-0, #FFFEFC)" stroke-width="0.630746"/>
<path id="Vector_70" d="M673.019 168.422L729.085 224.488" stroke="var(--stroke-0, #FFFEFC)" stroke-width="0.630746"/>
<path id="Vector_71" d="M729.085 168.422L785.152 224.488" stroke="var(--stroke-0, #FFFEFC)" stroke-width="0.630746"/>
<path id="Vector_72" d="M785.152 168.422L841.218 224.488" stroke="var(--stroke-0, #FFFEFC)" stroke-width="0.630746"/>
<path id="Vector_73" d="M841.218 168.422L897.284 224.488" stroke="var(--stroke-0, #FFFEFC)" stroke-width="0.630746"/>
<path id="Vector_74" d="M897.284 168.422L953.351 224.488" stroke="var(--stroke-0, #FFFEFC)" stroke-width="0.630746"/>
<path id="Vector_75" d="M953.351 168.422L1009.42 224.488" stroke="var(--stroke-0, #FFFEFC)" stroke-width="0.630746"/>
<path id="Vector_76" d="M1009.42 168.422L1065.48 224.488" stroke="var(--stroke-0, #FFFEFC)" stroke-width="0.630746"/>
<path id="Vector_77" d="M0.223125 224.488L56.2895 280.554" stroke="var(--stroke-0, #FFFEFC)" stroke-width="0.630746"/>
<path id="Vector_78" d="M56.2894 224.488L112.356 280.554" stroke="var(--stroke-0, #FFFEFC)" stroke-width="0.630746"/>
<path id="Vector_79" d="M112.356 224.488L168.422 280.554" stroke="var(--stroke-0, #FFFEFC)" stroke-width="0.630746"/>
<path id="Vector_80" d="M168.422 224.488L224.488 280.554" stroke="var(--stroke-0, #FFFEFC)" stroke-width="0.630746"/>
<path id="Vector_81" d="M224.489 224.488L280.555 280.554" stroke="var(--stroke-0, #FFFEFC)" stroke-width="0.630746"/>
<path id="Vector_82" d="M280.555 224.488L336.621 280.554" stroke="var(--stroke-0, #FFFEFC)" stroke-width="0.630746"/>
<path id="Vector_83" d="M336.621 224.488L392.687 280.554" stroke="var(--stroke-0, #FFFEFC)" stroke-width="0.630746"/>
<path id="Vector_84" d="M392.687 224.488L448.754 280.554" stroke="var(--stroke-0, #FFFEFC)" stroke-width="0.630746"/>
<path id="Vector_85" d="M448.754 224.488L504.82 280.554" stroke="var(--stroke-0, #FFFEFC)" stroke-width="0.630746"/>
<path id="Vector_86" d="M504.82 224.488L560.886 280.554" stroke="var(--stroke-0, #FFFEFC)" stroke-width="0.630746"/>
<path id="Vector_87" d="M560.886 224.488L616.953 280.554" stroke="var(--stroke-0, #FFFEFC)" stroke-width="0.630746"/>
<path id="Vector_88" d="M616.953 224.488L673.019 280.554" stroke="var(--stroke-0, #FFFEFC)" stroke-width="0.630746"/>
<path id="Vector_89" d="M673.019 224.488L729.085 280.554" stroke="var(--stroke-0, #FFFEFC)" stroke-width="0.630746"/>
<path id="Vector_90" d="M729.085 224.488L785.152 280.554" stroke="var(--stroke-0, #FFFEFC)" stroke-width="0.630746"/>
<path id="Vector_91" d="M785.152 224.488L841.218 280.554" stroke="var(--stroke-0, #FFFEFC)" stroke-width="0.630746"/>
<path id="Vector_92" d="M841.218 224.488L897.284 280.554" stroke="var(--stroke-0, #FFFEFC)" stroke-width="0.630746"/>
<path id="Vector_93" d="M897.284 224.488L953.351 280.554" stroke="var(--stroke-0, #FFFEFC)" stroke-width="0.630746"/>
<path id="Vector_94" d="M953.351 224.488L1009.42 280.554" stroke="var(--stroke-0, #FFFEFC)" stroke-width="0.630746"/>
<path id="Vector_95" d="M1009.42 224.488L1065.48 280.554" stroke="var(--stroke-0, #FFFEFC)" stroke-width="0.630746"/>
<path id="Vector_96" d="M0.223125 280.554L56.2895 336.62" stroke="var(--stroke-0, #FFFEFC)" stroke-width="0.630746"/>
<path id="Vector_97" d="M56.2894 280.554L112.356 336.62" stroke="var(--stroke-0, #FFFEFC)" stroke-width="0.630746"/>
<path id="Vector_98" d="M112.356 280.554L168.422 336.62" stroke="var(--stroke-0, #FFFEFC)" stroke-width="0.630746"/>
<path id="Vector_99" d="M168.422 280.554L224.488 336.62" stroke="var(--stroke-0, #FFFEFC)" stroke-width="0.630746"/>
<path id="Vector_100" d="M224.489 280.554L280.555 336.62" stroke="var(--stroke-0, #FFFEFC)" stroke-width="0.630746"/>
<path id="Vector_101" d="M280.555 280.554L336.621 336.62" stroke="var(--stroke-0, #FFFEFC)" stroke-width="0.630746"/>
<path id="Vector_102" d="M336.621 280.554L392.687 336.62" stroke="var(--stroke-0, #FFFEFC)" stroke-width="0.630746"/>
<path id="Vector_103" d="M392.687 280.554L448.754 336.62" stroke="var(--stroke-0, #FFFEFC)" stroke-width="0.630746"/>
<path id="Vector_104" d="M448.754 280.554L504.82 336.62" stroke="var(--stroke-0, #FFFEFC)" stroke-width="0.630746"/>
<path id="Vector_105" d="M504.82 280.554L560.886 336.62" stroke="var(--stroke-0, #FFFEFC)" stroke-width="0.630746"/>
<path id="Vector_106" d="M560.886 280.554L616.953 336.62" stroke="var(--stroke-0, #FFFEFC)" stroke-width="0.630746"/>
<path id="Vector_107" d="M616.953 280.554L673.019 336.62" stroke="var(--stroke-0, #FFFEFC)" stroke-width="0.630746"/>
<path id="Vector_108" d="M673.019 280.554L729.085 336.62" stroke="var(--stroke-0, #FFFEFC)" stroke-width="0.630746"/>
<path id="Vector_109" d="M729.085 280.554L785.152 336.62" stroke="var(--stroke-0, #FFFEFC)" stroke-width="0.630746"/>
<path id="Vector_110" d="M785.152 280.554L841.218 336.62" stroke="var(--stroke-0, #FFFEFC)" stroke-width="0.630746"/>
<path id="Vector_111" d="M841.218 280.554L897.284 336.62" stroke="var(--stroke-0, #FFFEFC)" stroke-width="0.630746"/>
<path id="Vector_112" d="M897.284 280.554L953.351 336.62" stroke="var(--stroke-0, #FFFEFC)" stroke-width="0.630746"/>
<path id="Vector_113" d="M953.351 280.554L1009.42 336.62" stroke="var(--stroke-0, #FFFEFC)" stroke-width="0.630746"/>
<path id="Vector_114" d="M1009.42 280.554L1065.48 336.62" stroke="var(--stroke-0, #FFFEFC)" stroke-width="0.630746"/>
<path id="Vector_115" d="M0.223125 336.62L56.2895 392.687" stroke="var(--stroke-0, #FFFEFC)" stroke-width="0.630746"/>
<path id="Vector_116" d="M56.2894 336.62L112.356 392.687" stroke="var(--stroke-0, #FFFEFC)" stroke-width="0.630746"/>
<path id="Vector_117" d="M112.356 336.62L168.422 392.687" stroke="var(--stroke-0, #FFFEFC)" stroke-width="0.630746"/>
<path id="Vector_118" d="M168.422 336.62L224.488 392.687" stroke="var(--stroke-0, #FFFEFC)" stroke-width="0.630746"/>
<path id="Vector_119" d="M224.489 336.62L280.555 392.687" stroke="var(--stroke-0, #FFFEFC)" stroke-width="0.630746"/>
<path id="Vector_120" d="M280.555 336.62L336.621 392.687" stroke="var(--stroke-0, #FFFEFC)" stroke-width="0.630746"/>
<path id="Vector_121" d="M336.621 336.62L392.687 392.687" stroke="var(--stroke-0, #FFFEFC)" stroke-width="0.630746"/>
<path id="Vector_122" d="M392.687 336.62L448.754 392.687" stroke="var(--stroke-0, #FFFEFC)" stroke-width="0.630746"/>
<path id="Vector_123" d="M448.754 336.62L504.82 392.687" stroke="var(--stroke-0, #FFFEFC)" stroke-width="0.630746"/>
<path id="Vector_124" d="M504.82 336.62L560.886 392.687" stroke="var(--stroke-0, #FFFEFC)" stroke-width="0.630746"/>
<path id="Vector_125" d="M560.886 336.62L616.953 392.687" stroke="var(--stroke-0, #FFFEFC)" stroke-width="0.630746"/>
<path id="Vector_126" d="M616.953 336.62L673.019 392.687" stroke="var(--stroke-0, #FFFEFC)" stroke-width="0.630746"/>
<path id="Vector_127" d="M673.019 336.62L729.085 392.687" stroke="var(--stroke-0, #FFFEFC)" stroke-width="0.630746"/>
<path id="Vector_128" d="M729.085 336.62L785.152 392.687" stroke="var(--stroke-0, #FFFEFC)" stroke-width="0.630746"/>
<path id="Vector_129" d="M785.152 336.62L841.218 392.687" stroke="var(--stroke-0, #FFFEFC)" stroke-width="0.630746"/>
<path id="Vector_130" d="M841.218 336.62L897.284 392.687" stroke="var(--stroke-0, #FFFEFC)" stroke-width="0.630746"/>
<path id="Vector_131" d="M897.284 336.62L953.351 392.687" stroke="var(--stroke-0, #FFFEFC)" stroke-width="0.630746"/>
<path id="Vector_132" d="M953.351 336.62L1009.42 392.687" stroke="var(--stroke-0, #FFFEFC)" stroke-width="0.630746"/>
<path id="Vector_133" d="M1009.42 336.62L1065.48 392.687" stroke="var(--stroke-0, #FFFEFC)" stroke-width="0.630746"/>
<path id="Vector_134" d="M0.223125 392.687L56.2895 448.754" stroke="var(--stroke-0, #FFFEFC)" stroke-width="0.630746"/>
<path id="Vector_135" d="M56.2894 392.687L112.356 448.754" stroke="var(--stroke-0, #FFFEFC)" stroke-width="0.630746"/>
<path id="Vector_136" d="M112.356 392.687L168.422 448.754" stroke="var(--stroke-0, #FFFEFC)" stroke-width="0.630746"/>
<path id="Vector_137" d="M168.422 392.687L224.488 448.754" stroke="var(--stroke-0, #FFFEFC)" stroke-width="0.630746"/>
<path id="Vector_138" d="M224.489 392.687L280.555 448.754" stroke="var(--stroke-0, #FFFEFC)" stroke-width="0.630746"/>
<path id="Vector_139" d="M280.555 392.687L336.621 448.754" stroke="var(--stroke-0, #FFFEFC)" stroke-width="0.630746"/>
<path id="Vector_140" d="M336.621 392.687L392.687 448.754" stroke="var(--stroke-0, #FFFEFC)" stroke-width="0.630746"/>
<path id="Vector_141" d="M392.687 392.687L448.754 448.754" stroke="var(--stroke-0, #FFFEFC)" stroke-width="0.630746"/>
<path id="Vector_142" d="M448.754 392.687L504.82 448.754" stroke="var(--stroke-0, #FFFEFC)" stroke-width="0.630746"/>
<path id="Vector_143" d="M504.82 392.687L560.886 448.754" stroke="var(--stroke-0, #FFFEFC)" stroke-width="0.630746"/>
<path id="Vector_144" d="M560.886 392.687L616.953 448.754" stroke="var(--stroke-0, #FFFEFC)" stroke-width="0.630746"/>
<path id="Vector_145" d="M616.953 392.687L673.019 448.754" stroke="var(--stroke-0, #FFFEFC)" stroke-width="0.630746"/>
<path id="Vector_146" d="M673.019 392.687L729.085 448.754" stroke="var(--stroke-0, #FFFEFC)" stroke-width="0.630746"/>
<path id="Vector_147" d="M729.085 392.687L785.152 448.754" stroke="var(--stroke-0, #FFFEFC)" stroke-width="0.630746"/>
<path id="Vector_148" d="M785.152 392.687L841.218 448.754" stroke="var(--stroke-0, #FFFEFC)" stroke-width="0.630746"/>
<path id="Vector_149" d="M841.218 392.687L897.284 448.754" stroke="var(--stroke-0, #FFFEFC)" stroke-width="0.630746"/>
<path id="Vector_150" d="M897.284 392.687L953.351 448.754" stroke="var(--stroke-0, #FFFEFC)" stroke-width="0.630746"/>
<path id="Vector_151" d="M953.351 392.687L1009.42 448.754" stroke="var(--stroke-0, #FFFEFC)" stroke-width="0.630746"/>
<path id="Vector_152" d="M1009.42 392.687L1065.48 448.754" stroke="var(--stroke-0, #FFFEFC)" stroke-width="0.630746"/>
<path id="Vector_153" d="M0.223125 448.754L56.2895 504.82" stroke="var(--stroke-0, #FFFEFC)" stroke-width="0.630746"/>
<path id="Vector_154" d="M56.2894 448.754L112.356 504.82" stroke="var(--stroke-0, #FFFEFC)" stroke-width="0.630746"/>
<path id="Vector_155" d="M112.356 448.754L168.422 504.82" stroke="var(--stroke-0, #FFFEFC)" stroke-width="0.630746"/>
<path id="Vector_156" d="M168.422 448.754L224.488 504.82" stroke="var(--stroke-0, #FFFEFC)" stroke-width="0.630746"/>
<path id="Vector_157" d="M224.489 448.754L280.555 504.82" stroke="var(--stroke-0, #FFFEFC)" stroke-width="0.630746"/>
<path id="Vector_158" d="M280.555 448.754L336.621 504.82" stroke="var(--stroke-0, #FFFEFC)" stroke-width="0.630746"/>
<path id="Vector_159" d="M336.621 448.754L392.687 504.82" stroke="var(--stroke-0, #FFFEFC)" stroke-width="0.630746"/>
<path id="Vector_160" d="M392.687 448.754L448.754 504.82" stroke="var(--stroke-0, #FFFEFC)" stroke-width="0.630746"/>
<path id="Vector_161" d="M448.754 448.754L504.82 504.82" stroke="var(--stroke-0, #FFFEFC)" stroke-width="0.630746"/>
<path id="Vector_162" d="M504.82 448.754L560.886 504.82" stroke="var(--stroke-0, #FFFEFC)" stroke-width="0.630746"/>
<path id="Vector_163" d="M560.886 448.754L616.953 504.82" stroke="var(--stroke-0, #FFFEFC)" stroke-width="0.630746"/>
<path id="Vector_164" d="M616.953 448.754L673.019 504.82" stroke="var(--stroke-0, #FFFEFC)" stroke-width="0.630746"/>
<path id="Vector_165" d="M673.019 448.754L729.085 504.82" stroke="var(--stroke-0, #FFFEFC)" stroke-width="0.630746"/>
<path id="Vector_166" d="M729.085 448.754L785.152 504.82" stroke="var(--stroke-0, #FFFEFC)" stroke-width="0.630746"/>
<path id="Vector_167" d="M785.152 448.754L841.218 504.82" stroke="var(--stroke-0, #FFFEFC)" stroke-width="0.630746"/>
<path id="Vector_168" d="M841.218 448.754L897.284 504.82" stroke="var(--stroke-0, #FFFEFC)" stroke-width="0.630746"/>
<path id="Vector_169" d="M897.284 448.754L953.351 504.82" stroke="var(--stroke-0, #FFFEFC)" stroke-width="0.630746"/>
<path id="Vector_170" d="M953.351 448.754L1009.42 504.82" stroke="var(--stroke-0, #FFFEFC)" stroke-width="0.630746"/>
<path id="Vector_171" d="M1009.42 448.754L1065.48 504.82" stroke="var(--stroke-0, #FFFEFC)" stroke-width="0.630746"/>
<path id="Vector_172" d="M0.223125 504.82L56.2895 560.886" stroke="var(--stroke-0, #FFFEFC)" stroke-width="0.630746"/>
<path id="Vector_173" d="M56.2894 504.82L112.356 560.886" stroke="var(--stroke-0, #FFFEFC)" stroke-width="0.630746"/>
<path id="Vector_174" d="M112.356 504.82L168.422 560.886" stroke="var(--stroke-0, #FFFEFC)" stroke-width="0.630746"/>
<path id="Vector_175" d="M168.422 504.82L224.488 560.886" stroke="var(--stroke-0, #FFFEFC)" stroke-width="0.630746"/>
<path id="Vector_176" d="M224.489 504.82L280.555 560.886" stroke="var(--stroke-0, #FFFEFC)" stroke-width="0.630746"/>
<path id="Vector_177" d="M280.555 504.82L336.621 560.886" stroke="var(--stroke-0, #FFFEFC)" stroke-width="0.630746"/>
<path id="Vector_178" d="M336.621 504.82L392.687 560.886" stroke="var(--stroke-0, #FFFEFC)" stroke-width="0.630746"/>
<path id="Vector_179" d="M392.687 504.82L448.754 560.886" stroke="var(--stroke-0, #FFFEFC)" stroke-width="0.630746"/>
<path id="Vector_180" d="M448.754 504.82L504.82 560.886" stroke="var(--stroke-0, #FFFEFC)" stroke-width="0.630746"/>
<path id="Vector_181" d="M504.82 504.82L560.886 560.886" stroke="var(--stroke-0, #FFFEFC)" stroke-width="0.630746"/>
<path id="Vector_182" d="M560.886 504.82L616.953 560.886" stroke="var(--stroke-0, #FFFEFC)" stroke-width="0.630746"/>
<path id="Vector_183" d="M616.953 504.82L673.019 560.886" stroke="var(--stroke-0, #FFFEFC)" stroke-width="0.630746"/>
<path id="Vector_184" d="M673.019 504.82L729.085 560.886" stroke="var(--stroke-0, #FFFEFC)" stroke-width="0.630746"/>
<path id="Vector_185" d="M729.085 504.82L785.152 560.886" stroke="var(--stroke-0, #FFFEFC)" stroke-width="0.630746"/>
<path id="Vector_186" d="M785.152 504.82L841.218 560.886" stroke="var(--stroke-0, #FFFEFC)" stroke-width="0.630746"/>
<path id="Vector_187" d="M841.218 504.82L897.284 560.886" stroke="var(--stroke-0, #FFFEFC)" stroke-width="0.630746"/>
<path id="Vector_188" d="M897.284 504.82L953.351 560.886" stroke="var(--stroke-0, #FFFEFC)" stroke-width="0.630746"/>
<path id="Vector_189" d="M953.351 504.82L1009.42 560.886" stroke="var(--stroke-0, #FFFEFC)" stroke-width="0.630746"/>
<path id="Vector_190" d="M1009.42 504.82L1065.48 560.886" stroke="var(--stroke-0, #FFFEFC)" stroke-width="0.630746"/>
<path id="Vector_191" d="M0.223125 560.886L56.2895 616.952" stroke="var(--stroke-0, #FFFEFC)" stroke-width="0.630746"/>
<path id="Vector_192" d="M56.2894 560.886L112.356 616.952" stroke="var(--stroke-0, #FFFEFC)" stroke-width="0.630746"/>
<path id="Vector_193" d="M112.356 560.886L168.422 616.952" stroke="var(--stroke-0, #FFFEFC)" stroke-width="0.630746"/>
<path id="Vector_194" d="M168.422 560.886L224.488 616.952" stroke="var(--stroke-0, #FFFEFC)" stroke-width="0.630746"/>
<path id="Vector_195" d="M224.489 560.886L280.555 616.952" stroke="var(--stroke-0, #FFFEFC)" stroke-width="0.630746"/>
<path id="Vector_196" d="M280.555 560.886L336.621 616.952" stroke="var(--stroke-0, #FFFEFC)" stroke-width="0.630746"/>
<path id="Vector_197" d="M336.621 560.886L392.687 616.952" stroke="var(--stroke-0, #FFFEFC)" stroke-width="0.630746"/>
<path id="Vector_198" d="M392.687 560.886L448.754 616.952" stroke="var(--stroke-0, #FFFEFC)" stroke-width="0.630746"/>
<path id="Vector_199" d="M448.754 560.886L504.82 616.952" stroke="var(--stroke-0, #FFFEFC)" stroke-width="0.630746"/>
<path id="Vector_200" d="M504.82 560.886L560.886 616.952" stroke="var(--stroke-0, #FFFEFC)" stroke-width="0.630746"/>
<path id="Vector_201" d="M560.886 560.886L616.953 616.952" stroke="var(--stroke-0, #FFFEFC)" stroke-width="0.630746"/>
<path id="Vector_202" d="M616.953 560.886L673.019 616.952" stroke="var(--stroke-0, #FFFEFC)" stroke-width="0.630746"/>
<path id="Vector_203" d="M673.019 560.886L729.085 616.952" stroke="var(--stroke-0, #FFFEFC)" stroke-width="0.630746"/>
<path id="Vector_204" d="M729.085 560.886L785.152 616.952" stroke="var(--stroke-0, #FFFEFC)" stroke-width="0.630746"/>
<path id="Vector_205" d="M785.152 560.886L841.218 616.952" stroke="var(--stroke-0, #FFFEFC)" stroke-width="0.630746"/>
<path id="Vector_206" d="M841.218 560.886L897.284 616.952" stroke="var(--stroke-0, #FFFEFC)" stroke-width="0.630746"/>
<path id="Vector_207" d="M897.284 560.886L953.351 616.952" stroke="var(--stroke-0, #FFFEFC)" stroke-width="0.630746"/>
<path id="Vector_208" d="M953.351 560.886L1009.42 616.952" stroke="var(--stroke-0, #FFFEFC)" stroke-width="0.630746"/>
<path id="Vector_209" d="M1009.42 560.886L1065.48 616.952" stroke="var(--stroke-0, #FFFEFC)" stroke-width="0.630746"/>
<path id="Vector_210" d="M0.223125 616.952L56.2895 673.019" stroke="var(--stroke-0, #FFFEFC)" stroke-width="0.630746"/>
<path id="Vector_211" d="M56.2894 616.952L112.356 673.019" stroke="var(--stroke-0, #FFFEFC)" stroke-width="0.630746"/>
<path id="Vector_212" d="M112.356 616.952L168.422 673.019" stroke="var(--stroke-0, #FFFEFC)" stroke-width="0.630746"/>
<path id="Vector_213" d="M168.422 616.952L224.488 673.019" stroke="var(--stroke-0, #FFFEFC)" stroke-width="0.630746"/>
<path id="Vector_214" d="M224.489 616.952L280.555 673.019" stroke="var(--stroke-0, #FFFEFC)" stroke-width="0.630746"/>
<path id="Vector_215" d="M280.555 616.952L336.621 673.019" stroke="var(--stroke-0, #FFFEFC)" stroke-width="0.630746"/>
<path id="Vector_216" d="M336.621 616.952L392.687 673.019" stroke="var(--stroke-0, #FFFEFC)" stroke-width="0.630746"/>
<path id="Vector_217" d="M392.687 616.952L448.754 673.019" stroke="var(--stroke-0, #FFFEFC)" stroke-width="0.630746"/>
<path id="Vector_218" d="M448.754 616.952L504.82 673.019" stroke="var(--stroke-0, #FFFEFC)" stroke-width="0.630746"/>
<path id="Vector_219" d="M504.82 616.952L560.886 673.019" stroke="var(--stroke-0, #FFFEFC)" stroke-width="0.630746"/>
<path id="Vector_220" d="M560.886 616.952L616.953 673.019" stroke="var(--stroke-0, #FFFEFC)" stroke-width="0.630746"/>
<path id="Vector_221" d="M616.953 616.952L673.019 673.019" stroke="var(--stroke-0, #FFFEFC)" stroke-width="0.630746"/>
<path id="Vector_222" d="M673.019 616.952L729.085 673.019" stroke="var(--stroke-0, #FFFEFC)" stroke-width="0.630746"/>
<path id="Vector_223" d="M729.085 616.952L785.152 673.019" stroke="var(--stroke-0, #FFFEFC)" stroke-width="0.630746"/>
<path id="Vector_224" d="M785.152 616.952L841.218 673.019" stroke="var(--stroke-0, #FFFEFC)" stroke-width="0.630746"/>
<path id="Vector_225" d="M841.218 616.952L897.284 673.019" stroke="var(--stroke-0, #FFFEFC)" stroke-width="0.630746"/>
<path id="Vector_226" d="M897.284 616.952L953.351 673.019" stroke="var(--stroke-0, #FFFEFC)" stroke-width="0.630746"/>
<path id="Vector_227" d="M953.351 616.952L1009.42 673.019" stroke="var(--stroke-0, #FFFEFC)" stroke-width="0.630746"/>
<path id="Vector_228" d="M1009.42 616.952L1065.48 673.019" stroke="var(--stroke-0, #FFFEFC)" stroke-width="0.630746"/>
<path id="Vector_229" d="M0.223125 673.019L56.2895 729.085" stroke="var(--stroke-0, #FFFEFC)" stroke-width="0.630746"/>
<path id="Vector_230" d="M56.2894 673.019L112.356 729.085" stroke="var(--stroke-0, #FFFEFC)" stroke-width="0.630746"/>
<path id="Vector_231" d="M112.356 673.019L168.422 729.085" stroke="var(--stroke-0, #FFFEFC)" stroke-width="0.630746"/>
<path id="Vector_232" d="M168.422 673.019L224.488 729.085" stroke="var(--stroke-0, #FFFEFC)" stroke-width="0.630746"/>
<path id="Vector_233" d="M224.489 673.019L280.555 729.085" stroke="var(--stroke-0, #FFFEFC)" stroke-width="0.630746"/>
<path id="Vector_234" d="M280.555 673.019L336.621 729.085" stroke="var(--stroke-0, #FFFEFC)" stroke-width="0.630746"/>
<path id="Vector_235" d="M336.621 673.019L392.687 729.085" stroke="var(--stroke-0, #FFFEFC)" stroke-width="0.630746"/>
<path id="Vector_236" d="M392.687 673.019L448.754 729.085" stroke="var(--stroke-0, #FFFEFC)" stroke-width="0.630746"/>
<path id="Vector_237" d="M448.754 673.019L504.82 729.085" stroke="var(--stroke-0, #FFFEFC)" stroke-width="0.630746"/>
<path id="Vector_238" d="M504.82 673.019L560.886 729.085" stroke="var(--stroke-0, #FFFEFC)" stroke-width="0.630746"/>
<path id="Vector_239" d="M560.886 673.019L616.953 729.085" stroke="var(--stroke-0, #FFFEFC)" stroke-width="0.630746"/>
<path id="Vector_240" d="M616.953 673.019L673.019 729.085" stroke="var(--stroke-0, #FFFEFC)" stroke-width="0.630746"/>
<path id="Vector_241" d="M673.019 673.019L729.085 729.085" stroke="var(--stroke-0, #FFFEFC)" stroke-width="0.630746"/>
<path id="Vector_242" d="M729.085 673.019L785.152 729.085" stroke="var(--stroke-0, #FFFEFC)" stroke-width="0.630746"/>
<path id="Vector_243" d="M785.152 673.019L841.218 729.085" stroke="var(--stroke-0, #FFFEFC)" stroke-width="0.630746"/>
<path id="Vector_244" d="M841.218 673.019L897.284 729.085" stroke="var(--stroke-0, #FFFEFC)" stroke-width="0.630746"/>
<path id="Vector_245" d="M897.284 673.019L953.351 729.085" stroke="var(--stroke-0, #FFFEFC)" stroke-width="0.630746"/>
<path id="Vector_246" d="M953.351 673.019L1009.42 729.085" stroke="var(--stroke-0, #FFFEFC)" stroke-width="0.630746"/>
<path id="Vector_247" d="M1009.42 673.019L1065.48 729.085" stroke="var(--stroke-0, #FFFEFC)" stroke-width="0.630746"/>
<path id="Vector_248" d="M0.223125 729.085L56.2895 785.151" stroke="var(--stroke-0, #FFFEFC)" stroke-width="0.630746"/>
<path id="Vector_249" d="M56.2894 729.085L112.356 785.151" stroke="var(--stroke-0, #FFFEFC)" stroke-width="0.630746"/>
<path id="Vector_250" d="M112.356 729.085L168.422 785.151" stroke="var(--stroke-0, #FFFEFC)" stroke-width="0.630746"/>
<path id="Vector_251" d="M168.422 729.085L224.488 785.151" stroke="var(--stroke-0, #FFFEFC)" stroke-width="0.630746"/>
<path id="Vector_252" d="M224.489 729.085L280.555 785.151" stroke="var(--stroke-0, #FFFEFC)" stroke-width="0.630746"/>
<path id="Vector_253" d="M280.555 729.085L336.621 785.151" stroke="var(--stroke-0, #FFFEFC)" stroke-width="0.630746"/>
<path id="Vector_254" d="M336.621 729.085L392.687 785.151" stroke="var(--stroke-0, #FFFEFC)" stroke-width="0.630746"/>
<path id="Vector_255" d="M392.687 729.085L448.754 785.151" stroke="var(--stroke-0, #FFFEFC)" stroke-width="0.630746"/>
<path id="Vector_256" d="M448.754 729.085L504.82 785.151" stroke="var(--stroke-0, #FFFEFC)" stroke-width="0.630746"/>
<path id="Vector_257" d="M504.82 729.085L560.886 785.151" stroke="var(--stroke-0, #FFFEFC)" stroke-width="0.630746"/>
<path id="Vector_258" d="M560.886 729.085L616.953 785.151" stroke="var(--stroke-0, #FFFEFC)" stroke-width="0.630746"/>
<path id="Vector_259" d="M616.953 729.085L673.019 785.151" stroke="var(--stroke-0, #FFFEFC)" stroke-width="0.630746"/>
<path id="Vector_260" d="M673.019 729.085L729.085 785.151" stroke="var(--stroke-0, #FFFEFC)" stroke-width="0.630746"/>
<path id="Vector_261" d="M729.085 729.085L785.152 785.151" stroke="var(--stroke-0, #FFFEFC)" stroke-width="0.630746"/>
<path id="Vector_262" d="M785.152 729.085L841.218 785.151" stroke="var(--stroke-0, #FFFEFC)" stroke-width="0.630746"/>
<path id="Vector_263" d="M841.218 729.085L897.284 785.151" stroke="var(--stroke-0, #FFFEFC)" stroke-width="0.630746"/>
<path id="Vector_264" d="M897.284 729.085L953.351 785.151" stroke="var(--stroke-0, #FFFEFC)" stroke-width="0.630746"/>
<path id="Vector_265" d="M953.351 729.085L1009.42 785.151" stroke="var(--stroke-0, #FFFEFC)" stroke-width="0.630746"/>
<path id="Vector_266" d="M1009.42 729.085L1065.48 785.151" stroke="var(--stroke-0, #FFFEFC)" stroke-width="0.630746"/>
<path id="Vector_267" d="M0.223125 785.151L56.2895 841.218" stroke="var(--stroke-0, #FFFEFC)" stroke-width="0.630746"/>
<path id="Vector_268" d="M56.2894 785.151L112.356 841.218" stroke="var(--stroke-0, #FFFEFC)" stroke-width="0.630746"/>
<path id="Vector_269" d="M112.356 785.151L168.422 841.218" stroke="var(--stroke-0, #FFFEFC)" stroke-width="0.630746"/>
<path id="Vector_270" d="M168.422 785.151L224.488 841.218" stroke="var(--stroke-0, #FFFEFC)" stroke-width="0.630746"/>
<path id="Vector_271" d="M224.489 785.151L280.555 841.218" stroke="var(--stroke-0, #FFFEFC)" stroke-width="0.630746"/>
<path id="Vector_272" d="M280.555 785.151L336.621 841.218" stroke="var(--stroke-0, #FFFEFC)" stroke-width="0.630746"/>
<path id="Vector_273" d="M336.621 785.151L392.687 841.218" stroke="var(--stroke-0, #FFFEFC)" stroke-width="0.630746"/>
<path id="Vector_274" d="M392.687 785.151L448.754 841.218" stroke="var(--stroke-0, #FFFEFC)" stroke-width="0.630746"/>
<path id="Vector_275" d="M448.754 785.151L504.82 841.218" stroke="var(--stroke-0, #FFFEFC)" stroke-width="0.630746"/>
<path id="Vector_276" d="M504.82 785.151L560.886 841.218" stroke="var(--stroke-0, #FFFEFC)" stroke-width="0.630746"/>
<path id="Vector_277" d="M560.886 785.151L616.953 841.218" stroke="var(--stroke-0, #FFFEFC)" stroke-width="0.630746"/>
<path id="Vector_278" d="M616.953 785.151L673.019 841.218" stroke="var(--stroke-0, #FFFEFC)" stroke-width="0.630746"/>
<path id="Vector_279" d="M673.019 785.151L729.085 841.218" stroke="var(--stroke-0, #FFFEFC)" stroke-width="0.630746"/>
<path id="Vector_280" d="M729.085 785.151L785.152 841.218" stroke="var(--stroke-0, #FFFEFC)" stroke-width="0.630746"/>
<path id="Vector_281" d="M785.152 785.151L841.218 841.218" stroke="var(--stroke-0, #FFFEFC)" stroke-width="0.630746"/>
<path id="Vector_282" d="M841.218 785.151L897.284 841.218" stroke="var(--stroke-0, #FFFEFC)" stroke-width="0.630746"/>
<path id="Vector_283" d="M897.284 785.151L953.351 841.218" stroke="var(--stroke-0, #FFFEFC)" stroke-width="0.630746"/>
<path id="Vector_284" d="M953.351 785.151L1009.42 841.218" stroke="var(--stroke-0, #FFFEFC)" stroke-width="0.630746"/>
<path id="Vector_285" d="M1009.42 785.151L1065.48 841.218" stroke="var(--stroke-0, #FFFEFC)" stroke-width="0.630746"/>
<path id="Vector_286" d="M0.223125 841.218L56.2895 897.284" stroke="var(--stroke-0, #FFFEFC)" stroke-width="0.630746"/>
<path id="Vector_287" d="M56.2894 841.218L112.356 897.284" stroke="var(--stroke-0, #FFFEFC)" stroke-width="0.630746"/>
<path id="Vector_288" d="M112.356 841.218L168.422 897.284" stroke="var(--stroke-0, #FFFEFC)" stroke-width="0.630746"/>
<path id="Vector_289" d="M168.422 841.218L224.488 897.284" stroke="var(--stroke-0, #FFFEFC)" stroke-width="0.630746"/>
<path id="Vector_290" d="M224.489 841.218L280.555 897.284" stroke="var(--stroke-0, #FFFEFC)" stroke-width="0.630746"/>
<path id="Vector_291" d="M280.555 841.218L336.621 897.284" stroke="var(--stroke-0, #FFFEFC)" stroke-width="0.630746"/>
<path id="Vector_292" d="M336.621 841.218L392.687 897.284" stroke="var(--stroke-0, #FFFEFC)" stroke-width="0.630746"/>
<path id="Vector_293" d="M392.687 841.218L448.754 897.284" stroke="var(--stroke-0, #FFFEFC)" stroke-width="0.630746"/>
<path id="Vector_294" d="M448.754 841.218L504.82 897.284" stroke="var(--stroke-0, #FFFEFC)" stroke-width="0.630746"/>
<path id="Vector_295" d="M504.82 841.218L560.886 897.284" stroke="var(--stroke-0, #FFFEFC)" stroke-width="0.630746"/>
<path id="Vector_296" d="M560.886 841.218L616.953 897.284" stroke="var(--stroke-0, #FFFEFC)" stroke-width="0.630746"/>
<path id="Vector_297" d="M616.953 841.218L673.019 897.284" stroke="var(--stroke-0, #FFFEFC)" stroke-width="0.630746"/>
<path id="Vector_298" d="M673.019 841.218L729.085 897.284" stroke="var(--stroke-0, #FFFEFC)" stroke-width="0.630746"/>
<path id="Vector_299" d="M729.085 841.218L785.152 897.284" stroke="var(--stroke-0, #FFFEFC)" stroke-width="0.630746"/>
<path id="Vector_300" d="M785.152 841.218L841.218 897.284" stroke="var(--stroke-0, #FFFEFC)" stroke-width="0.630746"/>
<path id="Vector_301" d="M841.218 841.218L897.284 897.284" stroke="var(--stroke-0, #FFFEFC)" stroke-width="0.630746"/>
<path id="Vector_302" d="M897.284 841.218L953.351 897.284" stroke="var(--stroke-0, #FFFEFC)" stroke-width="0.630746"/>
<path id="Vector_303" d="M953.351 841.218L1009.42 897.284" stroke="var(--stroke-0, #FFFEFC)" stroke-width="0.630746"/>
<path id="Vector_304" d="M1009.42 841.218L1065.48 897.284" stroke="var(--stroke-0, #FFFEFC)" stroke-width="0.630746"/>
<path id="Vector_305" d="M0.223125 897.284L56.2895 953.35" stroke="var(--stroke-0, #FFFEFC)" stroke-width="0.630746"/>
<path id="Vector_306" d="M56.2894 897.284L112.356 953.35" stroke="var(--stroke-0, #FFFEFC)" stroke-width="0.630746"/>
<path id="Vector_307" d="M112.356 897.284L168.422 953.35" stroke="var(--stroke-0, #FFFEFC)" stroke-width="0.630746"/>
<path id="Vector_308" d="M168.422 897.284L224.488 953.35" stroke="var(--stroke-0, #FFFEFC)" stroke-width="0.630746"/>
<path id="Vector_309" d="M224.489 897.284L280.555 953.35" stroke="var(--stroke-0, #FFFEFC)" stroke-width="0.630746"/>
<path id="Vector_310" d="M280.555 897.284L336.621 953.35" stroke="var(--stroke-0, #FFFEFC)" stroke-width="0.630746"/>
<path id="Vector_311" d="M336.621 897.284L392.687 953.35" stroke="var(--stroke-0, #FFFEFC)" stroke-width="0.630746"/>
<path id="Vector_312" d="M392.687 897.284L448.754 953.35" stroke="var(--stroke-0, #FFFEFC)" stroke-width="0.630746"/>
<path id="Vector_313" d="M448.754 897.284L504.82 953.35" stroke="var(--stroke-0, #FFFEFC)" stroke-width="0.630746"/>
<path id="Vector_314" d="M504.82 897.284L560.886 953.35" stroke="var(--stroke-0, #FFFEFC)" stroke-width="0.630746"/>
<path id="Vector_315" d="M560.886 897.284L616.953 953.35" stroke="var(--stroke-0, #FFFEFC)" stroke-width="0.630746"/>
<path id="Vector_316" d="M616.953 897.284L673.019 953.35" stroke="var(--stroke-0, #FFFEFC)" stroke-width="0.630746"/>
<path id="Vector_317" d="M673.019 897.284L729.085 953.35" stroke="var(--stroke-0, #FFFEFC)" stroke-width="0.630746"/>
<path id="Vector_318" d="M729.085 897.284L785.152 953.35" stroke="var(--stroke-0, #FFFEFC)" stroke-width="0.630746"/>
<path id="Vector_319" d="M785.152 897.284L841.218 953.35" stroke="var(--stroke-0, #FFFEFC)" stroke-width="0.630746"/>
<path id="Vector_320" d="M841.218 897.284L897.284 953.35" stroke="var(--stroke-0, #FFFEFC)" stroke-width="0.630746"/>
<path id="Vector_321" d="M897.284 897.284L953.351 953.35" stroke="var(--stroke-0, #FFFEFC)" stroke-width="0.630746"/>
<path id="Vector_322" d="M953.351 897.284L1009.42 953.35" stroke="var(--stroke-0, #FFFEFC)" stroke-width="0.630746"/>
<path id="Vector_323" d="M1009.42 897.284L1065.48 953.35" stroke="var(--stroke-0, #FFFEFC)" stroke-width="0.630746"/>
<path id="Vector_324" d="M0.223125 953.35L56.2895 1009.42" stroke="var(--stroke-0, #FFFEFC)" stroke-width="0.630746"/>
<path id="Vector_325" d="M56.2894 953.35L112.356 1009.42" stroke="var(--stroke-0, #FFFEFC)" stroke-width="0.630746"/>
<path id="Vector_326" d="M112.356 953.35L168.422 1009.42" stroke="var(--stroke-0, #FFFEFC)" stroke-width="0.630746"/>
<path id="Vector_327" d="M168.422 953.35L224.488 1009.42" stroke="var(--stroke-0, #FFFEFC)" stroke-width="0.630746"/>
<path id="Vector_328" d="M224.489 953.35L280.555 1009.42" stroke="var(--stroke-0, #FFFEFC)" stroke-width="0.630746"/>
<path id="Vector_329" d="M280.555 953.35L336.621 1009.42" stroke="var(--stroke-0, #FFFEFC)" stroke-width="0.630746"/>
<path id="Vector_330" d="M336.621 953.35L392.687 1009.42" stroke="var(--stroke-0, #FFFEFC)" stroke-width="0.630746"/>
<path id="Vector_331" d="M392.687 953.35L448.754 1009.42" stroke="var(--stroke-0, #FFFEFC)" stroke-width="0.630746"/>
<path id="Vector_332" d="M448.754 953.35L504.82 1009.42" stroke="var(--stroke-0, #FFFEFC)" stroke-width="0.630746"/>
<path id="Vector_333" d="M504.82 953.35L560.886 1009.42" stroke="var(--stroke-0, #FFFEFC)" stroke-width="0.630746"/>
<path id="Vector_334" d="M560.886 953.35L616.953 1009.42" stroke="var(--stroke-0, #FFFEFC)" stroke-width="0.630746"/>
<path id="Vector_335" d="M616.953 953.35L673.019 1009.42" stroke="var(--stroke-0, #FFFEFC)" stroke-width="0.630746"/>
<path id="Vector_336" d="M673.019 953.35L729.085 1009.42" stroke="var(--stroke-0, #FFFEFC)" stroke-width="0.630746"/>
<path id="Vector_337" d="M729.085 953.35L785.152 1009.42" stroke="var(--stroke-0, #FFFEFC)" stroke-width="0.630746"/>
<path id="Vector_338" d="M785.152 953.35L841.218 1009.42" stroke="var(--stroke-0, #FFFEFC)" stroke-width="0.630746"/>
<path id="Vector_339" d="M841.218 953.35L897.284 1009.42" stroke="var(--stroke-0, #FFFEFC)" stroke-width="0.630746"/>
<path id="Vector_340" d="M897.284 953.35L953.351 1009.42" stroke="var(--stroke-0, #FFFEFC)" stroke-width="0.630746"/>
<path id="Vector_341" d="M953.351 953.35L1009.42 1009.42" stroke="var(--stroke-0, #FFFEFC)" stroke-width="0.630746"/>
<path id="Vector_342" d="M1009.42 953.35L1065.48 1009.42" stroke="var(--stroke-0, #FFFEFC)" stroke-width="0.630746"/>
<path id="Vector_343" d="M0.223125 1009.42L56.2895 1065.48" stroke="var(--stroke-0, #FFFEFC)" stroke-width="0.630746"/>
<path id="Vector_344" d="M56.2894 1009.42L112.356 1065.48" stroke="var(--stroke-0, #FFFEFC)" stroke-width="0.630746"/>
<path id="Vector_345" d="M112.356 1009.42L168.422 1065.48" stroke="var(--stroke-0, #FFFEFC)" stroke-width="0.630746"/>
<path id="Vector_346" d="M168.422 1009.42L224.488 1065.48" stroke="var(--stroke-0, #FFFEFC)" stroke-width="0.630746"/>
<path id="Vector_347" d="M224.489 1009.42L280.555 1065.48" stroke="var(--stroke-0, #FFFEFC)" stroke-width="0.630746"/>
<path id="Vector_348" d="M280.555 1009.42L336.621 1065.48" stroke="var(--stroke-0, #FFFEFC)" stroke-width="0.630746"/>
<path id="Vector_349" d="M336.621 1009.42L392.687 1065.48" stroke="var(--stroke-0, #FFFEFC)" stroke-width="0.630746"/>
<path id="Vector_350" d="M392.687 1009.42L448.754 1065.48" stroke="var(--stroke-0, #FFFEFC)" stroke-width="0.630746"/>
<path id="Vector_351" d="M448.754 1009.42L504.82 1065.48" stroke="var(--stroke-0, #FFFEFC)" stroke-width="0.630746"/>
<path id="Vector_352" d="M504.82 1009.42L560.886 1065.48" stroke="var(--stroke-0, #FFFEFC)" stroke-width="0.630746"/>
<path id="Vector_353" d="M560.886 1009.42L616.953 1065.48" stroke="var(--stroke-0, #FFFEFC)" stroke-width="0.630746"/>
<path id="Vector_354" d="M616.953 1009.42L673.019 1065.48" stroke="var(--stroke-0, #FFFEFC)" stroke-width="0.630746"/>
<path id="Vector_355" d="M673.019 1009.42L729.085 1065.48" stroke="var(--stroke-0, #FFFEFC)" stroke-width="0.630746"/>
<path id="Vector_356" d="M729.085 1009.42L785.152 1065.48" stroke="var(--stroke-0, #FFFEFC)" stroke-width="0.630746"/>
<path id="Vector_357" d="M785.152 1009.42L841.218 1065.48" stroke="var(--stroke-0, #FFFEFC)" stroke-width="0.630746"/>
<path id="Vector_358" d="M841.218 1009.42L897.284 1065.48" stroke="var(--stroke-0, #FFFEFC)" stroke-width="0.630746"/>
<path id="Vector_359" d="M897.284 1009.42L953.351 1065.48" stroke="var(--stroke-0, #FFFEFC)" stroke-width="0.630746"/>
<path id="Vector_360" d="M953.351 1009.42L1009.42 1065.48" stroke="var(--stroke-0, #FFFEFC)" stroke-width="0.630746"/>
<path id="Vector_361" d="M1009.42 1009.42L1065.48 1065.48" stroke="var(--stroke-0, #FFFEFC)" stroke-width="0.630746"/>
</g>
</svg>
