<svg width="229" height="145" viewBox="0 0 229 145" fill="none" xmlns="http://www.w3.org/2000/svg">
<g filter="url(#filter0_dd_2517_28788)">
<rect x="18" y="2" width="193" height="109" rx="18" fill="#C8951A"/>
<rect x="18.5" y="2.5" width="192" height="108" rx="17.5" stroke="white" stroke-opacity="0.08"/>
<path d="M39.6251 35.0616C39.4651 35.0616 39.3851 35.003 39.3851 34.8856C39.3851 34.7896 39.4544 34.7256 39.5931 34.6936L39.9611 34.6296C40.1851 34.587 40.3291 34.5283 40.3931 34.4536C40.4677 34.379 40.5051 34.2296 40.5051 34.0056V24.5976C40.5051 24.3736 40.4677 24.2243 40.3931 24.1496C40.3291 24.075 40.1851 24.0163 39.9611 23.9736L39.5931 23.9096C39.4544 23.8776 39.3851 23.8136 39.3851 23.7176C39.3851 23.6003 39.4651 23.5416 39.6251 23.5416H42.5531C42.7131 23.5416 42.7931 23.6056 42.7931 23.7336C42.7931 23.8296 42.7344 23.8883 42.6171 23.9096L42.1851 23.9736C41.9611 24.0056 41.8117 24.0643 41.7371 24.1496C41.6731 24.235 41.6411 24.3896 41.6411 24.6136V33.5736C41.6411 33.9576 41.7477 34.235 41.9611 34.4056C42.1851 34.5763 42.4624 34.6616 42.7931 34.6616C43.0384 34.6616 43.2891 34.6136 43.5451 34.5176C43.8117 34.411 44.0517 34.219 44.2651 33.9416C44.4784 33.6536 44.6384 33.2376 44.7451 32.6936L44.9531 31.6216C44.9851 31.483 45.0651 31.4136 45.1931 31.4136C45.3424 31.4136 45.4064 31.5043 45.3851 31.6856L45.1931 34.6936C45.1717 34.939 45.0384 35.0616 44.7931 35.0616H39.6251ZM47.5144 25.3816C47.2904 25.3816 47.0984 25.3016 46.9384 25.1416C46.7891 24.9816 46.7144 24.779 46.7144 24.5336C46.7144 24.2883 46.7891 24.091 46.9384 23.9416C47.0984 23.7816 47.2904 23.7016 47.5144 23.7016C47.7384 23.7016 47.9251 23.7816 48.0744 23.9416C48.2238 24.091 48.2984 24.2883 48.2984 24.5336C48.2984 24.779 48.2238 24.9816 48.0744 25.1416C47.9251 25.3016 47.7384 25.3816 47.5144 25.3816ZM46.1704 35.0616C46.0104 35.0616 45.9304 35.003 45.9304 34.8856C45.9304 34.7896 45.9998 34.7256 46.1384 34.6936L46.3304 34.6616C46.5971 34.619 46.7678 34.555 46.8424 34.4696C46.9171 34.3736 46.9544 34.2136 46.9544 33.9896V28.6136C46.9544 28.4216 46.9224 28.2936 46.8584 28.2296C46.8051 28.155 46.7038 28.107 46.5544 28.0856L46.2184 28.0376C46.0798 28.027 46.0104 27.9683 46.0104 27.8616C46.0104 27.7763 46.0958 27.7176 46.2664 27.6856C46.5971 27.6323 46.8638 27.547 47.0664 27.4296C47.2691 27.3123 47.4664 27.1683 47.6584 26.9976C47.7544 26.9016 47.8344 26.8536 47.8984 26.8536C47.9944 26.8536 48.0424 26.9176 48.0424 27.0456V33.9896C48.0424 34.2136 48.0744 34.3736 48.1384 34.4696C48.2024 34.5656 48.3251 34.6243 48.5064 34.6456L48.9064 34.6936C49.0238 34.715 49.0824 34.7736 49.0824 34.8696C49.0824 34.9976 49.0024 35.0616 48.8424 35.0616H46.1704ZM50.6129 33.9896V27.7336C50.6129 27.4776 50.4849 27.3496 50.2289 27.3496H49.8609C49.7329 27.3496 49.6689 27.2963 49.6689 27.1896C49.6689 27.083 49.7329 27.0243 49.8609 27.0136C50.3623 26.9603 50.6129 26.7416 50.6129 26.3576V26.2616C50.6129 25.707 50.6929 25.1896 50.8529 24.7096C51.0236 24.2296 51.2636 23.8403 51.5729 23.5416C51.8929 23.243 52.2823 23.0936 52.7409 23.0936C53.1676 23.0936 53.5249 23.2163 53.8129 23.4616C54.1009 23.707 54.2449 24.0003 54.2449 24.3416C54.2449 24.5443 54.1916 24.699 54.0849 24.8056C53.9889 24.9016 53.8556 24.9496 53.6849 24.9496C53.4716 24.9496 53.3169 24.8803 53.2209 24.7416C53.1356 24.603 53.0663 24.4483 53.0129 24.2776C52.9596 24.0963 52.8903 23.9363 52.8049 23.7976C52.7303 23.659 52.5916 23.5896 52.3889 23.5896C52.1756 23.5896 52.0049 23.7123 51.8769 23.9576C51.7596 24.1923 51.7009 24.6403 51.7009 25.3016V26.7096C51.7009 26.8376 51.7649 26.9016 51.8929 26.9016H53.2689C53.4289 26.9016 53.5089 26.9763 53.5089 27.1256C53.5089 27.275 53.4289 27.3496 53.2689 27.3496H51.8929C51.7649 27.3496 51.7009 27.4136 51.7009 27.5416V33.9896C51.7009 34.2136 51.7329 34.3683 51.7969 34.4536C51.8716 34.539 52.0209 34.5923 52.2449 34.6136L53.0929 34.6936C53.2103 34.715 53.2689 34.7736 53.2689 34.8696C53.2689 34.9976 53.1889 35.0616 53.0289 35.0616H49.7009C49.5409 35.0616 49.4609 35.003 49.4609 34.8856C49.4609 34.7683 49.5303 34.7043 49.6689 34.6936L50.0689 34.6616C50.2929 34.6403 50.4369 34.5816 50.5009 34.4856C50.5756 34.379 50.6129 34.2136 50.6129 33.9896ZM55.9018 35.2056C55.5285 35.2056 55.2191 35.0776 54.9738 34.8216C54.7391 34.555 54.6218 34.123 54.6218 33.5256V27.5416C54.6218 27.4136 54.5578 27.3496 54.4298 27.3496H53.9658C53.7951 27.3496 53.7098 27.2856 53.7098 27.1576C53.7098 27.0723 53.7578 26.9976 53.8538 26.9336C54.2058 26.6883 54.4885 26.427 54.7018 26.1496C54.9151 25.8616 55.1018 25.4723 55.2618 24.9816C55.3365 24.7576 55.4271 24.6456 55.5338 24.6456C55.6511 24.6456 55.7098 24.731 55.7098 24.9016V26.6776C55.7098 26.827 55.7845 26.9016 55.9338 26.9016H56.9738C57.1445 26.9016 57.2298 26.9763 57.2298 27.1256C57.2298 27.275 57.1445 27.3496 56.9738 27.3496H55.9338C55.7845 27.3496 55.7098 27.4243 55.7098 27.5736V33.5416C55.7098 33.7763 55.7471 33.963 55.8218 34.1016C55.8965 34.2296 56.0351 34.2936 56.2378 34.2936C56.4618 34.2936 56.6431 34.1816 56.7818 33.9576C56.9311 33.7336 57.0271 33.371 57.0698 32.8696C57.0911 32.7203 57.1605 32.6456 57.2778 32.6456C57.4058 32.6456 57.4698 32.7256 57.4698 32.8856C57.4378 33.707 57.2671 34.299 56.9578 34.6616C56.6591 35.0243 56.3071 35.2056 55.9018 35.2056ZM61.7372 38.3416C61.4492 38.3416 61.2198 38.2403 61.0492 38.0376C60.8785 37.8456 60.7932 37.6216 60.7932 37.3656C60.7932 37.163 60.8518 36.9923 60.9692 36.8536C61.0865 36.715 61.2465 36.6456 61.4492 36.6456C61.6198 36.6456 61.7425 36.683 61.8172 36.7576C61.8918 36.8323 61.9452 36.9176 61.9772 37.0136C62.0092 37.1096 62.0412 37.195 62.0732 37.2696C62.1052 37.3443 62.1692 37.3816 62.2652 37.3816C62.3825 37.3816 62.4892 37.2963 62.5852 37.1256C62.6812 36.9656 62.8145 36.619 62.9852 36.0856C63.0918 35.7656 63.1558 35.4883 63.1772 35.2536C63.2092 35.019 63.2038 34.7683 63.1612 34.5016C63.1292 34.235 63.0492 33.9096 62.9212 33.5256L61.1772 27.9736C61.1025 27.7176 61.0278 27.5523 60.9532 27.4776C60.8892 27.403 60.7825 27.3496 60.6332 27.3176L60.3932 27.2696C60.2545 27.2376 60.1852 27.1683 60.1852 27.0616C60.1852 26.955 60.2598 26.9016 60.4092 26.9016H63.0492C63.1985 26.9016 63.2732 26.955 63.2732 27.0616C63.2732 27.179 63.2038 27.2483 63.0652 27.2696L62.8092 27.3016C62.5532 27.3336 62.3878 27.3976 62.3132 27.4936C62.2492 27.579 62.2545 27.739 62.3292 27.9736L63.7372 32.6616C63.7692 32.7683 63.8172 32.8216 63.8812 32.8216C63.9558 32.8216 64.0092 32.7683 64.0412 32.6616L65.4012 28.2616C65.4865 27.9736 65.5078 27.7603 65.4652 27.6216C65.4332 27.4723 65.2838 27.3763 65.0172 27.3336L64.6812 27.2696C64.5425 27.2376 64.4732 27.1683 64.4732 27.0616C64.4732 26.955 64.5478 26.9016 64.6972 26.9016H66.7292C66.8785 26.9016 66.9532 26.9603 66.9532 27.0776C66.9532 27.1843 66.8892 27.259 66.7612 27.3016L66.6172 27.3496C66.4572 27.403 66.3238 27.499 66.2172 27.6376C66.1105 27.7763 65.9985 28.0163 65.8812 28.3576L63.4972 35.7976C63.2625 36.5443 63.0492 37.099 62.8572 37.4616C62.6758 37.8243 62.4998 38.059 62.3292 38.1656C62.1585 38.283 61.9612 38.3416 61.7372 38.3416ZM69.8291 35.2056C69.2851 35.2056 68.7944 35.0243 68.3571 34.6616C67.9304 34.2883 67.5891 33.7816 67.3331 33.1416C67.0771 32.5016 66.9491 31.787 66.9491 30.9976C66.9491 30.2083 67.0771 29.499 67.3331 28.8696C67.5891 28.2403 67.9357 27.739 68.3731 27.3656C68.8104 26.9923 69.2957 26.8056 69.8291 26.8056C70.3731 26.8056 70.8584 26.9923 71.2851 27.3656C71.7224 27.739 72.0691 28.2403 72.3251 28.8696C72.5811 29.499 72.7091 30.2083 72.7091 30.9976C72.7091 31.787 72.5811 32.5016 72.3251 33.1416C72.0797 33.7816 71.7384 34.2883 71.3011 34.6616C70.8637 35.0243 70.3731 35.2056 69.8291 35.2056ZM69.8291 34.8056C70.9384 34.8056 71.4931 33.5363 71.4931 30.9976C71.4931 28.4696 70.9384 27.2056 69.8291 27.2056C68.7197 27.2056 68.1651 28.4696 68.1651 30.9976C68.1651 33.5363 68.7197 34.8056 69.8291 34.8056ZM75.8483 35.2056C75.5816 35.2056 75.3256 35.147 75.0803 35.0296C74.835 34.9123 74.6323 34.7256 74.4723 34.4696C74.3123 34.2136 74.2323 33.8723 74.2323 33.4456V27.8776C74.2323 27.6856 74.2003 27.5523 74.1363 27.4776C74.083 27.403 73.9816 27.3603 73.8323 27.3496L73.5603 27.3176C73.379 27.2963 73.2883 27.227 73.2883 27.1096C73.2883 26.971 73.3896 26.9016 73.5923 26.9016H75.0803C75.2403 26.9016 75.3203 26.9816 75.3203 27.1416V33.1096C75.3203 33.6003 75.411 33.9523 75.5923 34.1656C75.7843 34.3683 76.0456 34.4696 76.3763 34.4696C76.707 34.4696 77.0003 34.379 77.2563 34.1976C77.5123 34.0056 77.715 33.755 77.8643 33.4456C78.0243 33.1256 78.1043 32.779 78.1043 32.4056V27.8776C78.1043 27.6856 78.0723 27.5523 78.0083 27.4776C77.955 27.403 77.8536 27.3603 77.7043 27.3496L77.4323 27.3176C77.251 27.2963 77.1603 27.227 77.1603 27.1096C77.1603 26.971 77.2616 26.9016 77.4643 26.9016H78.9523C79.1123 26.9016 79.1923 26.9816 79.1923 27.1416V33.3496C79.1923 33.5416 79.219 33.675 79.2723 33.7496C79.3363 33.8136 79.443 33.8563 79.5923 33.8776L79.9283 33.9256C80.067 33.9363 80.1363 33.9896 80.1363 34.0856C80.1363 34.1816 80.051 34.2456 79.8803 34.2776C79.5496 34.3203 79.283 34.4056 79.0803 34.5336C78.8883 34.6616 78.7176 34.8163 78.5683 34.9976C78.4723 35.0936 78.3923 35.1416 78.3283 35.1416C78.2323 35.1416 78.1843 35.0776 78.1843 34.9496V34.2136C78.1843 34.1283 78.1523 34.0803 78.0883 34.0696C78.035 34.0483 77.9763 34.0696 77.9123 34.1336C77.5176 34.5283 77.1656 34.8056 76.8563 34.9656C76.5576 35.1256 76.2216 35.2056 75.8483 35.2056ZM82.8419 27.9256C83.2793 27.179 83.8073 26.8056 84.4259 26.8056C84.7779 26.8056 85.0393 26.9123 85.2099 27.1256C85.3806 27.3283 85.4659 27.5576 85.4659 27.8136C85.4659 28.0163 85.4126 28.1816 85.3059 28.3096C85.2099 28.4376 85.0553 28.5016 84.8419 28.5016C84.6713 28.5016 84.5433 28.4643 84.4579 28.3896C84.3833 28.3043 84.3193 28.2083 84.2659 28.1016C84.2233 27.995 84.1699 27.9043 84.1059 27.8296C84.0419 27.7443 83.9353 27.7016 83.7859 27.7016C83.5939 27.7016 83.4126 27.819 83.2419 28.0536C83.0713 28.2776 82.9273 28.5816 82.8099 28.9656C82.7033 29.3496 82.6499 29.787 82.6499 30.2776V33.9896C82.6499 34.2136 82.6819 34.3736 82.7459 34.4696C82.8206 34.5656 82.9699 34.6243 83.1939 34.6456L83.6259 34.6936C83.7433 34.715 83.8019 34.7736 83.8019 34.8696C83.8019 34.9976 83.7219 35.0616 83.5619 35.0616H80.8579C80.6979 35.0616 80.6179 35.003 80.6179 34.8856C80.6179 34.7896 80.6873 34.7256 80.8259 34.6936L81.0179 34.6616C81.2419 34.619 81.3859 34.555 81.4499 34.4696C81.5246 34.3736 81.5619 34.2136 81.5619 33.9896V28.6136C81.5619 28.4216 81.5299 28.2936 81.4659 28.2296C81.4126 28.155 81.3113 28.107 81.1619 28.0856L80.8259 28.0376C80.6873 28.027 80.6179 27.9683 80.6179 27.8616C80.6179 27.7763 80.7033 27.7176 80.8739 27.6856C81.2046 27.6323 81.4553 27.547 81.6259 27.4296C81.8073 27.3123 81.9939 27.1683 82.1859 26.9976C82.2819 26.9016 82.3619 26.8536 82.4259 26.8536C82.5219 26.8536 82.5699 26.9176 82.5699 27.0456V27.9096C82.5699 27.9843 82.6019 28.0323 82.6659 28.0536C82.7299 28.0643 82.7886 28.0216 82.8419 27.9256ZM90.5424 35.2056C90.1691 35.2056 89.8598 35.0776 89.6144 34.8216C89.3798 34.555 89.2624 34.123 89.2624 33.5256V27.5416C89.2624 27.4136 89.1984 27.3496 89.0704 27.3496H88.6064C88.4358 27.3496 88.3504 27.2856 88.3504 27.1576C88.3504 27.0723 88.3984 26.9976 88.4944 26.9336C88.8464 26.6883 89.1291 26.427 89.3424 26.1496C89.5558 25.8616 89.7424 25.4723 89.9024 24.9816C89.9771 24.7576 90.0678 24.6456 90.1744 24.6456C90.2918 24.6456 90.3504 24.731 90.3504 24.9016V26.6776C90.3504 26.827 90.4251 26.9016 90.5744 26.9016H91.6144C91.7851 26.9016 91.8704 26.9763 91.8704 27.1256C91.8704 27.275 91.7851 27.3496 91.6144 27.3496H90.5744C90.4251 27.3496 90.3504 27.4243 90.3504 27.5736V33.5416C90.3504 33.7763 90.3878 33.963 90.4624 34.1016C90.5371 34.2296 90.6758 34.2936 90.8784 34.2936C91.1024 34.2936 91.2838 34.1816 91.4224 33.9576C91.5718 33.7336 91.6678 33.371 91.7104 32.8696C91.7318 32.7203 91.8011 32.6456 91.9184 32.6456C92.0464 32.6456 92.1104 32.7256 92.1104 32.8856C92.0784 33.707 91.9078 34.299 91.5984 34.6616C91.2998 35.0243 90.9478 35.2056 90.5424 35.2056ZM94.2511 35.2056C93.8031 35.2056 93.4351 35.067 93.1471 34.7896C92.8591 34.5016 92.7151 34.123 92.7151 33.6536C92.7151 33.195 92.8591 32.763 93.1471 32.3576C93.4351 31.9416 93.8297 31.5683 94.3311 31.2376C94.8324 30.907 95.4031 30.6403 96.0431 30.4376C96.1817 30.395 96.2511 30.3043 96.2511 30.1656V28.7096C96.2511 28.1976 96.1711 27.835 96.0111 27.6216C95.8511 27.3976 95.6324 27.2856 95.3551 27.2856C95.0884 27.2856 94.8431 27.4083 94.6191 27.6536C94.4057 27.8883 94.2511 28.2883 94.1551 28.8536C94.1017 29.195 93.9844 29.4456 93.8031 29.6056C93.6324 29.755 93.4564 29.8296 93.2751 29.8296C92.9764 29.8296 92.8271 29.6803 92.8271 29.3816C92.8271 29.0723 92.9124 28.7683 93.0831 28.4696C93.2644 28.1603 93.4991 27.883 93.7871 27.6376C94.0751 27.3816 94.3897 27.179 94.7311 27.0296C95.0724 26.8803 95.4137 26.8056 95.7551 26.8056C96.8111 26.8056 97.3391 27.419 97.3391 28.6456V33.5416C97.3391 33.9896 97.4511 34.2136 97.6751 34.2136C97.8137 34.2136 97.9417 34.123 98.0591 33.9416C98.1764 33.7496 98.2351 33.4296 98.2351 32.9816C98.2351 32.811 98.3044 32.7256 98.4431 32.7256C98.5711 32.7256 98.6351 32.8163 98.6351 32.9976C98.6351 33.7763 98.4964 34.3416 98.2191 34.6936C97.9524 35.035 97.6484 35.2056 97.3071 35.2056C97.0511 35.2056 96.8484 35.1043 96.6991 34.9016C96.5497 34.6883 96.4484 34.4376 96.3951 34.1496C96.3844 34.043 96.3364 33.9896 96.2511 33.9896C96.1764 33.979 96.1017 34.027 96.0271 34.1336C95.7711 34.4856 95.5097 34.7523 95.2431 34.9336C94.9764 35.115 94.6457 35.2056 94.2511 35.2056ZM94.6831 34.4696C94.9604 34.4696 95.2164 34.3736 95.4511 34.1816C95.6857 33.979 95.8777 33.7123 96.0271 33.3816C96.1764 33.051 96.2511 32.6776 96.2511 32.2616V31.0936C96.2511 30.891 96.1391 30.8323 95.9151 30.9176C95.2644 31.1523 94.7577 31.4776 94.3951 31.8936C94.0431 32.299 93.8671 32.7896 93.8671 33.3656C93.8671 34.1016 94.1391 34.4696 94.6831 34.4696ZM99.0417 35.0616C98.9137 35.0616 98.8497 35.003 98.8497 34.8856C98.8497 34.779 98.9083 34.715 99.0257 34.6936L99.2497 34.6616C99.4737 34.6296 99.639 34.5656 99.7457 34.4696C99.8523 34.3736 99.9057 34.2136 99.9057 33.9896V24.8216C99.9057 24.6296 99.8737 24.4963 99.8097 24.4216C99.7563 24.347 99.655 24.3043 99.5057 24.2936L99.1377 24.2456C99.0203 24.2243 98.9617 24.1603 98.9617 24.0536C98.9617 23.947 99.0203 23.883 99.1377 23.8616C99.4363 23.7976 99.6923 23.723 99.9057 23.6376C100.119 23.5523 100.295 23.467 100.434 23.3816C100.604 23.275 100.732 23.2216 100.818 23.2216C100.935 23.2216 100.994 23.307 100.994 23.4776V33.9896C100.994 34.2136 101.026 34.3736 101.09 34.4696C101.164 34.555 101.314 34.6136 101.538 34.6456L101.906 34.6936C102.023 34.715 102.082 34.779 102.082 34.8856C102.082 35.003 102.018 35.0616 101.89 35.0616H99.0417ZM105.309 35.2056C104.797 35.2056 104.339 35.035 103.933 34.6936C103.528 34.3523 103.203 33.8723 102.957 33.2536C102.723 32.6243 102.605 31.899 102.605 31.0776C102.605 30.235 102.728 29.4936 102.973 28.8536C103.219 28.2136 103.555 27.7123 103.981 27.3496C104.408 26.987 104.883 26.8056 105.405 26.8056C106.035 26.8056 106.541 27.067 106.925 27.5896C107.32 28.1016 107.517 28.939 107.517 30.1016C107.517 30.4536 107.384 30.6296 107.117 30.6296H104.077C103.864 30.6296 103.757 30.7523 103.757 30.9976C103.757 32.1283 103.923 32.9763 104.253 33.5416C104.584 34.107 105.005 34.3896 105.517 34.3896C105.923 34.3896 106.253 34.2456 106.509 33.9576C106.765 33.6696 106.973 33.1843 107.133 32.5016C107.165 32.3843 107.235 32.3256 107.341 32.3256C107.469 32.3256 107.517 32.4323 107.485 32.6456C107.315 33.595 107.043 34.2616 106.669 34.6456C106.296 35.019 105.843 35.2056 105.309 35.2056ZM104.029 30.2296H105.645C106.157 30.2296 106.413 29.963 106.413 29.4296C106.413 28.7363 106.328 28.1923 106.157 27.7976C105.987 27.403 105.731 27.2056 105.389 27.2056C104.973 27.2056 104.621 27.4456 104.333 27.9256C104.056 28.4056 103.875 29.0883 103.789 29.9736C103.768 30.1443 103.848 30.2296 104.029 30.2296ZM108.405 35.0616C108.245 35.0616 108.165 35.003 108.165 34.8856C108.165 34.7896 108.234 34.7256 108.373 34.6936L108.565 34.6616C108.789 34.619 108.933 34.555 108.997 34.4696C109.071 34.3736 109.109 34.2136 109.109 33.9896V28.6136C109.109 28.4216 109.077 28.2936 109.013 28.2296C108.959 28.155 108.858 28.107 108.709 28.0856L108.373 28.0376C108.234 28.027 108.165 27.9683 108.165 27.8616C108.165 27.7763 108.25 27.7176 108.421 27.6856C108.751 27.6323 109.002 27.547 109.173 27.4296C109.354 27.3123 109.541 27.1683 109.733 26.9976C109.829 26.9016 109.909 26.8536 109.973 26.8536C110.069 26.8536 110.117 26.9176 110.117 27.0456V27.7656C110.117 27.8616 110.149 27.9256 110.213 27.9576C110.287 27.979 110.367 27.947 110.453 27.8616C110.879 27.4563 111.253 27.179 111.573 27.0296C111.903 26.8803 112.25 26.8056 112.613 26.8056C113.093 26.8056 113.477 26.9763 113.765 27.3176C114.053 27.6483 114.197 28.139 114.197 28.7896V33.9896C114.197 34.2136 114.229 34.3736 114.293 34.4696C114.367 34.555 114.517 34.6136 114.741 34.6456L115.093 34.6936C115.21 34.715 115.269 34.779 115.269 34.8856C115.269 35.003 115.205 35.0616 115.077 35.0616H112.389C112.239 35.0616 112.165 35.003 112.165 34.8856C112.165 34.779 112.223 34.715 112.341 34.6936L112.565 34.6616C112.789 34.6296 112.933 34.5656 112.997 34.4696C113.071 34.3736 113.109 34.2136 113.109 33.9896V28.9656C113.109 28.443 113.013 28.075 112.821 27.8616C112.629 27.6483 112.357 27.5416 112.005 27.5416C111.663 27.5416 111.354 27.643 111.077 27.8456C110.81 28.0376 110.597 28.299 110.437 28.6296C110.277 28.9496 110.197 29.307 110.197 29.7016V33.9896C110.197 34.2136 110.229 34.3736 110.293 34.4696C110.367 34.5656 110.517 34.6243 110.741 34.6456L111.173 34.6936C111.29 34.715 111.349 34.7736 111.349 34.8696C111.349 34.9976 111.269 35.0616 111.109 35.0616H108.405ZM117.792 35.2056C117.419 35.2056 117.11 35.0776 116.864 34.8216C116.63 34.555 116.512 34.123 116.512 33.5256V27.5416C116.512 27.4136 116.448 27.3496 116.32 27.3496H115.856C115.686 27.3496 115.6 27.2856 115.6 27.1576C115.6 27.0723 115.648 26.9976 115.744 26.9336C116.096 26.6883 116.379 26.427 116.592 26.1496C116.806 25.8616 116.992 25.4723 117.152 24.9816C117.227 24.7576 117.318 24.6456 117.424 24.6456C117.542 24.6456 117.6 24.731 117.6 24.9016V26.6776C117.6 26.827 117.675 26.9016 117.824 26.9016H118.864C119.035 26.9016 119.12 26.9763 119.12 27.1256C119.12 27.275 119.035 27.3496 118.864 27.3496H117.824C117.675 27.3496 117.6 27.4243 117.6 27.5736V33.5416C117.6 33.7763 117.638 33.963 117.712 34.1016C117.787 34.2296 117.926 34.2936 118.128 34.2936C118.352 34.2936 118.534 34.1816 118.672 33.9576C118.822 33.7336 118.918 33.371 118.96 32.8696C118.982 32.7203 119.051 32.6456 119.168 32.6456C119.296 32.6456 119.36 32.7256 119.36 32.8856C119.328 33.707 119.158 34.299 118.848 34.6616C118.55 35.0243 118.198 35.2056 117.792 35.2056ZM121.293 35.2056C121.058 35.2056 120.856 35.131 120.685 34.9816C120.525 34.8216 120.445 34.6136 120.445 34.3576C120.445 34.1123 120.525 33.915 120.685 33.7656C120.856 33.6056 121.058 33.5256 121.293 33.5256C121.506 33.5256 121.698 33.6056 121.869 33.7656C122.04 33.915 122.125 34.1123 122.125 34.3576C122.125 34.6136 122.04 34.8216 121.869 34.9816C121.698 35.131 121.506 35.2056 121.293 35.2056ZM39.6251 55.0616C39.4651 55.0616 39.3851 55.003 39.3851 54.8856C39.3851 54.7896 39.4544 54.7256 39.5931 54.6936L39.9611 54.6296C40.1851 54.587 40.3291 54.5283 40.3931 54.4536C40.4677 54.379 40.5051 54.2296 40.5051 54.0056V44.5976C40.5051 44.3736 40.4677 44.2243 40.3931 44.1496C40.3291 44.075 40.1851 44.0163 39.9611 43.9736L39.5931 43.9096C39.4544 43.8776 39.3851 43.8136 39.3851 43.7176C39.3851 43.6003 39.4651 43.5416 39.6251 43.5416H42.5531C42.7131 43.5416 42.7931 43.6056 42.7931 43.7336C42.7931 43.8296 42.7344 43.8883 42.6171 43.9096L42.1851 43.9736C41.9611 44.0056 41.8117 44.0643 41.7371 44.1496C41.6731 44.235 41.6411 44.3896 41.6411 44.6136V53.5736C41.6411 53.9576 41.7477 54.235 41.9611 54.4056C42.1851 54.5763 42.4624 54.6616 42.7931 54.6616C43.0384 54.6616 43.2891 54.6136 43.5451 54.5176C43.8117 54.411 44.0517 54.219 44.2651 53.9416C44.4784 53.6536 44.6384 53.2376 44.7451 52.6936L44.9531 51.6216C44.9851 51.483 45.0651 51.4136 45.1931 51.4136C45.3424 51.4136 45.4064 51.5043 45.3851 51.6856L45.1931 54.6936C45.1717 54.939 45.0384 55.0616 44.7931 55.0616H39.6251ZM47.6104 55.2056C47.1624 55.2056 46.7944 55.067 46.5064 54.7896C46.2184 54.5016 46.0744 54.123 46.0744 53.6536C46.0744 53.195 46.2184 52.763 46.5064 52.3576C46.7944 51.9416 47.1891 51.5683 47.6904 51.2376C48.1918 50.907 48.7624 50.6403 49.4024 50.4376C49.5411 50.395 49.6104 50.3043 49.6104 50.1656V48.7096C49.6104 48.1976 49.5304 47.835 49.3704 47.6216C49.2104 47.3976 48.9918 47.2856 48.7144 47.2856C48.4478 47.2856 48.2024 47.4083 47.9784 47.6536C47.7651 47.8883 47.6104 48.2883 47.5144 48.8536C47.4611 49.195 47.3438 49.4456 47.1624 49.6056C46.9918 49.755 46.8158 49.8296 46.6344 49.8296C46.3358 49.8296 46.1864 49.6803 46.1864 49.3816C46.1864 49.0723 46.2718 48.7683 46.4424 48.4696C46.6238 48.1603 46.8584 47.883 47.1464 47.6376C47.4344 47.3816 47.7491 47.179 48.0904 47.0296C48.4318 46.8803 48.7731 46.8056 49.1144 46.8056C50.1704 46.8056 50.6984 47.419 50.6984 48.6456V53.5416C50.6984 53.9896 50.8104 54.2136 51.0344 54.2136C51.1731 54.2136 51.3011 54.123 51.4184 53.9416C51.5358 53.7496 51.5944 53.4296 51.5944 52.9816C51.5944 52.811 51.6638 52.7256 51.8024 52.7256C51.9304 52.7256 51.9944 52.8163 51.9944 52.9976C51.9944 53.7763 51.8558 54.3416 51.5784 54.6936C51.3118 55.035 51.0078 55.2056 50.6664 55.2056C50.4104 55.2056 50.2078 55.1043 50.0584 54.9016C49.9091 54.6883 49.8078 54.4376 49.7544 54.1496C49.7438 54.043 49.6958 53.9896 49.6104 53.9896C49.5358 53.979 49.4611 54.027 49.3864 54.1336C49.1304 54.4856 48.8691 54.7523 48.6024 54.9336C48.3358 55.115 48.0051 55.2056 47.6104 55.2056ZM48.0424 54.4696C48.3198 54.4696 48.5758 54.3736 48.8104 54.1816C49.0451 53.979 49.2371 53.7123 49.3864 53.3816C49.5358 53.051 49.6104 52.6776 49.6104 52.2616V51.0936C49.6104 50.891 49.4984 50.8323 49.2744 50.9176C48.6238 51.1523 48.1171 51.4776 47.7544 51.8936C47.4024 52.299 47.2264 52.7896 47.2264 53.3656C47.2264 54.1016 47.4984 54.4696 48.0424 54.4696ZM52.5611 55.0616C52.4011 55.0616 52.3211 55.003 52.3211 54.8856C52.3211 54.7896 52.3904 54.7256 52.5291 54.6936L52.7211 54.6616C52.9451 54.619 53.0891 54.555 53.1531 54.4696C53.2277 54.3736 53.2651 54.2136 53.2651 53.9896V48.6136C53.2651 48.4216 53.2331 48.2936 53.1691 48.2296C53.1157 48.155 53.0144 48.107 52.8651 48.0856L52.5291 48.0376C52.3904 48.027 52.3211 47.9683 52.3211 47.8616C52.3211 47.7763 52.4064 47.7176 52.5771 47.6856C52.9077 47.6323 53.1584 47.547 53.3291 47.4296C53.5104 47.3123 53.6971 47.1683 53.8891 46.9976C53.9851 46.9016 54.0651 46.8536 54.1291 46.8536C54.2251 46.8536 54.2731 46.9176 54.2731 47.0456V47.7656C54.2731 47.8616 54.3051 47.9256 54.3691 47.9576C54.4437 47.979 54.5237 47.947 54.6091 47.8616C55.0357 47.4563 55.4091 47.179 55.7291 47.0296C56.0597 46.8803 56.4064 46.8056 56.7691 46.8056C57.2491 46.8056 57.6331 46.9763 57.9211 47.3176C58.2091 47.6483 58.3531 48.139 58.3531 48.7896V53.9896C58.3531 54.2136 58.3851 54.3736 58.4491 54.4696C58.5237 54.555 58.6731 54.6136 58.8971 54.6456L59.2491 54.6936C59.3664 54.715 59.4251 54.779 59.4251 54.8856C59.4251 55.003 59.3611 55.0616 59.2331 55.0616H56.5451C56.3957 55.0616 56.3211 55.003 56.3211 54.8856C56.3211 54.779 56.3797 54.715 56.4971 54.6936L56.7211 54.6616C56.9451 54.6296 57.0891 54.5656 57.1531 54.4696C57.2277 54.3736 57.2651 54.2136 57.2651 53.9896V48.9656C57.2651 48.443 57.1691 48.075 56.9771 47.8616C56.7851 47.6483 56.5131 47.5416 56.1611 47.5416C55.8197 47.5416 55.5104 47.643 55.2331 47.8456C54.9664 48.0376 54.7531 48.299 54.5931 48.6296C54.4331 48.9496 54.3531 49.307 54.3531 49.7016V53.9896C54.3531 54.2136 54.3851 54.3736 54.4491 54.4696C54.5237 54.5656 54.6731 54.6243 54.8971 54.6456L55.3291 54.6936C55.4464 54.715 55.5051 54.7736 55.5051 54.8696C55.5051 54.9976 55.4251 55.0616 55.2651 55.0616H52.5611ZM62.4927 55.2056C62.0233 55.2056 61.602 55.0456 61.2287 54.7256C60.866 54.395 60.5833 53.9416 60.3807 53.3656C60.178 52.779 60.0767 52.1016 60.0767 51.3336C60.0767 50.4376 60.2153 49.6536 60.4927 48.9816C60.77 48.299 61.154 47.7656 61.6447 47.3816C62.1353 46.9976 62.69 46.8056 63.3087 46.8056C63.458 46.8056 63.6073 46.8216 63.7567 46.8536C63.906 46.875 64.05 46.9176 64.1887 46.9816C64.3593 47.067 64.4447 47.0296 64.4447 46.8696V44.8216C64.4447 44.6296 64.4127 44.4963 64.3487 44.4216C64.2953 44.347 64.194 44.3043 64.0447 44.2936L63.6287 44.2456C63.5113 44.2243 63.4527 44.1603 63.4527 44.0536C63.4527 43.947 63.5113 43.883 63.6287 43.8616C63.97 43.7976 64.242 43.723 64.4447 43.6376C64.658 43.5523 64.834 43.467 64.9727 43.3816C65.1433 43.275 65.2713 43.2216 65.3567 43.2216C65.474 43.2216 65.5327 43.307 65.5327 43.4776V53.5416C65.5327 53.9896 65.6447 54.2136 65.8687 54.2136C66.0073 54.2136 66.1353 54.123 66.2527 53.9416C66.37 53.7496 66.4287 53.4296 66.4287 52.9816C66.4287 52.811 66.498 52.7256 66.6367 52.7256C66.7647 52.7256 66.8287 52.8163 66.8287 52.9976C66.8287 53.7763 66.6953 54.3416 66.4287 54.6936C66.162 55.035 65.858 55.2056 65.5167 55.2056C65.2073 55.2056 64.9727 55.1043 64.8127 54.9016C64.6527 54.6883 64.546 54.4376 64.4927 54.1496C64.482 54.0643 64.4447 54.0216 64.3807 54.0216C64.3167 54.011 64.258 54.0483 64.2047 54.1336C63.906 54.5496 63.634 54.8323 63.3887 54.9816C63.1433 55.131 62.8447 55.2056 62.4927 55.2056ZM62.8447 54.4696C63.122 54.4696 63.378 54.379 63.6127 54.1976C63.858 54.0056 64.0553 53.7496 64.2047 53.4296C64.3647 53.1096 64.4447 52.7523 64.4447 52.3576V48.7576C64.4447 48.2776 64.3327 47.899 64.1087 47.6216C63.8953 47.3443 63.6127 47.2056 63.2607 47.2056C62.6633 47.2056 62.178 47.5576 61.8047 48.2616C61.442 48.955 61.2607 49.9043 61.2607 51.1096C61.2607 52.2083 61.3993 53.0456 61.6767 53.6216C61.9647 54.187 62.354 54.4696 62.8447 54.4696ZM71.9799 55.2056C71.6066 55.2056 71.2973 55.0776 71.0519 54.8216C70.8173 54.555 70.6999 54.123 70.6999 53.5256V47.5416C70.6999 47.4136 70.6359 47.3496 70.5079 47.3496H70.0439C69.8733 47.3496 69.7879 47.2856 69.7879 47.1576C69.7879 47.0723 69.8359 46.9976 69.9319 46.9336C70.2839 46.6883 70.5666 46.427 70.7799 46.1496C70.9933 45.8616 71.1799 45.4723 71.3399 44.9816C71.4146 44.7576 71.5053 44.6456 71.6119 44.6456C71.7293 44.6456 71.7879 44.731 71.7879 44.9016V46.6776C71.7879 46.827 71.8626 46.9016 72.0119 46.9016H73.0519C73.2226 46.9016 73.3079 46.9763 73.3079 47.1256C73.3079 47.275 73.2226 47.3496 73.0519 47.3496H72.0119C71.8626 47.3496 71.7879 47.4243 71.7879 47.5736V53.5416C71.7879 53.7763 71.8253 53.963 71.8999 54.1016C71.9746 54.2296 72.1133 54.2936 72.3159 54.2936C72.5399 54.2936 72.7213 54.1816 72.8599 53.9576C73.0093 53.7336 73.1053 53.371 73.1479 52.8696C73.1693 52.7203 73.2386 52.6456 73.3559 52.6456C73.4839 52.6456 73.5479 52.7256 73.5479 52.8856C73.5159 53.707 73.3453 54.299 73.0359 54.6616C72.7373 55.0243 72.3853 55.2056 71.9799 55.2056ZM74.2006 55.0616C74.0726 55.0616 74.0086 55.003 74.0086 54.8856C74.0086 54.779 74.0672 54.715 74.1846 54.6936L74.4086 54.6616C74.6326 54.6296 74.7766 54.5656 74.8406 54.4696C74.9152 54.3736 74.9526 54.2136 74.9526 53.9896V44.8216C74.9526 44.6296 74.9206 44.5016 74.8566 44.4376C74.8032 44.363 74.7019 44.315 74.5526 44.2936L74.2166 44.2456C74.0992 44.2243 74.0406 44.1603 74.0406 44.0536C74.0406 43.947 74.0992 43.883 74.2166 43.8616C74.5152 43.7976 74.7659 43.723 74.9686 43.6376C75.1712 43.5523 75.3419 43.467 75.4806 43.3816C75.6512 43.275 75.7792 43.2216 75.8646 43.2216C75.9819 43.2216 76.0406 43.307 76.0406 43.4776V47.7176C76.0406 47.8136 76.0726 47.8723 76.1366 47.8936C76.2006 47.9043 76.2806 47.867 76.3766 47.7816C76.7819 47.4083 77.1392 47.1523 77.4486 47.0136C77.7579 46.875 78.0832 46.8056 78.4246 46.8056C78.9259 46.8056 79.3206 46.9763 79.6086 47.3176C79.8966 47.6483 80.0406 48.139 80.0406 48.7896V53.9896C80.0406 54.2136 80.0726 54.3736 80.1366 54.4696C80.2112 54.555 80.3606 54.6136 80.5846 54.6456L80.9366 54.6936C81.0539 54.715 81.1126 54.779 81.1126 54.8856C81.1126 55.003 81.0486 55.0616 80.9206 55.0616H78.2326C78.0832 55.0616 78.0086 55.003 78.0086 54.8856C78.0086 54.779 78.0672 54.715 78.1846 54.6936L78.4086 54.6616C78.6326 54.6296 78.7766 54.5656 78.8406 54.4696C78.9152 54.3736 78.9526 54.2136 78.9526 53.9896V48.9656C78.9526 48.443 78.8566 48.075 78.6646 47.8616C78.4726 47.6483 78.2006 47.5416 77.8486 47.5416C77.5072 47.5416 77.1979 47.643 76.9206 47.8456C76.6539 48.0376 76.4406 48.299 76.2806 48.6296C76.1206 48.9496 76.0406 49.307 76.0406 49.7016V53.9896C76.0406 54.2136 76.0726 54.3736 76.1366 54.4696C76.2112 54.5656 76.3606 54.6243 76.5846 54.6456L77.0166 54.6936C77.1339 54.715 77.1926 54.779 77.1926 54.8856C77.1926 55.003 77.1286 55.0616 77.0006 55.0616H74.2006ZM84.3562 55.2056C83.8442 55.2056 83.3855 55.035 82.9802 54.6936C82.5748 54.3523 82.2495 53.8723 82.0042 53.2536C81.7695 52.6243 81.6522 51.899 81.6522 51.0776C81.6522 50.235 81.7748 49.4936 82.0202 48.8536C82.2655 48.2136 82.6015 47.7123 83.0282 47.3496C83.4548 46.987 83.9295 46.8056 84.4522 46.8056C85.0815 46.8056 85.5882 47.067 85.9722 47.5896C86.3668 48.1016 86.5642 48.939 86.5642 50.1016C86.5642 50.4536 86.4308 50.6296 86.1642 50.6296H83.1242C82.9108 50.6296 82.8042 50.7523 82.8042 50.9976C82.8042 52.1283 82.9695 52.9763 83.3002 53.5416C83.6308 54.107 84.0522 54.3896 84.5642 54.3896C84.9695 54.3896 85.3002 54.2456 85.5562 53.9576C85.8122 53.6696 86.0202 53.1843 86.1802 52.5016C86.2122 52.3843 86.2815 52.3256 86.3882 52.3256C86.5162 52.3256 86.5642 52.4323 86.5322 52.6456C86.3615 53.595 86.0895 54.2616 85.7162 54.6456C85.3428 55.019 84.8895 55.2056 84.3562 55.2056ZM83.0762 50.2296H84.6922C85.2042 50.2296 85.4602 49.963 85.4602 49.4296C85.4602 48.7363 85.3748 48.1923 85.2042 47.7976C85.0335 47.403 84.7775 47.2056 84.4362 47.2056C84.0202 47.2056 83.6682 47.4456 83.3802 47.9256C83.1028 48.4056 82.9215 49.0883 82.8362 49.9736C82.8148 50.1443 82.8948 50.2296 83.0762 50.2296ZM92.1544 47.9256C92.5918 47.179 93.1198 46.8056 93.7384 46.8056C94.0904 46.8056 94.3518 46.9123 94.5224 47.1256C94.6931 47.3283 94.7784 47.5576 94.7784 47.8136C94.7784 48.0163 94.7251 48.1816 94.6184 48.3096C94.5224 48.4376 94.3678 48.5016 94.1544 48.5016C93.9838 48.5016 93.8558 48.4643 93.7704 48.3896C93.6958 48.3043 93.6318 48.2083 93.5784 48.1016C93.5358 47.995 93.4824 47.9043 93.4184 47.8296C93.3544 47.7443 93.2478 47.7016 93.0984 47.7016C92.9064 47.7016 92.7251 47.819 92.5544 48.0536C92.3838 48.2776 92.2398 48.5816 92.1224 48.9656C92.0158 49.3496 91.9624 49.787 91.9624 50.2776V53.9896C91.9624 54.2136 91.9944 54.3736 92.0584 54.4696C92.1331 54.5656 92.2824 54.6243 92.5064 54.6456L92.9384 54.6936C93.0558 54.715 93.1144 54.7736 93.1144 54.8696C93.1144 54.9976 93.0344 55.0616 92.8744 55.0616H90.1704C90.0104 55.0616 89.9304 55.003 89.9304 54.8856C89.9304 54.7896 89.9998 54.7256 90.1384 54.6936L90.3304 54.6616C90.5544 54.619 90.6984 54.555 90.7624 54.4696C90.8371 54.3736 90.8744 54.2136 90.8744 53.9896V48.6136C90.8744 48.4216 90.8424 48.2936 90.7784 48.2296C90.7251 48.155 90.6238 48.107 90.4744 48.0856L90.1384 48.0376C89.9998 48.027 89.9304 47.9683 89.9304 47.8616C89.9304 47.7763 90.0158 47.7176 90.1864 47.6856C90.5171 47.6323 90.7678 47.547 90.9384 47.4296C91.1198 47.3123 91.3064 47.1683 91.4984 46.9976C91.5944 46.9016 91.6744 46.8536 91.7384 46.8536C91.8344 46.8536 91.8824 46.9176 91.8824 47.0456V47.9096C91.8824 47.9843 91.9144 48.0323 91.9784 48.0536C92.0424 48.0643 92.1011 48.0216 92.1544 47.9256ZM98.0322 55.2056C97.4882 55.2056 96.9975 55.0243 96.5602 54.6616C96.1335 54.2883 95.7922 53.7816 95.5362 53.1416C95.2802 52.5016 95.1522 51.787 95.1522 50.9976C95.1522 50.2083 95.2802 49.499 95.5362 48.8696C95.7922 48.2403 96.1388 47.739 96.5762 47.3656C97.0135 46.9923 97.4988 46.8056 98.0322 46.8056C98.5762 46.8056 99.0615 46.9923 99.4882 47.3656C99.9255 47.739 100.272 48.2403 100.528 48.8696C100.784 49.499 100.912 50.2083 100.912 50.9976C100.912 51.787 100.784 52.5016 100.528 53.1416C100.283 53.7816 99.9415 54.2883 99.5042 54.6616C99.0668 55.0243 98.5762 55.2056 98.0322 55.2056ZM98.0322 54.8056C99.1415 54.8056 99.6962 53.5363 99.6962 50.9976C99.6962 48.4696 99.1415 47.2056 98.0322 47.2056C96.9228 47.2056 96.3682 48.4696 96.3682 50.9976C96.3682 53.5363 96.9228 54.8056 98.0322 54.8056ZM101.635 55.0616C101.507 55.0616 101.443 55.003 101.443 54.8856C101.443 54.779 101.502 54.715 101.619 54.6936L101.843 54.6616C102.067 54.6296 102.233 54.5656 102.339 54.4696C102.446 54.3736 102.499 54.2136 102.499 53.9896V44.8216C102.499 44.6296 102.467 44.4963 102.403 44.4216C102.35 44.347 102.249 44.3043 102.099 44.2936L101.731 44.2456C101.614 44.2243 101.555 44.1603 101.555 44.0536C101.555 43.947 101.614 43.883 101.731 43.8616C102.03 43.7976 102.286 43.723 102.499 43.6376C102.713 43.5523 102.889 43.467 103.027 43.3816C103.198 43.275 103.326 43.2216 103.411 43.2216C103.529 43.2216 103.587 43.307 103.587 43.4776V53.9896C103.587 54.2136 103.619 54.3736 103.683 54.4696C103.758 54.555 103.907 54.6136 104.131 54.6456L104.499 54.6936C104.617 54.715 104.675 54.779 104.675 54.8856C104.675 55.003 104.611 55.0616 104.483 55.0616H101.635ZM107.903 55.2056C107.391 55.2056 106.932 55.035 106.527 54.6936C106.122 54.3523 105.796 53.8723 105.551 53.2536C105.316 52.6243 105.199 51.899 105.199 51.0776C105.199 50.235 105.322 49.4936 105.567 48.8536C105.812 48.2136 106.148 47.7123 106.575 47.3496C107.002 46.987 107.476 46.8056 107.999 46.8056C108.628 46.8056 109.135 47.067 109.519 47.5896C109.914 48.1016 110.111 48.939 110.111 50.1016C110.111 50.4536 109.978 50.6296 109.711 50.6296H106.671C106.458 50.6296 106.351 50.7523 106.351 50.9976C106.351 52.1283 106.516 52.9763 106.847 53.5416C107.178 54.107 107.599 54.3896 108.111 54.3896C108.516 54.3896 108.847 54.2456 109.103 53.9576C109.359 53.6696 109.567 53.1843 109.727 52.5016C109.759 52.3843 109.828 52.3256 109.935 52.3256C110.063 52.3256 110.111 52.4323 110.079 52.6456C109.908 53.595 109.636 54.2616 109.263 54.6456C108.89 55.019 108.436 55.2056 107.903 55.2056ZM106.623 50.2296H108.239C108.751 50.2296 109.007 49.963 109.007 49.4296C109.007 48.7363 108.922 48.1923 108.751 47.7976C108.58 47.403 108.324 47.2056 107.983 47.2056C107.567 47.2056 107.215 47.4456 106.927 47.9256C106.65 48.4056 106.468 49.0883 106.383 49.9736C106.362 50.1443 106.442 50.2296 106.623 50.2296ZM112.231 55.2056C111.996 55.2056 111.793 55.131 111.623 54.9816C111.463 54.8216 111.383 54.6136 111.383 54.3576C111.383 54.1123 111.463 53.915 111.623 53.7656C111.793 53.6056 111.996 53.5256 112.231 53.5256C112.444 53.5256 112.636 53.6056 112.807 53.7656C112.977 53.915 113.063 54.1123 113.063 54.3576C113.063 54.6136 112.977 54.8216 112.807 54.9816C112.636 55.131 112.444 55.2056 112.231 55.2056Z" fill="white"/>
<rect x="39.0811" y="70.0616" width="155.31" height="30" rx="15" fill="white" fill-opacity="0.2"/>
<g clip-path="url(#clip0_2517_28788)">
<path d="M56.0811 87.5616C58.0141 87.5616 59.5811 85.9946 59.5811 84.0616C59.5811 82.1286 58.0141 80.5616 56.0811 80.5616C54.1481 80.5616 52.5811 82.1286 52.5811 84.0616C52.5811 85.9946 54.1481 87.5616 56.0811 87.5616Z" stroke="white" stroke-opacity="0.5" stroke-width="1.4"/>
<path d="M59.0811 87.0616L61.0811 89.0616" stroke="white" stroke-opacity="0.5" stroke-width="1.4" stroke-linecap="round"/>
</g>
<path d="M71.2041 89.13C70.9355 89.13 70.7646 88.9542 70.7646 88.6759V82.4698C70.7646 82.1915 70.9355 82.0157 71.2041 82.0157H74.6953C74.9443 82.0157 75.1152 82.1769 75.1152 82.4113C75.1152 82.6456 74.9443 82.8068 74.6953 82.8068H71.6436V85.2286H74.4219C74.666 85.2286 74.8369 85.3849 74.8369 85.6193C74.8369 85.8536 74.666 86.0099 74.4219 86.0099H71.6436V88.6759C71.6436 88.9542 71.4727 89.13 71.2041 89.13ZM76.3848 83.129C76.0967 83.129 75.8574 82.8898 75.8574 82.6017C75.8574 82.3087 76.0967 82.0743 76.3848 82.0743C76.6777 82.0743 76.917 82.3087 76.917 82.6017C76.917 82.8898 76.6777 83.129 76.3848 83.129ZM76.3848 89.1495C76.1357 89.1495 75.96 88.964 75.96 88.6954V84.3497C75.96 84.0812 76.1357 83.8956 76.3848 83.8956C76.6338 83.8956 76.8096 84.0812 76.8096 84.3497V88.6954C76.8096 88.964 76.6338 89.1495 76.3848 89.1495ZM78.3818 89.1495C78.1328 89.1495 77.957 88.964 77.957 88.6954V84.3253C77.957 84.0714 78.123 83.8956 78.3574 83.8956C78.5918 83.8956 78.7578 84.0714 78.7578 84.3253V84.7941H78.7773C79.0605 84.2472 79.6025 83.8956 80.3887 83.8956C81.502 83.8956 82.1465 84.6134 82.1465 85.7657V88.6954C82.1465 88.964 81.9707 89.1495 81.7217 89.1495C81.4727 89.1495 81.2969 88.964 81.2969 88.6954V85.9171C81.2969 85.0968 80.9111 84.6476 80.1299 84.6476C79.3291 84.6476 78.8066 85.214 78.8066 86.0734V88.6954C78.8066 88.964 78.6309 89.1495 78.3818 89.1495ZM85.1543 89.1495C83.8604 89.1495 82.9814 88.1144 82.9814 86.5226C82.9814 84.9308 83.8555 83.8956 85.1348 83.8956C85.8623 83.8956 86.4482 84.2521 86.751 84.8087H86.7705V82.382C86.7705 82.1134 86.9463 81.9279 87.1953 81.9279C87.4443 81.9279 87.6201 82.1134 87.6201 82.382V88.7345C87.6201 88.9786 87.4492 89.1495 87.2051 89.1495C86.9658 89.1495 86.7705 88.9835 86.7705 88.7345V88.1534H86.7559C86.4775 88.7589 85.9502 89.1495 85.1543 89.1495ZM85.3154 88.4025C86.1895 88.4025 86.7754 87.6603 86.7754 86.5226C86.7754 85.3898 86.1895 84.6427 85.3154 84.6427C84.417 84.6427 83.8506 85.3751 83.8506 86.5226C83.8506 87.6749 84.417 88.4025 85.3154 88.4025ZM91.3164 90.9611C90.9062 90.9611 90.6768 90.8097 90.6768 90.5411C90.6768 90.3556 90.8037 90.2286 91.0186 90.2286C91.1406 90.2286 91.1748 90.2335 91.3066 90.2335C91.6289 90.2335 91.9365 90.0382 92.1367 89.423L92.2539 89.0665L90.5059 84.5109C90.4766 84.4279 90.4619 84.3497 90.4619 84.2863C90.4619 84.0519 90.6426 83.8956 90.8867 83.8956C91.0869 83.8956 91.2139 83.9835 91.292 84.2081L92.6934 88.212H92.708L94.1143 84.2081C94.1924 83.9835 94.3047 83.8956 94.5146 83.8956C94.7588 83.8956 94.9297 84.0568 94.9297 84.2863C94.9297 84.3497 94.915 84.4279 94.8857 84.5109L93.0107 89.4181C92.5713 90.5851 92.1562 90.9611 91.3164 90.9611ZM97.6396 89.1495C96.2334 89.1495 95.2861 88.1388 95.2861 86.5226C95.2861 84.9015 96.2334 83.8956 97.6396 83.8956C99.041 83.8956 99.9883 84.9015 99.9883 86.5226C99.9883 88.1388 99.041 89.1495 97.6396 89.1495ZM97.6396 88.4025C98.5381 88.4025 99.124 87.7189 99.124 86.5226C99.124 85.3263 98.5381 84.6427 97.6396 84.6427C96.7412 84.6427 96.1504 85.3263 96.1504 86.5226C96.1504 87.7189 96.7412 88.4025 97.6396 88.4025ZM102.581 89.1495C101.473 89.1495 100.823 88.4318 100.823 87.2794V84.3497C100.823 84.0812 100.999 83.8956 101.248 83.8956C101.497 83.8956 101.673 84.0812 101.673 84.3497V87.1281C101.673 87.9532 102.059 88.3976 102.845 88.3976C103.67 88.3976 104.168 87.8312 104.168 86.9669V84.3497C104.168 84.0812 104.344 83.8956 104.593 83.8956C104.842 83.8956 105.018 84.0812 105.018 84.3497V88.7198C105.018 88.964 104.861 89.1495 104.617 89.1495C104.373 89.1495 104.212 88.964 104.212 88.7198V88.2365H104.192C103.89 88.8224 103.362 89.1495 102.581 89.1495ZM106.546 89.1495C106.297 89.1495 106.121 88.964 106.121 88.6954V84.3253C106.121 84.0714 106.287 83.8956 106.521 83.8956C106.756 83.8956 106.922 84.0714 106.922 84.3253V84.8136H106.941C107.088 84.2863 107.586 83.8956 108.094 83.8956C108.279 83.8956 108.411 83.9396 108.494 84.0177C108.567 84.0861 108.602 84.1837 108.602 84.3009C108.602 84.4327 108.558 84.5304 108.47 84.5988C108.382 84.672 108.25 84.7062 108.064 84.7062C107.298 84.7062 106.971 85.2579 106.971 85.9073V88.6954C106.971 88.964 106.795 89.1495 106.546 89.1495ZM111.683 89.1495C111.424 89.1495 111.258 88.9542 111.258 88.6954V84.3253C111.258 84.0714 111.424 83.8956 111.658 83.8956C111.893 83.8956 112.059 84.0714 112.059 84.3253V84.7941H112.078C112.317 84.257 112.835 83.8956 113.519 83.8956C114.212 83.8956 114.725 84.2472 114.944 84.8624H114.964C115.247 84.257 115.843 83.8956 116.556 83.8956C117.562 83.8956 118.211 84.5499 118.211 85.5558V88.6954C118.211 88.9542 118.045 89.1495 117.786 89.1495C117.527 89.1495 117.361 88.9542 117.361 88.6954V85.7511C117.361 85.0577 116.976 84.6476 116.307 84.6476C115.633 84.6476 115.159 85.1456 115.159 85.8341V88.6954C115.159 88.9542 114.993 89.1495 114.734 89.1495C114.476 89.1495 114.31 88.9542 114.31 88.6954V85.6583C114.31 85.048 113.899 84.6476 113.27 84.6476C112.596 84.6476 112.107 85.1749 112.107 85.8781V88.6954C112.107 88.9542 111.941 89.1495 111.683 89.1495ZM120.774 89.1495C119.764 89.1495 119.085 88.5392 119.085 87.6261C119.085 86.757 119.754 86.2101 120.926 86.1417L122.386 86.0587V85.6339C122.386 85.0138 121.976 84.6427 121.272 84.6427C120.721 84.6427 120.345 84.8429 120.062 85.3458C119.983 85.4874 119.871 85.5509 119.71 85.5509C119.49 85.5509 119.334 85.3995 119.334 85.17C119.334 85.0626 119.368 84.9406 119.437 84.8185C119.725 84.2618 120.467 83.8956 121.292 83.8956C122.483 83.8956 123.235 84.5402 123.235 85.5509V88.7198C123.235 88.9738 123.069 89.1495 122.835 89.1495C122.596 89.1495 122.43 88.9738 122.43 88.7198V88.1876H122.41C122.107 88.7687 121.458 89.1495 120.774 89.1495ZM120.965 88.4269C121.766 88.4269 122.386 87.8654 122.386 87.1329V86.7179L121.023 86.8009C120.34 86.8448 119.949 87.1476 119.949 87.6261C119.949 88.1095 120.354 88.4269 120.965 88.4269ZM124.588 87.8898V84.6818H124.163C123.919 84.6818 123.782 84.5548 123.782 84.3302C123.782 84.1105 123.919 83.9835 124.163 83.9835H124.588V83.1144C124.588 82.8458 124.764 82.6603 125.013 82.6603C125.262 82.6603 125.438 82.8458 125.438 83.1144V83.9835H126.092C126.336 83.9835 126.473 84.1105 126.473 84.3302C126.473 84.5548 126.336 84.6818 126.092 84.6818H125.438V87.7042C125.438 88.1339 125.589 88.339 126.014 88.3683L126.087 88.3732C126.365 88.3927 126.492 88.505 126.492 88.7052C126.492 88.964 126.346 89.1007 125.872 89.1007H125.818C124.998 89.1007 124.588 88.7003 124.588 87.8898ZM129.28 89.1495C127.874 89.1495 126.937 88.1388 126.937 86.5323C126.937 84.9357 127.864 83.8956 129.271 83.8956C130.228 83.8956 131.062 84.4376 131.258 85.1407C131.277 85.2042 131.287 85.2677 131.287 85.3214C131.287 85.546 131.146 85.6925 130.926 85.6925C130.74 85.6925 130.638 85.6144 130.521 85.3947C130.252 84.8917 129.866 84.6427 129.28 84.6427C128.396 84.6427 127.801 85.3849 127.801 86.5226C127.801 87.6896 128.406 88.4025 129.28 88.4025C129.891 88.4025 130.262 88.1388 130.525 87.6505C130.647 87.421 130.74 87.3527 130.926 87.3527C131.146 87.3527 131.292 87.504 131.292 87.7238C131.292 87.7872 131.277 87.8605 131.253 87.9386C131.009 88.6417 130.203 89.1495 129.28 89.1495ZM132.664 89.1495C132.415 89.1495 132.239 88.964 132.239 88.6954V82.3722C132.239 82.1085 132.41 81.9279 132.664 81.9279C132.923 81.9279 133.089 82.1085 133.089 82.3722V84.7941H133.108C133.392 84.2277 133.948 83.8956 134.72 83.8956C135.833 83.8956 136.507 84.6476 136.507 85.7804V88.6954C136.507 88.964 136.331 89.1495 136.082 89.1495C135.833 89.1495 135.657 88.964 135.657 88.6954V85.9366C135.657 85.131 135.252 84.6476 134.456 84.6476C133.611 84.6476 133.089 85.2238 133.089 86.1027V88.6954C133.089 88.964 132.913 89.1495 132.664 89.1495ZM139.91 87.8898V84.6818H139.485C139.241 84.6818 139.104 84.5548 139.104 84.3302C139.104 84.1105 139.241 83.9835 139.485 83.9835H139.91V83.1144C139.91 82.8458 140.086 82.6603 140.335 82.6603C140.584 82.6603 140.76 82.8458 140.76 83.1144V83.9835H141.414C141.658 83.9835 141.795 84.1105 141.795 84.3302C141.795 84.5548 141.658 84.6818 141.414 84.6818H140.76V87.7042C140.76 88.1339 140.911 88.339 141.336 88.3683L141.409 88.3732C141.688 88.3927 141.814 88.505 141.814 88.7052C141.814 88.964 141.668 89.1007 141.194 89.1007H141.141C140.32 89.1007 139.91 88.7003 139.91 87.8898ZM144.612 89.1495C143.206 89.1495 142.259 88.1388 142.259 86.5226C142.259 84.9015 143.206 83.8956 144.612 83.8956C146.014 83.8956 146.961 84.9015 146.961 86.5226C146.961 88.1388 146.014 89.1495 144.612 89.1495ZM144.612 88.4025C145.511 88.4025 146.097 87.7189 146.097 86.5226C146.097 85.3263 145.511 84.6427 144.612 84.6427C143.714 84.6427 143.123 85.3263 143.123 86.5226C143.123 87.7189 143.714 88.4025 144.612 88.4025ZM149.744 89.1495C148.45 89.1495 147.571 88.1144 147.571 86.5226C147.571 84.9308 148.445 83.8956 149.725 83.8956C150.452 83.8956 151.038 84.2521 151.341 84.8087H151.36V82.382C151.36 82.1134 151.536 81.9279 151.785 81.9279C152.034 81.9279 152.21 82.1134 152.21 82.382V88.7345C152.21 88.9786 152.039 89.1495 151.795 89.1495C151.556 89.1495 151.36 88.9835 151.36 88.7345V88.1534H151.346C151.067 88.7589 150.54 89.1495 149.744 89.1495ZM149.905 88.4025C150.779 88.4025 151.365 87.6603 151.365 86.5226C151.365 85.3898 150.779 84.6427 149.905 84.6427C149.007 84.6427 148.44 85.3751 148.44 86.5226C148.44 87.6749 149.007 88.4025 149.905 88.4025ZM154.837 89.1495C153.826 89.1495 153.147 88.5392 153.147 87.6261C153.147 86.757 153.816 86.2101 154.988 86.1417L156.448 86.0587V85.6339C156.448 85.0138 156.038 84.6427 155.335 84.6427C154.783 84.6427 154.407 84.8429 154.124 85.3458C154.046 85.4874 153.934 85.5509 153.772 85.5509C153.553 85.5509 153.396 85.3995 153.396 85.17C153.396 85.0626 153.431 84.9406 153.499 84.8185C153.787 84.2618 154.529 83.8956 155.354 83.8956C156.546 83.8956 157.298 84.5402 157.298 85.5509V88.7198C157.298 88.9738 157.132 89.1495 156.897 89.1495C156.658 89.1495 156.492 88.9738 156.492 88.7198V88.1876H156.473C156.17 88.7687 155.521 89.1495 154.837 89.1495ZM155.027 88.4269C155.828 88.4269 156.448 87.8654 156.448 87.1329V86.7179L155.086 86.8009C154.402 86.8448 154.012 87.1476 154.012 87.6261C154.012 88.1095 154.417 88.4269 155.027 88.4269ZM158.875 90.9611C158.465 90.9611 158.235 90.8097 158.235 90.5411C158.235 90.3556 158.362 90.2286 158.577 90.2286C158.699 90.2286 158.733 90.2335 158.865 90.2335C159.188 90.2335 159.495 90.0382 159.695 89.423L159.812 89.0665L158.064 84.5109C158.035 84.4279 158.021 84.3497 158.021 84.2863C158.021 84.0519 158.201 83.8956 158.445 83.8956C158.646 83.8956 158.772 83.9835 158.851 84.2081L160.252 88.212H160.267L161.673 84.2081C161.751 83.9835 161.863 83.8956 162.073 83.8956C162.317 83.8956 162.488 84.0568 162.488 84.2863C162.488 84.3497 162.474 84.4279 162.444 84.5109L160.569 89.4181C160.13 90.5851 159.715 90.9611 158.875 90.9611Z" fill="white" fill-opacity="0.5"/>
</g>
<defs>
<filter id="filter0_dd_2517_28788" x="0" y="0" width="229" height="145" filterUnits="userSpaceOnUse" color-interpolation-filters="sRGB">
<feFlood flood-opacity="0" result="BackgroundImageFix"/>
<feColorMatrix in="SourceAlpha" type="matrix" values="0 0 0 0 0 0 0 0 0 0 0 0 0 0 0 0 0 0 127 0" result="hardAlpha"/>
<feMorphology radius="6" operator="erode" in="SourceAlpha" result="effect1_dropShadow_2517_28788"/>
<feOffset dy="16"/>
<feGaussianBlur stdDeviation="12"/>
<feColorMatrix type="matrix" values="0 0 0 0 0.105882 0 0 0 0 0.141176 0 0 0 0 0.172549 0 0 0 0.16 0"/>
<feBlend mode="normal" in2="BackgroundImageFix" result="effect1_dropShadow_2517_28788"/>
<feColorMatrix in="SourceAlpha" type="matrix" values="0 0 0 0 0 0 0 0 0 0 0 0 0 0 0 0 0 0 127 0" result="hardAlpha"/>
<feMorphology radius="1" operator="erode" in="SourceAlpha" result="effect2_dropShadow_2517_28788"/>
<feOffset dy="2"/>
<feGaussianBlur stdDeviation="1"/>
<feColorMatrix type="matrix" values="0 0 0 0 0.105882 0 0 0 0 0.141176 0 0 0 0 0.172549 0 0 0 0.04 0"/>
<feBlend mode="normal" in2="effect1_dropShadow_2517_28788" result="effect2_dropShadow_2517_28788"/>
<feBlend mode="normal" in="SourceGraphic" in2="effect2_dropShadow_2517_28788" result="shape"/>
</filter>
<clipPath id="clip0_2517_28788">
<rect width="12" height="12" fill="white" transform="translate(51.0811 79.0616)"/>
</clipPath>
</defs>
</svg>
