<svg width="239" height="209" viewBox="0 0 239 209" fill="none" xmlns="http://www.w3.org/2000/svg">
<g filter="url(#filter0_dd_2517_28779)">
<rect width="165.37" height="127.916" rx="18" transform="matrix(0.991523 0.12993 -0.114294 0.993447 44.6826 21.8156)" fill="white" shape-rendering="crispEdges"/>
<rect x="0.438614" y="0.561689" width="164.37" height="126.916" rx="17.5" transform="matrix(0.991523 0.12993 -0.114294 0.993447 44.7505 21.7622)" stroke="black" stroke-opacity="0.06" shape-rendering="crispEdges"/>
<path d="M61.3566 56.9645C60.7805 56.8889 60.4822 56.4912 60.5516 55.8868L61.4452 48.1039C61.5403 47.2754 62.0852 46.8437 62.9189 46.9532C63.6306 47.0466 63.9894 47.397 64.2003 48.1968L65.9351 54.5394L65.9893 54.5465L69.1006 48.8403C69.4854 48.1256 69.9203 47.8725 70.6388 47.9668C71.4657 48.0754 71.8975 48.6285 71.8016 49.4638L70.908 57.2467C70.8386 57.8511 70.4592 58.1598 69.8831 58.0841C69.307 58.0085 69.0154 57.6117 69.0848 57.0073L69.7492 51.2211L69.6949 51.2139L66.5945 56.8251C66.3684 57.2366 66.0755 57.3911 65.6485 57.3351C65.2147 57.2781 64.9526 57.0438 64.8315 56.6005L63.0934 50.3471L63.0391 50.34L62.3748 56.1262C62.3054 56.7306 61.9327 57.0402 61.3566 56.9645ZM73.1941 61.1247C72.3266 61.0108 71.8971 60.6166 71.9657 60.019C72.0117 59.6183 72.3185 59.4035 72.7658 59.4622C72.9014 59.48 72.9751 59.4966 73.1107 59.5144C73.4564 59.5598 73.8463 59.4593 74.142 58.9811L74.2733 58.7364L72.6586 52.3062C72.6075 52.0927 72.5917 51.8701 72.6105 51.7071C72.6721 51.1705 73.1571 50.8413 73.74 50.9178C74.2618 50.9864 74.5072 51.2461 74.6036 51.8447L75.6043 57.0912L75.6381 57.0957L77.7975 52.2503C78.0233 51.7215 78.3353 51.5212 78.8436 51.588C79.413 51.6627 79.7632 52.0879 79.7031 52.6108C79.6844 52.7738 79.6173 52.9994 79.5276 53.1806L76.6007 58.9593C75.7069 60.7515 74.7869 61.3339 73.1941 61.1247ZM83.7517 59.7742C83.1078 59.6896 82.7735 59.2459 82.8515 58.5668L83.731 50.9061C83.8082 50.2338 84.233 49.8897 84.8769 49.9743L89.5264 50.5848C90.089 50.6587 90.4183 51.0259 90.3575 51.5556C90.2967 52.0854 89.8873 52.3556 89.3315 52.2826L85.7054 51.8065L85.4348 54.1631L88.8847 54.6161C89.393 54.6828 89.7044 55.027 89.6483 55.516C89.5921 56.005 89.2189 56.2593 88.7038 56.1917L85.2539 55.7387L84.9701 58.2107L88.5962 58.6869C89.152 58.7598 89.4881 59.128 89.4273 59.6577C89.3665 60.1874 88.9638 60.4586 88.4013 60.3847L83.7517 59.7742ZM91.2112 60.8984C90.6893 60.8299 90.3548 60.4482 90.4093 59.9728C90.4366 59.7351 90.533 59.5547 90.7516 59.3284L92.7149 57.2699L91.2863 54.7315C91.1658 54.5227 91.1207 54.3168 91.1472 54.0859C91.2041 53.5901 91.6536 53.27 92.1959 53.3412C92.5958 53.3937 92.7895 53.5639 93.0055 54.0197L94.1263 56.2419L94.167 56.2472L95.7286 54.391C96.0405 54.0115 96.2693 53.8761 96.6353 53.9241C97.1911 53.9971 97.5249 54.3856 97.4672 54.8882C97.4391 55.1327 97.3419 55.3198 97.1241 55.5394L95.2086 57.5421L96.628 60.1C96.7537 60.3233 96.7997 60.5223 96.7747 60.7397C96.7131 61.2762 96.2674 61.5623 95.732 61.492C95.3457 61.4413 95.1746 61.2534 94.9899 60.8845L93.795 58.5285L93.7543 58.5231L92.0929 60.4696C91.7735 60.8551 91.5637 60.9447 91.2112 60.8984ZM98.5412 64.3495C97.9651 64.2739 97.5922 63.8665 97.6701 63.1873L98.5856 55.2143C98.662 54.5487 99.1092 54.249 99.6785 54.3237C100.248 54.3985 100.614 54.805 100.537 55.4774L100.492 55.8713L100.532 55.8766C101.024 55.0725 101.891 54.6487 102.942 54.7867C104.785 55.0287 105.756 56.5832 105.486 58.933C105.217 61.276 103.929 62.5408 102.113 62.3023C101.056 62.1635 100.302 61.5406 100.01 60.6681L99.969 60.6627L99.6493 63.4472C99.5713 64.1263 99.1241 64.4261 98.5412 64.3495ZM101.598 60.6147C102.588 60.7446 103.307 59.9912 103.459 58.6669C103.61 57.3493 103.084 56.4186 102.095 56.2886C101.126 56.1614 100.389 56.9402 100.24 58.2441C100.089 59.5617 100.629 60.4874 101.598 60.6147ZM109.415 63.3025C107.144 63.0043 105.97 61.4232 106.241 59.0666C106.51 56.7236 108.043 55.4152 110.192 55.6973C112.252 55.9678 113.473 57.562 113.246 59.5383C113.183 60.0884 112.835 60.3598 112.286 60.2877L108.138 59.7431L108.128 59.8314C108.004 60.9112 108.573 61.7029 109.576 61.8347C110.302 61.9299 110.804 61.7477 111.412 61.1864C111.647 60.9967 111.832 60.9451 112.09 60.9789C112.517 61.035 112.831 61.352 112.779 61.807C112.761 61.9632 112.695 62.12 112.588 62.2714C112.004 63.1047 110.818 63.4867 109.415 63.3025ZM108.298 58.5301L111.382 58.935C111.45 57.9789 110.911 57.2808 110.044 57.1669C109.176 57.053 108.472 57.6086 108.298 58.5301ZM114.778 63.9929C114.181 63.9145 113.831 63.4894 113.907 62.8306L114.543 57.2889C114.615 56.6573 115.044 56.3413 115.613 56.4161C116.169 56.489 116.506 56.9056 116.434 57.5372L116.379 58.0126L116.42 58.0179C116.713 57.1396 117.371 56.6814 118.097 56.7766C118.361 56.8113 118.564 56.9 118.692 57.041C118.865 57.2153 118.932 57.4723 118.893 57.8118C118.857 58.1242 118.735 58.3495 118.526 58.4875C118.318 58.6256 118.023 58.6765 117.636 58.6326C116.733 58.5278 116.356 58.9953 116.257 59.8578L115.886 63.0905C115.81 63.7493 115.381 64.0721 114.778 63.9929ZM120.824 56.335C120.227 56.2567 119.819 55.7412 119.884 55.1707C119.95 54.5934 120.463 54.2057 121.059 54.284C121.656 54.3624 122.065 54.8711 121.999 55.4484C121.933 56.0188 121.42 56.4133 120.824 56.335ZM119.868 64.6612C119.251 64.5802 118.923 64.1442 118.997 63.499L119.628 57.998C119.702 57.3528 120.12 57.0079 120.737 57.0889C121.347 57.169 121.681 57.6127 121.607 58.2579L120.976 63.7589C120.902 64.404 120.478 64.7413 119.868 64.6612ZM125.519 65.417C123.248 65.1189 122.074 63.5378 122.345 61.1812C122.614 58.8382 124.147 57.5297 126.296 57.8119C128.356 58.0824 129.577 59.6766 129.35 61.6528C129.287 62.2029 128.939 62.4744 128.39 62.4023L124.242 61.8577L124.232 61.9459C124.108 63.0258 124.677 63.8175 125.68 63.9492C126.406 64.0444 126.908 63.8623 127.516 63.301C127.751 63.1112 127.936 63.0597 128.194 63.0935C128.621 63.1496 128.935 63.4666 128.883 63.9216C128.865 64.0778 128.799 64.2346 128.692 64.386C128.108 65.2193 126.922 65.6013 125.519 65.417ZM124.402 60.6447L127.486 61.0496C127.554 60.0935 127.015 59.3954 126.148 59.2815C125.28 59.1675 124.576 59.7232 124.402 60.6447ZM130.882 66.1074C130.305 66.0318 129.933 65.6243 130.011 64.9452L130.647 59.4035C130.718 58.7854 131.121 58.4523 131.717 58.5306C132.314 58.6089 132.663 59.0409 132.591 59.6657L132.545 60.0732L132.585 60.0785C133.075 59.226 133.864 58.8263 134.982 58.9732C136.596 59.185 137.387 60.3229 137.191 62.0276L136.754 65.8307C136.676 66.5099 136.222 66.8087 135.646 66.7331C135.063 66.6565 134.697 66.25 134.775 65.5708L135.164 62.182C135.274 61.2312 134.889 60.6291 134.001 60.5125C133.113 60.396 132.475 60.9741 132.367 61.9181L131.99 65.2051C131.912 65.8842 131.464 66.184 130.882 66.1074ZM141.203 67.4764C139.013 67.189 137.789 65.5668 138.06 63.2102C138.327 60.8807 139.878 59.5954 142.061 59.8819C143.518 60.0733 144.65 60.9389 144.925 62.0228C144.973 62.2015 144.993 62.3834 144.977 62.526C144.921 63.015 144.509 63.2504 144.041 63.189C143.648 63.1373 143.429 62.95 143.267 62.5633C142.981 61.8778 142.574 61.5279 141.943 61.4451C140.94 61.3134 140.228 62.061 140.067 63.4668C139.902 64.8998 140.426 65.7957 141.415 65.9257C142.106 66.0164 142.572 65.7329 142.937 65.2568C143.249 64.8773 143.485 64.736 143.905 64.7912C144.366 64.8517 144.704 65.2062 144.648 65.6952C144.63 65.8514 144.57 66.0091 144.46 66.1944C143.912 67.129 142.592 67.6589 141.203 67.4764ZM148.794 68.4732C146.523 68.1751 145.349 66.5939 145.62 64.2373C145.889 61.8943 147.422 60.5859 149.571 60.868C151.631 61.1386 152.852 62.7327 152.625 64.709C152.561 65.2591 152.214 65.5306 151.665 65.4585L147.517 64.9138L147.507 65.0021C147.383 66.0819 147.952 66.8737 148.955 67.0054C149.681 67.1006 150.183 66.9184 150.791 66.3571C151.026 66.1674 151.211 66.1158 151.468 66.1496C151.895 66.2057 152.21 66.5227 152.158 66.9778C152.14 67.134 152.074 67.2907 151.967 67.4422C151.383 68.2754 150.197 68.6574 148.794 68.4732ZM147.677 63.7008L150.761 64.1058C150.829 63.1496 150.29 62.4515 149.423 62.3376C148.555 62.2237 147.851 62.7793 147.677 63.7008Z" fill="#111111"/>
<path d="M187.82 65.4148L190.452 68.7858L183.819 73.9655L180.844 73.575L181.187 70.5945L187.82 65.4148Z" stroke="#387440" stroke-width="1.3" stroke-linecap="round" stroke-linejoin="round"/>
<rect width="126.999" height="5.99998" rx="2.99999" transform="matrix(0.991493 0.13019 -0.114067 0.993477 58.3877 67.5369)" fill="#F8F8F4"/>
<rect width="108.198" height="5.99998" rx="2.99999" transform="matrix(0.991493 0.13019 -0.114067 0.993477 54.6387 80.1542)" fill="#F8F8F4"/>
<rect width="76.5309" height="6.00003" rx="3.00001" transform="matrix(0.991493 0.13019 -0.114067 0.993477 53.1553 93.0695)" fill="#EBF1EC"/>
<g filter="url(#filter1_d_2517_28779)">
<rect width="126.999" height="29.9999" rx="10" transform="matrix(0.991493 0.13019 -0.114067 0.993477 53.1436 113.6)" fill="#387440" shape-rendering="crispEdges"/>
<path d="M95.1558 135.459L96.8476 135.515C96.8837 136.091 97.0396 136.531 97.3153 136.835C97.5948 137.14 97.996 137.326 98.5189 137.395C99.0727 137.468 99.5024 137.406 99.808 137.21C100.118 137.01 100.291 136.753 100.327 136.439C100.35 136.237 100.31 136.058 100.206 135.903C100.106 135.744 99.915 135.593 99.6327 135.45C99.4394 135.353 98.9947 135.169 98.2986 134.896C97.4032 134.546 96.7887 134.18 96.4552 133.797C95.9862 133.259 95.7905 132.652 95.8681 131.977C95.918 131.543 96.0865 131.153 96.3737 130.809C96.6653 130.461 97.0529 130.218 97.5365 130.081C98.024 129.944 98.595 129.919 99.2495 130.004C100.318 130.145 101.095 130.485 101.58 131.025C102.068 131.566 102.281 132.23 102.218 133.018L100.489 132.868C100.466 132.419 100.343 132.084 100.121 131.862C99.9034 131.636 99.5525 131.492 99.0683 131.428C98.5687 131.363 98.1657 131.414 97.8594 131.583C97.6622 131.691 97.5509 131.855 97.5255 132.077C97.5023 132.278 97.5677 132.462 97.7217 132.628C97.9176 132.839 98.4225 133.098 99.2363 133.406C100.05 133.714 100.644 134.001 101.019 134.267C101.397 134.529 101.678 134.859 101.86 135.258C102.047 135.652 102.109 136.119 102.047 136.659C101.991 137.148 101.803 137.588 101.483 137.979C101.163 138.371 100.743 138.638 100.223 138.783C99.7037 138.924 99.0741 138.945 98.3344 138.848C97.2577 138.707 96.4593 138.35 95.9393 137.777C95.4197 137.201 95.1585 136.428 95.1558 135.459ZM107.258 139.866L107.364 138.941C107.102 139.241 106.775 139.462 106.386 139.604C106 139.746 105.603 139.791 105.197 139.737C104.782 139.683 104.421 139.543 104.113 139.317C103.804 139.092 103.596 138.804 103.486 138.455C103.377 138.106 103.356 137.64 103.423 137.058L103.872 133.146L105.504 133.361L105.178 136.201C105.078 137.071 105.046 137.608 105.082 137.814C105.121 138.016 105.214 138.186 105.359 138.323C105.505 138.456 105.7 138.539 105.944 138.571C106.223 138.608 106.481 138.565 106.719 138.442C106.958 138.316 107.131 138.146 107.238 137.931C107.346 137.713 107.45 137.162 107.552 136.277L107.851 133.669L109.484 133.883L108.774 140.065L107.258 139.866ZM110.401 140.279L111.381 131.745L113.013 131.959L112.66 135.033C113.23 134.525 113.859 134.316 114.548 134.406C115.3 134.505 115.89 134.86 116.319 135.472C116.748 136.08 116.905 136.894 116.787 137.915C116.666 138.97 116.321 139.75 115.752 140.255C115.187 140.76 114.546 140.965 113.83 140.871C113.477 140.825 113.139 140.692 112.814 140.472C112.494 140.248 112.229 139.948 112.021 139.57L111.917 140.478L110.401 140.279ZM112.392 137.267C112.318 137.907 112.365 138.394 112.531 138.727C112.764 139.199 113.114 139.465 113.583 139.527C113.943 139.574 114.267 139.461 114.554 139.187C114.845 138.911 115.029 138.44 115.105 137.777C115.186 137.07 115.117 136.545 114.897 136.201C114.677 135.853 114.368 135.653 113.969 135.601C113.578 135.549 113.235 135.66 112.94 135.932C112.646 136.201 112.463 136.646 112.392 137.267ZM118.332 135.045L119.836 135.243L119.74 136.087C120.353 135.501 121.032 135.258 121.775 135.355C122.17 135.407 122.504 135.534 122.776 135.735C123.047 135.936 123.257 136.214 123.405 136.568C123.714 136.274 124.035 136.066 124.367 135.944C124.7 135.822 125.044 135.785 125.401 135.831C125.854 135.891 126.226 136.034 126.519 136.262C126.812 136.485 127.015 136.786 127.129 137.163C127.211 137.442 127.218 137.876 127.15 138.466L126.696 142.419L125.064 142.204L125.47 138.671C125.54 138.058 125.529 137.654 125.438 137.461C125.313 137.208 125.094 137.062 124.78 137.02C124.552 136.99 124.329 137.032 124.112 137.145C123.894 137.259 123.725 137.445 123.605 137.705C123.485 137.961 123.392 138.38 123.325 138.962L122.984 141.931L121.352 141.717L121.741 138.329C121.81 137.727 121.825 137.335 121.787 137.153C121.749 136.971 121.673 136.829 121.559 136.727C121.449 136.626 121.289 136.562 121.08 136.534C120.828 136.501 120.594 136.54 120.377 136.649C120.16 136.758 119.992 136.935 119.873 137.18C119.759 137.425 119.667 137.844 119.599 138.438L119.254 141.441L117.622 141.227L118.332 135.045ZM129.135 135.613L129.309 134.099L130.941 134.314L130.767 135.827L129.135 135.613ZM128.329 142.633L129.039 136.451L130.671 136.665L129.961 142.847L128.329 142.633ZM135.179 137.257L135.03 138.561L133.914 138.415L133.628 140.906C133.57 141.411 133.546 141.707 133.556 141.795C133.57 141.879 133.61 141.954 133.678 142.018C133.749 142.082 133.839 142.121 133.947 142.136C134.098 142.156 134.323 142.132 134.622 142.065L134.615 143.352C134.217 143.465 133.778 143.49 133.297 143.427C133.003 143.389 132.743 143.305 132.518 143.177C132.294 143.045 132.134 142.894 132.04 142.724C131.949 142.551 131.898 142.328 131.886 142.054C131.873 141.859 131.9 141.473 131.967 140.895L132.276 138.2L131.527 138.101L131.676 136.797L132.426 136.896L132.567 135.667L134.315 134.928L134.064 137.111L135.179 137.257Z" fill="white"/>
</g>
</g>
<defs>
<filter id="filter0_dd_2517_28779" x="-1.9375" y="-2.18445" width="242.589" height="212.564" filterUnits="userSpaceOnUse" color-interpolation-filters="sRGB">
<feFlood flood-opacity="0" result="BackgroundImageFix"/>
<feColorMatrix in="SourceAlpha" type="matrix" values="0 0 0 0 0 0 0 0 0 0 0 0 0 0 0 0 0 0 127 0" result="hardAlpha"/>
<feOffset dy="2"/>
<feComposite in2="hardAlpha" operator="out"/>
<feColorMatrix type="matrix" values="0 0 0 0 0 0 0 0 0 0 0 0 0 0 0 0 0 0 0.05 0"/>
<feBlend mode="normal" in2="BackgroundImageFix" result="effect1_dropShadow_2517_28779"/>
<feColorMatrix in="SourceAlpha" type="matrix" values="0 0 0 0 0 0 0 0 0 0 0 0 0 0 0 0 0 0 127 0" result="hardAlpha"/>
<feOffset dy="8"/>
<feGaussianBlur stdDeviation="16"/>
<feComposite in2="hardAlpha" operator="out"/>
<feColorMatrix type="matrix" values="0 0 0 0 0 0 0 0 0 0 0 0 0 0 0 0 0 0 0.1 0"/>
<feBlend mode="normal" in2="effect1_dropShadow_2517_28779" result="effect2_dropShadow_2517_28779"/>
<feBlend mode="normal" in="SourceGraphic" in2="effect2_dropShadow_2517_28779" result="shape"/>
</filter>
<filter id="filter1_d_2517_28779" x="49.7217" y="113.6" width="129.341" height="48.3383" filterUnits="userSpaceOnUse" color-interpolation-filters="sRGB">
<feFlood flood-opacity="0" result="BackgroundImageFix"/>
<feColorMatrix in="SourceAlpha" type="matrix" values="0 0 0 0 0 0 0 0 0 0 0 0 0 0 0 0 0 0 127 0" result="hardAlpha"/>
<feOffset dy="2"/>
<feComposite in2="hardAlpha" operator="out"/>
<feColorMatrix type="matrix" values="0 0 0 0 0.164706 0 0 0 0 0.341176 0 0 0 0 0.188235 0 0 0 1 0"/>
<feBlend mode="normal" in2="BackgroundImageFix" result="effect1_dropShadow_2517_28779"/>
<feBlend mode="normal" in="SourceGraphic" in2="effect1_dropShadow_2517_28779" result="shape"/>
</filter>
</defs>
</svg>
