<svg preserveAspectRatio="none" width="100%" height="100%" overflow="visible" style="display: block;" viewBox="0 0 12.9203 21.438" fill="none" xmlns="http://www.w3.org/2000/svg">
<path id="Vector" d="M9.51619 5.92355C9.55419 6.09083 9.59218 6.26423 9.63418 6.42335C9.65418 6.50699 9.67618 6.58247 9.69618 6.65183C9.71618 6.72323 9.73619 6.79668 9.76219 6.86604C9.85619 7.1496 9.97419 7.43111 10.1162 7.69019C10.4002 8.21243 10.7722 8.67347 11.2042 9.00599C11.4442 9.18755 11.7022 9.33239 11.9762 9.42419L12.0642 9.4548C12.7182 9.67512 13.0742 10.3952 12.8562 11.0623C12.7542 11.3765 12.5402 11.6254 12.2782 11.7743C11.9982 11.9334 11.7342 12.115 11.4962 12.3271C11.0022 12.7698 10.5902 13.3084 10.2022 13.9346C10.0082 14.2468 9.81819 14.5813 9.62619 14.9302L9.33219 15.4646C9.24219 15.6319 9.16619 15.7747 9.09219 15.9359C8.79819 16.5622 8.58419 17.215 8.49419 17.8555C8.40019 18.4961 8.42419 19.1142 8.56819 19.6752L5.63418 20.3239C5.40418 19.2672 5.15819 18.2452 4.83819 17.2884C4.45619 16.1399 3.97019 15.0893 3.31419 14.2121C2.66019 13.3308 1.85219 12.625 0.962187 12.2353C0.156187 11.8804 -0.217814 10.9256 0.130186 10.1035C0.284186 9.73835 0.554185 9.46091 0.878185 9.29567L0.954186 9.25692L1.31619 9.07127L1.49819 8.98151L1.67019 8.87339L2.01419 8.65715L2.33819 8.40827L2.50218 8.28587L2.65419 8.14511L2.95819 7.86767L3.23819 7.55963C3.28419 7.50863 3.33418 7.45967 3.37818 7.40663L3.50619 7.23935C3.59219 7.12715 3.68019 7.01904 3.76419 6.9048L4.00019 6.5478C4.08219 6.43152 4.15218 6.30503 4.22218 6.17855C4.29218 6.05207 4.36619 5.92763 4.43219 5.79911C4.55219 5.53187 4.69219 5.27687 4.79219 4.99535C4.84619 4.85663 4.90219 4.72199 4.95419 4.58123L5.09219 4.15487C5.29619 3.47555 5.56819 2.79215 5.76219 2.08223C5.86219 1.74767 5.99619 1.458 6.18819 1.2438C6.26419 1.2846 6.41619 1.37843 6.61219 1.36211C6.80819 1.34987 6.98818 1.20911 7.07818 1.03163C7.33418 0.495114 7.11819 0.0544704 7.41219 0.00143038C7.48619 -0.00672962 7.60419 0.0177554 7.76219 0.134035C7.91819 0.246235 8.10419 0.472673 8.21219 0.756233C8.26819 0.896993 8.30619 1.04387 8.33219 1.18667C8.34219 1.25195 8.35219 1.31723 8.36219 1.38455C8.37019 1.41515 8.37819 1.44575 8.38619 1.47839C8.41619 1.60691 8.43618 1.74563 8.44618 1.89659C8.48018 2.27807 8.44018 2.67587 8.39618 3.07367C8.36618 3.27155 8.32419 3.46943 8.28219 3.66527C8.26019 3.76319 8.23819 3.86111 8.21419 3.95699C8.18419 4.05287 8.15618 4.14875 8.12818 4.24259C7.65018 5.82359 6.95219 7.34543 5.97419 8.71427C5.48419 9.39767 4.90819 10.024 4.27619 10.5972C3.63419 11.1643 2.91619 11.6396 2.15619 12.0538L2.14819 9.42827C2.47619 9.55883 2.80419 9.69755 3.11419 9.86483C4.07819 10.3667 4.99819 11.0746 5.55819 11.9436C7.19019 14.465 7.97619 17.1823 8.42019 19.7568L8.43418 19.8343C8.56218 20.5769 8.07618 21.2868 7.34618 21.4174C6.62618 21.5459 5.94019 21.0624 5.79819 20.3362C5.73619 20.02 5.69218 19.6997 5.67818 19.3835C5.61418 18.084 5.87219 16.8416 6.30819 15.7237C6.52619 15.1648 6.79418 14.6242 7.09618 14.1244C7.36218 13.6837 7.63618 13.2227 7.94618 12.7596C8.33218 12.1823 8.77418 11.5948 9.30218 11.0644C9.82418 10.5299 10.4362 10.0729 11.0742 9.70571L11.3362 11.7396C10.6082 11.507 9.94818 11.1194 9.40218 10.636C8.85218 10.1545 8.40819 9.58739 8.05419 8.98559C7.87419 8.68367 7.72419 8.36951 7.58619 8.04923C7.45619 7.73099 7.33819 7.38827 7.25419 7.07819C7.07619 6.44783 6.94619 5.83175 6.83219 5.21159C6.69419 4.45067 6.63419 3.70199 6.68019 2.97371C6.72619 2.24747 6.87219 1.53755 7.17019 0.909233C7.23819 0.772553 7.32818 0.672592 7.42818 0.615472L7.42419 0.648113C7.44419 0.672593 7.44419 0.731756 7.41419 0.784796C7.38419 0.839876 7.33219 0.880671 7.29419 0.907191C7.21419 0.960231 7.17219 0.990832 7.16619 1.04183C7.16619 1.08671 7.18619 1.16628 7.35419 1.19892C7.43619 1.2132 7.57419 1.19891 7.71219 1.10711C7.85019 1.01939 7.94819 0.866391 7.98619 0.754191L7.99819 0.639951C8.11819 0.717471 8.20819 0.843952 8.25619 1.02959C8.48419 1.88843 8.72419 2.78807 8.96219 3.68363C9.15819 4.42415 9.26819 5.20751 9.46819 5.92967C9.48219 5.92763 9.49619 5.92559 9.51219 5.92355H9.51619Z" fill="var(--fill-0, white)" fill-opacity="0.2"/>
</svg>
