<svg preserveAspectRatio="none" width="100%" height="100%" overflow="visible" style="display: block;" viewBox="0 0 16.4321 14.3368" fill="none" xmlns="http://www.w3.org/2000/svg">
<path id="Vector" d="M14.7225 1.55353C15.2919 2.22433 15.7365 2.97703 16.0407 3.80773C16.3449 4.63063 16.4892 5.55883 16.4112 6.49093C16.3995 6.74833 16.3605 6.96283 16.3176 7.18123C16.2786 7.39963 16.2279 7.61414 16.1655 7.82084C16.0524 8.24204 15.9003 8.64374 15.7521 9.04154C15.3465 10.0945 14.7186 11.011 13.9776 11.7598C13.2327 12.5047 12.3708 13.1053 11.4192 13.5538C10.4637 14.0023 9.43409 14.2909 8.22119 14.3338C7.06289 14.365 5.9592 14.1466 4.9452 13.7449C3.7011 13.2379 2.5467 12.4696 1.5834 11.3269C1.3377 11.0578 1.1271 10.7068 0.916502 10.3909C0.815102 10.2232 0.725402 10.0321 0.635702 9.84883C0.549902 9.66163 0.4563 9.48613 0.39 9.27943C0.2535 8.87383 0.120897 8.46824 0.0701971 8.01974C0.0428971 7.79744 0.0039 7.57903 0 7.35673C0 7.13053 3.33287e-06 6.90823 0.0156033 6.68203C0.0156033 6.45583 0.0545919 6.23743 0.101392 6.02293C0.144292 5.80453 0.191098 5.59004 0.241798 5.37554C0.374398 4.97384 0.507003 4.57604 0.709803 4.20554C0.897003 3.82334 1.131 3.48403 1.3767 3.14863C1.6302 2.84053 1.8993 2.52853 2.1801 2.28283C2.4609 2.01373 2.7495 1.80703 3.042 1.59253C3.3267 1.40923 3.6231 1.21424 3.9078 1.06994C4.485 0.754036 5.04269 0.531738 5.58869 0.340638C6.25169 0.106638 6.9459 0.149538 7.5894 0.231438C8.2095 0.309438 8.697 0.968539 9.0753 1.87724C9.6213 3.20324 9.55889 4.73204 9.01289 5.20394C8.66579 5.51204 8.26019 5.60563 7.87799 5.63683C7.00049 5.69533 6.22439 5.99564 5.91629 6.36224C5.61209 6.69374 5.6706 7.13054 5.9631 7.15394C6.1152 7.20464 6.318 7.15003 6.2673 7.41133C6.2049 7.85203 6.63779 8.27714 7.10969 8.49164C7.59719 8.72174 8.1081 8.75293 8.5215 8.83873C8.8803 8.90113 9.3327 8.80364 9.7227 8.62814C10.1205 8.45264 10.4754 8.20693 10.7991 7.95343C11.0838 7.72723 11.3217 7.46593 11.4894 7.19683C11.5362 7.13053 11.5596 7.06033 11.6064 6.99013C11.6415 6.91993 11.661 6.84974 11.7 6.77564C11.7234 6.70154 11.739 6.62744 11.7663 6.55334C11.778 6.49094 11.7858 6.44023 11.8053 6.38173C11.8443 6.14383 11.7975 5.82403 11.6493 5.50423C11.505 5.18443 11.2671 4.87633 10.9902 4.64623C10.7679 4.45903 10.5924 4.26403 10.3662 3.95593C10.1361 3.65173 9.8319 3.25783 9.2508 2.84443C8.9895 2.65333 8.6814 2.28284 8.5176 1.88894C8.3538 1.49894 8.36159 1.06214 8.69699 0.793039C8.92709 0.598039 9.2001 0.46933 9.4848 0.33283C9.7695 0.20803 10.0737 0.133929 10.3896 0.0637294C10.6938 0.0208294 11.0175 -0.00647198 11.3295 0.00132802C11.6298 0.024728 11.9574 0.048139 12.2421 0.122239C13.2288 0.344539 13.9971 0.980234 14.6484 1.61593C14.6718 1.59643 14.6913 1.57694 14.7147 1.55744L14.7225 1.55353Z" fill="var(--fill-0, white)" fill-opacity="0.2"/>
</svg>
