<svg preserveAspectRatio="none" width="100%" height="100%" overflow="visible" style="display: block;" viewBox="0 0 15.8843 13.6151" fill="none" xmlns="http://www.w3.org/2000/svg">
<path id="Vector" d="M8.06142 0.00389935C9.23922 0.218399 10.5106 0.6162 11.6728 1.3143L11.9029 1.4508L12.1525 1.6185C12.3202 1.7316 12.4879 1.8447 12.6361 1.9734C12.9481 2.2152 13.225 2.4687 13.5136 2.7183C14.2624 3.3891 14.8708 4.1886 15.3154 5.1441C15.7522 6.0918 16.0096 7.2618 15.8224 8.5605C15.643 9.8592 14.8552 11.1696 13.8802 11.9535C12.8974 12.7647 11.8405 13.1586 10.8928 13.377C9.70332 13.6344 8.65812 13.6617 7.54272 13.5603C6.43512 13.4394 5.29241 13.1586 4.17701 12.5931C3.62321 12.3084 3.07722 11.9574 2.57412 11.5284C2.32062 11.3139 2.08662 11.0838 1.85262 10.8342C1.60692 10.5573 1.38462 10.2726 1.18962 9.9723C0.421324 8.775 0.00791721 7.4451 0.000117214 6.0138C-0.00768279 5.148 0.374523 4.251 0.932223 3.5256C1.20522 3.1785 1.58742 2.9874 2.01252 2.964C2.42592 2.9328 2.88612 3.0693 3.31512 3.2994C3.94692 3.6387 4.42662 4.1886 4.83222 4.6332C5.03112 4.8555 5.21441 5.0544 5.35871 5.2026C5.51471 5.3625 5.63172 5.4639 5.69802 5.5263C5.86962 5.6823 5.85792 5.7135 5.75652 5.8227C5.52252 6.0762 5.56541 6.6495 5.82281 6.9381C5.85401 6.9771 5.88131 7.0122 5.92031 7.0356L5.97102 7.0785L6.04512 7.1292C6.13872 7.1994 6.24792 7.2501 6.36492 7.293C6.59892 7.3788 6.87192 7.4139 7.16442 7.3944C7.49202 7.3749 7.83912 7.2228 8.12382 7.4607C8.58792 7.839 9.26652 7.8897 9.73842 7.8078C9.97242 7.7649 10.1752 7.6986 10.3039 7.6401C10.4404 7.5855 10.4989 7.5543 10.5769 7.5699C10.6666 7.5699 10.729 7.6089 10.7485 7.4724C10.7719 7.3437 10.7485 7.098 10.6666 6.8055C10.5925 6.5442 10.456 6.2673 10.2844 6.0294C10.2376 5.9748 10.1947 5.9202 10.1479 5.8578C10.0972 5.811 10.0504 5.7603 10.0036 5.7057C9.95292 5.6667 9.90612 5.6199 9.85152 5.5731L9.62142 5.4249C8.98962 5.0427 8.12382 4.8165 7.13712 4.7385C6.35712 4.6683 5.52251 4.3173 4.64111 3.2565C4.23551 2.7651 4.09901 1.482 4.46951 1.1427C4.99601 0.6669 5.60832 0.331501 6.27912 0.128701C6.83292 -0.0389993 7.44912 0.0546005 8.07312 0.0858005C8.07312 0.0546005 8.08092 0.0273 8.08482 0L8.06142 0.00389935Z" fill="var(--fill-0, white)" fill-opacity="0.2"/>
</svg>
