<svg preserveAspectRatio="none" width="100%" height="100%" overflow="visible" style="display: block;" viewBox="0 0 14.6707 13.5321" fill="none" xmlns="http://www.w3.org/2000/svg">
<path id="Vector" d="M10.1142 0.309487C10.3911 0.438187 10.6719 0.594197 10.9449 0.757997C11.0814 0.839897 11.2179 0.929594 11.3544 1.02319C11.4987 1.12459 11.643 1.22209 11.7795 1.33519C12.3216 1.76419 12.7935 2.25559 13.1952 2.81329C13.6203 3.40999 13.9596 4.07299 14.2638 4.81399C14.6928 5.78119 14.802 7.07599 14.4978 8.17579C14.2053 9.28729 13.6203 10.1726 12.9963 10.8629C11.7444 12.2279 10.122 13.0781 8.36701 13.3979C7.28281 13.5929 6.12841 13.5929 4.93501 13.2809C3.75331 12.9923 2.52871 12.3137 1.60441 11.3192C1.36651 11.054 1.09741 10.7186 0.90241 10.3949C0.71131 10.0634 0.52801 9.72409 0.41101 9.38089C0.13801 8.69059 0.0366105 8.00419 0.00151052 7.32949C-0.0101895 6.65869 0.0444104 5.99959 0.22381 5.35609C0.29401 5.03629 0.43051 4.7126 0.54751 4.4006C0.70351 4.0847 0.83611 3.77269 1.05061 3.46849C1.17541 3.28519 1.30021 3.10969 1.47181 2.94589C1.63951 2.78209 1.82281 2.6339 2.01001 2.5013C2.42341 2.2361 2.85631 2.02939 3.33601 1.90849C3.55441 1.84219 3.78061 1.83829 3.99121 1.88509C4.20181 1.92799 4.39291 2.0138 4.56061 2.1347C4.90381 2.396 5.14951 2.79379 5.30941 3.25399C5.54341 3.92869 5.51611 4.65799 5.53951 5.25859C5.54731 5.55889 5.56681 5.82799 5.60191 6.03079C5.60971 6.06979 5.61751 6.10879 5.62531 6.14779C5.62531 6.15559 5.62921 6.15949 5.62921 6.15949C5.62921 6.15949 5.62921 6.15169 5.62921 6.16339C5.63701 6.18289 5.64481 6.2024 5.65651 6.218C5.66821 6.2336 5.67601 6.24919 5.68381 6.26089C5.69161 6.26869 5.70331 6.2804 5.72281 6.3155C5.75791 6.3701 5.79691 6.41299 5.83981 6.45199C5.85931 6.46759 5.89051 6.51049 5.91391 6.52999C5.93341 6.54949 5.92951 6.54559 5.92561 6.54169L5.91391 6.5339C5.83201 6.4832 5.69551 6.5495 5.61751 6.6821C5.53951 6.8147 5.50831 6.98629 5.52781 7.13449C5.55121 7.28269 5.64091 7.3841 5.72281 7.3997C5.74621 7.3997 5.76571 7.3997 5.78131 7.3997L5.81641 7.38019L5.82811 7.37239L5.80861 7.388C5.92561 7.31 5.96461 7.3802 6.05821 7.3373C6.24151 7.3022 6.40141 7.1345 6.47161 7.3646C6.62371 7.7273 7.06051 7.84429 7.47391 7.78189C7.89901 7.73509 8.30071 7.55569 8.71411 7.45819C9.03781 7.38409 9.31861 7.19299 9.49411 7.01749C9.67351 6.83809 9.73201 6.7055 9.79441 6.6548C9.84901 6.608 9.90751 6.56119 9.90751 6.39739C9.90751 6.24139 9.82951 6.01519 9.68131 5.78899C9.52921 5.56279 9.34201 5.35219 9.08461 5.17279C8.80771 4.98169 8.47231 4.81399 8.08231 4.67749C7.47391 4.45519 6.81481 3.9521 6.22591 2.7431C5.96071 2.1854 6.07771 0.898398 6.47161 0.637098C7.02931 0.270498 7.65331 0.0598879 8.33971 0.00528788C8.90521 -0.0376121 9.48241 0.188596 10.0908 0.391396C10.1025 0.364096 10.1103 0.336787 10.122 0.309487H10.1142Z" fill="var(--fill-0, white)" fill-opacity="0.2"/>
</svg>
