<svg preserveAspectRatio="none" width="100%" height="100%" overflow="visible" style="display: block;" viewBox="0 0 20.0058 15.6647" fill="none" xmlns="http://www.w3.org/2000/svg">
<path id="Vector" d="M17.9469 1.83169C18.684 2.54929 19.3237 3.50479 19.6708 4.56169C20.0413 5.64199 20.0764 6.7535 19.9126 7.7402C19.7332 8.7932 19.3393 9.7136 18.8947 10.5794C18.5983 11.1605 18.2356 11.7065 17.7949 12.2096L17.4517 12.5762L17.1046 12.9038C16.8667 13.1144 16.6249 13.3133 16.3714 13.4966C15.3613 14.2298 14.2615 14.7212 13.1773 15.0566C12.6352 15.2243 12.0931 15.353 11.5549 15.4505C11.2858 15.4973 11.0206 15.5402 10.7515 15.5753C10.4707 15.6065 10.1625 15.6299 9.87005 15.6533C8.69225 15.704 7.53005 15.587 6.37175 15.2828C5.66195 15.1034 4.94825 14.8265 4.24235 14.4794C3.53645 14.0972 2.83445 13.6643 2.17925 13.0247C1.53965 12.389 0.919552 11.6207 0.537352 10.6652C0.151252 9.7214 -0.0398539 8.72299 0.00694612 7.70899C0.0615461 6.70279 0.326749 5.7434 0.728449 4.9322C1.12625 4.1132 1.63325 3.40729 2.20655 2.80669C2.77595 2.20609 3.42335 1.6835 4.10975 1.2662C4.76885 0.860598 5.43965 0.544702 6.09095 0.295102C6.88265 -0.0129983 7.70945 -0.0207988 8.45435 0.0143012C9.17585 0.0533012 9.73746 0.685102 10.1938 1.5626C10.8685 2.8496 10.81 4.39399 10.0807 4.92829C9.62435 5.27149 9.11345 5.40799 8.64155 5.47819C8.09555 5.55619 7.60805 5.6927 7.18685 5.8877C6.97235 5.993 6.80075 6.0866 6.63305 6.2114C6.46925 6.3362 6.32105 6.47659 6.19235 6.62479C5.93885 6.92899 5.78285 7.2722 5.75945 7.553C5.73605 7.8455 5.82185 8.02489 5.98175 8.16919C6.16115 8.32909 6.37175 8.25499 6.37565 8.55919C6.40295 8.80099 6.55505 9.07399 6.83975 9.28069C7.11275 9.49129 7.45985 9.6629 7.84595 9.776C8.61815 10.0217 9.47615 10.0607 10.2874 10.127C11.707 10.1972 12.9862 9.7487 13.8715 9.1871C13.9768 9.1247 14.0703 9.05449 14.1678 8.98819C14.2458 8.92189 14.3317 8.8634 14.4097 8.7854C14.5657 8.6372 14.7217 8.4734 14.8465 8.2862C15.1078 7.9196 15.2793 7.49449 15.3378 7.10839C15.3729 6.91339 15.3691 6.7301 15.3496 6.5546C15.3457 6.4649 15.3184 6.383 15.2989 6.2972C15.256 6.2114 15.2404 6.10999 15.1858 6.02809C15.022 5.66929 14.6866 5.3144 14.2108 4.9868C13.4542 4.472 12.5806 3.7583 11.863 2.3894C11.5354 1.7576 11.8434 0.505691 12.4752 0.357491C13.3722 0.158591 14.3433 0.150793 15.3768 0.408193C16.2231 0.614893 17.0577 1.1765 17.8767 1.8746C17.9001 1.8551 17.9197 1.8356 17.9392 1.8161L17.9469 1.83169Z" fill="var(--fill-0, white)" fill-opacity="0.2"/>
</svg>
