<svg preserveAspectRatio="none" width="100%" height="100%" overflow="visible" style="display: block;" viewBox="0 0 6.50426 8.2153" fill="none" xmlns="http://www.w3.org/2000/svg">
<path id="Vector" d="M5.84463 8.2153C5.49363 8.1178 5.10753 7.99691 4.70583 7.85651C4.49133 7.78241 4.28463 7.6927 4.05453 7.6927C3.36813 7.6927 2.66613 7.57571 1.95633 7.20131C1.60143 7.01411 1.24263 6.74891 0.915031 6.38231C0.591331 6.01571 0.310532 5.53601 0.154532 4.99391C-0.028768 4.36211 -0.0482694 3.664 0.0921306 3.0283C0.232531 2.3887 0.497733 1.8973 0.759033 1.5112C1.30113 0.742898 1.82763 0.364602 2.29173 0.0409025C2.43213 -0.0565975 2.69343 0.0369982 2.93523 0.146198C3.16923 0.247598 3.62163 0.840409 4.15203 1.64381C4.91643 2.81771 5.61843 4.1476 5.73153 4.4908C5.80563 4.7131 5.75883 4.7404 5.67303 4.6975C5.47413 4.6 5.34153 4.6039 5.32593 4.6624C5.32593 4.6741 5.32203 4.6936 5.33763 4.7092L5.34933 4.7209L5.35713 4.7287L5.33763 4.71311L5.18943 4.5844C4.99443 4.4206 4.81503 4.2958 4.66293 4.2061C4.58493 4.1593 4.48743 4.1164 4.43673 4.0891C4.40553 4.0735 4.37043 4.0618 4.33533 4.0501C4.31583 4.0423 4.29243 4.0345 4.26903 4.0267C4.24173 4.0189 4.21833 4.01501 4.19103 4.00721H4.15983C4.16373 4.00721 4.14813 4.00721 4.17933 4.00721H4.21053L4.22223 3.9994C4.33533 3.976 4.06623 4.0306 4.09353 4.0267C4.09353 4.0267 4.12083 4.0189 4.15983 3.9994C4.20273 3.9799 4.24953 3.94481 4.30803 3.89801C4.47573 3.76151 4.59663 3.51971 4.59273 3.50801L4.58493 3.53141L4.57713 3.56651V3.5899L4.64343 3.10631C4.63953 3.13751 4.64733 3.2077 4.68243 3.2545C4.74873 3.3637 4.89693 3.4573 5.09193 3.5158C5.24403 3.5665 5.51313 3.95261 5.97333 5.02901C6.18393 5.52821 6.51933 6.7762 6.50373 7.0804C6.48423 7.5133 6.40623 7.80581 6.27363 8.00471C6.16443 8.16851 5.98113 8.1022 5.81343 8.1295C5.81733 8.1568 5.82123 8.1841 5.82903 8.2153H5.84463Z" fill="var(--fill-0, white)" fill-opacity="0.2"/>
</svg>
