<svg preserveAspectRatio="none" width="100%" height="100%" overflow="visible" style="display: block;" viewBox="0 0 21.862 18.1921" fill="none" xmlns="http://www.w3.org/2000/svg">
<path id="Vector" d="M16.6048 0.732305C17.4706 1.1691 18.3442 1.7112 19.1554 2.4327C19.9666 3.1503 20.6998 4.1058 21.1639 5.1666L21.3472 5.5878C21.3979 5.7321 21.4369 5.8764 21.4837 6.0207C21.5656 6.3132 21.6592 6.594 21.706 6.906L21.784 7.36231L21.8269 7.8225C21.862 8.1306 21.8542 8.4309 21.862 8.7312C21.8542 9.5346 21.7216 10.3146 21.4993 11.0439C21.2692 11.7693 20.9533 12.4401 20.5789 13.0641C19.8223 14.3043 18.8356 15.3573 17.6305 16.188C15.2515 17.8182 12.3889 18.4227 9.62383 18.1146C7.92343 17.9118 6.23863 17.3697 4.72543 16.4415C4.33933 16.2231 3.98443 15.9462 3.62173 15.6849C3.26293 15.4002 2.91583 15.096 2.59213 14.7645C1.94473 14.1015 1.35973 13.3449 0.895626 12.444C0.431526 11.5548 0.088325 10.4979 0.014225 9.3513C-0.059875 8.193 0.158525 7.0581 0.599225 6.0168C1.04383 4.9794 1.69903 4.1136 2.38543 3.4389C3.07573 2.7681 3.79722 2.2533 4.51092 1.8204C5.37673 1.2978 6.33613 1.0872 7.22923 0.9585C8.09113 0.8337 8.82823 1.3641 9.43273 2.1714C10.3063 3.357 10.3297 4.917 9.58093 5.58C9.10513 6.0051 8.54353 6.2547 8.01313 6.4419C7.40083 6.6564 6.85482 6.9372 6.44532 7.2531C6.03192 7.5729 5.77452 7.9161 5.66532 8.2359C5.62242 8.3139 5.63412 8.39971 5.60682 8.47771C5.59122 8.55961 5.60682 8.64931 5.59122 8.72731C5.59512 8.88331 5.63413 9.0315 5.70043 9.1914C5.82523 9.5073 6.09822 9.8505 6.46872 10.1469C6.67152 10.3107 6.91723 10.4472 7.14733 10.5915C7.26433 10.6656 7.36962 10.7397 7.47492 10.8255C7.58802 10.9074 7.68552 11.0088 7.76742 11.1297C8.05602 11.4963 8.43822 11.8005 8.86722 12.0267C9.30402 12.2412 9.78373 12.3816 10.2751 12.4635C10.7704 12.5298 11.2696 12.5493 11.7688 12.5259C12.2641 12.4908 12.7555 12.4323 13.243 12.3582C13.9684 12.2451 14.6665 11.9331 15.2086 11.5431C15.7741 11.1336 16.2577 10.5954 16.6243 10.0416C16.948 9.5463 17.1625 9.0237 17.2132 8.5401C17.2561 8.2944 17.2288 8.0604 17.2015 7.8186C17.1625 7.6977 17.1391 7.5651 17.1079 7.4403C17.0533 7.3272 17.0143 7.2024 16.9597 7.0815C16.7296 6.6135 16.324 6.1611 15.7585 5.7672C15.1969 5.3694 14.4949 5.0379 13.7383 4.7766C12.5254 4.3632 11.3398 3.7509 10.2283 2.499C9.71743 1.9179 9.82273 0.630902 10.5403 0.400802C11.5504 0.0771023 12.6463 -0.051596 13.7656 0.018604C14.6899 0.081004 15.6064 0.424204 16.5541 0.810304C16.5697 0.783004 16.5814 0.759605 16.5931 0.732305H16.6048Z" fill="var(--fill-0, white)" fill-opacity="0.2"/>
</svg>
