<svg preserveAspectRatio="none" width="100%" height="100%" overflow="visible" style="display: block;" viewBox="0 0 6.83892 6.17436" fill="none" xmlns="http://www.w3.org/2000/svg">
<path id="Vector" d="M1.92277 4.50848C2.07487 4.81268 2.28937 4.94138 2.45707 4.99988C2.55067 5.03498 2.63648 5.03108 2.63258 5.08568C2.60918 5.22608 2.58577 5.40158 2.69887 5.61608C2.75347 5.71748 2.85097 5.83448 2.99137 5.92418C3.06547 5.99438 3.11617 6.04118 3.18247 6.07238C3.26047 6.10748 3.32677 6.12698 3.37357 6.13088C3.41647 6.14258 3.44767 6.13088 3.44767 6.13088C3.45547 6.12698 3.38137 6.13088 3.28387 6.17378C3.25657 6.18548 3.10838 6.01778 2.94848 5.86178C2.79638 5.70578 2.34398 5.12468 1.75508 4.36418C0.893176 3.25658 0.0429677 2.02418 0.00396769 1.61468C-0.0233323 1.36118 0.0936696 1.28318 0.24967 1.28708C0.96727 1.30658 1.40017 1.01018 2.01247 0.339382C2.18017 0.156082 2.38688 -0.11302 2.64428 0.0507796C3.42038 0.58508 4.12237 0.222379 4.93747 0.787879C5.51077 1.22078 6.03337 1.54838 6.34147 2.06318C6.60667 2.51558 6.75877 3.00308 6.81727 3.51398C6.87187 4.02488 6.82897 4.57868 6.62227 5.12078C6.46627 5.54978 5.78376 5.86178 4.76586 5.25338C4.30176 4.98038 3.39307 4.04828 3.09667 3.95078C2.69887 3.79088 2.34787 3.86888 2.12557 4.02098C1.94227 4.16138 2.01247 4.36028 2.00857 4.50068C1.97737 4.50068 1.95007 4.50068 1.92277 4.50068V4.50848Z" fill="var(--fill-0, white)" fill-opacity="0.2"/>
</svg>
