<svg preserveAspectRatio="none" width="100%" height="100%" overflow="visible" style="display: block;" viewBox="0 0 24.4309 45.799" fill="none" xmlns="http://www.w3.org/2000/svg">
<path id="Vector" d="M14.8301 12.9301C15.1001 13.7298 15.3881 14.5233 15.6881 15.3047C15.7641 15.4964 15.8401 15.7004 15.9161 15.8799C15.9921 16.0493 16.0581 16.2247 16.1421 16.392C16.3041 16.7265 16.4821 17.055 16.6801 17.3691C17.4741 18.6319 18.5781 19.7131 19.8841 20.5577C20.9961 21.2941 22.2541 21.8653 23.5621 22.2978C24.2221 22.5161 24.5821 23.2382 24.3701 23.9094C24.2661 24.2378 24.0441 24.4928 23.7701 24.6438L23.7361 24.6621C23.4601 24.8131 23.1801 24.9498 22.9141 25.1211C21.3801 26.0616 20.0021 27.3325 18.8041 28.7585C17.6041 30.1865 16.5841 31.7838 15.7641 33.4688C14.9461 35.1539 14.3241 36.9348 13.9961 38.7402C13.6701 40.5415 13.6381 42.3755 14.0421 44.0401L11.0681 44.6603C10.7541 42.8895 10.4481 41.1311 10.0761 39.4113C9.74208 37.863 9.36207 36.3391 8.88607 34.8662C8.40807 33.3954 7.83608 31.9735 7.14008 30.6353C6.96408 30.3048 6.77807 29.9743 6.59407 29.652C6.40607 29.3378 6.21207 29.0298 6.00407 28.736C5.59007 28.1444 5.13807 27.5957 4.65007 27.1142C3.67207 26.1473 2.54207 25.5006 1.38407 25.3435C0.512069 25.2252 -0.101929 24.4071 0.014071 23.5177C0.0820711 23.0016 0.378069 22.5752 0.784069 22.3304L0.796075 22.3243C1.85408 21.696 2.83207 20.9473 3.67807 20.0538C3.89807 19.8396 4.09008 19.5968 4.29608 19.3683C4.48608 19.1235 4.68607 18.8889 4.86407 18.6339C5.23407 18.1362 5.56407 17.6017 5.87007 17.0509C7.09807 14.8436 7.83407 12.2977 8.29407 9.68242C8.59207 7.97086 8.88008 6.21238 9.09008 4.4641C9.18808 3.6277 9.33407 2.93614 9.51607 2.36902C9.60607 2.08546 9.70807 1.8325 9.81807 1.6081C9.87207 1.42858 9.94407 1.22866 10.0301 1.07974C10.1161 0.924697 10.2121 0.810457 10.2901 0.739057C10.7381 0.390217 10.3941 1.00426 10.9281 1.50202C11.0581 1.61422 11.2481 1.65298 11.3721 1.63462C11.4341 1.63258 11.4801 1.61014 11.5101 1.62646C11.5381 1.72234 11.5661 1.8223 11.5901 1.93042C11.6941 2.36086 11.7621 2.8933 11.7841 3.51754C11.8381 5.09854 11.7141 6.83458 11.4581 8.46454C11.2121 10.0333 10.8961 11.5959 10.4621 13.1423C10.2441 13.9134 10.0021 14.6825 9.71607 15.4373C9.43407 16.1941 9.11807 16.9428 8.75407 17.6711C8.03607 19.1317 7.13007 20.523 6.03807 21.7613C5.48807 22.3773 4.89807 22.9567 4.26607 23.4912C3.63007 24.0175 2.96007 24.4989 2.26207 24.9355L1.76007 22.359C3.21007 22.5242 4.57607 23.126 5.70007 23.9379C6.64607 24.6173 7.48607 25.4353 8.18607 26.3227C8.54207 26.7654 8.86007 27.2264 9.14807 27.6977L9.35808 28.0526C9.42208 28.1709 9.48407 28.2893 9.54807 28.4076C9.67007 28.6442 9.79607 28.8788 9.90407 29.1175C11.0341 31.5553 11.8201 34.0849 12.4381 36.6084C13.0541 39.1359 13.4981 41.6676 13.9061 44.1645L13.9101 44.189C14.0321 44.9418 13.5341 45.6558 12.7941 45.7802C12.0821 45.9006 11.4061 45.4293 11.2481 44.7194C10.9441 43.3404 10.8621 41.9409 10.9721 40.5843C11.1841 38.0425 11.8881 35.6231 12.8901 33.3689C13.9021 31.1187 15.2181 29.0216 16.8241 27.1673C18.4601 25.2823 20.4041 23.6217 22.7041 22.4895L22.8581 24.5948C22.1301 24.3378 21.4041 24.0726 20.6981 23.736C19.9901 23.4137 19.3001 23.0342 18.6341 22.6079C17.9661 22.1876 17.3341 21.696 16.7401 21.1595C16.1461 20.6229 15.5961 20.0252 15.1161 19.3724C14.6341 18.7217 14.2141 18.0219 13.8721 17.2855C13.7921 17.1019 13.7001 16.9122 13.6281 16.7347L13.4141 16.2063C13.2721 15.8534 13.1381 15.5005 13.0041 15.1455C12.4741 13.7277 11.9881 12.2997 11.5481 10.8513C11.0581 9.23566 10.6801 7.6261 10.4781 6.04918C10.2821 4.47838 10.2421 2.91778 10.5481 1.51018C10.6441 1.1491 10.7641 0.908378 10.8901 0.794138L10.8621 0.632976C10.8501 0.559536 10.8121 0.471818 10.7561 0.402458C10.7001 0.331058 10.6361 0.282096 10.5861 0.247416C10.4861 0.178056 10.4341 0.141336 10.4241 0.100536C10.4181 0.0638159 10.4441 0.0128179 10.6041 0.000577937C10.6821 -0.00350206 10.8061 0.0128164 10.9441 0.0882965C11.0821 0.159696 11.2101 0.292297 11.2881 0.416737L11.3641 0.845138C11.4301 0.928778 11.4861 1.05118 11.5321 1.20622C11.5801 1.3633 11.5981 1.5469 11.6401 1.78762C11.6781 2.02834 11.6961 2.26294 11.7481 2.50978C11.7941 2.75458 11.8401 3.00142 11.8881 3.24826C12.0041 3.74806 12.1101 4.24786 12.2481 4.75582C12.5101 5.76766 12.8101 6.79378 13.1361 7.81378C13.6641 9.49066 14.1761 11.2389 14.7961 12.924C14.8121 12.924 14.8261 12.924 14.8441 12.924L14.8301 12.9301Z" fill="var(--fill-0, white)" fill-opacity="0.2"/>
</svg>
