<svg preserveAspectRatio="none" width="100%" height="100%" overflow="visible" style="display: block;" viewBox="0 0 5.44744 7.51298" fill="none" xmlns="http://www.w3.org/2000/svg">
<path id="Vector" d="M0.718805 2.98118C0.800705 3.12158 0.859207 3.27758 0.878707 3.43358C0.886507 3.51548 0.898213 3.60908 0.824113 3.63638C0.722713 3.67148 0.578416 3.75729 0.461416 3.87819C0.340516 3.99129 0.219617 4.18628 0.145517 4.35008C-0.00658321 4.70108 -0.0221861 4.98968 0.0207139 5.17688C0.0441139 5.29388 0.0870168 5.38358 0.145517 5.47328C0.168917 5.50838 0.231313 5.57468 0.239113 5.58248C0.258613 5.60198 0.270307 5.61369 0.282007 5.62149C0.324907 5.64879 0.258608 5.57858 0.0636082 5.48888C0.00900822 5.46158 0.0129144 5.23148 0.0090144 4.99358C0.0090144 4.76348 0.196207 4.05368 0.488707 3.13328C0.913807 1.79558 1.47151 0.403284 1.73281 0.122484C1.90051 -0.056916 2.00581 -0.0179231 2.07991 0.102977C2.43481 0.664577 2.98471 0.797186 3.97531 0.941486C4.11181 0.960986 4.26781 0.976579 4.40041 1.03118C4.53301 1.08968 4.66171 1.20278 4.68121 1.37048C4.75531 1.91258 4.93081 2.27138 5.12191 2.66918C5.30521 3.05528 5.49241 3.50378 5.43781 4.01858C5.39101 4.39688 5.36371 4.77908 5.27401 5.17688C5.18431 5.57468 5.02051 5.97248 4.78651 6.27278C4.35361 6.83438 3.79981 7.16198 3.34741 7.31798C2.88331 7.48178 2.49721 7.50518 2.15401 7.51298C1.88101 7.51298 1.54562 7.14248 1.13222 6.05048C0.937216 5.54348 0.664208 4.28379 0.660308 3.98739C0.660308 3.56619 0.660315 3.28928 0.668115 3.12158C0.668115 2.98118 0.734412 3.07088 0.750012 3.06698C0.738312 3.03968 0.730505 3.01238 0.718805 2.98508V2.98118Z" fill="var(--fill-0, white)" fill-opacity="0.2"/>
</svg>
