<svg preserveAspectRatio="none" width="100%" height="100%" overflow="visible" style="display: block;" viewBox="0 0 12.2695 10.3247" fill="none" xmlns="http://www.w3.org/2000/svg">
<path id="Vector" d="M9.53617 0.405591C9.89497 0.678591 10.2577 1.00229 10.5931 1.38059C10.7647 1.57559 10.909 1.75889 11.0767 1.99289C11.2561 2.24249 11.4004 2.496 11.5252 2.7495C11.7826 3.2916 11.9191 3.8337 12.079 4.3836C12.2896 5.1129 12.3715 5.9748 12.0829 6.9459C11.9386 7.4256 11.6773 7.9209 11.3302 8.346C10.9714 8.7789 10.5463 9.1104 10.1446 9.3444C9.32947 9.8085 8.67036 9.9411 8.22576 10.062C7.77336 10.1751 7.28587 10.2609 6.75937 10.2999C6.11197 10.3467 5.39437 10.3389 4.60267 10.1751C3.81877 10.0191 2.92956 9.6798 2.14566 9.0987L1.85707 8.8725C1.76737 8.8023 1.63477 8.6697 1.52947 8.5683C1.29937 8.346 1.12387 8.112 0.948372 7.8702C0.624672 7.3905 0.382869 6.88349 0.238569 6.38039C-0.0617311 5.37029 -0.0968311 4.32899 0.238569 3.18239C0.453069 2.48429 1.08487 1.81349 1.84537 1.43129C2.20027 1.24019 2.62537 1.27529 2.96857 1.45469C3.31957 1.64579 3.61597 1.99679 3.84607 2.41799C4.18537 3.03809 4.31407 3.7596 4.50517 4.3251L4.54027 4.43039V4.41869C4.54027 4.41869 4.52856 4.3953 4.52076 4.3836L4.50906 4.3602C4.50906 4.3602 4.50906 4.36019 4.50906 4.35629C4.51686 4.37579 4.62607 4.4889 4.82107 4.5786C5.04337 4.6917 5.32416 4.7385 5.47236 4.7385H5.52306C5.54256 4.7385 5.51916 4.7385 5.52306 4.7385L5.50746 4.74629C5.50746 4.74629 5.50747 4.758 5.51527 4.7541C5.43337 4.7736 5.21886 4.8867 5.09406 4.9959C5.05896 5.031 5.03946 5.04269 5.00826 5.07389L4.98877 5.09729L4.97707 5.10899L5.53867 4.45379L5.56597 4.42649C5.60107 4.39529 5.64007 4.3485 5.67517 4.3017C5.76487 4.1925 5.84287 3.9858 5.86627 4.1925C5.92477 4.524 6.21337 4.61759 6.52927 4.61369C6.68917 4.61369 6.86467 4.5942 7.04797 4.5825C7.21957 4.5708 7.45357 4.5591 7.60177 4.5942C7.71097 4.6215 7.78117 4.63319 7.79677 4.64879C7.80067 4.65659 7.79677 4.641 7.80457 4.6644L7.87087 4.82819C7.90207 4.91789 7.95276 5.01929 7.98396 5.08559C8.05806 5.24159 8.11656 5.3391 8.16726 5.4093C8.19456 5.4444 8.21017 5.47169 8.22967 5.49119L8.28816 5.5575C8.31156 5.5809 8.28427 5.5536 8.28427 5.5575C8.23357 5.5224 8.15167 5.4834 8.01127 5.4483C7.89037 5.4171 7.74997 5.4054 7.62517 5.4093C7.59397 5.4093 7.56276 5.40929 7.53156 5.41319H7.49646H7.50427C7.51987 5.41319 7.52767 5.40149 7.53937 5.39369C7.58617 5.35079 7.60566 5.27279 7.62906 5.21039C7.68366 5.17919 7.60957 5.0193 7.51207 4.8945C7.41067 4.7619 7.25856 4.6176 7.05576 4.485C6.74376 4.2666 6.44737 3.7284 6.31867 2.496C6.26407 1.9266 6.59557 0.678597 6.90367 0.460197C7.34437 0.152097 7.80847 0.0039 8.29597 0C8.70157 0 9.06816 0.257393 9.48156 0.467993C9.49716 0.440693 9.50887 0.417292 9.52447 0.393892L9.53617 0.405591Z" fill="var(--fill-0, white)" fill-opacity="0.2"/>
</svg>
