<svg preserveAspectRatio="none" width="100%" height="100%" overflow="visible" style="display: block;" viewBox="0 0 16.0349 22.7978" fill="none" xmlns="http://www.w3.org/2000/svg">
<path id="Vector" d="M11.0831 6.21895C11.5791 7.66939 12.4191 8.89135 13.6251 9.76447C13.7371 9.86035 13.8691 9.93175 13.9951 10.0093L14.3771 10.2439C14.6451 10.3826 14.9251 10.5009 15.2011 10.6274L15.2991 10.6723C15.9271 10.9599 16.2071 11.7106 15.9251 12.3512C15.7851 12.6715 15.5251 12.904 15.2271 13.0203C15.0071 13.106 14.7891 13.1917 14.5771 13.2814C14.1371 13.4671 13.7191 13.6527 13.3491 13.8526C12.9791 14.0546 12.6551 14.2667 12.3651 14.5197C11.7891 15.0215 11.2811 15.7192 10.8531 16.4801C10.4291 17.2451 10.0811 18.0693 9.87311 18.8751C9.66111 19.6728 9.61911 20.4785 9.77911 20.9702L6.84711 21.7189C6.62111 20.7111 6.38111 19.7319 6.08711 18.8017C5.63511 17.3737 5.04311 16.0619 4.20911 15.0093C3.37711 13.9505 2.31111 13.1448 1.17511 12.8326C0.32711 12.6001 -0.172888 11.7106 0.0551118 10.8457C0.167112 10.4234 0.43311 10.0847 0.77511 9.87667L0.84711 9.83383L1.23511 9.59923L1.42911 9.48295L1.61311 9.34831L1.98511 9.08107L2.33711 8.77915L2.51311 8.62819L2.67911 8.46295L3.01311 8.13043L3.32511 7.77139L3.48111 7.59187C3.53111 7.53067 3.57911 7.46335 3.62711 7.40011C4.41711 6.38419 5.07111 5.21323 5.58511 3.95659C5.91511 3.16711 6.30311 2.37355 6.63711 1.56163C6.80711 1.17811 6.99311 0.868026 7.22911 0.631386C7.45511 0.390666 7.71311 0.217267 7.99111 0.096907C8.39511 -0.078533 8.76111 -0.0132497 9.01311 0.27235C9.26311 0.55591 9.41111 1.06387 9.33511 1.72687C9.24311 2.56531 8.98311 3.45475 8.63711 4.25647C8.47711 4.65631 8.28511 5.04799 8.10911 5.44171L7.81911 6.02311L7.67311 6.31279L7.51511 6.59839C7.11111 7.36543 6.63511 8.10391 6.12511 8.81791C5.61311 9.53395 5.02111 10.2031 4.38511 10.8355C3.73511 11.4577 3.01111 12.0125 2.23111 12.5021L1.94711 9.91747C2.56511 10.0603 3.16511 10.2806 3.72911 10.5601C4.84311 11.1027 5.89111 11.9024 6.54511 12.8816C6.98911 13.5303 7.36911 14.2157 7.70111 14.8991C8.03311 15.5825 8.30911 16.2782 8.55511 16.9718C9.03911 18.3631 9.37911 19.7543 9.64111 21.1171L9.64711 21.1518C9.79111 21.8984 9.31511 22.6246 8.58311 22.7715C7.88511 22.9123 7.20511 22.4737 7.01711 21.7862C6.82311 21.0701 6.81711 20.3867 6.88911 19.7584C6.97511 19.022 7.15511 18.3447 7.37511 17.7021C7.59711 17.0595 7.86511 16.4496 8.17111 15.86C8.47711 15.2725 8.82111 14.7074 9.22111 14.1648C9.62311 13.6242 10.0751 13.1019 10.6291 12.6449C11.2131 12.1533 11.8851 11.7698 12.5211 11.4903C13.1631 11.2027 13.7691 10.9925 14.3611 10.7743L14.3851 12.8938C12.8651 12.2941 11.4351 11.3026 10.3711 9.99907C10.2431 9.83383 10.1231 9.66247 9.99911 9.49315L9.81711 9.23815C9.76111 9.15043 9.71111 9.06067 9.65711 8.97091L9.34311 8.43439L9.07711 7.87747L8.94511 7.60003L8.83511 7.31647L8.61711 6.74731L8.43911 6.16999C8.37911 5.97823 8.32111 5.78647 8.27911 5.59063C8.22511 5.37031 8.17511 5.14999 8.13111 4.93171C8.09711 4.71343 8.06511 4.49515 8.03911 4.27891C8.00911 4.06267 7.99511 3.84847 7.98911 3.63631C7.98111 3.42415 7.97511 3.21403 7.97911 3.00595C8.00711 2.17363 8.13111 1.38211 8.38511 0.643632C8.61511 -0.0356882 9.28111 -0.0173332 9.47911 0.715027C9.76511 1.75339 10.0191 2.81419 10.3031 3.81787C10.5291 4.64407 10.7151 5.47843 11.0291 6.23119C11.0431 6.22711 11.0571 6.22507 11.0731 6.22099L11.0831 6.21895Z" fill="var(--fill-0, white)" fill-opacity="0.2"/>
</svg>
