<svg preserveAspectRatio="none" width="100%" height="100%" overflow="visible" style="display: block;" viewBox="0 0 14.0097 12.2541" fill="none" xmlns="http://www.w3.org/2000/svg">
<path id="Vector" d="M13.0268 2.311C13.4051 2.9194 13.6859 3.5473 13.838 4.2259C13.994 4.9006 14.0603 5.5987 13.9667 6.3358C13.9511 6.5269 13.9121 6.718 13.8653 6.913C13.8146 7.108 13.7795 7.2952 13.7054 7.4863L13.4948 8.0518L13.2725 8.5315C12.8825 9.3856 12.2741 10.1266 11.5877 10.6804C10.8974 11.2381 10.133 11.632 9.34519 11.8894C8.55349 12.1468 7.7345 12.2716 6.8882 12.2521C6.0536 12.2365 5.15659 12.0571 4.35709 11.7178C3.37429 11.3044 2.50069 10.7038 1.75189 9.8926C1.01479 9.0892 0.3869 8.0401 0.1256 6.7687C0.0554001 6.4567 0.0241973 6.1252 0.000797264 5.7976C0.000797264 5.4583 -0.0109089 5.1619 0.0553911 4.7563C0.102191 4.3663 0.207492 4.0153 0.324492 3.6643C0.457092 3.3328 0.601397 2.9974 0.780797 2.7127C1.1318 2.116 1.5647 1.6207 2.06 1.2073C2.5514 0.786102 3.113 0.442901 3.7565 0.197201C4.5287 -0.106999 5.51539 -0.0484986 6.38119 0.298601C6.79849 0.458501 7.0793 0.809502 7.1924 1.2073C7.3055 1.6051 7.25089 2.077 7.09099 2.5372C6.85699 3.208 6.38509 3.7696 6.05359 4.2688C5.89759 4.4872 5.70649 4.8499 5.77279 4.7212C5.78059 4.6978 5.76499 4.7446 5.76889 4.7368C5.74159 4.8187 5.726 5.0761 5.7884 5.314C5.7962 5.3491 5.804 5.3842 5.8157 5.4154C5.8196 5.431 5.82739 5.4466 5.83129 5.4622L5.8391 5.4856C5.8391 5.4856 5.8196 5.4349 5.804 5.4349C5.7728 5.4115 5.7338 5.4076 5.6909 5.4115C5.609 5.4232 5.54659 5.4856 5.54269 5.5246C5.53489 5.5324 5.54659 5.5402 5.55049 5.548C5.57389 5.5636 5.50369 5.5324 5.46469 5.5207L5.34379 5.4934C5.34379 5.4934 5.3087 5.4895 5.2892 5.4895H5.28139C6.02239 5.5402 5.48809 5.5051 5.65189 5.5168H5.65969L5.67529 5.5324C5.74549 5.5831 5.84689 5.6104 5.97949 5.6182C6.13549 5.6377 6.3539 5.5636 6.2759 5.7742C6.1667 6.1291 6.4124 6.4021 6.6659 6.523C6.9194 6.6556 7.1651 6.6595 7.4849 6.7882C7.7228 6.8818 7.988 6.8662 8.2142 6.8116C8.4443 6.757 8.63149 6.6595 8.79529 6.5932C8.94349 6.5308 9.0605 6.4645 9.1658 6.3748C9.1814 6.3553 9.23599 6.3163 9.23599 6.3163C9.24379 6.3085 9.26719 6.3085 9.28279 6.3007C9.29059 6.2851 9.31009 6.2734 9.32959 6.2578C9.33739 6.2344 9.34909 6.211 9.36859 6.1837C9.47779 5.9419 9.36859 5.4154 9.13849 5.1151C9.04489 5.0059 9.03319 4.8343 8.97469 4.5418C8.91619 4.2649 8.7836 3.8125 8.3741 3.3211C8.0075 2.857 7.43419 1.6636 8.05429 1.2268C8.25709 1.0708 8.49499 0.969401 8.74849 0.879701C9.00589 0.782201 9.26719 0.7354 9.54019 0.712C9.82099 0.6808 10.0823 0.696401 10.3514 0.727601C10.6283 0.754901 10.874 0.8212 11.1236 0.907C11.9387 1.1839 12.5081 1.8079 12.9605 2.3812C12.9839 2.3656 13.0073 2.35 13.0346 2.3305L13.0268 2.311Z" fill="var(--fill-0, white)" fill-opacity="0.2"/>
</svg>
