<svg preserveAspectRatio="none" width="100%" height="100%" overflow="visible" style="display: block;" viewBox="0 0 6.48991 10.0663" fill="none" xmlns="http://www.w3.org/2000/svg">
<path id="Vector" d="M4.46775 10.0488C3.88665 9.78364 3.41865 9.42094 3.01695 9.05044C2.80635 8.84764 2.62305 8.63704 2.39295 8.49274C1.76505 8.11834 1.15275 7.61524 0.684748 6.87814C0.454648 6.50764 0.259654 6.09034 0.142654 5.63014C0.0256541 5.14654 -0.0172483 4.74095 0.00615171 4.31585C0.0490517 3.25895 0.442948 2.34634 0.868048 1.68335C1.30095 1.00085 1.77675 0.513347 2.22525 0.0882465C2.36175 -0.0404535 2.64645 -0.00535587 2.91555 0.0492441C3.18075 0.0999441 3.73845 0.591346 4.40535 1.28165C5.37645 2.29175 6.28905 3.48514 6.41775 3.84394C6.49965 4.07404 6.42555 4.13644 6.30855 4.13644C5.75085 4.12084 5.52854 4.52254 5.88344 4.90474C5.97704 5.01004 6.19545 5.11144 6.00045 5.02564C5.68065 4.90474 5.51295 4.86574 5.40765 4.85404H5.34914V4.85014L4.88895 4.87745H4.89674H4.91235L4.95135 4.86575C5.00595 4.85405 5.08005 4.82674 5.16195 4.78384C5.20095 4.76434 5.23604 4.74094 5.27504 4.71364C5.29454 4.70194 5.31015 4.69024 5.32185 4.67464L5.30235 4.69415C5.16975 4.83845 5.20485 5.16994 5.31795 5.37274C5.36475 5.44294 5.36865 5.92264 5.89515 6.97174C6.13695 7.46314 6.62054 8.66434 6.45674 9.01144C6.24614 9.50284 5.86785 9.83434 5.46615 10.002C5.12685 10.1463 4.79144 10.0098 4.47164 9.95914C4.46384 9.98644 4.45995 10.0137 4.45215 10.0449L4.46775 10.0488Z" fill="var(--fill-0, white)" fill-opacity="0.2"/>
</svg>
