<svg preserveAspectRatio="none" width="100%" height="100%" overflow="visible" style="display: block;" viewBox="0 0 12.7823 12.8245" fill="none" xmlns="http://www.w3.org/2000/svg">
<path id="Vector" d="M2.18202 1.12849C3.30522 0.414792 4.52591 0.0598933 5.78561 0.00139331C6.46421 -0.0103067 7.13892 0.0520928 7.84092 0.172993C8.76912 0.309493 9.75581 0.715094 10.5202 1.35079C11.2963 1.98259 11.8774 2.80939 12.244 3.66739C12.6184 4.52929 12.7861 5.42629 12.7822 6.31549C12.7822 7.20469 12.6184 8.10169 12.2596 8.97139C11.815 10.0322 11.035 11.0774 9.92352 11.8067C8.81982 12.5399 7.49771 12.8636 6.28481 12.8207C5.06411 12.7817 3.96042 12.4268 2.99712 11.8886C2.03382 11.3426 1.19141 10.6016 0.528415 9.64999C0.317815 9.37699 0.200815 9.01039 0.103315 8.67109C0.0331147 8.30449 -0.00978462 7.94179 0.00191538 7.57519C0.0136154 6.86149 0.731215 6.33889 1.67112 6.11269C2.35752 5.94109 3.08681 5.96839 3.68741 5.99179C4.29581 6.02299 4.74432 6.03079 4.93932 6.05029C5.06412 6.06589 5.11092 6.08149 5.15382 6.11269C5.16942 6.12829 5.17722 6.14779 5.17332 6.17119C5.17722 6.19459 5.18112 6.22189 5.17332 6.25699C5.13822 6.41299 5.20062 6.57679 5.28642 6.73279C5.39562 6.87319 5.53211 7.01359 5.70761 7.07599C5.87531 7.15789 6.06252 7.16179 6.21852 7.13839C6.29262 7.10329 6.37061 7.09939 6.42521 7.03699L6.50321 6.96679C6.52272 6.93169 6.53831 6.90049 6.55001 6.86929C6.56561 6.83809 6.57732 6.79909 6.57342 6.75229C6.57342 6.70939 6.57342 6.68209 6.57342 6.65869C6.56562 6.62749 6.56171 6.61189 6.56561 6.61969L6.57342 6.62749V6.63139L6.59291 6.67039V6.66259V6.65479L6.60462 6.68209C6.77232 6.95119 6.97122 6.86149 7.06872 6.66649C7.17792 6.46369 7.20132 6.18289 7.30662 5.90599C7.39632 5.69149 7.36122 5.48479 7.31442 5.33659C7.26372 5.18059 7.20911 5.09089 7.15061 4.99339C7.10381 4.90369 7.05312 4.80619 6.91662 4.73599C6.86202 4.68139 6.76841 4.67359 6.68261 4.63069C6.58511 4.62289 6.48371 4.58389 6.37061 4.59169C5.91431 4.55659 5.34881 4.75159 4.96271 5.05579C4.89251 5.11819 4.78722 5.16109 4.68972 5.20789C4.63512 5.22739 4.57661 5.24689 4.50251 5.26639C4.44011 5.28589 4.37382 5.30539 4.29192 5.32489L4.02281 5.39119L3.71862 5.48479C3.48072 5.55499 3.23112 5.65249 2.93472 5.78509C2.38482 6.02689 1.08611 6.18289 0.824814 5.57059C0.629814 5.15329 0.575215 4.69309 0.563515 4.21729C0.583015 3.75709 0.668815 3.27739 0.844315 2.86009C0.973015 2.49349 1.20311 2.21269 1.44491 1.92799C1.69451 1.66669 1.96751 1.43269 2.23271 1.21039C2.21711 1.18699 2.19762 1.16359 2.18202 1.14019V1.12849Z" fill="var(--fill-0, white)" fill-opacity="0.2"/>
</svg>
