<svg preserveAspectRatio="none" width="100%" height="100%" overflow="visible" style="display: block;" viewBox="0 0 26.38 20.4614" fill="none" xmlns="http://www.w3.org/2000/svg">
<path id="Vector" d="M23.6557 2.41677C24.5761 3.38007 25.3054 4.49938 25.7968 5.75908C26.2804 7.01878 26.4988 8.44228 26.3155 9.85408C26.1244 11.3439 25.5043 12.6426 24.8374 13.7541C23.9404 15.2556 22.7626 16.4256 21.4756 17.3967C20.1769 18.3678 18.73 19.1166 17.2051 19.6353C14.1592 20.6688 10.7701 20.7663 7.5916 19.7367C5.6572 19.101 3.7423 18.1065 2.1316 16.3125C1.3438 15.4116 0.649606 14.2767 0.302506 12.9819C-0.0601938 11.6949 -0.0835941 10.3416 0.162106 9.13257C0.400006 7.91577 0.864105 6.81988 1.453 5.84488C2.0458 4.86988 2.7673 4.01188 3.6019 3.26308C3.8164 3.07978 4.0309 2.90038 4.2532 2.72488C4.4794 2.56108 4.71731 2.38168 4.93961 2.24128C5.38421 1.95268 5.84051 1.68748 6.30461 1.45738C7.22891 0.993277 8.1649 0.642278 9.0853 0.361478C10.1968 0.0260783 11.3356 0.00657543 12.3925 0.0416754C13.4065 0.0767754 14.1241 0.716379 14.6389 1.60558C15.3994 2.90818 15.0562 4.46817 13.8589 5.02587C13.1023 5.38077 12.2872 5.54067 11.5306 5.64597C10.6531 5.76687 9.838 5.97358 9.097 6.26998C8.7343 6.42598 8.3755 6.59367 8.0557 6.80037C7.8802 6.89787 7.75931 7.00318 7.61501 7.10068C7.48241 7.21768 7.342 7.31907 7.2211 7.44777C6.7141 7.93917 6.3085 8.54757 6.0901 9.16767C5.8522 9.78387 5.8405 10.3962 5.9653 10.8486C6.1369 11.3634 6.45281 11.5818 6.62051 12.1317C6.76481 12.5724 7.1275 13.0248 7.6072 13.4031C8.083 13.7853 8.6875 14.0778 9.3115 14.3079C9.9316 14.5497 10.5985 14.6706 11.2654 14.7837C11.9362 14.8812 12.6187 14.9124 13.3129 14.9475C14.3425 14.9748 15.3838 14.7837 16.3627 14.4405C17.3416 14.0973 18.2542 13.6059 19.0849 13.0209C19.8415 12.51 20.4811 11.8821 20.9608 11.2191C21.4327 10.5522 21.7057 9.86578 21.7486 9.18718C21.7915 8.50078 21.5926 7.71687 21.1753 6.99537C20.9686 6.63267 20.7112 6.28948 20.4148 5.97748C20.1223 5.66548 19.783 5.39248 19.4008 5.13898C18.1879 4.33948 16.8736 3.56728 15.4735 2.27248C14.83 1.68748 14.8924 0.38877 15.844 0.18207C17.1778 -0.0987303 18.6754 -0.0675298 20.173 0.36537C20.7853 0.54087 21.3898 0.82948 21.9592 1.19218C22.2439 1.37158 22.5208 1.57047 22.7938 1.78107C23.0746 1.99947 23.3398 2.22957 23.5972 2.46357C23.6206 2.44407 23.6401 2.42848 23.6674 2.40898L23.6557 2.41677Z" fill="var(--fill-0, white)" fill-opacity="0.2"/>
</svg>
