<svg preserveAspectRatio="none" width="100%" height="100%" overflow="visible" style="display: block;" viewBox="0 0 13.0649 11.806" fill="none" xmlns="http://www.w3.org/2000/svg">
<path id="Vector" d="M12.0473 1.39204C12.7532 2.46064 13.1042 3.66574 13.0613 4.95274C13.0535 5.28814 12.995 5.63524 12.9326 5.97064C12.8585 6.27484 12.7883 6.57514 12.7103 6.87154C12.5114 7.66714 12.1526 8.39643 11.7002 9.01263C11.2439 9.63273 10.6979 10.1592 10.0895 10.5882C9.47725 11.0172 8.79474 11.3487 8.04594 11.5632C7.85874 11.6139 7.66374 11.6568 7.47264 11.6997C7.27374 11.7309 7.07095 11.7621 6.87205 11.7816C6.47425 11.8128 6.07644 11.8167 5.68254 11.7777C4.71534 11.688 3.76764 11.3994 2.86674 10.8729C1.97364 10.3386 1.09614 9.51964 0.55014 8.39644C0.40584 8.12344 0.308338 7.82704 0.206938 7.53454C0.117238 7.17964 0.0275419 6.80914 0.0158419 6.46204C-0.0426581 5.74444 0.0665443 5.08143 0.249844 4.48083C0.639844 3.28743 1.32625 2.31634 2.37535 1.55194C3.01495 1.09174 3.96265 0.924033 4.84795 1.06833C5.27305 1.12293 5.61235 1.40763 5.79955 1.76253C5.98675 2.12523 6.02575 2.59324 5.96725 3.07294C5.87755 3.77884 5.54605 4.43014 5.34715 4.99564C5.32375 5.06194 5.30034 5.13214 5.27694 5.20234L5.24574 5.29984C5.23794 5.31934 5.24574 5.29984 5.24574 5.30374L5.25354 5.26864V5.24913V5.25694C5.25354 5.26084 5.25354 5.26474 5.25354 5.26474C5.24574 5.31934 5.28085 5.52604 5.39395 5.72884C5.45635 5.85754 5.53045 5.95503 5.60455 6.04083C5.62405 6.06033 5.63964 6.07984 5.65524 6.09544L5.63965 6.08374C5.63965 6.08374 5.61625 6.07204 5.60455 6.07204C5.55775 6.06814 5.51874 6.10713 5.53434 6.11493C5.54604 6.11883 5.51875 6.10713 5.49535 6.10323C5.47195 6.09543 5.44464 6.09153 5.41734 6.08763C5.35884 6.08373 5.32374 6.06814 5.26914 6.06814H5.13654C5.09364 6.06814 5.04684 6.07984 5.03514 6.07984C5.02344 6.07984 5.01174 6.08373 5.00004 6.08763L4.98055 6.09544L5.64354 5.89263C5.64354 5.89263 5.64354 5.89263 5.64744 5.89263C5.66694 5.88483 5.68645 5.87314 5.69815 5.86534C5.72545 5.84974 5.76055 5.83023 5.78395 5.81073C5.85805 5.76003 5.93995 5.68594 6.02965 5.59234C6.07645 5.54164 6.06865 5.54553 6.04135 5.63913C5.93605 5.94333 6.16224 6.11104 6.36504 6.13444C6.59124 6.17344 6.72774 6.12273 6.98904 6.17343C7.18404 6.21243 7.38295 6.14614 7.55065 6.05644C7.71835 5.96284 7.85484 5.84584 7.98744 5.75224C8.22924 5.59624 8.39304 5.37784 8.47494 5.24134C8.57244 5.03074 8.48275 4.61344 8.29555 4.35214C8.22145 4.25074 8.20974 4.07524 8.17074 3.79054C8.12784 3.50194 8.04984 3.06123 7.75344 2.50743C7.49214 1.99263 7.14895 0.721233 7.72225 0.385833C8.49445 -0.0665666 9.52404 -0.101666 10.3625 0.179134C11.0645 0.409234 11.5559 0.955241 11.9927 1.45444C12.0161 1.43494 12.0395 1.41934 12.0629 1.39984L12.0473 1.39204Z" fill="var(--fill-0, white)" fill-opacity="0.2"/>
</svg>
