<svg preserveAspectRatio="none" width="100%" height="100%" overflow="visible" style="display: block;" viewBox="0 0 25.7057 22.959" fill="none" xmlns="http://www.w3.org/2000/svg">
<path id="Vector" d="M22.7955 3.61887C23.712 4.57437 24.453 5.72876 24.9522 6.96896C25.4436 8.20916 25.6932 9.50396 25.7049 10.7715C25.7205 12.117 25.4943 13.4274 25.1472 14.6988C24.9171 15.549 24.5739 16.3797 24.1332 17.1675C23.9187 17.5653 23.6535 17.9397 23.3883 18.3141C23.0997 18.6768 22.8072 19.0317 22.4835 19.3476C21.2082 20.6463 19.6248 21.555 18.0063 22.1322C17.1951 22.413 16.3683 22.6197 15.5415 22.7562C14.7147 22.8849 13.884 22.9512 13.0572 22.959C12.2304 22.959 11.4075 22.9005 10.5924 22.7835C9.7851 22.6665 8.9739 22.491 8.1627 22.2414C7.1643 21.9333 6.15811 21.5121 5.19481 20.931C4.23151 20.346 3.3072 19.6089 2.5233 18.6768C0.939903 16.8126 0.14431 14.4882 0.0195098 12.2301C-0.10919 9.96417 0.397802 7.66706 1.5717 5.64686C2.7222 3.67346 4.39921 2.11737 6.26731 1.04487C7.40221 0.393569 8.71261 0.104968 9.96061 0.00746781C11.1735 -0.0783322 12.0276 0.584664 12.5034 1.50896C12.8544 2.18366 12.8583 2.90907 12.6945 3.52137C12.5229 4.12977 12.1914 4.62117 11.7117 4.90197C11.1033 5.25687 10.4442 5.47137 9.79291 5.68587C8.29141 6.16167 6.9927 7.21466 6.2985 8.51726C5.6316 9.77696 5.54191 11.4306 6.07621 12.7098C6.20881 13.0686 6.41941 13.3845 6.59881 13.6848C6.78601 13.9812 6.95371 14.2503 7.06291 14.5623C7.23061 15.0459 7.5855 15.5139 8.0652 15.8883C8.5371 16.2705 9.13771 16.5669 9.78901 16.7892C10.4403 17.0115 11.154 17.1714 11.8716 17.2728C12.5853 17.3781 13.3029 17.4327 14.0166 17.4561C14.547 17.4795 15.0774 17.4444 15.5883 17.3547C16.1031 17.2728 16.5945 17.1324 17.0547 16.953C17.5227 16.7814 17.9478 16.5513 18.3417 16.2939C18.7395 16.0443 19.0983 15.7362 19.4181 15.4203C19.9875 14.8626 20.4282 14.1216 20.7285 13.3104C21.0093 12.4914 21.1497 11.5983 21.0795 10.7169C21.0483 10.2801 20.9781 9.84327 20.8455 9.42987C20.7285 9.00867 20.5491 8.61866 20.3307 8.23646C20.1201 7.85036 19.8276 7.50326 19.5273 7.16396C19.2114 6.83636 18.8565 6.53217 18.4743 6.26697C17.862 5.84187 17.2341 5.45577 16.5828 5.02677C15.9276 4.60557 15.2373 4.14537 14.4144 3.63447C13.6617 3.18207 13.3653 1.91067 14.4378 1.50507C15.1788 1.25547 15.9822 1.12677 16.8051 1.11507C17.6202 1.12287 18.4509 1.23987 19.2465 1.47387C20.5647 1.86387 21.7191 2.72577 22.7409 3.66957C22.7643 3.65007 22.7838 3.63447 22.8111 3.61497L22.7955 3.61887Z" fill="var(--fill-0, white)" fill-opacity="0.2"/>
</svg>
