<svg preserveAspectRatio="none" width="100%" height="100%" overflow="visible" style="display: block;" viewBox="0 0 5.24147 6.79782" fill="none" xmlns="http://www.w3.org/2000/svg">
<path id="Vector" d="M0.981077 2.21809C1.00838 2.37799 0.988881 2.56129 0.930381 2.77189C0.899181 2.88109 0.86798 3.01369 0.75878 3.08779C0.60278 3.19699 0.446779 3.33349 0.306379 3.55189C0.169879 3.76639 0.0801777 4.01599 0.0372777 4.23829C-0.0407223 4.69069 0.00997987 5.01049 0.13088 5.24839C0.20498 5.39269 0.302479 5.52139 0.446779 5.63839C0.477979 5.66569 0.532581 5.70079 0.552081 5.71639C0.571581 5.73199 0.59888 5.74759 0.61838 5.75929C0.66128 5.78269 0.700279 5.80219 0.727579 5.81389C0.852379 5.86069 0.832879 5.81779 0.684679 5.79049C0.641779 5.78269 0.602781 5.55649 0.552081 5.33029C0.505281 5.11189 0.509181 4.37479 0.552081 3.41149C0.614481 2.01139 0.770481 0.517687 0.930381 0.178387C1.03178 -0.040013 1.13318 -0.0322134 1.22678 0.0652866C1.44128 0.279787 1.68698 0.392887 1.99118 0.427987C2.29538 0.463087 2.66588 0.420186 3.15728 0.369486C3.43418 0.346086 3.76568 0.260286 3.92558 0.607386C4.15178 1.13779 4.39748 1.45759 4.65878 1.80469C4.91228 2.14789 5.16968 2.53009 5.20088 3.03319C5.22038 3.39589 5.25938 3.77809 5.23208 4.18369C5.20868 4.58929 5.11118 5.02999 4.89278 5.40049C4.70558 5.71249 4.46768 5.98549 4.20638 6.19219C3.95288 6.39499 3.68378 6.53929 3.44588 6.62509C2.96618 6.79669 2.57618 6.80839 2.26028 6.79279C2.00288 6.77719 1.71038 6.38329 1.37498 5.26789C1.21898 4.75309 1.00838 3.47779 1.00448 3.18139C1.00448 2.76409 1.00448 2.49109 0.992777 2.32729C0.984977 2.19079 1.01228 2.29219 1.00838 2.29609C1.00058 2.26879 0.988877 2.24149 0.981077 2.21419V2.21809Z" fill="var(--fill-0, white)" fill-opacity="0.2"/>
</svg>
