<svg preserveAspectRatio="none" width="100%" height="100%" overflow="visible" style="display: block;" viewBox="0 0 7.47992 4.9544" fill="none" xmlns="http://www.w3.org/2000/svg">
<path id="Vector" d="M6.88358 4.8168C6.44678 4.8675 6.03338 4.8324 5.65898 4.7778C5.46008 4.7505 5.26898 4.6959 5.08958 4.7505C4.61768 4.8909 4.09118 4.9845 3.51788 4.9455C2.95238 4.9143 2.32058 4.7154 1.82138 4.3761C1.20908 3.9588 0.748883 3.3933 0.448583 2.7693C0.148283 2.1453 -0.00382686 1.4511 7.31358e-05 0.721802C7.31358e-05 0.499502 0.237981 0.281101 0.483681 0.109501C0.725481 -0.058199 1.47428 -0.0269985 2.41808 0.160201C3.10448 0.296701 3.80258 0.491702 4.37978 0.636002C4.43828 0.651602 4.49288 0.663301 4.53578 0.675001C4.54358 0.675001 4.55138 0.675001 4.55528 0.675001C4.57868 0.678901 4.60208 0.678902 4.62938 0.682802C4.75028 0.690602 4.84778 0.643802 4.80488 0.663302C4.79708 0.667202 4.77758 0.678901 4.76198 0.694501C4.73078 0.717901 4.69568 0.753001 4.66448 0.792001C4.64888 0.807601 4.63328 0.834902 4.62548 0.846602C4.62548 0.850502 4.60988 0.873902 4.61378 0.866102L4.62548 0.838802C4.65278 0.780302 4.67228 0.694501 4.67228 0.639901C4.67228 0.530701 4.65278 0.597002 4.73078 0.717902C4.66838 0.624302 4.94528 1.104 5.85398 1.8021C6.27908 2.1336 7.27747 2.9604 7.37497 3.2763C7.52707 3.717 7.49978 4.0953 7.38278 4.3761C7.28528 4.614 7.03568 4.6413 6.84848 4.7427C6.86018 4.77 6.87187 4.7934 6.88747 4.8207L6.88358 4.8168Z" fill="var(--fill-0, white)" fill-opacity="0.2"/>
</svg>
