<svg preserveAspectRatio="none" width="100%" height="100%" overflow="visible" style="display: block;" viewBox="0 0 5.80162 7.84891" fill="none" xmlns="http://www.w3.org/2000/svg">
<path id="Vector" d="M0.13808 3.69591C0.32138 3.76611 0.492979 3.85581 0.633379 3.92211C0.703579 3.95721 0.785479 3.99621 0.773779 3.95721C0.762079 3.83241 0.56318 3.87142 0.43058 3.91822C0.29798 3.97282 0.134181 4.12881 0.141981 4.46421C0.141981 4.66701 0.219981 4.94391 0.375981 5.18961C0.524181 5.42751 0.723081 5.60301 0.894681 5.70441C1.24568 5.89941 1.29248 5.82141 1.13648 5.80191C1.08968 5.79411 1.04678 5.57182 0.97268 5.34562C0.90638 5.12722 0.863479 4.39402 0.843979 3.43072C0.812779 2.02672 0.894681 0.52911 1.10138 0.18201C1.23008 -0.0402896 1.37828 -0.0324849 1.51868 0.0650151C1.84238 0.287315 2.18948 0.400414 2.63408 0.490114C3.07478 0.583714 3.62858 0.622707 4.34228 0.848907C4.72838 0.958107 5.23148 1.14142 5.32898 1.60162C5.48888 2.33482 5.64488 2.91981 5.73848 3.47751C5.82818 4.03131 5.84378 4.56171 5.64098 4.99851C5.33288 5.63031 5.15348 6.22311 4.68938 6.70281C3.90938 7.45941 3.08258 7.68952 2.45078 7.84162C2.18948 7.90012 1.78778 7.61541 1.08578 6.67941C0.758181 6.24651 0.15368 5.10382 0.0951802 4.80742C0.0132803 4.38232 -0.00621891 4.09371 0.00158109 3.90261C0.00938109 3.74271 0.126381 3.79731 0.180981 3.76221C0.165381 3.73881 0.14978 3.71542 0.13418 3.68812L0.13808 3.69591Z" fill="var(--fill-0, white)" fill-opacity="0.2"/>
</svg>
