<svg preserveAspectRatio="none" width="100%" height="100%" overflow="visible" style="display: block;" viewBox="0 0 5.72591 9.29879" fill="none" xmlns="http://www.w3.org/2000/svg">
<path id="Vector" d="M3.95699 9.28275C3.46169 9.02535 3.06779 8.68995 2.73629 8.35065C2.55689 8.17125 2.41259 7.97234 2.20589 7.85924C1.65599 7.54724 1.11389 7.11824 0.68099 6.49424C0.24809 5.88194 -0.0288103 5.01615 0.00238974 4.20495C0.0413897 3.21045 0.40409 2.32514 0.94229 1.63094C1.48049 0.932845 2.20979 0.375146 3.12239 0.0358462C3.40319 -0.0655538 3.76199 0.06315 4.07009 0.23475C4.37429 0.39855 4.60049 1.13175 4.69019 2.08725C4.76039 2.78535 4.74869 3.51075 4.77209 4.10355C4.77209 4.18545 4.77599 4.25955 4.77989 4.32195C4.77989 4.32975 4.77989 4.33365 4.77989 4.34145C4.77989 4.37265 4.79159 4.39605 4.80329 4.43895C4.83059 4.52475 4.88519 4.62225 4.92809 4.67685C4.97099 4.73145 4.99439 4.73925 4.96319 4.71975C4.94369 4.70805 4.91249 4.68855 4.86959 4.66905C4.80329 4.63785 4.71359 4.61445 4.63559 4.60665C4.61219 4.60275 4.55759 4.60665 4.54979 4.60665C4.54589 4.60665 4.51859 4.60665 4.52639 4.60665C4.53809 4.60665 4.54979 4.60274 4.55759 4.59884C4.62389 4.58324 4.76819 4.50915 4.84619 4.43505C4.91639 4.37265 4.93589 4.32975 4.91639 4.36485C4.89689 4.39605 4.85789 4.50915 4.85009 4.61835C4.85009 4.66905 4.79159 5.16045 5.22059 6.24075C5.41949 6.74385 5.84069 7.97234 5.69639 8.30384C5.51309 8.77574 5.18159 9.08385 4.83449 9.23985C4.53809 9.37635 4.25339 9.23985 3.98039 9.18915C3.97259 9.21645 3.96869 9.24375 3.96089 9.27495L3.95699 9.28275Z" fill="var(--fill-0, white)" fill-opacity="0.2"/>
</svg>
