<svg preserveAspectRatio="none" width="100%" height="100%" overflow="visible" style="display: block;" viewBox="0 0 23.8917 21.3498" fill="none" xmlns="http://www.w3.org/2000/svg">
<path id="Vector" d="M13.4567 0.0626285C14.5682 0.273229 15.6407 0.647628 16.6508 1.13123C17.6609 1.61873 18.6203 2.21543 19.4705 2.95643C20.3714 3.72863 21.1904 4.65293 21.8885 5.62403C22.8323 6.91493 23.5577 8.42813 23.8073 10.187C23.9321 11.0606 23.9243 11.9927 23.7449 12.9209C23.5655 13.8491 23.2106 14.7617 22.7387 15.5378C21.791 17.1056 20.5118 18.221 19.2014 19.0712C17.8832 19.9253 16.4285 20.5454 14.9153 20.9159C13.0511 21.3761 11.0972 21.4775 9.17064 21.185C8.21904 21.0407 7.23234 20.7911 6.28074 20.4167C5.33304 20.0384 4.41264 19.5392 3.54684 18.884C2.68494 18.2171 1.86984 17.3942 1.23414 16.3646C0.918243 15.8498 0.649142 15.296 0.450242 14.7071C0.263042 14.1221 0.114841 13.5332 0.0524408 12.9287C-0.0840592 11.7197 0.0563424 10.5224 0.352742 9.47333C0.649142 8.42033 1.08204 7.48043 1.56564 6.64973C2.15454 5.63573 2.99694 4.87133 3.83154 4.22783C4.63494 3.61163 5.60214 3.68183 6.53814 4.09523C7.90704 4.71143 8.56224 6.14273 8.09814 7.19183C7.79784 7.86263 7.34934 8.43203 6.91254 8.93513C6.40944 9.51233 6.00384 10.1285 5.76984 10.7213C5.53584 11.318 5.46564 11.8757 5.55144 12.3671C5.55924 12.4919 5.60994 12.6128 5.64504 12.7337C5.67234 12.8585 5.73864 12.9599 5.78544 13.0691C5.89854 13.2836 6.06234 13.4786 6.24564 13.6658C6.62784 14.0363 7.15434 14.3444 7.76274 14.5394C8.09814 14.6447 8.46084 14.7149 8.81184 14.7851C9.16674 14.8592 9.49824 14.9294 9.84924 15.101C10.9568 15.6314 12.2789 15.6704 13.4996 15.4052C14.732 15.1439 15.8825 14.594 16.9277 13.9895C17.6999 13.5449 18.2732 12.9404 18.5618 12.3515C18.8504 11.7782 18.9206 11.1152 18.8153 10.3313C18.7295 9.64103 18.4409 8.89613 18.0275 8.22143C17.8169 7.88603 17.5829 7.55453 17.3138 7.26593C17.1812 7.11773 17.0213 6.97733 16.877 6.82913C16.7288 6.68483 16.5572 6.56393 16.3973 6.42353C15.0674 5.39003 13.3124 4.76993 11.5223 4.70363C10.8086 4.68413 10.1066 4.62563 9.37344 4.55543C8.64024 4.47353 7.86024 4.33703 6.96714 4.16933C6.14424 4.00553 5.42274 2.92913 6.12864 2.21543C7.11534 1.24043 8.44524 0.538428 9.84924 0.187428C11.0114 -0.105072 12.2438 -0.00367183 13.4177 0.144528C13.4255 0.117228 13.4333 0.0899277 13.4411 0.0587277L13.4567 0.0626285Z" fill="var(--fill-0, white)" fill-opacity="0.2"/>
</svg>
