<svg preserveAspectRatio="none" width="100%" height="100%" overflow="visible" style="display: block;" viewBox="0 0 14.9837 12.5386" fill="none" xmlns="http://www.w3.org/2000/svg">
<path id="Vector" d="M11.2333 0.40987C11.7793 0.71017 12.3292 1.06897 12.8713 1.53697C13.4134 2.02057 13.9438 2.63287 14.3338 3.38557C14.4313 3.59227 14.521 3.79897 14.6029 4.00567C14.6731 4.22017 14.7316 4.43857 14.7901 4.65307C14.8525 4.87147 14.8681 5.08207 14.9032 5.29657L14.95 5.61637L14.9695 5.94787C15.0202 6.54067 14.9305 7.15297 14.7706 7.72237C14.599 8.28397 14.3455 8.80267 14.0491 9.24337C13.4524 10.1404 12.7192 10.7644 11.9509 11.2675C11.1748 11.7667 10.3441 12.1177 9.42368 12.3283C8.52278 12.5311 7.65308 12.5818 6.76388 12.5038C5.67578 12.3907 4.57988 12.1177 3.50738 11.5249C2.97308 11.2441 2.45438 10.858 1.97078 10.4095C1.49108 9.95317 1.06208 9.39937 0.722783 8.78707C0.640883 8.63497 0.566784 8.47507 0.492684 8.31517L0.387383 8.07337C0.352283 7.98367 0.317179 7.87447 0.285979 7.77697C0.223579 7.57417 0.165084 7.37137 0.114384 7.16467C0.0792839 6.96187 0.0519834 6.75907 0.0285834 6.55627C0.0012834 6.34957 -0.00261945 6.15457 0.00128055 5.95957C0.00518055 5.76457 0.0090834 5.56567 0.0285834 5.37847C0.0792834 5.01187 0.137782 4.63357 0.246982 4.29817C0.656482 2.92147 1.42868 1.79047 2.62598 0.877869C3.36308 0.335769 4.46288 0.09787 5.50808 0.25777C6.00728 0.31627 6.39338 0.636068 6.60788 0.998768C6.81848 1.38487 6.85748 1.86457 6.79118 2.34427C6.68978 3.05017 6.30758 3.67807 6.05408 4.22407C5.98778 4.36057 5.92928 4.48927 5.88248 4.61017C5.86298 4.66477 5.83958 4.72327 5.82008 4.78567L5.79668 4.85977V4.84027L5.80838 4.79737C5.80838 4.79737 5.80838 4.79737 5.80838 4.79347C5.79668 4.83247 5.82788 5.10937 5.99558 5.40577L6.03068 5.47597L6.00728 5.44867C5.98778 5.42917 5.96438 5.44087 5.93708 5.43697C5.90588 5.42917 5.88248 5.44867 5.85128 5.45647C5.82008 5.46427 5.78888 5.47987 5.76548 5.50327C5.65238 5.58127 5.56268 5.72557 5.55878 5.83867C5.54318 5.86987 5.55878 5.88937 5.55878 5.91277C5.55878 5.93617 5.56268 5.95567 5.58218 5.96737C5.59778 5.97517 5.58998 5.99857 5.61728 5.99467H5.64068L5.56268 6.01027C5.54318 6.01027 5.51588 6.01807 5.48078 6.03367H5.47298V6.03757C5.25458 6.12337 5.76938 5.92057 5.71868 5.94007L5.73038 5.94787L5.75768 5.95957L5.80448 5.97907C5.82788 5.99467 5.87468 5.99857 5.90978 6.00637C5.94098 6.01417 5.97998 6.01807 6.02288 6.01417C6.20228 6.01807 6.40898 5.90107 6.44408 6.15457C6.47528 6.36127 6.61568 6.51727 6.78338 6.63427C6.95888 6.74347 7.16948 6.81367 7.39178 6.84487C7.82858 6.90727 8.31998 6.85267 8.69048 6.86827C9.00638 6.88387 9.33788 6.77077 9.58748 6.62257C9.84098 6.47437 10.0204 6.30277 10.1335 6.21697C10.231 6.13507 10.2778 6.12727 10.3324 6.06487C10.3714 5.97127 10.4143 5.88547 10.3831 5.75677C10.3519 5.62027 10.2037 5.40966 9.95018 5.20686C9.70058 5.00016 9.34568 4.81297 8.95958 4.65307C8.34338 4.39177 7.76618 3.86137 7.18118 2.65237C6.91208 2.09077 6.98618 0.80377 7.43468 0.55027C8.06258 0.19147 8.74898 0.0159686 9.45488 0.000368603C10.0399 -0.0113314 10.6054 0.257771 11.1982 0.483971C11.2099 0.456671 11.2216 0.433266 11.2333 0.405966V0.40987Z" fill="var(--fill-0, white)" fill-opacity="0.2"/>
</svg>
