<svg preserveAspectRatio="none" width="100%" height="100%" overflow="visible" style="display: block;" viewBox="0 0 12.4871 21.1782" fill="none" xmlns="http://www.w3.org/2000/svg">
<path id="Vector" d="M9.27741 5.70729C9.45741 6.34377 9.70341 6.95373 9.98941 7.53921C10.0654 7.68201 10.1294 7.83501 10.2154 7.97169L10.4614 8.39193C10.6414 8.65713 10.8174 8.93253 11.0214 9.17733C11.3154 9.56085 11.6574 9.89949 12.0174 10.2116L12.0334 10.2259C12.5734 10.693 12.6414 11.5172 12.1834 12.07C12.1114 12.1578 12.0234 12.2373 11.9354 12.3006C11.7774 12.4128 11.6194 12.527 11.4654 12.6433C10.4654 13.4919 9.63941 14.6139 9.06541 15.8563C8.77541 16.4744 8.54142 17.1211 8.38542 17.7637C8.35142 17.9228 8.30542 18.084 8.28542 18.2411C8.25942 18.3981 8.22941 18.5573 8.21941 18.7062L8.19741 18.9306V19.1386L8.19141 19.2427C8.19141 19.2753 8.19742 19.3039 8.19942 19.3324C8.20542 19.3916 8.20942 19.4508 8.21142 19.5099L8.21541 19.5813C8.25141 20.4238 7.61142 21.1399 6.78542 21.1766C6.11942 21.2072 5.53341 20.7849 5.31341 20.1811C5.10141 19.5956 4.92141 19.0122 4.76941 18.4654C4.61541 17.9208 4.47742 17.3883 4.32342 16.9151C4.28742 16.7947 4.24941 16.6784 4.20941 16.5703C4.16941 16.4601 4.13342 16.3459 4.09142 16.2398C4.00342 16.0358 3.92342 15.8216 3.82342 15.6441C3.73542 15.4483 3.62141 15.2912 3.52141 15.1178C3.46541 15.0382 3.40341 14.9668 3.34741 14.8893L3.26142 14.7751L3.16142 14.6751C2.65342 14.1304 1.95941 13.7184 1.10341 13.4389C0.269415 13.1676 -0.190582 12.2577 0.075418 11.407C0.197418 11.0154 0.453416 10.7053 0.773416 10.5094L0.851413 10.4625L1.24342 10.2239C1.30942 10.1831 1.37541 10.1463 1.43941 10.1055L1.62141 9.96885C1.74141 9.87705 1.86942 9.79341 1.98742 9.69753L2.32741 9.39765C2.76141 8.97537 3.17541 8.52453 3.50141 7.99005C3.83541 7.46577 4.13142 6.90069 4.35542 6.28869C4.48342 5.99289 4.56541 5.66853 4.67141 5.35641L4.79541 4.87089L4.85741 4.62813L4.90542 4.37925C5.05742 3.69585 5.24341 2.98797 5.41941 2.27805C5.45541 2.10669 5.50942 1.95165 5.57542 1.80885C5.64542 1.65381 5.71541 1.59669 5.82141 1.28661C5.92941 1.04385 6.06941 0.85413 6.20741 0.74193C6.34541 0.62769 6.47341 0.58281 6.57741 0.58281C6.87941 0.59301 6.95142 1.01529 7.24942 1.35801C7.38942 1.52937 7.60541 1.66401 7.79741 1.67013C7.89141 1.67625 7.96741 1.65585 8.01341 1.63749L8.02141 1.63341C8.02141 1.63341 8.02741 1.63341 8.02741 1.64361L8.03941 1.69053C8.04541 1.72113 8.05341 1.75377 8.05941 1.78641C8.07141 1.85169 8.08141 1.91901 8.08941 1.99041C8.10741 2.16789 8.11942 2.35149 8.12542 2.53509C8.12542 2.72073 8.11541 2.90841 8.10141 3.09609C8.08141 3.47145 8.00942 3.84885 7.93542 4.21401C7.74542 5.05041 7.53741 5.88477 7.23941 6.70485C6.94741 7.52289 6.61141 8.33481 6.16541 9.10389C5.30741 10.6522 4.06141 12.0496 2.55341 13.0594C2.46741 13.1186 2.38341 13.1798 2.29541 13.239L2.05941 10.4544C2.49541 10.589 2.94341 10.691 3.37741 10.9093C3.59541 11.0093 3.80942 11.1092 4.01142 11.254C4.11342 11.3214 4.21141 11.3907 4.30941 11.4642C4.40741 11.5335 4.50142 11.609 4.58742 11.6988C5.17942 12.2373 5.67941 12.8901 6.07741 13.5572C6.47941 14.2304 6.75341 14.9301 6.96941 15.5931C7.18741 16.2561 7.35541 16.9028 7.50941 17.5046C7.66541 18.1064 7.81742 18.6756 7.97942 19.2101L5.39142 19.8078C5.38542 19.5426 5.36942 19.259 5.39942 19.0203C5.44542 18.3838 5.57141 17.8167 5.72141 17.2598L5.83742 16.8477L5.97342 16.4458C6.05942 16.1745 6.16941 15.9195 6.27141 15.6584C6.69741 14.6241 7.25342 13.6551 7.93742 12.7759C8.69342 11.815 9.59741 10.9501 10.6534 10.2871L10.5814 12.1313C9.52142 11.2357 8.64141 10.1545 7.99541 8.97129L7.75341 8.52657L7.53742 8.07165L7.42942 7.84521L7.33542 7.61265L7.14741 7.14753C6.92141 6.52125 6.71741 5.88885 6.57141 5.24421C6.21541 3.76317 6.29341 2.27601 6.86341 1.06017C6.93941 0.89697 7.05142 0.784769 7.17342 0.731729C7.19542 0.721529 7.20541 0.69705 7.19541 0.67461C7.19541 0.67053 7.19142 0.66645 7.18742 0.66237L7.00341 0.45633C6.92741 0.37065 6.78942 0.325769 6.70542 0.309449C6.61742 0.291089 6.56541 0.276811 6.54541 0.242131C6.52741 0.209491 6.53742 0.15237 6.63742 0.0850498C6.68742 0.0524098 6.76541 0.0177299 6.86941 0.00548993C6.97141 -0.00879007 7.09542 0.00548955 7.20542 0.0401695L7.62942 0.731729C7.77342 0.801089 7.89541 0.94389 7.95341 1.15605C8.18741 2.00265 8.40941 2.85741 8.65341 3.68361C8.85141 4.36089 8.99542 5.06469 9.23142 5.72769C9.24542 5.72361 9.25942 5.72157 9.27542 5.71749L9.27741 5.70729Z" fill="var(--fill-0, white)" fill-opacity="0.2"/>
</svg>
