<svg preserveAspectRatio="none" width="100%" height="100%" overflow="visible" style="display: block;" viewBox="0 0 30.2619 42.052" fill="none" xmlns="http://www.w3.org/2000/svg">
<path id="Vector" d="M20.8625 11.9344C21.6785 13.3114 22.6385 14.6108 23.7625 15.7349C24.3225 16.2979 24.9125 16.8263 25.5445 17.2975C26.1765 17.7667 26.8385 18.187 27.5305 18.548C28.1145 18.8561 28.7245 19.1009 29.3425 19.3171L29.4085 19.3396C30.0685 19.5721 30.4205 20.3065 30.1925 20.9797C30.0765 21.3245 29.8285 21.5876 29.5285 21.7304C28.5005 22.216 27.4625 22.6444 26.4685 23.0809C25.6025 23.4624 24.7705 23.8398 23.9985 24.2702C23.2245 24.6966 22.5185 25.1903 21.8605 25.7554C21.6965 25.8961 21.5325 26.0389 21.3785 26.194L21.1425 26.4204C21.0665 26.4959 21.0145 26.5673 20.9505 26.6387C20.8265 26.7835 20.6965 26.9141 20.5805 27.0956C20.4625 27.269 20.3365 27.4241 20.2245 27.6118L19.8885 28.1707C19.7785 28.3604 19.6785 28.5644 19.5745 28.7603L19.4185 29.0561L19.2745 29.3662L18.9865 29.9843C18.2545 31.6693 17.6485 33.4482 17.1405 35.2516C16.8965 36.1553 16.6585 37.0631 16.4725 37.9729C16.2865 38.8787 16.1185 39.7946 16.0365 40.6596C15.9565 41.5062 15.2185 42.1264 14.3885 42.0448C13.7565 41.9815 13.2525 41.5307 13.0845 40.9432L13.0805 40.9248C12.7665 39.8191 12.5685 38.7685 12.3745 37.7261L11.8325 34.6436C11.5365 32.9729 11.2205 31.3246 10.7825 29.7864C10.5585 29.0255 10.2965 28.2952 9.99048 27.6648L9.74848 27.2282C9.65248 27.0793 9.54648 26.9263 9.44648 26.7754C9.23048 26.4775 9.00648 26.1817 8.75448 25.9002C8.26048 25.3331 7.70648 24.7966 7.11248 24.2927C6.51448 23.7949 5.88048 23.3278 5.22048 22.8932C3.90048 22.0262 2.47448 21.2918 1.01448 20.7104C0.194482 20.384 -0.211517 19.4395 0.110483 18.6031C0.274483 18.1727 0.598482 17.8544 0.986482 17.6912L1.00048 17.6851C2.15448 17.2037 3.30648 16.7202 4.38048 16.151C5.47448 15.6043 6.48048 14.9638 7.40648 14.2518L8.08448 13.701L8.70648 13.0992C8.92448 12.9074 9.10048 12.679 9.29048 12.4627C9.47248 12.2404 9.68048 12.0384 9.83648 11.7916L10.3385 11.0837C10.4965 10.8389 10.6345 10.5778 10.7845 10.3289L11.0065 9.94944C11.0745 9.81684 11.1345 9.68016 11.1985 9.54756L11.5805 8.74176C12.2345 7.19952 12.8065 5.54304 13.2945 3.87024C13.4025 3.46632 13.5185 3.09912 13.6425 2.76864C13.7045 2.6034 13.7685 2.44632 13.8345 2.2974C13.8525 2.25252 13.8625 2.24232 13.8765 2.22192C13.8885 2.20356 13.9025 2.1852 13.9165 2.16888C13.9445 2.1342 13.9745 2.10156 14.0085 2.06892C14.1405 1.93836 14.3225 1.80372 14.4985 1.61604C14.6765 1.4304 14.8425 1.19988 14.9745 0.957122C15.3585 0.237002 15.4105 -0.193438 15.6565 0.0860418C15.7165 0.157442 15.7885 0.277802 15.8685 0.465482C15.9485 0.651122 16.0345 0.910202 16.0965 1.24068C16.1585 1.56912 16.1885 1.96488 16.1745 2.379C16.1705 2.481 16.1645 2.59116 16.1585 2.68704C16.1525 2.7564 16.1485 2.8278 16.1425 2.90124C16.1305 3.04812 16.1145 3.19908 16.0945 3.35616C16.0465 3.75396 15.9885 4.15788 15.9245 4.56792C15.8565 4.97796 15.7525 5.39004 15.6585 5.80416C15.4845 6.63444 15.1905 7.4586 14.9265 8.2542C14.7885 8.61324 14.6365 8.9682 14.4925 9.3252L14.2745 9.85968L14.0185 10.3819C13.8425 10.7287 13.6825 11.0816 13.4925 11.4203L12.8905 12.426C12.0365 13.7398 11.0025 14.9454 9.83248 15.9695L8.93248 16.7018C8.62648 16.9344 8.30848 17.1425 7.99448 17.3648C7.68448 17.5933 7.35848 17.779 7.03448 17.9748C6.71048 18.1686 6.39048 18.3746 6.05848 18.5399L5.07248 19.0662L4.07648 19.5476L3.57848 19.7863L3.07848 20.0087L2.07648 20.4554L2.06448 17.9218C3.59048 18.4909 5.05848 19.1825 6.47048 20.0066C7.38848 20.5432 8.30448 21.1409 9.16248 21.8345C10.0205 22.526 10.8185 23.3155 11.4705 24.209C11.6825 24.5191 11.9045 24.8149 12.0965 25.1434C12.1945 25.3086 12.2985 25.4534 12.3905 25.637L12.6645 26.1715C12.7645 26.351 12.8185 26.5244 12.8965 26.7019C12.9665 26.8774 13.0465 27.0548 13.1065 27.2282C13.2185 27.575 13.3545 27.9259 13.4465 28.2686C13.8545 29.6477 14.1305 31.0022 14.3845 32.3446C14.6345 33.6869 14.8505 35.019 15.0725 36.3287C15.2965 37.6343 15.5205 38.9378 15.8285 40.1149L13.1825 40.3516C13.3025 39.2785 13.5125 38.283 13.7485 37.2916C14.0345 36.1084 14.3645 34.9496 14.7305 33.797C15.0945 32.6444 15.4925 31.502 15.9525 30.3739C16.4125 29.2458 16.9045 28.1258 17.5365 27.0344C17.8545 26.4898 18.1945 25.9492 18.6045 25.4228C18.6545 25.3576 18.7005 25.2902 18.7565 25.225L18.9305 25.0312L19.2825 24.6476C19.4005 24.5191 19.5145 24.4273 19.6325 24.3172C19.7505 24.2111 19.8625 24.1009 19.9845 24.001C20.6225 23.444 21.3205 22.9483 22.0425 22.5138C22.7645 22.0793 23.5085 21.7141 24.2445 21.3877C25.7205 20.739 27.1445 20.2086 28.5005 19.5578L28.6585 21.6121C27.3385 21.1796 26.0865 20.5656 24.9305 19.819C23.7805 19.0621 22.7285 18.1747 21.7745 17.1996C20.8265 16.2184 19.9805 15.1453 19.2305 14.0111C18.4825 12.8789 17.8505 11.6528 17.3185 10.4166C16.6405 8.82744 16.1705 7.224 15.8665 5.66748C15.5585 4.11096 15.4185 2.59728 15.4165 1.16112C15.4185 0.620522 15.5325 0.294122 15.6985 0.204362L15.5165 0.673562C15.4725 0.714362 15.4065 0.751082 15.3405 0.767402C15.2745 0.783722 15.2125 0.783722 15.1685 0.779642C15.0785 0.769442 15.0445 0.757202 15.0365 0.769442C15.0325 0.779642 15.0565 0.818402 15.1565 0.857162C15.2065 0.875522 15.2785 0.891842 15.3625 0.883682C15.4465 0.877562 15.5385 0.846962 15.6065 0.804122L15.8505 0.173762C16.0665 0.198242 16.3205 0.543002 16.5365 1.21008C17.1825 3.20928 17.8505 5.27784 18.6305 7.24644C19.2665 8.86212 19.9305 10.4962 20.8125 11.9364C20.8265 11.9323 20.8405 11.9282 20.8585 11.9242L20.8625 11.9344Z" fill="var(--fill-0, white)" fill-opacity="0.2"/>
</svg>
