<svg width="246" height="95" viewBox="0 0 246 95" fill="none" xmlns="http://www.w3.org/2000/svg">
<g filter="url(#filter0_dd_2517_28768)">
<rect x="28" y="20" width="190" height="39" rx="10" fill="#387440" shape-rendering="crispEdges"/>
<rect x="28.5" y="20.5" width="189" height="38" rx="9.5" stroke="#2A5730" shape-rendering="crispEdges"/>
<path opacity="0.9" d="M52.3291 44C52.3291 44 46.8291 40.5 46.8291 37C46.9752 36.4435 47.2563 35.9316 47.6474 35.5097C48.0386 35.0877 48.5277 34.7686 49.0715 34.5808C49.6154 34.3929 50.1971 34.342 50.7653 34.4326C51.3335 34.5231 51.8706 34.7524 52.3291 35.1C52.7876 34.7524 53.3247 34.5231 53.8929 34.4326C54.4611 34.342 55.0428 34.3929 55.5867 34.5808C56.1305 34.7686 56.6196 35.0877 57.0108 35.5097C57.4019 35.9316 57.683 36.4435 57.8291 37C57.8291 40.5 52.3291 44 52.3291 44Z" fill="white"/>
<path d="M68.2432 45.125C67.6963 45.125 67.3682 44.7812 67.3682 44.2188V34.6328C67.3682 34.0703 67.6963 33.7266 68.2432 33.7266H71.5947C73.7822 33.7266 75.3057 35.2344 75.3057 37.4297C75.3057 39.6328 73.751 41.1484 71.54 41.1484H69.1182V44.2188C69.1182 44.7812 68.7822 45.125 68.2432 45.125ZM69.1182 39.6797H71.126C72.6494 39.6797 73.5166 38.8594 73.5166 37.4375C73.5166 36.0156 72.6494 35.2031 71.1338 35.2031H69.1182V39.6797ZM80.0057 45.1562C77.6541 45.1562 76.1072 43.5391 76.1072 40.8906C76.1072 38.25 77.6619 36.6328 80.0057 36.6328C82.3494 36.6328 83.9041 38.25 83.9041 40.8906C83.9041 43.5391 82.3572 45.1562 80.0057 45.1562ZM80.0057 43.7656C81.3338 43.7656 82.1854 42.7188 82.1854 40.8906C82.1854 39.0703 81.326 38.0234 80.0057 38.0234C78.6854 38.0234 77.826 39.0703 77.826 40.8906C77.826 42.7188 78.6854 43.7656 80.0057 43.7656ZM87.8463 45.1484C87.2916 45.1484 86.9791 44.8906 86.8072 44.2969L84.9322 37.8359C84.8697 37.6484 84.8463 37.5 84.8463 37.3594C84.8463 36.9219 85.1744 36.6328 85.6666 36.6328C86.0885 36.6328 86.3385 36.8594 86.4479 37.3359L87.9244 43.25H87.9557L89.5182 37.3984C89.6354 36.8984 89.9713 36.6328 90.4869 36.6328C90.9947 36.6328 91.3229 36.8984 91.44 37.3984L93.0104 43.25H93.0494L94.526 37.3359C94.6354 36.8594 94.8775 36.6328 95.2994 36.6328C95.7916 36.6328 96.1119 36.9219 96.1119 37.3594C96.1119 37.5 96.0885 37.6406 96.0338 37.8359L94.1588 44.2969C93.9947 44.875 93.651 45.1484 93.0963 45.1484C92.5104 45.1484 92.1822 44.8984 92.026 44.2969L90.4869 38.8438H90.4479L88.9244 44.2969C88.7682 44.875 88.4166 45.1484 87.8463 45.1484ZM100.968 45.1562C98.4916 45.1562 97.0385 43.5859 97.0385 40.9297C97.0385 38.3203 98.5229 36.6328 100.851 36.6328C103.038 36.6328 104.546 38.2109 104.546 40.4531C104.546 41 104.234 41.3125 103.71 41.3125H98.7416V41.3516C98.7416 42.8516 99.5854 43.7891 100.929 43.7891C101.851 43.7891 102.429 43.4688 103.054 42.6172C103.234 42.4062 103.406 42.3203 103.648 42.3203C104.054 42.3203 104.351 42.5859 104.351 43.0078C104.351 43.1406 104.304 43.2969 104.234 43.4609C103.695 44.5391 102.499 45.1562 100.968 45.1562ZM98.7494 40.1328H102.859C102.82 38.8438 102.015 37.9922 100.843 37.9922C99.6791 37.9922 98.8354 38.8516 98.7494 40.1328ZM106.903 45.1484C106.395 45.1484 106.059 44.8047 106.059 44.2578V37.4844C106.059 36.9688 106.387 36.6328 106.863 36.6328C107.332 36.6328 107.66 36.9688 107.66 37.4844V38.1875H107.699C107.926 37.2656 108.684 36.6484 109.504 36.6484C109.801 36.6484 110.028 36.7188 110.168 36.8516C110.324 36.9766 110.395 37.1797 110.395 37.4453C110.395 37.7109 110.309 37.9062 110.145 38.0391C109.973 38.1875 109.723 38.2578 109.371 38.2578C108.215 38.2656 107.746 39.0391 107.746 40.0625V44.2578C107.746 44.8047 107.403 45.1484 106.903 45.1484ZM115.974 48.0625C115.193 48.0625 114.763 47.7734 114.763 47.25C114.763 46.8906 115.013 46.6562 115.42 46.6562C115.599 46.6562 115.662 46.6641 115.857 46.6641C116.326 46.6641 116.803 46.4062 117.107 45.5625L117.263 45.0859L114.513 37.8906C114.451 37.7188 114.42 37.5469 114.42 37.4141C114.42 36.9531 114.787 36.6328 115.279 36.6328C115.701 36.6328 115.943 36.8125 116.092 37.2812L118.185 43.4688H118.209L120.31 37.2812C120.451 36.8203 120.685 36.6328 121.115 36.6328C121.599 36.6328 121.935 36.9531 121.935 37.4062C121.935 37.5391 121.904 37.7109 121.849 37.875L118.998 45.4141C118.271 47.3906 117.498 48.0625 115.974 48.0625ZM126.565 45.1562C124.213 45.1562 122.667 43.5391 122.667 40.8906C122.667 38.25 124.221 36.6328 126.565 36.6328C128.909 36.6328 130.463 38.25 130.463 40.8906C130.463 43.5391 128.917 45.1562 126.565 45.1562ZM126.565 43.7656C127.893 43.7656 128.745 42.7188 128.745 40.8906C128.745 39.0703 127.885 38.0234 126.565 38.0234C125.245 38.0234 124.385 39.0703 124.385 40.8906C124.385 42.7188 125.245 43.7656 126.565 43.7656ZM134.812 45.1484C133.023 45.1484 131.929 43.9844 131.929 42.1016V37.5312C131.929 36.9688 132.273 36.6328 132.773 36.6328C133.265 36.6328 133.617 36.9688 133.617 37.5312V41.7734C133.617 43.0234 134.21 43.6953 135.374 43.6953C136.593 43.6953 137.328 42.8516 137.328 41.5703V37.5312C137.328 36.9688 137.679 36.6328 138.171 36.6328C138.671 36.6328 139.015 36.9688 139.015 37.5312V44.2891C139.015 44.8125 138.695 45.1484 138.21 45.1484C137.726 45.1484 137.398 44.8125 137.398 44.2969V43.6094H137.359C136.906 44.5938 136.07 45.1484 134.812 45.1484ZM141.731 45.1484C141.223 45.1484 140.887 44.8047 140.887 44.2578V37.4844C140.887 36.9688 141.215 36.6328 141.692 36.6328C142.16 36.6328 142.488 36.9688 142.488 37.4844V38.1875H142.528C142.754 37.2656 143.512 36.6484 144.332 36.6484C144.629 36.6484 144.856 36.7188 144.996 36.8516C145.153 36.9766 145.223 37.1797 145.223 37.4453C145.223 37.7109 145.137 37.9062 144.973 38.0391C144.801 38.1875 144.551 38.2578 144.199 38.2578C143.043 38.2656 142.574 39.0391 142.574 40.0625V44.2578C142.574 44.8047 142.231 45.1484 141.731 45.1484ZM153.303 45.1562C150.951 45.1562 149.42 43.5234 149.42 40.9062C149.42 38.3047 150.943 36.6328 153.287 36.6328C154.873 36.6328 156.232 37.4766 156.592 38.625C156.638 38.7578 156.67 38.8984 156.67 39.0156C156.67 39.4453 156.365 39.7109 155.951 39.7109C155.592 39.7109 155.388 39.5703 155.185 39.1953C154.763 38.4141 154.185 38.0391 153.318 38.0391C151.998 38.0391 151.138 39.1406 151.138 40.8906C151.138 42.6797 152.013 43.7422 153.318 43.7422C154.232 43.7422 154.787 43.3359 155.185 42.625C155.42 42.2188 155.599 42.0781 155.967 42.0781C156.381 42.0781 156.685 42.3594 156.685 42.7812C156.685 42.9141 156.654 43.0547 156.592 43.2188C156.162 44.3516 154.826 45.1562 153.303 45.1562ZM160.659 45.1406C159.049 45.1406 157.917 44.1406 157.917 42.6641C157.917 41.2266 159.026 40.3438 160.971 40.2344L163.229 40.1016V39.4688C163.229 38.5547 162.612 38.0078 161.581 38.0078C160.768 38.0078 160.229 38.2969 159.76 39.0469C159.588 39.2969 159.37 39.4062 159.073 39.4062C158.651 39.4062 158.346 39.125 158.346 38.7031C158.346 38.5312 158.393 38.3438 158.495 38.1562C158.924 37.2266 160.167 36.6328 161.643 36.6328C163.635 36.6328 164.909 37.6875 164.909 39.3359V44.2969C164.909 44.8281 164.573 45.1484 164.096 45.1484C163.628 45.1484 163.307 44.8438 163.292 44.3438V43.6484H163.253C162.776 44.5625 161.729 45.1406 160.659 45.1406ZM161.12 43.8047C162.299 43.8047 163.229 42.9922 163.229 41.9219V41.2734L161.198 41.3984C160.19 41.4688 159.62 41.9141 159.62 42.6172C159.62 43.3359 160.221 43.8047 161.12 43.8047ZM167.593 45.1484C167.085 45.1484 166.749 44.8047 166.749 44.2578V37.4844C166.749 36.9688 167.078 36.6328 167.554 36.6328C168.023 36.6328 168.351 36.9688 168.351 37.4844V38.1875H168.39C168.617 37.2656 169.374 36.6484 170.195 36.6484C170.492 36.6484 170.718 36.7188 170.859 36.8516C171.015 36.9766 171.085 37.1797 171.085 37.4453C171.085 37.7109 170.999 37.9062 170.835 38.0391C170.663 38.1875 170.413 38.2578 170.062 38.2578C168.906 38.2656 168.437 39.0391 168.437 40.0625V44.2578C168.437 44.8047 168.093 45.1484 167.593 45.1484ZM175.403 45.1562C172.926 45.1562 171.473 43.5859 171.473 40.9297C171.473 38.3203 172.957 36.6328 175.285 36.6328C177.473 36.6328 178.981 38.2109 178.981 40.4531C178.981 41 178.668 41.3125 178.145 41.3125H173.176V41.3516C173.176 42.8516 174.02 43.7891 175.363 43.7891C176.285 43.7891 176.863 43.4688 177.488 42.6172C177.668 42.4062 177.84 42.3203 178.082 42.3203C178.488 42.3203 178.785 42.5859 178.785 43.0078C178.785 43.1406 178.738 43.2969 178.668 43.4609C178.129 44.5391 176.934 45.1562 175.403 45.1562ZM173.184 40.1328H177.293C177.254 38.8438 176.449 37.9922 175.278 37.9922C174.113 37.9922 173.27 38.8516 173.184 40.1328ZM184.056 45.1562C181.579 45.1562 180.126 43.5859 180.126 40.9297C180.126 38.3203 181.61 36.6328 183.938 36.6328C186.126 36.6328 187.634 38.2109 187.634 40.4531C187.634 41 187.321 41.3125 186.798 41.3125H181.829V41.3516C181.829 42.8516 182.673 43.7891 184.017 43.7891C184.938 43.7891 185.517 43.4688 186.142 42.6172C186.321 42.4062 186.493 42.3203 186.735 42.3203C187.142 42.3203 187.438 42.5859 187.438 43.0078C187.438 43.1406 187.392 43.2969 187.321 43.4609C186.782 44.5391 185.587 45.1562 184.056 45.1562ZM181.837 40.1328H185.946C185.907 38.8438 185.103 37.9922 183.931 37.9922C182.767 37.9922 181.923 38.8516 181.837 40.1328ZM189.99 45.1484C189.482 45.1484 189.146 44.8047 189.146 44.2578V37.4844C189.146 36.9688 189.474 36.6328 189.951 36.6328C190.42 36.6328 190.748 36.9688 190.748 37.4844V38.1875H190.787C191.013 37.2656 191.771 36.6484 192.592 36.6484C192.888 36.6484 193.115 36.7188 193.256 36.8516C193.412 36.9766 193.482 37.1797 193.482 37.4453C193.482 37.7109 193.396 37.9062 193.232 38.0391C193.06 38.1875 192.81 38.2578 192.459 38.2578C191.303 38.2656 190.834 39.0391 190.834 40.0625V44.2578C190.834 44.8047 190.49 45.1484 189.99 45.1484ZM196.034 41.3828C195.557 41.3828 195.292 41.0781 195.276 40.5859L195.182 34.5234C195.182 34.4922 195.182 34.4609 195.182 34.4375C195.182 33.9141 195.534 33.5781 196.042 33.5781C196.542 33.5781 196.893 33.9141 196.893 34.4375C196.893 34.4609 196.893 34.4922 196.893 34.5234L196.799 40.5859C196.784 41.0781 196.518 41.3828 196.034 41.3828ZM196.034 45.1172C195.463 45.1172 195.01 44.6797 195.01 44.1094C195.01 43.5391 195.463 43.1016 196.034 43.1016C196.62 43.1016 197.065 43.5391 197.065 44.1094C197.065 44.6797 196.62 45.1172 196.034 45.1172Z" fill="white"/>
</g>
<defs>
<filter id="filter0_dd_2517_28768" x="0" y="0" width="246" height="95" filterUnits="userSpaceOnUse" color-interpolation-filters="sRGB">
<feFlood flood-opacity="0" result="BackgroundImageFix"/>
<feColorMatrix in="SourceAlpha" type="matrix" values="0 0 0 0 0 0 0 0 0 0 0 0 0 0 0 0 0 0 127 0" result="hardAlpha"/>
<feOffset dy="8"/>
<feGaussianBlur stdDeviation="14"/>
<feComposite in2="hardAlpha" operator="out"/>
<feColorMatrix type="matrix" values="0 0 0 0 0.219608 0 0 0 0 0.454902 0 0 0 0 0.25098 0 0 0 0.25 0"/>
<feBlend mode="normal" in2="BackgroundImageFix" result="effect1_dropShadow_2517_28768"/>
<feColorMatrix in="SourceAlpha" type="matrix" values="0 0 0 0 0 0 0 0 0 0 0 0 0 0 0 0 0 0 127 0" result="hardAlpha"/>
<feOffset dy="4"/>
<feComposite in2="hardAlpha" operator="out"/>
<feColorMatrix type="matrix" values="0 0 0 0 0.164706 0 0 0 0 0.341176 0 0 0 0 0.188235 0 0 0 1 0"/>
<feBlend mode="normal" in2="effect1_dropShadow_2517_28768" result="effect2_dropShadow_2517_28768"/>
<feBlend mode="normal" in="SourceGraphic" in2="effect2_dropShadow_2517_28768" result="shape"/>
</filter>
</defs>
</svg>
