<svg width="192" height="102" viewBox="0 0 192 102" fill="none" xmlns="http://www.w3.org/2000/svg">
<g filter="url(#filter0_dd_2517_28773)">
<rect x="32" y="24" width="128" height="38" rx="10" fill="white" shape-rendering="crispEdges"/>
<rect x="32.5" y="24.5" width="127" height="37" rx="9.5" stroke="black" stroke-opacity="0.06" shape-rendering="crispEdges"/>
<g clip-path="url(#clip0_2517_28773)">
<path d="M44.6086 47.7533C47.2338 48.1222 49.661 46.2932 50.0299 43.668C50.3989 41.0429 48.5699 38.6156 45.9447 38.2467C43.3195 37.8778 40.8923 39.7068 40.5234 42.332C40.1544 44.9571 41.9835 47.3843 44.6086 47.7533Z" stroke="#387440"/>
<path d="M42.8999 42.666L44.4318 44.699L47.9037 41.5515" stroke="#387440" stroke-linecap="round" stroke-linejoin="round"/>
</g>
<path d="M65.2695 48.1641C62.3916 48.1641 60.5869 46.2227 60.5869 43.0713C60.5869 39.9404 62.3916 37.9717 65.2695 37.9717C68.1406 37.9717 69.9453 39.9404 69.9453 43.0713C69.9453 44.8691 69.3574 46.2979 68.291 47.1455L68.9199 48.0342C69.043 48.2188 69.0908 48.3555 69.0908 48.54C69.0908 48.9434 68.7832 49.2305 68.3525 49.2305C68.0654 49.2305 67.874 49.1211 67.6963 48.8545L67.0059 47.8838C66.4795 48.0752 65.8984 48.1641 65.2695 48.1641ZM65.2695 46.6738C65.5635 46.6738 65.8438 46.626 66.0967 46.5508L65.5498 45.7783C65.4268 45.5938 65.3789 45.4434 65.3789 45.2861C65.3789 44.8896 65.6729 44.6094 66.0762 44.6094C66.3359 44.6094 66.5068 44.6982 66.6709 44.9238L67.2314 45.6963C67.8125 45.1084 68.1475 44.2061 68.1475 43.0713C68.1475 40.8701 67.0264 39.4619 65.2695 39.4619C63.5059 39.4619 62.3916 40.8701 62.3916 43.0713C62.3916 45.2725 63.5059 46.6738 65.2695 46.6738ZM73.8188 48.1299C72.2465 48.1299 71.2484 47.1113 71.2484 45.4365V41.5059C71.2484 40.9385 71.5971 40.6104 72.0961 40.6104C72.5951 40.6104 72.9506 40.9385 72.9506 41.5127V45.0947C72.9506 46.1338 73.4564 46.6943 74.4135 46.6943C75.3979 46.6943 76.0063 45.9971 76.0063 44.9443V41.5059C76.0063 40.9385 76.3617 40.6104 76.8607 40.6104C77.3529 40.6104 77.7084 40.9385 77.7084 41.5127V47.2754C77.7084 47.8223 77.3803 48.1367 76.8949 48.1367C76.4027 48.1367 76.0678 47.8223 76.0678 47.2754V46.7422H76.0336C75.6508 47.624 74.9193 48.1299 73.8188 48.1299ZM80.0916 39.7354C79.5652 39.7354 79.1482 39.3252 79.1482 38.8125C79.1482 38.293 79.5652 37.8896 80.0916 37.8896C80.6248 37.8896 81.0418 38.293 81.0418 38.8125C81.0418 39.3252 80.6248 39.7354 80.0916 39.7354ZM80.0916 48.1367C79.5721 48.1367 79.2439 47.7949 79.2439 47.2412V41.5059C79.2439 40.959 79.5721 40.6104 80.0916 40.6104C80.6111 40.6104 80.9461 40.959 80.9461 41.5127V47.2412C80.9461 47.7949 80.6111 48.1367 80.0916 48.1367ZM83.0969 48C82.6252 48 82.3244 47.7197 82.3244 47.2822C82.3244 47.043 82.3859 46.8789 82.5705 46.6533L86.0842 42.1074V42.0801H82.9807C82.5363 42.0801 82.2766 41.834 82.2766 41.4102C82.2766 40.9932 82.5363 40.7539 82.9807 40.7539H87.1916C87.7316 40.7539 88.0529 41.0479 88.0529 41.5264C88.0529 41.7861 87.9709 41.9844 87.7521 42.2715L84.4436 46.6396V46.6738H87.4992C87.9436 46.6738 88.2033 46.9131 88.2033 47.3369C88.2033 47.7539 87.9436 48 87.4992 48H83.0969ZM96.8115 48.1641C93.9609 48.1641 92.2041 46.2295 92.2041 43.0645C92.2041 39.9199 93.9883 37.9717 96.7773 37.9717C98.6025 37.9717 100.045 38.8262 100.694 40.2686C100.804 40.4941 100.858 40.7266 100.858 40.9316C100.858 41.4033 100.551 41.7041 100.079 41.7041C99.6758 41.7041 99.4092 41.5127 99.2178 41.082C98.7598 40.0225 97.8643 39.4688 96.791 39.4688C95.0957 39.4688 94.0088 40.8633 94.0088 43.0645C94.0088 45.2793 95.0889 46.667 96.7979 46.667C97.9258 46.667 98.7939 46.1748 99.2451 45.1357C99.4229 44.7324 99.6484 44.5684 100.031 44.5684C100.517 44.5684 100.852 44.8896 100.852 45.3545C100.852 45.5801 100.797 45.7852 100.688 46.0176C100.059 47.3574 98.6572 48.1641 96.8115 48.1641ZM105.518 48.1436C103.392 48.1436 102.011 46.7285 102.011 44.377C102.011 42.0391 103.406 40.6035 105.518 40.6035C107.63 40.6035 109.025 42.0322 109.025 44.377C109.025 46.7285 107.644 48.1436 105.518 48.1436ZM105.518 46.7969C106.598 46.7969 107.295 45.9219 107.295 44.377C107.295 42.8389 106.598 41.957 105.518 41.957C104.445 41.957 103.741 42.8389 103.741 44.377C103.741 45.9219 104.438 46.7969 105.518 46.7969ZM111.066 48.1367C110.554 48.1367 110.219 47.8086 110.219 47.2412V41.4785C110.219 40.9248 110.554 40.6104 111.032 40.6104C111.511 40.6104 111.852 40.9248 111.852 41.4785V42.0117H111.887C112.201 41.1709 112.967 40.6172 113.951 40.6172C114.976 40.6172 115.708 41.1436 115.974 42.0732H116.015C116.364 41.1777 117.225 40.6172 118.271 40.6172C119.7 40.6172 120.637 41.5811 120.637 43.0303V47.2412C120.637 47.8086 120.295 48.1367 119.789 48.1367C119.276 48.1367 118.934 47.8086 118.934 47.2412V43.4473C118.934 42.5586 118.47 42.0527 117.636 42.0527C116.815 42.0527 116.255 42.6543 116.255 43.5225V47.2412C116.255 47.8086 115.933 48.1367 115.428 48.1367C114.915 48.1367 114.6 47.8086 114.6 47.2412V43.3584C114.6 42.5518 114.108 42.0527 113.315 42.0527C112.495 42.0527 111.921 42.6885 111.921 43.5635V47.2412C111.921 47.8086 111.572 48.1367 111.066 48.1367ZM122.951 50.5771C122.452 50.5771 122.104 50.2559 122.104 49.6816V41.4854C122.104 40.9248 122.446 40.6104 122.931 40.6104C123.416 40.6104 123.765 40.9248 123.765 41.4854V42.0049H123.799C124.209 41.1641 125.029 40.6309 126.082 40.6309C127.921 40.6309 129.09 42.0596 129.09 44.377C129.09 46.6875 127.928 48.1162 126.11 48.1162C125.057 48.1162 124.237 47.6104 123.84 46.7969H123.806V49.6816C123.806 50.2559 123.45 50.5771 122.951 50.5771ZM125.563 46.7217C126.663 46.7217 127.347 45.8125 127.347 44.377C127.347 42.9482 126.663 42.0322 125.563 42.0322C124.503 42.0322 123.799 42.9688 123.792 44.377C123.799 45.7988 124.503 46.7217 125.563 46.7217ZM131.186 48.1367C130.687 48.1367 130.332 47.8154 130.332 47.2412V38.8945C130.332 38.3203 130.687 37.999 131.186 37.999C131.685 37.999 132.034 38.3203 132.034 38.8945V47.2412C132.034 47.8154 131.685 48.1367 131.186 48.1367ZM136.803 48.1436C134.588 48.1436 133.282 46.7559 133.282 44.4043C133.282 42.0938 134.615 40.6035 136.707 40.6035C138.689 40.6035 140.043 42.0117 140.043 43.9805C140.043 44.4863 139.756 44.7871 139.25 44.7871H134.978V44.8418C134.978 46.0518 135.682 46.8311 136.789 46.8311C137.555 46.8311 138.054 46.5645 138.601 45.8672C138.778 45.6689 138.936 45.5938 139.175 45.5938C139.558 45.5938 139.858 45.8398 139.858 46.25C139.858 46.3799 139.817 46.5303 139.742 46.6807C139.264 47.6035 138.184 48.1436 136.803 48.1436ZM134.991 43.666H138.375C138.341 42.6133 137.671 41.9229 136.714 41.9229C135.757 41.9229 135.06 42.627 134.991 43.666ZM141.715 46.209V42.0664H141.257C140.833 42.0664 140.574 41.8135 140.574 41.4033C140.574 41 140.833 40.7539 141.257 40.7539H141.715V39.79C141.715 39.2432 142.043 38.9014 142.57 38.9014C143.089 38.9014 143.417 39.2432 143.417 39.79V40.7539H144.204C144.627 40.7539 144.887 41 144.887 41.4033C144.887 41.8135 144.627 42.0664 144.204 42.0664H143.417V45.8398C143.417 46.3867 143.609 46.626 144.101 46.667L144.224 46.6807C144.675 46.7217 144.908 46.9131 144.908 47.3096C144.908 47.8086 144.47 48.0752 143.691 48.0752H143.622C142.358 48.0752 141.715 47.4463 141.715 46.209ZM149.13 48.1436C146.915 48.1436 145.609 46.7559 145.609 44.4043C145.609 42.0938 146.942 40.6035 149.034 40.6035C151.016 40.6035 152.37 42.0117 152.37 43.9805C152.37 44.4863 152.083 44.7871 151.577 44.7871H147.304V44.8418C147.304 46.0518 148.009 46.8311 149.116 46.8311C149.882 46.8311 150.381 46.5645 150.928 45.8672C151.105 45.6689 151.262 45.5938 151.502 45.5938C151.885 45.5938 152.185 45.8398 152.185 46.25C152.185 46.3799 152.144 46.5303 152.069 46.6807C151.591 47.6035 150.511 48.1436 149.13 48.1436ZM147.318 43.666H150.702C150.668 42.6133 149.998 41.9229 149.041 41.9229C148.084 41.9229 147.387 42.627 147.318 43.666Z" fill="#387440"/>
</g>
<defs>
<filter id="filter0_dd_2517_28773" x="0" y="0" width="192" height="102" filterUnits="userSpaceOnUse" color-interpolation-filters="sRGB">
<feFlood flood-opacity="0" result="BackgroundImageFix"/>
<feColorMatrix in="SourceAlpha" type="matrix" values="0 0 0 0 0 0 0 0 0 0 0 0 0 0 0 0 0 0 127 0" result="hardAlpha"/>
<feOffset dy="2"/>
<feComposite in2="hardAlpha" operator="out"/>
<feColorMatrix type="matrix" values="0 0 0 0 0 0 0 0 0 0 0 0 0 0 0 0 0 0 0.05 0"/>
<feBlend mode="normal" in2="BackgroundImageFix" result="effect1_dropShadow_2517_28773"/>
<feColorMatrix in="SourceAlpha" type="matrix" values="0 0 0 0 0 0 0 0 0 0 0 0 0 0 0 0 0 0 127 0" result="hardAlpha"/>
<feOffset dy="8"/>
<feGaussianBlur stdDeviation="16"/>
<feComposite in2="hardAlpha" operator="out"/>
<feColorMatrix type="matrix" values="0 0 0 0 0 0 0 0 0 0 0 0 0 0 0 0 0 0 0.1 0"/>
<feBlend mode="normal" in2="effect1_dropShadow_2517_28773" result="effect2_dropShadow_2517_28773"/>
<feBlend mode="normal" in="SourceGraphic" in2="effect2_dropShadow_2517_28773" result="shape"/>
</filter>
<clipPath id="clip0_2517_28773">
<rect width="12" height="12" fill="white" transform="translate(40.1699 36.2233) rotate(8)"/>
</clipPath>
</defs>
</svg>
