<svg preserveAspectRatio="none" width="100%" height="100%" overflow="visible" style="display: block;" viewBox="0 0 11 9.61113" fill="none" xmlns="http://www.w3.org/2000/svg">
<path id="Vector" opacity="0.9" d="M5.5 9.61113C5.5 9.61113 0 6.11113 0 2.61113C0.146124 2.05462 0.427192 1.54272 0.818325 1.12073C1.20946 0.698753 1.69859 0.379706 2.24243 0.191835C2.78626 0.00396407 3.36803 -0.0469357 3.93623 0.043641C4.50443 0.134218 5.04153 0.363477 5.5 0.711126C5.95847 0.363477 6.49557 0.134218 7.06377 0.043641C7.63197 -0.0469357 8.21374 0.00396407 8.75757 0.191835C9.30141 0.379706 9.79054 0.698753 10.1817 1.12073C10.5728 1.54272 10.8539 2.05462 11 2.61113C11 6.11113 5.5 9.61113 5.5 9.61113Z" fill="var(--fill-0, white)"/>
</svg>
