<svg width="182" height="181" viewBox="0 0 182 181" fill="none" xmlns="http://www.w3.org/2000/svg">
<path d="M52.7998 85.6142C53.9173 86.5549 55.0303 87.5001 56.1197 88.4763C56.703 88.9868 57.2832 89.5066 57.8991 89.976C61.189 92.4781 64.5113 94.9424 67.74 97.5246C69.7202 99.1237 71.6837 100.743 73.6304 102.384L76.5426 104.853L79.4267 107.355C79.997 107.876 80.5241 108.442 81.0029 109.048C81.2102 109.288 81.357 109.573 81.4312 109.881C81.5053 110.189 81.5047 110.51 81.4294 110.819C81.2396 111.678 80.3711 112.021 79.4623 111.501C78.8796 111.149 78.344 110.725 77.8681 110.239C76.7625 109.154 75.6144 108.12 74.424 107.138C73.2371 106.151 72.0095 105.213 70.7412 104.324C70.0416 103.833 69.2812 103.36 68.7172 102.745C66.9129 100.783 64.7231 99.2489 62.7729 97.4499C61.3224 96.1137 59.768 94.8858 58.2756 93.5923L54.2801 90.1357C52.9418 88.9913 51.6311 87.8123 50.2955 86.6631C49.7881 86.2007 49.3121 85.7053 48.8705 85.1802C48.4654 84.6732 48.089 84.144 47.7431 83.5951C47.436 83.1103 47.6998 82.8347 48.3121 83.0764C49.1897 83.425 50.0414 83.8344 50.8609 84.3015C51.1977 84.4929 51.5247 84.7047 51.8426 84.9302C52.1504 85.1682 52.4594 85.407 52.7665 85.6445L52.7998 85.6142Z" fill="#EBF1EC"/>
<path d="M87.7397 61.2154L88.4587 62.9383L89.1364 64.6811C89.3776 65.2968 89.6198 65.9157 89.9125 66.5077C90.3011 67.2984 90.6996 68.0844 91.1013 68.8686L92.2918 71.2272L94.6821 75.9374L97.6108 81.7441L100.572 87.5353C100.855 88.1302 101.096 88.7449 101.291 89.3748C101.381 89.6296 101.411 89.9024 101.377 90.1714C101.342 90.4405 101.245 90.6983 101.094 90.9243C100.688 91.5569 99.9001 91.5691 99.3248 90.8747C98.9607 90.4153 98.658 89.9107 98.424 89.3734C97.3127 86.955 96.0485 84.6101 94.639 82.3526C94.2098 81.7503 93.8512 81.1008 93.5703 80.4167C92.8211 78.2445 91.6392 76.2716 90.7655 74.1591C90.1179 72.5896 89.3561 71.0645 88.6999 69.496C87.5406 66.6944 86.4098 63.8834 85.3825 61.0311C84.9809 59.9525 84.7617 58.8138 84.7338 57.6613C84.7206 57.1624 85.0879 57.0414 85.4408 57.4761C85.9413 58.1027 86.3999 58.7616 86.8136 59.4485C87.1446 60.0226 87.4411 60.6161 87.7014 61.2257L87.7397 61.2154Z" fill="#EBF1EC"/>
<path d="M127.764 60.4384C127.559 61.501 127.348 62.5632 127.133 63.6251C126.994 64.1841 126.889 64.7505 126.818 65.3214C126.661 66.8451 126.538 68.3725 126.416 69.8989C126.291 71.4251 126.157 72.9492 125.998 74.47C125.807 76.3435 125.596 78.2142 125.389 80.0855L124.738 85.6961C124.648 86.2677 124.49 86.8268 124.265 87.3611C124.067 87.8824 123.541 88.1832 122.877 88.3393C121.909 88.5671 120.941 88.1597 120.782 87.3728C120.697 86.8678 120.718 86.3499 120.845 85.8518C121.337 83.5834 121.559 81.2671 121.507 78.9509C121.495 78.3084 121.431 77.633 121.641 77.033C122.304 75.1167 122.314 73.1112 122.757 71.1676C123.081 69.7236 123.269 68.2542 123.565 66.8045C123.83 65.5118 124.104 64.2215 124.388 62.9335L125.321 59.0843C125.559 58.0789 126.034 57.1427 126.707 56.3538C126.77 56.2701 126.857 56.2069 126.956 56.1723C127.055 56.1377 127.162 56.1333 127.263 56.1597C127.365 56.1861 127.455 56.242 127.524 56.3203C127.593 56.3986 127.636 56.4957 127.649 56.5992C127.77 57.2964 127.849 58.0005 127.886 58.7077C127.872 59.2835 127.815 59.8579 127.716 60.426L127.764 60.4384Z" fill="#EBF1EC"/>
<path d="M149.823 84.0116C149.652 84.2472 149.489 84.4889 149.302 84.7146L148.74 85.3901C148.536 85.6238 148.351 85.8741 148.188 86.1382C147.78 86.8581 147.397 87.5957 146.976 88.3071C146.563 89.0239 146.146 89.7382 145.705 90.4355C145.161 91.295 144.604 92.1446 144.018 92.9753L142.263 95.4677C142.061 95.7158 141.814 95.9244 141.535 96.0829C141.272 96.2539 140.828 96.1776 140.322 95.9716C139.584 95.6714 138.996 95.0616 139.069 94.6128C139.124 94.3398 139.264 94.0905 139.47 93.9008C140.347 93.0092 141.039 91.9547 141.506 90.7981C141.64 90.4761 141.734 90.1106 142.018 89.903C142.916 89.2333 143.354 88.2404 144.081 87.4518C144.627 86.8691 145.038 86.1895 145.565 85.5922C146.5 84.5233 147.407 83.4358 148.38 82.3938C148.776 81.9567 149.298 81.6519 149.874 81.5217C149.944 81.507 150.018 81.5079 150.088 81.5243C150.158 81.5407 150.224 81.5722 150.28 81.6166C150.337 81.661 150.383 81.7173 150.415 81.7815C150.447 81.8456 150.465 81.9161 150.467 81.988C150.444 82.1883 150.414 82.3887 150.377 82.5867C150.344 82.7816 150.295 82.9736 150.23 83.1604C150.109 83.4485 149.963 83.7252 149.792 83.987L149.823 84.0116Z" fill="#EBF1EC"/>
<path d="M53.5804 129.897C54.2777 129.906 54.9737 129.922 55.6682 129.944C56.0356 129.966 56.4042 129.965 56.7718 129.942C57.7467 129.839 58.7246 129.746 59.7051 129.672C60.6858 129.602 61.668 129.57 62.6519 129.574C63.8619 129.593 65.0719 129.647 66.2776 129.753C67.4831 129.858 68.685 129.996 69.8831 130.167C70.2515 130.237 70.6049 130.368 70.9284 130.556C71.2508 130.721 71.4062 131.141 71.4546 131.669C71.5244 132.437 71.1916 133.196 70.6991 133.312C70.3886 133.372 70.0684 133.35 69.7698 133.25C68.4056 132.853 66.9737 132.73 65.5573 132.889C65.1637 132.928 64.7527 133.023 64.3834 132.898C63.2 132.492 61.97 132.663 60.7633 132.521C60.3138 132.471 59.8617 132.446 59.4091 132.444C58.9566 132.433 58.5037 132.436 58.0509 132.42C56.436 132.363 54.8131 132.321 53.1866 132.354C52.5022 132.346 51.8401 132.12 51.2977 131.708C51.0227 131.532 50.9962 131.193 51.2581 130.879L51.5469 130.599C51.5896 130.553 51.6408 130.516 51.6978 130.49L51.8531 130.407C52.0588 130.3 52.2708 130.206 52.4878 130.124C52.6628 130.061 52.8439 130.015 53.0282 129.989C53.2123 129.972 53.3976 129.963 53.581 129.942L53.5804 129.897Z" fill="#EBF1EC"/>
</svg>
