<svg width="59" height="59" viewBox="0 0 59 59" fill="none" xmlns="http://www.w3.org/2000/svg">
<path d="M34.9487 36.9002C32.8261 35.8197 30.859 34.4576 29.101 32.8506C28.8988 32.6642 28.701 32.4727 28.5008 32.284L27.9178 31.699L27.3561 31.0941L26.811 30.4757L27.8299 29.9073C27.876 30.0538 27.9219 30.1998 27.9675 30.3454C28.0526 30.6491 28.1318 30.9551 28.238 31.2522C28.3377 31.5514 28.4382 31.8504 28.5462 32.1468C28.7535 32.7426 28.9803 33.3315 29.2193 33.9152C29.4548 34.5004 29.7043 35.0796 29.9679 35.6528C30.2294 36.2266 30.501 36.7957 30.7886 37.3567C31.9346 39.5994 33.234 41.7604 34.6775 43.8243L33.3792 44.6654C32.6092 43.4376 31.8362 42.1666 31.2489 40.7601C30.9219 39.9928 30.6806 39.1917 30.5296 38.3714C30.5074 38.2682 30.4936 38.1625 30.4813 38.0564L30.4422 37.7387C30.4174 37.5268 30.416 37.3102 30.4031 37.0962C30.3993 36.881 30.4122 36.6643 30.4168 36.4485C30.4406 36.2331 30.4687 36.0179 30.496 35.8032C30.5142 35.6596 30.5733 35.5244 30.6663 35.4135C30.7593 35.3025 30.8822 35.2207 31.0203 35.1777C31.1585 35.1347 31.3061 35.1323 31.4456 35.1708C31.5851 35.2093 31.7106 35.2871 31.8071 35.395L31.8246 35.4146C32.3618 36.0167 32.8576 36.6566 33.4 37.2554C33.935 37.8608 34.4886 38.4492 35.0367 39.0432C35.5912 39.6311 36.1573 40.2078 36.7349 40.7733C37.0217 41.0581 37.308 41.3433 37.6013 41.6214C37.8925 41.9015 38.1838 42.1817 38.4791 42.4576C39.6624 43.559 40.8703 44.6329 42.1028 45.6795C43.3377 46.7226 44.6007 47.7316 45.8797 48.7193C46.8392 49.4524 47.7887 50.2187 48.7325 50.9511C49.6279 51.6641 50.1497 52.2112 50.4091 52.6485C50.7912 53.2805 50.0498 53.1699 48.653 52.3017C47.7416 51.7175 46.8612 51.0865 46.0153 50.411C42.132 47.3503 38.4325 44.1007 34.8809 40.6802C33.8911 39.7461 32.8676 38.7627 31.9819 37.777C31.5577 37.3181 31.1394 36.8527 30.727 36.3806L31.9412 36.0254C31.8381 36.6942 31.8419 37.3751 31.9523 38.0428C32.0706 38.7325 32.2664 39.4066 32.536 40.0524C33.0729 41.3722 33.8381 42.6264 34.6222 43.8892L34.6331 43.9067C34.7295 44.0621 34.7605 44.2494 34.7192 44.4276C34.6779 44.6058 34.5678 44.7603 34.4128 44.8575C34.2579 44.9546 34.0707 44.9864 33.8924 44.946C33.714 44.9055 33.5589 44.7961 33.4611 44.6416L32.9745 43.8729C32.8149 43.6154 32.6607 43.3546 32.5047 43.0953C30.8869 40.367 29.4853 37.5162 28.3128 34.569L28.1014 34.034L27.8991 33.4955C27.7621 33.1373 27.6292 32.7776 27.5005 32.4164C27.3666 32.057 27.2493 31.6918 27.1232 31.3298C26.9893 30.9704 26.8641 30.6077 26.751 30.2413C26.7151 30.1252 26.72 30.0003 26.7648 29.8874C26.8096 29.7745 26.8916 29.6802 26.9973 29.6202C27.1029 29.5602 27.2259 29.5381 27.3458 29.5575C27.4658 29.5769 27.5755 29.6367 27.6568 29.727L27.6621 29.7331L28.1616 30.2886L28.6778 30.8287L29.2076 31.3557C29.3865 31.529 29.5714 31.6962 29.753 31.8669C31.9744 33.8871 34.5447 35.4867 37.3383 36.5875C37.4695 36.6393 37.6002 36.6909 37.7258 36.7405L37.7431 36.7473C37.8498 36.7894 37.936 36.8713 37.9835 36.9756C38.031 37.08 38.0361 37.1988 37.9978 37.3068C37.9594 37.4149 37.8806 37.5039 37.7779 37.555C37.6752 37.6061 37.5567 37.6153 37.4474 37.5807C36.4571 37.268 35.5162 36.9543 34.6 36.6893C33.6845 36.4215 32.7903 36.1948 31.9343 35.9652C31.5136 35.8547 31.3192 35.7513 31.3586 35.6571C31.378 35.614 31.4566 35.5651 31.594 35.5285C31.7868 35.4761 31.9854 35.4481 32.1852 35.4451C32.3658 35.4434 32.548 35.4472 32.7314 35.45C32.9146 35.4543 33.0978 35.4738 33.2826 35.4862C33.6516 35.5203 34.0246 35.5594 34.3979 35.6166C35.146 35.7301 35.8874 35.8835 36.6191 36.0763C37.0139 36.1779 37.4058 36.291 37.7986 36.4087L37.3077 37.8903C36.5151 37.5982 35.7324 37.2519 34.9687 36.8847C34.9622 36.8901 34.9561 36.8951 34.9487 36.9002Z" fill="#FBF4E0"/>
<path d="M37.0779 15.5888C34.8052 14.3893 32.7148 12.8723 30.8697 11.0834C29.8916 10.1434 28.9813 9.13533 28.1454 8.06684C27.9909 7.86496 27.8293 7.66897 27.681 7.46225L27.2405 6.83953L28.234 6.33835C28.4216 7.0443 28.6699 7.72922 28.9012 8.41882C29.1371 9.10675 29.3685 9.79546 29.6169 10.4775C30.1098 11.8427 30.6186 13.1993 31.1743 14.5324C31.7317 15.8643 32.3294 17.1758 32.9926 18.445C33.6431 19.7095 34.3857 20.9244 35.2144 22.0799L33.9308 22.8119C33.7749 22.477 33.6211 22.1404 33.4695 21.8023C33.3174 21.4643 33.1669 21.1243 33.0177 20.7825C32.7331 20.1316 32.4585 19.4716 32.2002 18.8021C31.9412 18.1328 31.6981 17.4533 31.4861 16.7593C31.2737 16.0619 31.0965 15.3542 30.9552 14.6389C30.9158 14.4605 30.8907 14.2778 30.858 14.0975L30.812 13.8261L30.7754 13.5525C30.7417 13.1858 30.73 12.8167 30.6957 12.4503C30.6808 12.2902 30.7191 12.1297 30.8048 11.9937C30.8906 11.8577 31.0188 11.7538 31.1697 11.6982C31.3205 11.6427 31.4855 11.6385 31.639 11.6864C31.7924 11.7343 31.9258 11.8315 32.0182 11.963L32.0229 11.9699C32.8602 13.1649 33.7139 14.3497 34.6067 15.5055C35.5113 16.6516 36.4302 17.7878 37.3984 18.8816C39.3223 21.0797 41.3481 23.1825 43.4757 25.1901L44.8876 26.5481C45.3605 26.9991 45.8307 27.4474 46.2981 27.8933C46.676 28.246 47.0345 28.6189 47.3721 29.0103C47.599 29.2661 47.7992 29.5442 47.9699 29.8405C48.1579 30.1824 48.0661 30.2948 47.7471 30.1901C47.5228 30.1065 47.3079 29.9997 47.1059 29.8714C46.7829 29.6758 46.472 29.4608 46.175 29.2275C45.9527 29.0564 45.7278 28.8796 45.5001 28.697C45.2733 28.515 45.0525 28.32 44.8282 28.1273C44.6052 27.9331 44.381 27.7382 44.162 27.5398C43.9456 27.3386 43.731 27.139 43.5181 26.941C43.0278 26.4881 42.5543 26.0178 42.0721 25.5574L41.3644 24.8509C41.129 24.6151 40.8914 24.3816 40.6609 24.141L39.9638 23.4254C39.7308 23.1875 39.505 22.9427 39.2749 22.7021C38.8133 22.2224 38.3654 21.73 37.913 21.242C37.6849 20.9997 37.467 20.7481 37.2433 20.5019C37.022 20.2535 36.7956 20.0097 36.5778 19.7582C36.1408 19.2565 35.6986 18.7593 35.2696 18.2507C34.3931 17.2488 33.5578 16.2128 32.7023 15.1904L31.7526 14.0188C31.4411 13.6209 31.1307 13.2212 30.8293 12.8222L32.1584 12.3411C32.1711 12.454 32.1838 12.5665 32.1963 12.6785C32.2125 12.7902 32.2263 12.9014 32.2446 13.0118C32.2655 13.122 32.2804 13.2324 32.3042 13.3409C32.3179 13.4509 32.3264 13.5607 32.3435 13.6695C32.4415 14.4053 32.5885 15.1337 32.7835 15.8499C32.9765 16.5719 33.1995 17.2914 33.4558 18.0034C33.9676 19.429 34.5908 20.8283 35.2094 22.241L35.214 22.2516C35.2795 22.4012 35.287 22.5698 35.235 22.7246C35.1829 22.8794 35.0751 23.0092 34.9326 23.0889C34.79 23.1685 34.6229 23.1922 34.4638 23.1554C34.3048 23.1185 34.1651 23.0237 34.0721 22.8895C33.2253 21.6536 32.4795 20.3513 31.842 18.9954C31.1068 17.4461 30.4555 15.864 29.8523 14.2681C29.2438 12.6741 28.6968 11.0612 28.1627 9.45166L27.7033 8.05874L27.4746 7.36293L27.2183 6.677C27.1757 6.56286 27.1758 6.43718 27.2184 6.32308C27.2611 6.20897 27.3435 6.11409 27.4506 6.0559C27.5576 5.9977 27.682 5.9801 27.801 6.00631C27.92 6.03253 28.0255 6.10081 28.0981 6.19859L28.1167 6.22382C28.2931 6.46207 28.4752 6.69576 28.6496 6.93521L29.2032 7.63129L29.7812 8.30801C29.9834 8.52534 30.1774 8.74997 30.3788 8.96811C31.1896 9.83758 32.0565 10.653 32.974 11.4092C34.8002 12.9328 36.8411 14.1788 39.0309 15.1069L39.0425 15.1117C39.1512 15.1567 39.2383 15.2422 39.2853 15.3502C39.3323 15.4581 39.3357 15.58 39.2946 15.6904C39.2536 15.8007 39.1713 15.8908 39.0652 15.9418C38.9591 15.9928 38.8373 16.0006 38.7256 15.9636C38.5177 15.8948 38.3081 15.8304 38.1019 15.758C36.9872 15.3782 35.9021 14.9167 34.8552 14.3774C33.8957 13.89 32.9679 13.3422 32.0775 12.7375C31.6894 12.4757 31.5288 12.3144 31.596 12.2566C31.6618 12.2015 31.962 12.2367 32.4792 12.397C32.6597 12.4582 32.8413 12.5198 33.024 12.5818C33.2055 12.6452 33.3822 12.7209 33.5626 12.7903C33.9225 12.9293 34.285 13.0693 34.6503 13.2103C35.3804 13.4874 36.1189 13.7593 36.8581 14.0124C37.5986 14.2641 38.339 14.5435 39.091 14.7834L38.5676 16.2522L37.826 15.9245C37.5802 15.8132 37.3413 15.6894 37.0989 15.5737C37.0921 15.579 37.0857 15.5838 37.0779 15.5888Z" fill="#FBF4E0"/>
<path d="M12.8969 24.7594C11.3419 22.9686 9.87181 21.0671 8.67295 18.975C8.03469 17.8613 7.48365 16.6999 7.02479 15.5011L6.96042 15.3385L8.1885 15.1145C8.22613 17.7816 8.42987 20.4379 8.94756 23.0291C9.44646 25.625 10.322 28.1281 11.4117 30.5333L9.90897 31.0022C9.79218 30.4144 9.68025 29.8216 9.58665 29.2179C9.53964 28.9167 9.49853 28.6137 9.45931 28.3214C9.41991 28.0288 9.38007 27.745 9.3343 27.4598C9.26657 27.0336 9.18776 26.6043 9.1053 26.1737L9.04201 25.8393C9.01671 25.6991 9.00187 25.5762 8.98814 25.4527C8.96097 25.2077 8.94692 24.9746 8.93493 24.7398C8.91402 24.2722 8.90913 23.8099 8.92738 23.3397C8.9383 22.8433 8.9939 22.3489 9.09351 21.8625C9.13011 21.6953 9.21915 21.5441 9.34766 21.4311C9.47617 21.3181 9.63743 21.249 9.80792 21.2341C9.97841 21.2191 10.1492 21.259 10.2955 21.3479C10.4417 21.4368 10.5557 21.5702 10.6209 21.7284L10.625 21.7389C11.218 23.2051 11.8645 24.6494 12.5436 26.0785C13.2326 27.5029 13.9588 28.9089 14.7221 30.2964C15.1137 30.9841 15.4972 31.6768 15.907 32.3542C16.3084 33.0367 16.7397 33.7008 17.1605 34.3712C18.0223 35.6995 18.9194 37.0037 19.8518 38.2838C20.2193 38.771 20.5691 39.2751 20.9289 39.77C21.1078 40.0183 21.2864 40.266 21.4646 40.5131C21.6389 40.7632 21.8186 41.0079 21.9976 41.2512C22.675 42.1894 23.0296 42.8694 23.1528 43.3781C23.2437 43.7472 23.1125 43.8599 22.8142 43.7276C22.5184 43.5936 22.0454 43.2221 21.4834 42.6056C21.3065 42.4099 21.1282 42.2072 20.9498 41.9999C20.7709 41.793 20.5925 41.581 20.4212 41.3618C20.2493 41.1431 20.0787 40.9221 19.9103 40.7011L19.6595 40.3698C19.5791 40.2577 19.4992 40.1462 19.4196 40.0354C17.9523 37.9978 16.5588 35.916 15.2391 33.79C13.9172 31.6653 12.6651 29.498 11.483 27.288C11.1504 26.6812 10.8332 26.0504 10.5157 25.4247C10.3593 25.1107 10.2145 24.7925 10.0705 24.4778C9.92826 24.1624 9.78895 23.8495 9.66667 23.5356L9.18495 22.3354L10.6105 22.2204C10.5373 22.5385 10.4908 22.8621 10.4717 23.1879C10.4465 23.5347 10.4372 23.89 10.44 24.2442C10.4434 24.5976 10.4585 24.9548 10.4918 25.2905C10.4953 25.3335 10.5008 25.3725 10.5057 25.4127C10.5106 25.4529 10.5153 25.494 10.5217 25.528C10.5309 25.5909 10.5504 25.6914 10.5675 25.7823L10.6702 26.3353C10.7373 26.7049 10.8016 27.0776 10.8581 27.4536C10.9155 27.83 10.962 28.204 11.0121 28.5632C11.1106 29.2798 11.2416 29.9936 11.3803 30.7157L11.383 30.7298C11.416 30.9014 11.3842 31.079 11.2937 31.2285C11.2032 31.3779 11.0606 31.4885 10.8933 31.5388C10.726 31.5892 10.546 31.5757 10.3881 31.501C10.2302 31.4263 10.1056 31.2956 10.0384 31.1344C9.69339 30.3064 9.36303 29.4721 9.0846 28.6193C8.57051 27.0854 8.1468 25.5228 7.81563 23.9394C7.48718 22.3574 7.26132 20.7558 7.13945 19.1447C7.03474 17.8043 6.99055 16.4633 6.98556 15.1264L6.98552 15.1188C6.98507 14.9847 7.03205 14.8547 7.11816 14.7518C7.20426 14.6489 7.32395 14.5797 7.45609 14.5565C7.58823 14.5333 7.72431 14.5576 7.84031 14.625C7.95631 14.6924 8.04476 14.7986 8.09004 14.9249C8.79958 16.9064 9.86563 18.7623 11.1102 20.4947C12.3556 22.2303 13.7748 23.8516 15.2481 25.4298L15.4673 25.6662L15.477 25.6767C15.5526 25.7581 15.5956 25.8644 15.598 25.9755C15.6004 26.0865 15.562 26.1946 15.4901 26.2792C15.4181 26.3638 15.3176 26.4191 15.2077 26.4346C15.0977 26.4502 14.9858 26.4248 14.8933 26.3634C14.4315 26.0569 14.0053 25.7332 13.5964 25.4054C13.1874 25.0782 12.7999 24.7431 12.4286 24.4065C12.057 24.0705 11.7004 23.7347 11.3588 23.3993C11.014 23.0684 10.6954 22.7237 10.3726 22.4036C10.0629 22.0915 9.93728 21.9159 10.0121 21.8674C10.0839 21.8225 10.3634 21.899 10.825 22.1355C10.9867 22.2209 11.1494 22.3068 11.313 22.3931C11.4732 22.4838 11.6196 22.593 11.7736 22.6936C12.0757 22.9007 12.38 23.1093 12.6866 23.3195C13.2886 23.7392 13.8969 24.1633 14.5037 24.5863C14.8589 24.8309 15.2143 25.0792 15.5698 25.3073L14.5609 26.5328C14.0085 25.953 13.462 25.3527 12.9217 24.752C12.9138 24.7544 12.9063 24.7566 12.8969 24.7594Z" fill="#FBF4E0"/>
</svg>
