<svg preserveAspectRatio="none" width="100%" height="100%" overflow="visible" style="display: block;" viewBox="0 0 447 359" fill="none" xmlns="http://www.w3.org/2000/svg">
<g id="snow, rain, drops, weather, sparkle, pattern">
<path id="Vector" d="M304.926 37.4284C306.038 37.639 307.11 38.0134 308.121 38.497C309.131 38.9845 310.09 39.5812 310.94 40.3222C311.841 41.0944 312.66 42.0187 313.358 42.9898C314.302 44.2807 315.027 45.7939 315.277 47.5528C315.402 48.4264 315.394 49.3585 315.215 50.2867C315.035 51.2149 314.68 52.1274 314.208 52.9035C313.261 54.4713 311.982 55.5868 310.671 56.437C309.353 57.2911 307.898 57.9112 306.385 58.2817C304.521 58.7419 302.567 58.8433 300.64 58.5508C299.689 58.4065 298.702 58.1569 297.75 57.7825C296.803 57.4042 295.882 56.9049 295.017 56.2497C294.155 55.5828 293.34 54.76 292.704 53.7304C292.388 53.2156 292.119 52.6618 291.92 52.0729C291.733 51.4879 291.585 50.899 291.522 50.2945C291.386 49.0855 291.526 47.8881 291.822 46.839C292.119 45.786 292.552 44.8462 293.035 44.0155C293.624 43.0015 294.467 42.2371 295.301 41.5936C296.105 40.9774 297.072 41.0475 298.008 41.4609C299.377 42.0771 300.032 43.5085 299.568 44.5576C299.268 45.2284 298.819 45.7978 298.382 46.3009C297.879 46.8781 297.474 47.4943 297.24 48.0871C297.006 48.6838 296.935 49.2414 297.021 49.7328C297.029 49.8576 297.08 49.9786 297.115 50.0995C297.142 50.2243 297.208 50.3257 297.255 50.4349C297.368 50.6494 297.532 50.8444 297.715 51.0316C298.098 51.4021 298.624 51.7101 299.232 51.9051C299.568 52.0104 299.931 52.0807 300.282 52.1509C300.636 52.225 300.968 52.2952 301.319 52.4668C302.427 52.9972 303.749 53.0361 304.969 52.7709C306.202 52.5096 307.352 51.9597 308.397 51.3552C309.17 50.9106 309.743 50.3062 310.032 49.7173C310.32 49.144 310.39 48.481 310.285 47.6971C310.199 47.0068 309.911 46.2618 309.497 45.5871C309.287 45.2517 309.053 44.9203 308.784 44.6317C308.651 44.4835 308.491 44.3431 308.347 44.1949C308.199 44.0506 308.027 43.9296 307.867 43.7892C306.537 42.7557 304.782 42.1357 302.992 42.0694C302.278 42.0499 301.576 41.9913 300.843 41.9211C300.11 41.8392 299.33 41.7028 298.437 41.5351C297.614 41.3713 296.892 40.2948 297.598 39.5811C298.585 38.6061 299.915 37.9042 301.319 37.5532C302.481 37.2607 303.714 37.3621 304.887 37.5103C304.895 37.483 304.903 37.4557 304.911 37.4245L304.926 37.4284Z" fill="var(--fill-0, white)" fill-opacity="0.2"/>
<path id="Vector_2" d="M293.176 87.0521C294.042 87.4889 294.916 88.031 295.727 88.7525C296.538 89.4701 297.271 90.4256 297.735 91.4864L297.919 91.9076C297.969 92.0519 298.008 92.1962 298.055 92.3405C298.137 92.633 298.231 92.9138 298.277 93.2258L298.355 93.6821L298.398 94.1423C298.433 94.4504 298.426 94.7507 298.433 95.051C298.426 95.8544 298.293 96.6344 298.071 97.3637C297.841 98.0891 297.525 98.7599 297.15 99.3839C296.394 100.624 295.407 101.677 294.202 102.508C291.823 104.138 288.96 104.743 286.195 104.434C284.495 104.232 282.81 103.69 281.297 102.761C280.911 102.543 280.556 102.266 280.193 102.005C279.834 101.72 279.487 101.416 279.163 101.084C278.516 100.421 277.931 99.6647 277.467 98.7638C277.003 97.8746 276.66 96.8177 276.586 95.6711C276.511 94.5128 276.73 93.3779 277.171 92.3366C277.615 91.2992 278.27 90.4334 278.957 89.7587C279.647 89.0879 280.369 88.5731 281.082 88.1402C281.948 87.6176 282.907 87.407 283.801 87.2783C284.662 87.1535 285.4 87.6839 286.004 88.4912C286.878 89.6768 286.901 91.2368 286.152 91.8998C285.676 92.3249 285.115 92.5745 284.584 92.7617C283.972 92.9762 283.426 93.257 283.017 93.5729C282.603 93.8927 282.346 94.2359 282.237 94.5557C282.194 94.6337 282.205 94.7195 282.178 94.7975C282.163 94.8794 282.178 94.9691 282.163 95.0471C282.166 95.2031 282.205 95.3513 282.272 95.5112C282.397 95.8271 282.67 96.1703 283.04 96.4667C283.243 96.6305 283.489 96.767 283.719 96.9113C283.836 96.9854 283.941 97.0595 284.046 97.1453C284.159 97.2272 284.257 97.3286 284.339 97.4495C284.627 97.8161 285.01 98.1203 285.439 98.3465C285.875 98.561 286.355 98.7014 286.846 98.7833C287.342 98.8496 287.841 98.8691 288.34 98.8457C288.835 98.8106 289.327 98.7521 289.814 98.678C290.54 98.5649 291.238 98.2529 291.78 97.8629C292.345 97.4534 292.829 96.9152 293.196 96.3614C293.519 95.8661 293.734 95.3435 293.785 94.8599C293.827 94.6142 293.8 94.3802 293.773 94.1384C293.734 94.0175 293.71 93.8849 293.679 93.7601C293.625 93.647 293.586 93.5222 293.531 93.4013C293.301 92.9333 292.895 92.4809 292.33 92.087C291.768 91.6892 291.066 91.3577 290.31 91.0964C289.097 90.683 287.911 90.0707 286.8 88.8188C286.289 88.2377 286.394 86.9507 287.112 86.7206C288.122 86.3969 289.218 86.2682 290.337 86.3384C291.261 86.4008 292.178 86.744 293.125 87.1301C293.141 87.1028 293.153 87.0794 293.164 87.0521H293.176Z" fill="var(--fill-0, white)" fill-opacity="0.2"/>
<path id="Vector_3" d="M344.376 71.6159C344.922 71.9162 345.472 72.275 346.014 72.743C346.556 73.2266 347.086 73.8389 347.476 74.5916C347.574 74.7983 347.664 75.005 347.745 75.2117C347.816 75.4262 347.874 75.6446 347.933 75.8591C347.995 76.0775 348.011 76.2881 348.046 76.5026L348.093 76.8224L348.112 77.1539C348.163 77.7467 348.073 78.359 347.913 78.9284C347.742 79.49 347.488 80.0087 347.192 80.4494C346.595 81.3464 345.862 81.9704 345.093 82.4735C344.317 82.9727 343.487 83.3237 342.566 83.5343C341.665 83.7371 340.796 83.7878 339.906 83.7098C338.818 83.5967 337.722 83.3237 336.65 82.7309C336.116 82.4501 335.597 82.064 335.113 81.6155C334.634 81.1592 334.205 80.6054 333.865 79.9931C333.783 79.841 333.709 79.6811 333.635 79.5212L333.53 79.2794C333.495 79.1897 333.46 79.0805 333.429 78.983C333.366 78.7802 333.308 78.5774 333.257 78.3707C333.222 78.1679 333.195 77.9651 333.171 77.7623C333.144 77.5556 333.14 77.3606 333.144 77.1656C333.148 76.9706 333.152 76.7717 333.171 76.5845C333.222 76.2179 333.28 75.8396 333.39 75.5042C333.799 74.1275 334.571 72.9965 335.769 72.0839C336.506 71.5418 337.605 71.3039 338.651 71.4638C339.15 71.5223 339.536 71.8421 339.75 72.2048C339.961 72.5909 340 73.0706 339.934 73.5503C339.832 74.2562 339.45 74.8841 339.197 75.4301C339.13 75.5666 339.072 75.6953 339.025 75.8162C339.006 75.8708 338.982 75.9293 338.963 75.9917L338.939 76.0658V76.0463L338.951 76.0034C338.951 76.0034 338.951 76.0034 338.951 75.9995C338.939 76.0385 338.97 76.3154 339.138 76.6118L339.173 76.682L339.15 76.6547C339.13 76.6352 339.107 76.6469 339.08 76.643C339.048 76.6352 339.025 76.6547 338.994 76.6625C338.963 76.6703 338.931 76.6859 338.908 76.7093C338.795 76.7873 338.705 76.9316 338.701 77.0447C338.686 77.0759 338.701 77.0954 338.701 77.1188C338.701 77.1422 338.705 77.1617 338.725 77.1734C338.74 77.1812 338.733 77.2046 338.76 77.2007H338.783L338.705 77.2163C338.686 77.2163 338.658 77.2241 338.623 77.2397H338.616V77.2436C338.397 77.3294 338.912 77.1266 338.861 77.1461L338.873 77.1539L338.9 77.1656L338.947 77.1851C338.97 77.2007 339.017 77.2046 339.052 77.2124C339.084 77.2202 339.123 77.2241 339.165 77.2202C339.345 77.2241 339.552 77.1071 339.587 77.3606C339.618 77.5673 339.758 77.7233 339.926 77.8403C340.101 77.9495 340.312 78.0197 340.534 78.0509C340.971 78.1133 341.463 78.0587 341.833 78.0743C342.149 78.0899 342.48 77.9768 342.73 77.8286C342.984 77.6804 343.163 77.5088 343.276 77.423C343.374 77.3411 343.42 77.3333 343.475 77.2709C343.514 77.1773 343.557 77.0915 343.526 76.9628C343.494 76.8263 343.346 76.6157 343.093 76.4129C342.843 76.2062 342.488 76.019 342.102 75.8591C341.486 75.5978 340.909 75.0674 340.324 73.8584C340.055 73.2968 340.129 72.0098 340.577 71.7563C341.205 71.3975 341.892 71.222 342.597 71.2064C343.182 71.1947 343.748 71.4638 344.341 71.69C344.352 71.6627 344.364 71.6393 344.376 71.612V71.6159Z" fill="var(--fill-0, white)" fill-opacity="0.2"/>
<path id="Vector_4" d="M370.966 22.8813C372.144 23.0958 373.415 23.4936 374.577 24.1917L374.807 24.3282L375.057 24.4959C375.225 24.609 375.392 24.7221 375.54 24.8508C375.852 25.0926 376.129 25.3461 376.418 25.5957C377.167 26.2665 377.775 27.066 378.22 28.0215C378.657 28.9692 378.914 30.1392 378.727 31.4379C378.547 32.7366 377.76 34.047 376.785 34.8309C375.802 35.6421 374.745 36.036 373.797 36.2544C372.608 36.5118 371.562 36.5391 370.447 36.4377C369.339 36.3168 368.197 36.036 367.081 35.4705C366.528 35.1858 365.982 34.8348 365.478 34.4058C365.225 34.1913 364.991 33.9612 364.757 33.7116C364.511 33.4347 364.289 33.15 364.094 32.8497C363.326 31.6524 362.912 30.3225 362.904 28.8912C362.897 28.0254 363.279 27.1284 363.837 26.403C364.11 26.0559 364.492 25.8648 364.917 25.8414C365.33 25.8102 365.79 25.9467 366.219 26.1768C366.851 26.5161 367.331 27.066 367.737 27.5106C367.935 27.7329 368.119 27.9318 368.263 28.08C368.419 28.2399 368.536 28.3413 368.602 28.4037C368.774 28.5597 368.762 28.5909 368.661 28.7001C368.427 28.9536 368.47 29.5269 368.727 29.8155C368.758 29.8545 368.786 29.8896 368.825 29.913L368.875 29.9559L368.949 30.0066C369.043 30.0768 369.152 30.1275 369.269 30.1704C369.503 30.2562 369.776 30.2913 370.069 30.2718C370.396 30.2523 370.743 30.1002 371.028 30.3381C371.492 30.7164 372.171 30.7671 372.643 30.6852C372.877 30.6423 373.08 30.576 373.208 30.5175C373.345 30.4629 373.403 30.4317 373.481 30.4473C373.571 30.4473 373.633 30.4863 373.653 30.3498C373.676 30.2211 373.653 29.9754 373.571 29.6829C373.497 29.4216 373.36 29.1447 373.189 28.9068C373.142 28.8522 373.099 28.7976 373.052 28.7352C373.002 28.6884 372.955 28.6377 372.908 28.5831C372.857 28.5441 372.81 28.4973 372.756 28.4505L372.526 28.3023C371.894 27.9201 371.028 27.6939 370.041 27.6159C369.261 27.5457 368.427 27.1947 367.545 26.1339C367.14 25.6425 367.003 24.3594 367.374 24.0201C367.9 23.5443 368.513 23.2089 369.183 23.0061C369.737 22.8384 370.353 22.932 370.977 22.9632C370.977 22.932 370.985 22.9047 370.989 22.8774L370.966 22.8813Z" fill="var(--fill-0, white)" fill-opacity="0.2"/>
<path id="Vector_5" d="M410.66 76.7014C411.576 77.6569 412.317 78.8113 412.816 80.0515C413.308 81.2917 413.557 82.5865 413.569 83.854C413.585 85.1995 413.359 86.5099 413.011 87.7813C412.781 88.6315 412.438 89.4622 411.997 90.25C411.783 90.6478 411.518 91.0222 411.253 91.3966C410.964 91.7593 410.671 92.1142 410.348 92.4301C409.072 93.7288 407.489 94.6375 405.871 95.2147C405.059 95.4955 404.233 95.7022 403.406 95.8387C402.579 95.9674 401.748 96.0337 400.921 96.0415C400.095 96.0415 399.272 95.983 398.457 95.866C397.649 95.749 396.838 95.5735 396.027 95.3239C395.029 95.0158 394.022 94.5946 393.059 94.0135C392.096 93.4285 391.171 92.6914 390.388 91.7593C388.804 89.8951 388.009 87.5707 387.884 85.3126C387.755 83.0467 388.262 80.7496 389.436 78.7294C390.586 76.756 392.263 75.1999 394.132 74.1274C395.266 73.4761 396.577 73.1875 397.825 73.09C399.038 73.0042 399.892 73.6672 400.368 74.5915C400.719 75.2662 400.723 75.9916 400.559 76.6039C400.387 77.2123 400.056 77.7037 399.576 77.9845C398.968 78.3394 398.308 78.5539 397.657 78.7684C396.156 79.2442 394.857 80.2972 394.163 81.5998C393.496 82.8595 393.406 84.5131 393.94 85.7923C394.073 86.1511 394.284 86.467 394.463 86.7673C394.65 87.0637 394.818 87.3328 394.927 87.6448C395.095 88.1284 395.45 88.5964 395.929 88.9708C396.401 89.353 397.002 89.6494 397.653 89.8717C398.305 90.094 399.018 90.2539 399.736 90.3553C400.45 90.4606 401.167 90.5152 401.881 90.5386C402.411 90.562 402.942 90.5269 403.453 90.4372C403.967 90.3553 404.459 90.2149 404.919 90.0355C405.387 89.8639 405.812 89.6338 406.206 89.3764C406.604 89.1268 406.963 88.8187 407.282 88.5028C407.852 87.9451 408.292 87.2041 408.593 86.3929C408.874 85.5739 409.014 84.6808 408.944 83.7994C408.913 83.3626 408.842 82.9258 408.71 82.5124C408.593 82.0912 408.413 81.7012 408.195 81.319C407.984 80.9329 407.692 80.5858 407.392 80.2465C407.076 79.9189 406.721 79.6147 406.339 79.3495C405.726 78.9244 405.098 78.5383 404.447 78.1093C403.792 77.6881 403.102 77.2279 402.279 76.717C401.526 76.2646 401.23 74.9932 402.302 74.5876C403.043 74.338 403.846 74.2093 404.669 74.1976C405.484 74.2054 406.315 74.3224 407.111 74.5564C408.429 74.9464 409.583 75.8083 410.605 76.7521C410.629 76.7326 410.648 76.717 410.675 76.6975L410.66 76.7014Z" fill="var(--fill-0, white)" fill-opacity="0.2"/>
<path id="Vector_6" d="M378.399 121.617C378.969 122.288 379.413 123.041 379.717 123.872C380.022 124.695 380.166 125.623 380.088 126.555C380.076 126.812 380.037 127.027 379.994 127.245C379.955 127.464 379.905 127.678 379.842 127.885C379.729 128.306 379.577 128.708 379.429 129.106C379.023 130.159 378.395 131.075 377.654 131.824C376.909 132.569 376.048 133.169 375.096 133.618C374.14 134.066 373.111 134.355 371.898 134.398C370.74 134.429 369.636 134.211 368.622 133.809C367.378 133.302 366.223 132.534 365.26 131.391C365.014 131.122 364.804 130.771 364.593 130.455C364.492 130.287 364.402 130.096 364.312 129.913C364.227 129.726 364.133 129.55 364.067 129.343C363.93 128.938 363.798 128.532 363.747 128.084C363.72 127.861 363.681 127.643 363.677 127.421C363.677 127.194 363.677 126.972 363.692 126.746C363.692 126.52 363.731 126.301 363.778 126.087C363.821 125.868 363.868 125.654 363.919 125.44C364.051 125.038 364.184 124.64 364.387 124.27C364.574 123.887 364.808 123.548 365.053 123.213C365.307 122.904 365.576 122.592 365.857 122.347C366.138 122.078 366.426 121.871 366.719 121.656C367.003 121.473 367.3 121.278 367.585 121.134C368.162 120.818 368.719 120.596 369.265 120.405C369.928 120.171 370.623 120.214 371.266 120.295C371.886 120.373 372.374 121.033 372.752 121.941C373.298 123.267 373.236 124.796 372.69 125.268C372.343 125.576 371.937 125.67 371.555 125.701C370.677 125.759 369.901 126.06 369.593 126.426C369.289 126.758 369.347 127.195 369.64 127.218C369.792 127.269 369.995 127.214 369.944 127.475C369.882 127.916 370.315 128.341 370.786 128.556C371.274 128.786 371.785 128.817 372.198 128.903C372.557 128.965 373.009 128.868 373.399 128.692C373.797 128.517 374.152 128.271 374.476 128.017C374.761 127.791 374.998 127.53 375.166 127.261C375.213 127.194 375.236 127.124 375.283 127.054C375.318 126.984 375.338 126.914 375.377 126.84C375.4 126.766 375.416 126.691 375.443 126.617C375.455 126.555 375.463 126.504 375.482 126.446C375.521 126.208 375.474 125.888 375.326 125.568C375.182 125.248 374.944 124.94 374.667 124.71C374.445 124.523 374.269 124.328 374.043 124.02C373.813 123.716 373.509 123.322 372.928 122.908C372.666 122.717 372.358 122.347 372.194 121.953C372.031 121.563 372.038 121.126 372.374 120.857C372.604 120.662 372.877 120.533 373.162 120.397C373.446 120.272 373.75 120.198 374.066 120.128C374.371 120.085 374.694 120.057 375.006 120.065C375.307 120.089 375.634 120.112 375.919 120.186C376.906 120.409 377.674 121.044 378.325 121.68C378.349 121.66 378.368 121.641 378.391 121.621L378.399 121.617Z" fill="var(--fill-0, white)" fill-opacity="0.2"/>
<path id="Vector_7" d="M333.849 142.97C334.769 143.933 335.499 145.053 335.99 146.312C336.474 147.572 336.692 148.995 336.509 150.407C336.318 151.897 335.698 153.196 335.031 154.307C334.134 155.809 332.956 156.979 331.669 157.95C330.37 158.921 328.923 159.67 327.398 160.188C324.353 161.222 320.963 161.319 317.785 160.29C315.851 159.654 313.936 158.66 312.325 156.866C311.537 155.965 310.843 154.83 310.496 153.535C310.133 152.248 310.11 150.895 310.355 149.686C310.593 148.469 311.057 147.373 311.646 146.398C312.239 145.423 312.961 144.565 313.795 143.816C314.01 143.633 314.224 143.454 314.447 143.278C314.673 143.114 314.911 142.935 315.133 142.795C315.578 142.506 316.034 142.241 316.498 142.011C317.422 141.546 318.358 141.196 319.279 140.915C320.39 140.579 321.529 140.56 322.586 140.595C323.6 140.63 324.317 141.27 324.832 142.159C325.593 143.461 325.25 145.021 324.052 145.579C323.296 145.934 322.481 146.094 321.724 146.199C320.846 146.32 320.031 146.527 319.29 146.823C318.928 146.979 318.569 147.147 318.249 147.354C318.074 147.451 317.953 147.556 317.808 147.654C317.676 147.771 317.535 147.872 317.414 148.001C316.907 148.492 316.502 149.101 316.283 149.721C316.046 150.337 316.034 150.949 316.159 151.402C316.33 151.917 316.646 152.135 316.814 152.685C316.958 153.126 317.321 153.578 317.801 153.956C318.276 154.339 318.881 154.631 319.505 154.861C320.125 155.103 320.792 155.224 321.459 155.337C322.13 155.434 322.812 155.466 323.506 155.501C324.536 155.528 325.577 155.337 326.556 154.994C327.535 154.651 328.448 154.159 329.278 153.574C330.035 153.063 330.674 152.435 331.154 151.772C331.626 151.105 331.899 150.419 331.942 149.74C331.985 149.054 331.786 148.27 331.369 147.549C331.162 147.186 330.905 146.843 330.608 146.531C330.316 146.219 329.976 145.946 329.594 145.692C328.381 144.893 327.067 144.12 325.667 142.826C325.023 142.241 325.086 140.942 326.037 140.735C327.371 140.454 328.869 140.486 330.366 140.919C330.979 141.094 331.583 141.383 332.153 141.745C332.437 141.925 332.714 142.124 332.987 142.334C333.268 142.553 333.533 142.783 333.791 143.017C333.814 142.997 333.833 142.982 333.861 142.962L333.849 142.97Z" fill="var(--fill-0, white)" fill-opacity="0.2"/>
<path id="Vector_8" d="M430.932 164.709C431.669 165.426 432.309 166.382 432.656 167.439C433.027 168.519 433.062 169.63 432.898 170.617C432.719 171.67 432.325 172.591 431.88 173.456C431.584 174.037 431.221 174.583 430.78 175.087L430.437 175.453L430.09 175.781C429.852 175.991 429.61 176.19 429.357 176.374C428.347 177.107 427.247 177.598 426.163 177.934C425.621 178.101 425.078 178.23 424.54 178.327C424.271 178.374 424.006 178.417 423.737 178.452C423.456 178.483 423.148 178.507 422.855 178.53C421.678 178.581 420.515 178.464 419.357 178.16C418.647 177.98 417.934 177.703 417.228 177.356C416.522 176.974 415.82 176.541 415.165 175.902C414.525 175.266 413.905 174.498 413.523 173.542C413.137 172.598 412.945 171.6 412.992 170.586C413.047 169.58 413.312 168.62 413.714 167.809C414.112 166.99 414.619 166.284 415.192 165.684C415.761 165.083 416.409 164.56 417.095 164.143C417.754 163.738 418.425 163.422 419.076 163.172C419.868 162.864 420.695 162.856 421.44 162.891C422.161 162.93 422.723 163.562 423.179 164.44C423.854 165.727 423.795 167.271 423.066 167.805C422.61 168.148 422.099 168.285 421.627 168.355C421.081 168.433 420.593 168.57 420.172 168.765C419.958 168.87 419.786 168.964 419.618 169.088C419.455 169.213 419.306 169.354 419.178 169.502C418.924 169.806 418.768 170.149 418.745 170.43C418.721 170.722 418.807 170.902 418.967 171.046C419.147 171.206 419.357 171.132 419.361 171.436C419.388 171.678 419.54 171.951 419.825 172.158C420.098 172.368 420.445 172.54 420.831 172.653C421.604 172.899 422.462 172.938 423.273 173.004C424.692 173.074 425.972 172.626 426.857 172.064C426.962 172.002 427.056 171.931 427.153 171.865C427.231 171.799 427.317 171.74 427.395 171.662C427.551 171.514 427.707 171.35 427.832 171.163C428.093 170.797 428.265 170.371 428.323 169.985C428.358 169.79 428.354 169.607 428.335 169.432C428.331 169.342 428.304 169.26 428.284 169.174C428.241 169.088 428.226 168.987 428.171 168.905C428.007 168.546 427.672 168.191 427.196 167.864C426.44 167.349 425.566 166.635 424.848 165.266C424.521 164.635 424.829 163.383 425.461 163.234C426.358 163.036 427.329 163.028 428.362 163.285C429.208 163.492 430.043 164.053 430.862 164.752C430.886 164.732 430.905 164.713 430.925 164.693L430.932 164.709Z" fill="var(--fill-0, white)" fill-opacity="0.2"/>
<path id="Vector_9" d="M431.072 128.014C431.431 128.287 431.794 128.61 432.129 128.989C432.301 129.184 432.445 129.367 432.613 129.601C432.792 129.85 432.937 130.104 433.061 130.357C433.319 130.9 433.455 131.442 433.615 131.992C433.826 132.721 433.908 133.583 433.619 134.554C433.475 135.034 433.213 135.529 432.866 135.954C432.508 136.387 432.082 136.718 431.681 136.952C430.866 137.416 430.206 137.549 429.762 137.67C429.309 137.783 428.822 137.869 428.296 137.908C427.648 137.955 426.931 137.947 426.139 137.783C425.355 137.627 424.466 137.288 423.682 136.707L423.393 136.48C423.303 136.41 423.171 136.278 423.066 136.176C422.836 135.954 422.66 135.72 422.485 135.478C422.161 134.998 421.919 134.491 421.775 133.988C421.474 132.978 421.439 131.937 421.775 130.79C421.989 130.092 422.621 129.421 423.381 129.039C423.736 128.848 424.162 128.883 424.505 129.063C424.856 129.254 425.152 129.605 425.382 130.026C425.722 130.646 425.85 131.368 426.041 131.933L426.076 132.038V132.027C426.076 132.027 426.065 132.003 426.057 131.992L426.045 131.968C426.045 131.968 426.045 131.968 426.045 131.964C426.053 131.984 426.162 132.097 426.357 132.187C426.58 132.3 426.86 132.346 427.008 132.346H427.059C427.079 132.346 427.055 132.346 427.059 132.346L427.044 132.354C427.044 132.354 427.044 132.366 427.051 132.362C426.97 132.382 426.755 132.495 426.63 132.604C426.595 132.639 426.576 132.651 426.544 132.682L426.525 132.705L426.513 132.717L427.075 132.062L427.102 132.034C427.137 132.003 427.176 131.956 427.211 131.91C427.301 131.8 427.379 131.594 427.402 131.8C427.461 132.132 427.75 132.226 428.065 132.222C428.225 132.222 428.401 132.202 428.584 132.19C428.756 132.179 428.99 132.167 429.138 132.202C429.247 132.229 429.317 132.241 429.333 132.257C429.337 132.265 429.333 132.249 429.341 132.272L429.407 132.436C429.438 132.526 429.489 132.627 429.52 132.694C429.594 132.85 429.653 132.947 429.703 133.017C429.731 133.052 429.746 133.08 429.766 133.099L429.824 133.165C429.848 133.189 429.82 133.162 429.82 133.165C429.77 133.13 429.688 133.091 429.547 133.056C429.426 133.025 429.286 133.013 429.161 133.017C429.13 133.017 429.099 133.017 429.068 133.021H429.033H429.04C429.056 133.021 429.064 133.009 429.076 133.002C429.122 132.959 429.142 132.881 429.165 132.818C429.22 132.787 429.146 132.627 429.048 132.502C428.947 132.37 428.795 132.226 428.592 132.093C428.28 131.875 427.984 131.336 427.855 130.104C427.8 129.535 428.132 128.287 428.44 128.068C428.881 127.76 429.345 127.612 429.832 127.608C430.238 127.608 430.604 127.865 431.018 128.076C431.033 128.049 431.045 128.025 431.061 128.002L431.072 128.014Z" fill="var(--fill-0, white)" fill-opacity="0.2"/>
<path id="Vector_10" d="M367.416 173.187C368.122 174.256 368.473 175.461 368.43 176.748C368.423 177.084 368.364 177.431 368.302 177.766C368.228 178.07 368.157 178.371 368.079 178.667C367.881 179.463 367.522 180.192 367.069 180.808C366.613 181.428 366.067 181.955 365.459 182.384C364.846 182.813 364.164 183.144 363.415 183.359C363.228 183.409 363.033 183.452 362.842 183.495C362.643 183.526 362.44 183.558 362.241 183.577C361.843 183.608 361.446 183.612 361.052 183.573C360.084 183.483 359.137 183.195 358.236 182.668C357.343 182.134 356.465 181.315 355.919 180.192C355.775 179.919 355.677 179.622 355.576 179.33C355.486 178.975 355.397 178.605 355.385 178.257C355.326 177.54 355.436 176.877 355.619 176.276C356.009 175.083 356.695 174.112 357.744 173.347C358.384 172.887 359.332 172.719 360.217 172.864C360.642 172.918 360.981 173.203 361.169 173.558C361.356 173.921 361.395 174.389 361.336 174.868C361.247 175.574 360.915 176.226 360.716 176.791C360.693 176.857 360.669 176.928 360.646 176.998L360.615 177.095C360.607 177.115 360.615 177.095 360.615 177.099L360.623 177.064V177.045V177.052C360.623 177.056 360.623 177.06 360.623 177.06C360.615 177.115 360.65 177.321 360.763 177.524C360.825 177.653 360.9 177.75 360.974 177.836C360.993 177.856 361.009 177.875 361.024 177.891L361.009 177.879C361.009 177.879 360.985 177.867 360.974 177.867C360.927 177.864 360.888 177.903 360.903 177.91C360.915 177.914 360.888 177.903 360.864 177.899C360.841 177.891 360.814 177.887 360.786 177.883C360.728 177.879 360.693 177.864 360.638 177.864H360.506C360.463 177.864 360.416 177.875 360.404 177.875C360.393 177.875 360.381 177.879 360.369 177.883L360.35 177.891L361.013 177.688C361.013 177.688 361.013 177.688 361.017 177.688C361.036 177.68 361.056 177.669 361.067 177.661C361.095 177.645 361.13 177.626 361.153 177.606C361.227 177.555 361.309 177.481 361.399 177.388C361.446 177.337 361.438 177.341 361.41 177.435C361.305 177.739 361.531 177.906 361.734 177.93C361.96 177.969 362.097 177.918 362.358 177.969C362.553 178.008 362.752 177.942 362.92 177.852C363.087 177.758 363.224 177.641 363.357 177.548C363.598 177.392 363.762 177.173 363.844 177.037C363.942 176.826 363.852 176.409 363.665 176.148C363.591 176.046 363.579 175.871 363.54 175.586C363.497 175.297 363.419 174.857 363.123 174.303C362.861 173.788 362.518 172.517 363.091 172.181C363.864 171.729 364.893 171.694 365.732 171.975C366.434 172.205 366.925 172.751 367.362 173.25C367.385 173.23 367.409 173.215 367.432 173.195L367.416 173.187Z" fill="var(--fill-0, white)" fill-opacity="0.2"/>
<path id="Vector_11" d="M282.541 133.715C282.818 133.844 283.099 134 283.372 134.164C283.508 134.246 283.645 134.335 283.781 134.429C283.925 134.53 284.07 134.628 284.206 134.741C284.748 135.17 285.22 135.661 285.622 136.219C286.047 136.816 286.386 137.479 286.691 138.22C287.12 139.187 287.229 140.482 286.925 141.582C286.632 142.693 286.047 143.578 285.423 144.269C284.171 145.634 282.549 146.484 280.794 146.804C279.71 146.999 278.555 146.999 277.362 146.687C276.18 146.398 274.955 145.719 274.031 144.725C273.793 144.46 273.524 144.124 273.329 143.801C273.138 143.469 272.955 143.13 272.838 142.787C272.565 142.096 272.463 141.41 272.428 140.735C272.417 140.064 272.471 139.405 272.651 138.762C272.721 138.442 272.857 138.118 272.974 137.806C273.13 137.49 273.263 137.178 273.477 136.874C273.602 136.691 273.727 136.515 273.899 136.352C274.066 136.188 274.25 136.04 274.437 135.907C274.85 135.642 275.283 135.435 275.763 135.314C275.981 135.248 276.207 135.244 276.418 135.291C276.629 135.334 276.82 135.42 276.987 135.54C277.331 135.802 277.576 136.2 277.736 136.66C277.97 137.334 277.943 138.064 277.966 138.664C277.974 138.965 277.994 139.234 278.029 139.437C278.036 139.476 278.044 139.515 278.052 139.554C278.052 139.561 278.056 139.565 278.056 139.565C278.056 139.565 278.056 139.557 278.056 139.569C278.064 139.589 278.072 139.608 278.083 139.624C278.095 139.639 278.103 139.655 278.111 139.667C278.118 139.674 278.13 139.686 278.15 139.721C278.185 139.776 278.224 139.819 278.267 139.858C278.286 139.873 278.317 139.916 278.341 139.936C278.36 139.955 278.356 139.951 278.352 139.947L278.341 139.94C278.259 139.889 278.122 139.955 278.044 140.088C277.966 140.22 277.935 140.392 277.955 140.54C277.978 140.688 278.068 140.79 278.15 140.805C278.173 140.805 278.192 140.805 278.208 140.805L278.243 140.786L278.255 140.778L278.235 140.794C278.352 140.716 278.391 140.786 278.485 140.743C278.668 140.708 278.828 140.54 278.898 140.77C279.05 141.133 279.487 141.25 279.901 141.188C280.326 141.141 280.727 140.961 281.141 140.864C281.465 140.79 281.745 140.599 281.921 140.423C282.1 140.244 282.159 140.111 282.221 140.061C282.276 140.014 282.334 139.967 282.334 139.803C282.334 139.647 282.256 139.421 282.108 139.195C281.956 138.969 281.769 138.758 281.511 138.579C281.234 138.387 280.899 138.22 280.509 138.083C279.901 137.861 279.242 137.358 278.653 136.149C278.387 135.591 278.504 134.304 278.898 134.043C279.456 133.676 280.08 133.466 280.766 133.411C281.332 133.368 281.909 133.594 282.518 133.797C282.529 133.77 282.537 133.743 282.549 133.715H282.541Z" fill="var(--fill-0, white)" fill-opacity="0.2"/>
<path id="Vector_12" d="M433.241 41.1919C433.619 41.8003 433.9 42.4282 434.052 43.1068C434.208 43.7815 434.274 44.4796 434.181 45.2167C434.165 45.4078 434.126 45.5989 434.079 45.7939C434.028 45.9889 433.993 46.1761 433.919 46.3672L433.709 46.9327L433.486 47.4124C433.096 48.2665 432.488 49.0075 431.802 49.5613C431.111 50.119 430.347 50.5129 429.559 50.7703C428.767 51.0277 427.948 51.1525 427.102 51.133C426.267 51.1174 425.37 50.938 424.571 50.5987C423.588 50.1853 422.715 49.5847 421.966 48.7735C421.229 47.9701 420.601 46.921 420.339 45.6496C420.269 45.3376 420.238 45.0061 420.215 44.6785C420.215 44.3392 420.203 44.0428 420.269 43.6372C420.316 43.2472 420.421 42.8962 420.538 42.5452C420.671 42.2137 420.815 41.8783 420.995 41.5936C421.346 40.9969 421.779 40.5016 422.274 40.0882C422.765 39.667 423.327 39.3238 423.97 39.0781C424.743 38.7739 425.729 38.8324 426.595 39.1795C427.012 39.3394 427.293 39.6904 427.406 40.0882C427.519 40.486 427.465 40.9579 427.305 41.4181C427.071 42.0889 426.599 42.6505 426.267 43.1497C426.111 43.3681 425.92 43.7308 425.987 43.6021C425.994 43.5787 425.979 43.6255 425.983 43.6177C425.955 43.6996 425.94 43.957 426.002 44.1949C426.01 44.23 426.018 44.2651 426.03 44.2963C426.033 44.3119 426.041 44.3275 426.045 44.3431L426.053 44.3665C426.053 44.3665 426.033 44.3158 426.018 44.3158C425.987 44.2924 425.948 44.2885 425.905 44.2924C425.823 44.3041 425.76 44.3665 425.757 44.4055C425.749 44.4133 425.76 44.4211 425.764 44.4289C425.788 44.4445 425.718 44.4133 425.679 44.4016L425.558 44.3743C425.558 44.3743 425.523 44.3704 425.503 44.3704H425.495C426.236 44.4211 425.702 44.386 425.866 44.3977H425.874L425.889 44.4133C425.959 44.464 426.061 44.4913 426.193 44.4991C426.349 44.5186 426.568 44.4445 426.49 44.6551C426.381 45.01 426.626 45.283 426.88 45.4039C427.133 45.5365 427.379 45.5404 427.699 45.6691C427.937 45.7627 428.202 45.7471 428.428 45.6925C428.658 45.6379 428.845 45.5404 429.009 45.4741C429.157 45.4117 429.274 45.3454 429.38 45.2557C429.395 45.2362 429.45 45.1972 429.45 45.1972C429.458 45.1894 429.481 45.1894 429.497 45.1816C429.504 45.166 429.524 45.1543 429.543 45.1387C429.551 45.1153 429.563 45.0919 429.582 45.0646C429.692 44.8228 429.582 44.2963 429.352 43.996C429.259 43.8868 429.247 43.7152 429.189 43.4227C429.13 43.1458 428.997 42.6934 428.588 42.202C428.221 41.7379 427.648 40.5445 428.268 40.1077C428.471 39.9517 428.709 39.8503 428.962 39.7606C429.22 39.6631 429.481 39.6163 429.754 39.5929C430.035 39.5617 430.296 39.5773 430.565 39.6085C430.842 39.6358 431.088 39.7021 431.337 39.7879C432.153 40.0648 432.722 40.6888 433.174 41.2621C433.198 41.2465 433.221 41.2309 433.248 41.2114L433.241 41.1919Z" fill="var(--fill-0, white)" fill-opacity="0.2"/>
<path id="Vector_13" d="M271.461 13.0338C272.585 12.3201 273.805 11.9652 275.065 11.9067C275.744 11.895 276.418 11.9574 277.12 12.0783C278.048 12.2148 279.035 12.6204 279.8 13.2561C280.576 13.8879 281.157 14.7147 281.523 15.5727C281.898 16.4346 282.065 17.3316 282.062 18.2208C282.062 19.11 281.898 20.007 281.539 20.8767C281.094 21.9375 280.314 22.9827 279.203 23.712C278.099 24.4452 276.777 24.7689 275.564 24.726C274.343 24.687 273.24 24.3321 272.276 23.7939C271.313 23.2479 270.471 22.5069 269.808 21.5553C269.597 21.2823 269.48 20.9157 269.383 20.5764C269.312 20.2098 269.27 19.8471 269.281 19.4805C269.293 18.7668 270.011 18.2442 270.95 18.018C271.637 17.8464 272.366 17.8737 272.967 17.8971C273.575 17.9283 274.024 17.9361 274.219 17.9556C274.343 17.9712 274.39 17.9868 274.433 18.018C274.449 18.0336 274.457 18.0531 274.453 18.0765C274.457 18.0999 274.46 18.1272 274.453 18.1623C274.418 18.3183 274.48 18.4821 274.566 18.6381C274.675 18.7785 274.811 18.9189 274.987 18.9813C275.155 19.0632 275.342 19.0671 275.498 19.0437C275.572 19.0086 275.65 19.0047 275.705 18.9423L275.783 18.8721C275.802 18.837 275.818 18.8058 275.829 18.7746C275.845 18.7434 275.857 18.7044 275.853 18.6576C275.853 18.6147 275.853 18.5874 275.853 18.564C275.845 18.5328 275.841 18.5172 275.845 18.525L275.853 18.5328V18.5367L275.872 18.5757V18.5679V18.5601L275.884 18.5874C276.052 18.8565 276.251 18.7668 276.348 18.5718C276.457 18.369 276.481 18.0882 276.586 17.8113C276.676 17.5968 276.641 17.3901 276.594 17.2419C276.543 17.0859 276.488 16.9962 276.43 16.8987C276.383 16.809 276.332 16.7115 276.196 16.6413C276.141 16.5867 276.048 16.5789 275.962 16.536C275.864 16.5282 275.763 16.4892 275.65 16.497C275.194 16.4619 274.628 16.6569 274.242 16.9611C274.172 17.0235 274.067 17.0664 273.969 17.1132C273.914 17.1327 273.856 17.1522 273.782 17.1717C273.719 17.1912 273.653 17.2107 273.571 17.2302L273.302 17.2965L272.998 17.3901C272.76 17.4603 272.51 17.5578 272.214 17.6904C271.664 17.9322 270.365 18.0882 270.104 17.4759C269.909 17.0586 269.855 16.5984 269.843 16.1226C269.862 15.6624 269.948 15.1827 270.124 14.7654C270.252 14.3988 270.482 14.118 270.724 13.8333C270.974 13.572 271.247 13.338 271.512 13.1157C271.496 13.0923 271.477 13.0689 271.461 13.0455V13.0338Z" fill="var(--fill-0, white)" fill-opacity="0.2"/>
<path id="Vector_14" d="M330.058 19.9681C330.086 20.128 330.066 20.3113 330.008 20.5219C329.976 20.6311 329.945 20.7637 329.836 20.8378C329.68 20.947 329.524 21.0835 329.384 21.3019C329.247 21.5164 329.157 21.766 329.114 21.9883C329.036 22.4407 329.087 22.7605 329.208 22.9984C329.282 23.1427 329.38 23.2714 329.524 23.3884C329.555 23.4157 329.61 23.4508 329.629 23.4664C329.649 23.482 329.676 23.4976 329.696 23.5093C329.738 23.5327 329.777 23.5522 329.805 23.5639C329.93 23.6107 329.91 23.5678 329.762 23.5405C329.719 23.5327 329.68 23.3065 329.629 23.0803C329.582 22.8619 329.586 22.1248 329.629 21.1615C329.692 19.7614 329.848 18.2677 330.008 17.9284C330.109 17.71 330.21 17.7178 330.304 17.8153C330.518 18.0298 330.764 18.1429 331.068 18.178C331.373 18.2131 331.743 18.1702 332.234 18.1195C332.511 18.0961 332.843 18.0103 333.003 18.3574C333.229 18.8878 333.475 19.2076 333.736 19.5547C333.989 19.8979 334.247 20.2801 334.278 20.7832C334.298 21.1459 334.337 21.5281 334.309 21.9337C334.286 22.3393 334.188 22.78 333.97 23.1505C333.783 23.4625 333.545 23.7355 333.284 23.9422C333.03 24.145 332.761 24.2893 332.523 24.3751C332.043 24.5467 331.653 24.5584 331.337 24.5428C331.08 24.5272 330.788 24.1333 330.452 23.0179C330.296 22.5031 330.086 21.2278 330.082 20.9314C330.082 20.5141 330.082 20.2411 330.07 20.0773C330.062 19.9408 330.089 20.0422 330.086 20.0461C330.078 20.0188 330.066 19.9915 330.058 19.9642V19.9681Z" fill="var(--fill-0, white)" fill-opacity="0.2"/>
<path id="Vector_15" d="M329.438 116.606C329.087 116.508 328.701 116.388 328.3 116.247C328.085 116.173 327.878 116.083 327.648 116.083C326.962 116.083 326.26 115.966 325.55 115.592C325.195 115.405 324.836 115.14 324.509 114.773C324.185 114.406 323.904 113.927 323.748 113.385C323.565 112.753 323.545 112.055 323.686 111.419C323.826 110.779 324.091 110.288 324.353 109.902C324.895 109.134 325.421 108.755 325.885 108.432C326.026 108.334 326.287 108.428 326.529 108.537C326.763 108.638 327.215 109.231 327.746 110.034C328.51 111.208 329.212 112.538 329.325 112.881C329.399 113.104 329.353 113.131 329.267 113.088C329.068 112.991 328.935 112.995 328.92 113.053C328.92 113.065 328.916 113.084 328.931 113.1L328.943 113.112L328.951 113.119L328.931 113.104L328.783 112.975C328.588 112.811 328.409 112.686 328.257 112.597C328.179 112.55 328.081 112.507 328.03 112.48C327.999 112.464 327.964 112.452 327.929 112.441C327.91 112.433 327.886 112.425 327.863 112.417C327.835 112.41 327.812 112.406 327.785 112.398H327.754C327.757 112.398 327.742 112.398 327.773 112.398H327.804L327.816 112.39C327.929 112.367 327.66 112.421 327.687 112.417C327.687 112.417 327.715 112.41 327.754 112.39C327.796 112.371 327.843 112.335 327.902 112.289C328.069 112.152 328.19 111.91 328.186 111.899L328.179 111.922L328.171 111.957V111.981L328.237 111.497C328.233 111.528 328.241 111.598 328.276 111.645C328.342 111.754 328.491 111.848 328.686 111.906C328.838 111.957 329.107 112.343 329.567 113.42C329.778 113.919 330.113 115.167 330.097 115.471C330.078 115.904 330 116.196 329.867 116.395C329.758 116.559 329.575 116.493 329.407 116.52C329.411 116.547 329.415 116.575 329.423 116.606H329.438Z" fill="var(--fill-0, white)" fill-opacity="0.2"/>
<path id="Vector_16" d="M384.53 56.7175C384.682 57.0217 384.897 57.1504 385.064 57.2089C385.158 57.244 385.244 57.2401 385.24 57.2947C385.217 57.4351 385.193 57.6106 385.306 57.8251C385.361 57.9265 385.458 58.0435 385.599 58.1332C385.673 58.2034 385.724 58.2502 385.79 58.2814C385.868 58.3165 385.934 58.336 385.981 58.3399C386.024 58.3516 386.055 58.3399 386.055 58.3399C386.063 58.336 385.989 58.3399 385.891 58.3828C385.864 58.3945 385.716 58.2268 385.556 58.0708C385.404 57.9148 384.951 57.3337 384.362 56.5732C383.501 55.4656 382.65 54.2332 382.611 53.8237C382.584 53.5702 382.701 53.4922 382.857 53.4961C383.575 53.5156 384.008 53.2192 384.62 52.5484C384.788 52.3651 384.994 52.096 385.252 52.2598C386.028 52.7941 386.73 52.4314 387.545 52.9969C388.118 53.4298 388.641 53.7574 388.949 54.2722C389.214 54.7246 389.366 55.2121 389.425 55.723C389.479 56.2339 389.436 56.7877 389.23 57.3298C389.074 57.7588 388.391 58.0708 387.373 57.4624C386.909 57.1894 386 56.2573 385.704 56.1598C385.306 55.9999 384.955 56.0779 384.733 56.23C384.55 56.3704 384.62 56.5693 384.616 56.7097C384.585 56.7097 384.557 56.7097 384.53 56.7097V56.7175Z" fill="var(--fill-0, white)" fill-opacity="0.2"/>
<path id="Vector_17" d="M423.507 22.0312C423.07 22.0819 422.656 22.0468 422.282 21.9922C422.083 21.9649 421.892 21.9103 421.713 21.9649C421.241 22.1053 420.714 22.1989 420.141 22.1599C419.575 22.1287 418.944 21.9298 418.444 21.5905C417.832 21.1732 417.372 20.6077 417.072 19.9837C416.771 19.3597 416.619 18.6655 416.623 17.9362C416.623 17.7139 416.861 17.4955 417.107 17.3239C417.349 17.1562 418.097 17.1874 419.041 17.3746C419.728 17.5111 420.426 17.7061 421.003 17.8504C421.061 17.866 421.116 17.8777 421.159 17.8894C421.167 17.8894 421.174 17.8894 421.178 17.8894C421.202 17.8933 421.225 17.8933 421.252 17.8972C421.373 17.905 421.471 17.8582 421.428 17.8777C421.42 17.8816 421.401 17.8933 421.385 17.9089C421.354 17.9323 421.319 17.9674 421.288 18.0064C421.272 18.022 421.256 18.0493 421.249 18.061C421.249 18.0649 421.233 18.0883 421.237 18.0805L421.249 18.0532C421.276 17.9947 421.295 17.9089 421.295 17.8543C421.295 17.7451 421.276 17.8114 421.354 17.9323C421.291 17.8387 421.568 18.3184 422.477 19.0165C422.902 19.348 423.901 20.1748 423.998 20.4907C424.15 20.9314 424.123 21.3097 424.006 21.5905C423.908 21.8284 423.659 21.8557 423.472 21.9571C423.483 21.9844 423.495 22.0078 423.511 22.0351L423.507 22.0312Z" fill="var(--fill-0, white)" fill-opacity="0.2"/>
<path id="Vector_18" d="M406.58 117.058C406.662 117.199 406.721 117.355 406.74 117.511C406.748 117.593 406.76 117.686 406.685 117.714C406.584 117.749 406.44 117.834 406.323 117.955C406.202 118.068 406.081 118.263 406.007 118.427C405.855 118.778 405.839 119.067 405.882 119.254C405.905 119.371 405.948 119.461 406.007 119.55C406.03 119.586 406.093 119.652 406.1 119.66C406.12 119.679 406.132 119.691 406.143 119.699C406.186 119.726 406.12 119.656 405.925 119.566C405.87 119.539 405.874 119.309 405.87 119.071C405.87 118.841 406.058 118.131 406.35 117.21C406.775 115.873 407.333 114.48 407.594 114.2C407.762 114.02 407.867 114.059 407.941 114.18C408.296 114.742 408.846 114.874 409.837 115.019C409.973 115.038 410.129 115.054 410.262 115.108C410.394 115.167 410.523 115.28 410.543 115.448C410.617 115.99 410.792 116.349 410.983 116.746C411.167 117.132 411.354 117.581 411.299 118.096C411.252 118.474 411.225 118.856 411.135 119.254C411.046 119.652 410.882 120.05 410.648 120.35C410.215 120.912 409.661 121.239 409.209 121.395C408.745 121.559 408.359 121.582 408.015 121.59C407.742 121.59 407.407 121.22 406.994 120.128C406.799 119.621 406.526 118.361 406.522 118.065C406.522 117.643 406.522 117.366 406.529 117.199C406.529 117.058 406.596 117.148 406.611 117.144C406.6 117.117 406.592 117.09 406.58 117.062V117.058Z" fill="var(--fill-0, white)" fill-opacity="0.2"/>
<path id="Vector_19" d="M390.149 177.13C389.568 176.865 389.1 176.502 388.699 176.132C388.488 175.929 388.305 175.719 388.075 175.574C387.447 175.2 386.834 174.697 386.366 173.96C386.136 173.589 385.941 173.172 385.824 172.712C385.707 172.228 385.664 171.822 385.688 171.397C385.731 170.34 386.125 169.428 386.55 168.765C386.983 168.082 387.458 167.595 387.907 167.17C388.043 167.041 388.328 167.076 388.597 167.131C388.862 167.181 389.42 167.673 390.087 168.363C391.058 169.373 391.971 170.567 392.099 170.925C392.181 171.156 392.107 171.218 391.99 171.218C391.432 171.202 391.21 171.604 391.565 171.986C391.659 172.092 391.877 172.193 391.682 172.107C391.362 171.986 391.195 171.947 391.089 171.936H391.031V171.932L390.571 171.959H390.578H390.594L390.633 171.947C390.688 171.936 390.762 171.908 390.844 171.865C390.883 171.846 390.918 171.822 390.957 171.795C390.976 171.783 390.992 171.772 391.003 171.756L390.984 171.776C390.851 171.92 390.886 172.251 391 172.454C391.046 172.524 391.05 173.004 391.577 174.053C391.819 174.545 392.302 175.746 392.138 176.093C391.928 176.584 391.549 176.916 391.148 177.084C390.808 177.228 390.473 177.091 390.153 177.041C390.145 177.068 390.142 177.095 390.134 177.126L390.149 177.13Z" fill="var(--fill-0, white)" fill-opacity="0.2"/>
<path id="Vector_20" d="M282.685 175.952C282.868 176.022 283.04 176.112 283.18 176.178C283.25 176.214 283.332 176.253 283.321 176.214C283.309 176.089 283.11 176.128 282.977 176.175C282.845 176.229 282.681 176.385 282.689 176.721C282.689 176.923 282.767 177.2 282.923 177.446C283.071 177.684 283.27 177.859 283.442 177.961C283.793 178.156 283.839 178.078 283.683 178.058C283.637 178.05 283.594 177.828 283.52 177.602C283.453 177.384 283.41 176.65 283.391 175.687C283.36 174.283 283.442 172.785 283.648 172.438C283.777 172.216 283.925 172.224 284.066 172.321C284.389 172.544 284.736 172.657 285.181 172.746C285.622 172.84 286.175 172.879 286.889 173.105C287.275 173.214 287.778 173.398 287.876 173.858C288.036 174.591 288.192 175.176 288.285 175.734C288.375 176.288 288.391 176.818 288.188 177.255C287.88 177.887 287.7 178.479 287.236 178.959C286.456 179.716 285.629 179.946 284.998 180.098C284.736 180.156 284.335 179.872 283.633 178.936C283.305 178.503 282.701 177.36 282.642 177.064C282.56 176.639 282.541 176.35 282.548 176.159C282.556 175.999 282.673 176.054 282.728 176.019C282.712 175.995 282.697 175.972 282.681 175.944L282.685 175.952Z" fill="var(--fill-0, white)" fill-opacity="0.2"/>
<path id="Vector_21" d="M268.321 63.0474C267.826 62.79 267.432 62.4546 267.101 62.1153C266.921 61.9359 266.777 61.737 266.57 61.6239C266.02 61.3119 265.478 60.8829 265.045 60.2589C264.612 59.6466 264.335 58.7808 264.367 57.9696C264.406 56.9751 264.768 56.0898 265.307 55.3956C265.845 54.6975 266.574 54.1398 267.487 53.8005C267.767 53.6991 268.126 53.8278 268.434 53.9994C268.739 54.1632 268.965 54.8964 269.054 55.8519C269.125 56.55 269.113 57.2754 269.136 57.8682C269.136 57.9501 269.14 58.0242 269.144 58.0866C269.144 58.0944 269.144 58.0983 269.144 58.1061C269.144 58.1373 269.156 58.1607 269.168 58.2036C269.195 58.2894 269.249 58.3869 269.292 58.4415C269.335 58.4961 269.359 58.5039 269.327 58.4844C269.308 58.4727 269.277 58.4532 269.234 58.4337C269.168 58.4025 269.078 58.3791 269 58.3713C268.976 58.3674 268.922 58.3713 268.914 58.3713C268.91 58.3713 268.883 58.3713 268.891 58.3713C268.902 58.3713 268.914 58.3674 268.922 58.3635C268.988 58.3479 269.132 58.2738 269.21 58.1997C269.281 58.1373 269.3 58.0944 269.281 58.1295C269.261 58.1607 269.222 58.2738 269.214 58.383C269.214 58.4337 269.156 58.9251 269.585 60.0054C269.784 60.5085 270.205 61.737 270.061 62.0685C269.877 62.5404 269.546 62.8485 269.199 63.0045C268.902 63.141 268.618 63.0045 268.345 62.9538C268.337 62.9811 268.333 63.0084 268.325 63.0396L268.321 63.0474Z" fill="var(--fill-0, white)" fill-opacity="0.2"/>
</g>
</svg>
