<svg width="120" height="120" viewBox="0 0 120 120" fill="none" xmlns="http://www.w3.org/2000/svg">
<g opacity="0.5" clip-path="url(#clip0_2385_38904)">
<path d="M55.7604 43.8475L54.9386 47.2735C54.7964 47.8429 54.6732 48.4169 54.5498 48.9908L54.1744 50.7112C54.0432 51.3195 53.9017 51.9269 53.7752 52.5374C53.651 53.1484 53.5218 53.7581 53.3817 54.3637C53.1965 55.1723 53.0018 55.979 52.8226 56.7889L52.3119 59.2243C51.9545 60.8451 51.6682 62.4788 51.362 64.1095L51.1371 65.3335L50.9389 66.5617L50.5453 69.019L50.4486 69.6336L50.3655 70.2501L50.2004 71.4832L49.8766 73.9508L49.5558 76.9981C49.5047 77.5062 49.446 78.0137 49.4016 78.5224L49.2797 80.0495C49.2026 81.0677 49.1101 82.0851 49.0475 83.1043L48.8808 86.1628C48.7001 90.242 48.6149 94.3263 48.7104 98.4059C48.7207 99.0213 48.7513 99.6392 48.792 100.254C48.8431 100.869 48.9109 101.481 48.9747 102.086C49.0995 103.245 49.401 103.983 49.774 104.427C50.3173 105.073 50.845 104.358 50.9189 102.72C50.9423 102.202 50.9441 101.661 50.9312 101.116C50.9122 100.571 50.893 100.022 50.8743 99.4885C50.6294 94.5809 50.7522 89.6584 51.2416 84.7616C51.3085 84.0871 51.3767 83.3988 51.4444 82.7151C51.5191 82.0321 51.5776 81.3531 51.5936 80.6939C51.624 78.5864 51.8462 76.4835 52.0583 74.3803C52.1821 73.3304 52.3254 72.2823 52.4536 71.2331C52.521 70.7089 52.5779 70.1835 52.6486 69.6601L52.859 68.09C52.9577 67.3117 53.062 66.5331 53.1717 65.7542C53.2888 64.9766 53.4264 64.2013 53.5558 63.4246L53.954 61.0957L54.3921 58.7746C55.42 53.2563 56.6714 47.7749 58.1815 42.357C58.3328 41.8168 58.4723 41.2821 58.5999 40.7528C58.6656 40.489 58.7177 40.2237 58.7696 39.9609C58.8267 39.6996 58.881 39.4403 58.9323 39.1827C59.1369 38.1526 59.2899 37.1524 59.388 36.1932C59.4763 35.3104 59.0633 35.2355 58.6283 36.1596C58.3225 36.8141 58.0171 37.488 57.7163 38.1723C57.4208 38.8582 57.1024 39.5465 56.861 40.256C56.4634 41.4227 56.1425 42.6461 55.7973 43.8459L55.7604 43.8475Z" fill="#FFFEFC"/>
<path d="M60.5868 34.7306C60.034 42.9737 61.6002 48.7809 64.9197 56.3159C63.3852 41.0612 65.5114 29.4945 69.6621 14.6732C62.6696 25.535 55.6081 31.3693 45.0222 38.8251C50.54 39.0865 55.5459 37.2445 60.5218 34.8034" fill="#FFFEFC"/>
<path d="M46.4377 37.5667L46.1019 37.5805C45.9899 37.5834 45.878 37.58 45.7661 37.5801L45.0941 37.5767L45.7419 39.8434C48.4796 37.8415 51.1985 35.7942 53.8391 33.626C54.643 32.9781 55.4248 32.2952 56.2154 31.6251L57.3824 30.5955C57.7752 30.2574 58.1568 29.9061 58.5395 29.5569C60.866 27.46 63.0496 25.2114 65.0755 22.8262C67.091 20.4345 68.9566 17.9224 70.6617 15.3042L68.5159 14.3668C67.8673 16.6445 67.2219 18.9249 66.6425 21.2286C66.3405 22.3764 66.0731 23.5353 65.7973 24.6917C65.6583 25.2696 65.5404 25.8535 65.4113 26.4343C65.286 27.0162 65.1538 27.5963 65.045 28.1824L64.7058 29.9239C64.5968 30.5053 64.5038 31.0903 64.4023 31.6734L64.2531 32.5488C64.2054 32.841 64.1667 33.1348 64.1231 33.4278L63.8692 35.187L63.6621 36.9532C63.6292 37.2478 63.5899 37.5416 63.5623 37.8368L63.4837 38.7227C63.4344 39.3136 63.3727 39.9036 63.3339 40.4953L63.2289 42.2711C63.1863 42.8628 63.1798 43.4557 63.1599 44.0482L63.1341 44.937C63.1245 45.2333 63.1158 45.5296 63.1193 45.8258C63.1215 47.0107 63.1087 48.1963 63.1593 49.3791C63.2112 51.7479 63.4042 54.1056 63.6185 56.4582L66.1171 55.7849C65.3247 53.9879 64.5805 52.1796 63.947 50.3466C63.3086 48.5273 62.7997 46.6644 62.4239 44.7717C62.0376 42.869 61.7638 40.9444 61.6039 39.0077C61.5754 38.5459 61.5334 38.1245 61.48 37.7396C61.4378 37.3541 61.3864 37.0049 61.3225 36.6892C61.2912 36.5313 61.2555 36.3818 61.2205 36.2401C61.1883 36.0984 61.1535 35.9646 61.1161 35.8385C61.0498 35.6096 60.9662 35.3861 60.866 35.1701C60.5992 34.604 60.2941 34.5826 60.0186 35.0539C59.8425 35.3905 59.7139 35.7493 59.6364 36.1201C59.516 36.698 59.4397 37.2838 59.408 37.8724C59.316 39.7045 59.4196 41.5393 59.7172 43.3458C60.104 45.6808 60.6773 47.9796 61.4318 50.2205C62.1766 52.4476 63.0496 54.6103 63.9684 56.7378C64.0655 56.9624 64.2403 57.1444 64.4614 57.2511C64.6826 57.3577 64.9355 57.382 65.1747 57.3196C65.414 57.2572 65.6238 57.1122 65.7665 56.9106C65.9091 56.709 65.9753 56.4642 65.953 56.2201L65.9512 56.2035C65.6241 52.7595 65.5188 49.2961 65.6359 45.8344C65.6398 45.5585 65.6542 45.2813 65.6719 45.0035L65.7201 44.1676L65.7667 43.3293L65.7891 42.9101L65.8222 42.4918C65.8652 41.9343 65.9037 41.3788 65.934 40.8284C65.9411 40.6908 65.9483 40.5536 65.9554 40.4167L65.9851 40.0077C66.0037 39.7359 66.0196 39.4659 66.0328 39.1976C66.2237 35.7563 66.6601 32.3304 67.3386 28.9457C67.9952 25.5453 68.8226 22.1696 69.6594 18.7975C69.97 17.5114 70.3215 16.2303 70.6632 14.9417L70.6659 14.9315C70.7291 14.6931 70.705 14.4409 70.598 14.2201C70.4909 13.9994 70.3078 13.8247 70.0816 13.7272C69.8554 13.6298 69.6009 13.616 69.3637 13.6884C69.1266 13.7608 68.9223 13.9146 68.7875 14.1222C67.7455 15.7276 66.6805 17.3239 65.5216 18.8493C64.9586 19.6248 64.3538 20.3671 63.7597 21.118C63.4651 21.4955 63.1459 21.8523 62.8408 22.221C62.5316 22.5862 62.2292 22.9573 61.9055 23.3095L60.958 24.3699C60.6372 24.7188 60.3061 25.0586 59.9808 25.4037L59.4907 25.9195L58.9855 26.4211L57.9722 27.4222C56.5949 28.7317 55.1768 30.0026 53.7113 31.2248C50.7809 33.6703 47.6978 35.955 44.581 38.2023L44.5664 38.2128C44.4368 38.3063 44.3393 38.4373 44.2875 38.5876C44.2357 38.738 44.2321 38.9002 44.2774 39.0517C44.3226 39.2032 44.4144 39.3364 44.5398 39.4329C44.6653 39.5293 44.8183 39.5841 44.9775 39.5898C46.6457 39.6446 48.3168 39.528 49.9642 39.2418C50.8892 39.0813 51.8035 38.8624 52.7017 38.5866C53.5636 38.325 54.4103 38.0151 55.2378 37.6584C56.7719 36.9961 58.2404 36.1904 59.6233 35.2522C60.2204 34.8373 60.4495 34.5477 60.3296 34.4216C60.2121 34.2999 59.7375 34.3241 58.954 34.5865C56.7549 35.4597 54.5015 36.1878 52.2087 36.7662C51.739 36.8854 51.2636 36.9788 50.7887 37.0866C50.3112 37.173 49.8338 37.2748 49.3521 37.3414C48.8718 37.4252 48.3879 37.4705 47.905 37.5255L47.1796 37.5782C46.9379 37.5989 46.6963 37.5941 46.4551 37.6027L46.4377 37.5667Z" fill="#FFFEFC"/>
</g>
<defs>
<clipPath id="clip0_2385_38904">
<rect width="88" height="87" fill="white" transform="matrix(0.866025 -0.5 -0.5 -0.866025 43.5 119.344)"/>
</clipPath>
</defs>
</svg>
