<svg preserveAspectRatio="none" width="100%" height="100%" overflow="visible" style="display: block;" viewBox="0 0 88 87" fill="none" xmlns="http://www.w3.org/2000/svg">
<g id="arrow, hand drawn, scribble, doodle, down, 33" opacity="0.5">
<path id="Vector" d="M48.3663 59.2517L45.9416 56.6956C45.5337 56.2736 45.14 55.8381 44.7463 55.4028L43.5609 54.1006C43.1431 53.6394 42.717 53.1841 42.3021 52.7187C41.8891 52.2516 41.4723 51.7882 41.0481 51.3338C40.4835 50.7261 39.9115 50.1248 39.3514 49.513L37.6915 47.6593C36.5715 46.4343 35.5068 45.1626 34.4262 43.9035L33.6194 42.9559L32.8337 41.9914L31.2641 40.0601L30.8731 39.5761L30.4929 39.0839L29.7333 38.0985L28.2192 36.1234L26.4177 33.6448C26.1193 33.2303 25.8147 32.8201 25.522 32.4017L24.6529 31.1402C24.0769 30.297 23.4882 29.4621 22.9244 28.6108L21.2508 26.0453C19.0546 22.603 16.9388 19.1085 14.9816 15.5277C14.6828 14.9896 14.4004 14.4392 14.128 13.8861C13.8648 13.328 13.6175 12.764 13.3703 12.2082C12.8989 11.142 12.7912 10.3528 12.8922 9.78152C13.0397 8.95042 13.8544 9.30617 14.737 10.6871C15.0165 11.1244 15.2886 11.5921 15.5499 12.0704C15.8057 12.5516 16.0636 13.0366 16.3143 13.5082C18.5561 17.8808 21.1237 22.0824 23.9959 26.0784C24.391 26.6292 24.7942 27.1911 25.1947 27.7494C25.6009 28.3035 25.9911 28.8623 26.3345 29.4252C27.4146 31.2351 28.6585 32.9452 29.8938 34.6606C30.5259 35.5079 31.1741 36.344 31.8097 37.1885C32.1302 37.6088 32.4422 38.0353 32.7651 38.4533L33.7324 39.7078C34.207 40.3325 34.6866 40.9547 35.1711 41.5743C35.6613 42.1892 36.1681 42.7918 36.6685 43.3998L38.1778 45.2176L39.7178 47.0086C43.3671 51.2737 47.1916 55.395 51.2083 59.3319C51.6094 59.7241 51.9976 60.1175 52.3727 60.512C52.5615 60.7077 52.7393 60.9114 52.9156 61.1131C53.0957 61.3107 53.2724 61.5082 53.4457 61.7056C54.1379 62.4954 54.7705 63.2851 55.3351 64.0667C55.8529 64.7871 55.5327 65.0585 54.6939 64.4756C54.1018 64.0618 53.5004 63.6308 52.8977 63.1886C52.2989 62.7424 51.679 62.3055 51.1152 61.8117C50.1876 61.0002 49.2979 60.1011 48.3991 59.2346L48.3663 59.2517Z" fill="var(--fill-0, #FFFEFC)"/>
<path id="Vector_2" d="M57.1037 64.7335C52.5034 57.8712 50.9562 52.0589 50.0635 43.8736C56.3619 57.8518 63.9866 66.8058 74.9918 77.5661C63.5053 71.6557 54.4727 70.1338 41.5771 68.9698C46.225 65.9846 51.4813 65.0768 57.011 64.7029" fill="var(--fill-0, #FFFEFC)"/>
<path id="Vector_3" d="M43.4334 69.353L43.1356 69.5089C43.0372 69.5624 42.942 69.6213 42.845 69.6771L42.2647 70.0161L41.6924 67.7292C45.0642 68.094 48.4426 68.5075 51.8135 69.065C52.8337 69.2241 53.8522 69.4246 54.8719 69.6096L56.3973 69.9178C56.9065 70.0143 57.4127 70.1277 57.9187 70.2388C60.9819 70.8914 63.9973 71.747 66.9444 72.7997C69.8857 73.8632 72.7575 75.106 75.5432 76.5208L74.1536 78.4056C72.453 76.7573 70.7539 75.1051 69.1002 73.3998C68.2648 72.5567 67.4537 71.6868 66.6367 70.8232C66.2274 70.3923 65.8333 69.9455 65.4311 69.5071C65.0317 69.0658 64.6271 68.6295 64.2399 68.1763L63.0754 66.8377C62.6903 66.3887 62.3172 65.9286 61.9377 65.4744L61.3709 64.7908C61.1835 64.5617 61.0031 64.3265 60.8188 64.0946L59.7193 62.6981L58.6568 61.272C58.4811 61.0334 58.3001 60.7985 58.1286 60.5567L57.6176 59.8288C57.2794 59.3417 56.931 58.8616 56.6016 58.3686L55.6227 56.8832C55.29 56.3921 54.9879 55.8819 54.6745 55.3787L54.2077 54.6219C54.0512 54.3701 53.8956 54.1178 53.7505 53.8595C53.1599 52.8323 52.556 51.8119 52.0084 50.7623C50.869 48.685 49.8573 46.5466 48.8666 44.402L51.3671 43.7358C51.5794 45.6883 51.839 47.6264 52.2069 49.5305C52.5637 51.4253 53.0544 53.2931 53.6753 55.1201C54.2921 56.961 55.0173 58.7647 55.8471 60.5219C56.0534 60.9361 56.2277 61.322 56.3739 61.6821C56.5301 62.037 56.6602 62.3651 56.7627 62.6705C56.8145 62.8228 56.8584 62.9702 56.8989 63.1104C56.9419 63.2492 56.9787 63.3825 57.0093 63.5104C57.0663 63.7418 57.1057 63.9771 57.1269 64.2144C57.1789 64.8379 56.9254 65.009 56.4512 64.7387C56.1303 64.5352 55.8396 64.2887 55.5871 64.0064C55.1938 63.5661 54.8348 63.0969 54.5131 62.6031C53.5174 61.0624 52.6897 59.4216 52.0442 57.7083C51.2116 55.4928 50.5588 53.2153 50.0917 50.8974C49.6231 48.5963 49.2979 46.2868 49.0298 43.9849C49.0016 43.7419 49.062 43.4969 49.2001 43.2939C49.3383 43.091 49.5452 42.9435 49.7836 42.8779C50.022 42.8123 50.2763 42.833 50.5006 42.9362C50.7249 43.0395 50.9047 43.2184 51.0074 43.441L51.0141 43.4562C52.4528 46.6024 54.0933 49.6545 55.9256 52.5938C56.067 52.8308 56.218 53.0636 56.3722 53.2954L56.8319 53.9952L57.2915 54.6979L57.5204 55.0497L57.7583 55.3955C58.0743 55.8567 58.3853 56.3186 58.6867 56.78C58.7617 56.8957 58.8365 57.011 58.9111 57.1259L59.1414 57.4652C59.2934 57.6913 59.4422 57.9172 59.5877 58.1429C61.4737 61.0278 63.5646 63.7766 65.8445 66.3685C68.1134 68.985 70.5178 71.4948 72.9285 73.9967C73.8405 74.9552 74.7855 75.8889 75.7258 76.834L75.7332 76.8415C75.9071 77.0164 76.0124 77.2468 76.03 77.4915C76.0476 77.7362 75.9765 77.9791 75.8293 78.1766C75.6821 78.3741 75.4686 78.5133 75.227 78.5691C74.9854 78.625 74.7316 78.594 74.5111 78.4816C72.8059 77.6123 71.0855 76.7623 69.3192 76.0208C68.4438 75.6307 67.5489 75.2901 66.659 74.9369C66.2151 74.7573 65.7602 74.6079 65.3117 74.4412C64.8613 74.2795 64.4139 74.1093 63.9574 73.9661L62.6067 73.5216C62.1544 73.3798 61.6978 73.251 61.2435 73.1149L60.5612 72.9132L59.8728 72.7314L58.4947 72.3711C56.6472 71.9256 54.7836 71.5341 52.9034 71.2084C49.1428 70.5557 45.3305 70.1187 41.5076 69.7308L41.4897 69.729C41.3307 69.7129 41.1807 69.6482 41.0607 69.5439C40.9407 69.4396 40.8565 69.3009 40.8199 69.147C40.7834 68.9932 40.7962 68.832 40.8567 68.6857C40.9171 68.5395 41.0222 68.4155 41.1573 68.331C42.5745 67.4494 44.08 66.7149 45.6498 66.139C46.5311 65.8155 47.4324 65.5479 48.3481 65.3377C49.2254 65.1333 50.1136 64.9784 51.0086 64.8735C52.6683 64.68 54.3429 64.6435 56.0096 64.7646C56.7342 64.8253 57.0774 64.9616 57.0366 65.1307C56.9958 65.2949 56.5726 65.5112 55.7629 65.6758C53.4218 66.0191 51.1062 66.5152 48.8314 67.1608C48.365 67.2923 47.9066 67.4491 47.4415 67.5932C46.9847 67.7571 46.5204 67.9077 46.0699 68.0908C45.6121 68.2584 45.1703 68.4611 44.7247 68.6549L44.0701 68.972C43.8505 69.0749 43.6436 69.2 43.4304 69.3131L43.4334 69.353Z" fill="var(--fill-0, #FFFEFC)"/>
</g>
</svg>
