<svg preserveAspectRatio="none" width="100%" height="100%" overflow="visible" style="display: block;" viewBox="0 0 76.735 73.9446" fill="none" xmlns="http://www.w3.org/2000/svg">
<g id="spark, sparkle, 26">
<path id="Vector" d="M20.2277 25.2903C20.527 26.0516 20.8227 26.8139 21.0979 27.585C21.2487 27.9919 21.3952 28.4024 21.5738 28.7981C22.5291 30.9089 23.5112 33.0101 24.4134 35.1436C24.9625 36.4595 25.4975 37.781 26.0183 39.108L26.7931 41.1007L27.5448 43.1015C27.686 43.5103 27.793 43.9292 27.8647 44.3544C27.9022 44.5273 27.8965 44.7062 27.8481 44.8765C27.7996 45.0468 27.7098 45.2035 27.5861 45.3338C27.2517 45.7019 26.7203 45.6342 26.4088 45.1348C26.2143 44.8051 26.0635 44.4533 25.9597 44.0876C25.7067 43.2589 25.418 42.4439 25.0938 41.6426C24.7725 40.8401 24.4172 40.0504 24.0279 39.2735C23.8134 38.8445 23.5632 38.4082 23.4512 37.9555C23.0917 36.5097 22.4192 35.1689 21.9408 33.7635C21.5845 32.7191 21.1458 31.6995 20.7566 30.6646L19.7127 27.8971C19.3593 26.9767 19.0294 26.0468 18.6787 25.1247C18.5527 24.7618 18.4516 24.3913 18.376 24.0157C18.3138 23.6587 18.2721 23.2986 18.2512 22.9372C18.2319 22.6175 18.441 22.5544 18.6811 22.838C19.0247 23.2455 19.3383 23.6756 19.6197 24.1252C19.7355 24.3097 19.8407 24.5016 19.9375 24.6976C20.0259 24.897 20.1145 25.0971 20.2026 25.2961L20.2277 25.2903Z" fill="var(--fill-0, white)" fill-opacity="0.5"/>
<path id="Vector_2" d="M44.5565 22.8351L44.438 23.8703L44.2933 24.9041C44.2431 25.2698 44.1924 25.6373 44.1746 26.0054C44.1497 26.4964 44.131 26.9877 44.1144 27.479L44.0557 28.952L43.945 31.897L43.7994 35.5228L43.6744 39.1497C43.6513 39.5167 43.6008 39.8817 43.5234 40.2418C43.498 40.3907 43.4369 40.5317 43.3448 40.6538C43.2528 40.7758 43.1324 40.8754 42.9933 40.9446C42.6138 41.1437 42.2148 40.9364 42.1192 40.442C42.0642 40.1193 42.0527 39.7912 42.0847 39.4657C42.1998 37.985 42.2177 36.4987 42.1383 35.0158C42.0904 34.6058 42.0912 34.1919 42.1405 33.7821C42.3689 32.5195 42.3245 31.237 42.4738 29.9698C42.5854 29.0288 42.6273 28.0785 42.7344 27.1356C42.932 25.4549 43.1465 23.7773 43.4245 22.1076C43.523 21.4726 43.7298 20.8576 44.0365 20.2877C44.1687 20.0407 44.3868 20.081 44.443 20.3886C44.5199 20.8297 44.5667 21.2753 44.5833 21.7224C44.5897 22.0921 44.5734 22.4619 44.5344 22.8298L44.5565 22.8351Z" fill="var(--fill-0, white)" fill-opacity="0.5"/>
<path id="Vector_3" d="M64.8648 33.2823C64.4659 33.7452 64.0646 34.2066 63.661 34.6666C63.4359 34.9018 63.2255 35.1498 63.0309 35.4091C62.5283 36.1103 62.0416 36.8224 61.5554 37.5341C61.0682 38.2452 60.5767 38.9526 60.0738 39.6518C59.4565 40.5143 58.83 41.3701 58.2055 42.2273L56.3172 44.7889C56.1134 45.0437 55.8781 45.2736 55.6164 45.4735C55.3723 45.6744 55.0245 45.6789 54.6476 45.5754C54.0984 45.4247 53.7257 44.9641 53.8651 44.5372C53.9629 44.2677 54.1177 44.0208 54.3197 43.8119C55.1978 42.838 55.9538 41.7678 56.5722 40.6234C56.7449 40.3066 56.9007 39.9597 57.1733 39.7238C58.0394 38.9681 58.6023 37.9921 59.3657 37.1636C59.9303 36.5466 60.4332 35.8802 60.9855 35.253C61.4778 34.6938 61.9746 34.1383 62.4757 33.5867L64.015 31.9606C64.4141 31.5343 64.9132 31.206 65.4705 31.0031C65.5255 30.9793 65.5866 30.9719 65.646 30.9819C65.7054 30.9918 65.7604 31.0186 65.8038 31.0589C65.8473 31.0991 65.8773 31.151 65.89 31.2077C65.9027 31.2645 65.8975 31.3237 65.875 31.3776C65.7417 31.7505 65.5855 32.1155 65.4072 32.4706C65.24 32.7478 65.0519 33.0128 64.8442 33.2634L64.8648 33.2823Z" fill="var(--fill-0, white)" fill-opacity="0.5"/>
<path id="Vector_4" d="M69.3793 50.7526C69.2275 50.8211 69.0785 50.895 68.9221 50.9547L68.4521 51.1323C68.2843 51.191 68.122 51.2632 67.9668 51.3481C67.5613 51.5888 67.164 51.8452 66.7548 52.0786C66.3481 52.3167 65.94 52.5525 65.5242 52.7732C65.0124 53.0457 64.4961 53.3095 63.9711 53.5565L62.3962 54.2979C62.2256 54.3642 62.0437 54.3993 61.8598 54.4013C61.6799 54.4135 61.4786 54.2563 61.2817 54.0188C60.9948 53.6727 60.8695 53.2162 61.0309 53.0169C61.1343 52.8984 61.2741 52.8147 61.4301 52.7778C62.1186 52.58 62.7595 52.2526 63.3157 51.8146C63.4723 51.6935 63.6214 51.5407 63.8218 51.5163C64.4587 51.4322 64.955 51.0662 65.5396 50.8782C65.9754 50.7413 66.3712 50.5211 66.802 50.3722C67.5687 50.1034 68.3264 49.8179 69.1049 49.5727C69.4254 49.4665 69.7722 49.459 70.0973 49.5511C70.137 49.5631 70.1735 49.5833 70.2042 49.6103C70.2349 49.6374 70.2591 49.6705 70.2751 49.7075C70.2911 49.7444 70.2986 49.7843 70.2969 49.8244C70.2952 49.8644 70.2845 49.9036 70.2655 49.9392C70.1983 50.0308 70.1274 50.1204 70.0536 50.2069C69.983 50.2933 69.9049 50.3736 69.8201 50.4472C69.6796 50.5552 69.5291 50.6506 69.3705 50.7321L69.3793 50.7526Z" fill="var(--fill-0, white)" fill-opacity="0.5"/>
<path id="Vector_5" d="M8.29747 47.1109C8.64517 47.3037 8.99017 47.4996 9.33246 47.6986C9.51099 47.8084 9.69624 47.9076 9.88717 47.9959C10.4052 48.2093 10.9218 48.4287 11.4347 48.6578C11.9464 48.8889 12.4486 49.1386 12.9412 49.407C13.5435 49.7434 14.1357 50.0973 14.7115 50.475C15.2874 50.8525 15.8523 51.2449 16.4063 51.6522C16.5717 51.786 16.7126 51.9457 16.8229 52.1247C16.9389 52.2923 16.8997 52.5397 16.7773 52.8101C16.5987 53.2037 16.2204 53.4841 15.9408 53.4077C15.7683 53.3527 15.6136 53.2557 15.4915 53.1261C14.9173 52.5632 14.2326 52.116 13.4773 51.8105C13.2688 51.7232 13.0361 51.6583 12.8856 51.4972C12.4045 50.9789 11.7394 50.7298 11.1731 50.3342C10.9614 50.1882 10.7416 50.0534 10.5148 49.9303C10.2907 49.8025 10.0626 49.6815 9.83977 49.551C9.04479 49.0867 8.24182 48.6271 7.41625 48.2031C7.0749 48.0141 6.80552 47.7246 6.64778 47.377C6.55876 47.2166 6.63983 47.044 6.85854 46.9618L7.08151 46.9031C7.1157 46.8923 7.15175 46.8881 7.18762 46.8907L7.28848 46.8925C7.42153 46.896 7.55424 46.9072 7.68588 46.9261C7.79146 46.9423 7.89497 46.9692 7.99464 47.0065C8.09191 47.0478 8.1876 47.0933 8.28533 47.1329L8.29747 47.1109Z" fill="var(--fill-0, white)" fill-opacity="0.5"/>
</g>
</svg>
