<svg width="175" height="45" viewBox="0 0 175 45" fill="none" xmlns="http://www.w3.org/2000/svg">
<g filter="url(#filter0_d_2527_29190)">
<rect x="1.07466e-08" width="175" height="40.9171" rx="8" fill="#387440" shape-rendering="crispEdges"/>
<path d="M18 25.2251L30.5 25.2251L30.5 12.7251L18 12.7251L18 25.2251ZM35.717 22.6001L35.717 16.8126L36.942 16.8126L36.942 22.6001L35.717 22.6001ZM33.5795 20.3001L33.5795 19.1251L39.0545 19.1251L39.0545 20.3001L33.5795 20.3001ZM42.4889 24.4751C41.8722 24.4751 41.318 24.3626 40.8264 24.1376C40.343 23.9126 39.9472 23.5793 39.6389 23.1376C39.3389 22.6959 39.1639 22.1626 39.1139 21.5376L40.7389 21.5376C40.8139 22.0876 40.9972 22.5001 41.2889 22.7751C41.5805 23.0501 41.968 23.1876 42.4514 23.1876C42.8847 23.1876 43.2347 23.0668 43.5014 22.8251C43.7764 22.5834 43.9139 22.2376 43.9139 21.7876C43.9139 21.3376 43.7805 20.9751 43.5139 20.7001C43.2555 20.4251 42.8472 20.2876 42.2889 20.2876L41.3764 20.2876L41.3764 19.0251L42.2514 19.0251C42.743 19.0251 43.1055 18.9084 43.3389 18.6751C43.5805 18.4334 43.7014 18.1251 43.7014 17.7501C43.7014 17.3751 43.593 17.0751 43.3764 16.8501C43.168 16.6251 42.8472 16.5126 42.4139 16.5126C42.0139 16.5126 41.668 16.6334 41.3764 16.8751C41.093 17.1084 40.9222 17.4584 40.8639 17.9251L39.2139 17.9251C39.2805 17.3668 39.4514 16.8876 39.7264 16.4876C40.0097 16.0876 40.3847 15.7793 40.8514 15.5626C41.318 15.3376 41.8555 15.2251 42.4639 15.2251C43.0639 15.2251 43.5847 15.3251 44.0264 15.5251C44.468 15.7168 44.8097 15.9918 45.0514 16.3501C45.3014 16.7001 45.4264 17.1209 45.4264 17.6126C45.4264 18.0376 45.3305 18.4084 45.1389 18.7251C44.9472 19.0418 44.6972 19.2918 44.3889 19.4751C44.0889 19.6501 43.7722 19.7376 43.4389 19.7376L43.4014 19.4751C43.868 19.4751 44.268 19.5834 44.6014 19.8001C44.9347 20.0084 45.1889 20.2918 45.3639 20.6501C45.5472 21.0084 45.6389 21.4126 45.6389 21.8626C45.6389 22.3876 45.5014 22.8501 45.2264 23.2501C44.9597 23.6418 44.5889 23.9459 44.1139 24.1626C43.6389 24.3709 43.0972 24.4751 42.4889 24.4751ZM49.6776 24.4751C48.7693 24.4751 48.0276 24.2376 47.4526 23.7626C46.8776 23.2876 46.5235 22.6334 46.3901 21.8001L48.0401 21.8001C48.1151 22.2418 48.2985 22.5834 48.5901 22.8251C48.8901 23.0668 49.2401 23.1876 49.6401 23.1876C50.0818 23.1876 50.4401 23.0418 50.7151 22.7501C50.9985 22.4584 51.1401 22.0084 51.1401 21.4001C51.1401 20.8084 51.0026 20.3626 50.7276 20.0626C50.461 19.7543 50.1026 19.6001 49.6526 19.6001C49.361 19.6001 49.0985 19.6626 48.8651 19.7876C48.6318 19.9126 48.4568 20.0876 48.3401 20.3126L46.8651 20.3126L47.3026 15.3501L52.3401 15.3501L52.3401 16.6376L47.9651 16.6376L48.7651 16.4126L48.5151 19.5001L48.0151 19.4126C48.2151 19.1043 48.4735 18.8584 48.7901 18.6751C49.1068 18.4918 49.5068 18.4001 49.9901 18.4001C50.5651 18.4001 51.0651 18.5251 51.4901 18.7751C51.9235 19.0251 52.261 19.3751 52.5026 19.8251C52.7526 20.2668 52.8776 20.8001 52.8776 21.4251C52.8776 22.0668 52.7443 22.6168 52.4776 23.0751C52.211 23.5251 51.8401 23.8709 51.3651 24.1126C50.8901 24.3543 50.3276 24.4751 49.6776 24.4751ZM57.5033 24.4751C56.77 24.4751 56.12 24.2793 55.5533 23.8876C54.9867 23.4876 54.5408 22.9376 54.2158 22.2376C53.8992 21.5293 53.7408 20.7209 53.7408 19.8126C53.7408 18.9043 53.8992 18.1084 54.2158 17.4251C54.5325 16.7334 54.9742 16.1959 55.5408 15.8126C56.1158 15.4209 56.77 15.2251 57.5033 15.2251C58.245 15.2251 58.8992 15.4209 59.4658 15.8126C60.0325 16.1959 60.4742 16.7334 60.7908 17.4251C61.1158 18.1084 61.2783 18.9043 61.2783 19.8126C61.2783 20.7293 61.1158 21.5376 60.7908 22.2376C60.4742 22.9376 60.0325 23.4876 59.4658 23.8876C58.8992 24.2793 58.245 24.4751 57.5033 24.4751ZM57.5033 23.1126C57.9617 23.1126 58.3408 22.9668 58.6408 22.6751C58.9408 22.3834 59.1658 21.9876 59.3158 21.4876C59.4742 20.9876 59.5533 20.4251 59.5533 19.8001C59.5533 19.1751 59.4783 18.6209 59.3283 18.1376C59.1783 17.6543 58.9492 17.2751 58.6408 17.0001C58.3408 16.7251 57.9617 16.5876 57.5033 16.5876C57.0533 16.5876 56.6742 16.7293 56.3658 17.0126C56.0658 17.2876 55.8408 17.6668 55.6908 18.1501C55.5408 18.6334 55.4658 19.1834 55.4658 19.8001C55.4658 20.4334 55.5408 21.0001 55.6908 21.5001C55.8408 22.0001 56.07 22.3959 56.3783 22.6876C56.6867 22.9709 57.0617 23.1126 57.5033 23.1126ZM70.7548 24.3501L68.1173 20.3251L64.7048 15.3501L66.6048 15.3501L69.0798 19.1501L72.6548 24.3501L70.7548 24.3501ZM68.3548 19.1626L70.9298 15.3501L72.6548 15.3501L68.9548 20.5001L68.3548 19.1626ZM68.7798 20.5501L66.2048 24.3501L64.4798 24.3501L68.1673 19.2126L68.7798 20.5501ZM73.7677 24.3501L73.7677 15.3501L77.8052 15.3501C78.4635 15.3501 79.026 15.4626 79.4927 15.6876C79.9677 15.9126 80.3302 16.2293 80.5802 16.6376C80.8385 17.0459 80.9677 17.5293 80.9677 18.0876C80.9677 18.6376 80.8385 19.1209 80.5802 19.5376C80.3218 19.9543 79.9593 20.2793 79.4927 20.5126C79.026 20.7376 78.4635 20.8501 77.8052 20.8501L75.0302 20.8501L75.0302 19.5751L77.7302 19.5751C78.2468 19.5751 78.6427 19.4418 78.9177 19.1751C79.201 18.9084 79.3427 18.5459 79.3427 18.0876C79.3427 17.6376 79.201 17.2834 78.9177 17.0251C78.6427 16.7668 78.2468 16.6376 77.7302 16.6376L75.3927 16.6376L75.3927 24.3501L73.7677 24.3501ZM87.4471 24.4751C86.7721 24.4751 86.1804 24.3334 85.6721 24.0501C85.1721 23.7668 84.7804 23.3751 84.4971 22.8751C84.2221 22.3751 84.0846 21.8001 84.0846 21.1501C84.0846 20.5001 84.2221 19.9293 84.4971 19.4376C84.7804 18.9376 85.1721 18.5501 85.6721 18.2751C86.1721 17.9918 86.7554 17.8501 87.4221 17.8501C88.0554 17.8501 88.6054 17.9834 89.0721 18.2501C89.5387 18.5084 89.9012 18.8751 90.1596 19.3501C90.4179 19.8251 90.5471 20.3793 90.5471 21.0126C90.5471 21.1293 90.5429 21.2376 90.5346 21.3376C90.5262 21.4376 90.5137 21.5376 90.4971 21.6376L85.0596 21.6376L85.0596 20.5376L89.2846 20.5376L88.9596 20.8376C88.9596 20.2376 88.8221 19.7876 88.5471 19.4876C88.2721 19.1876 87.8887 19.0376 87.3971 19.0376C86.8637 19.0376 86.4387 19.2209 86.1221 19.5876C85.8137 19.9543 85.6596 20.4834 85.6596 21.1751C85.6596 21.8584 85.8137 22.3834 86.1221 22.7501C86.4387 23.1084 86.8846 23.2876 87.4596 23.2876C87.7929 23.2876 88.0846 23.2251 88.3346 23.1001C88.5846 22.9751 88.7679 22.7834 88.8846 22.5251L90.3721 22.5251C90.1637 23.1251 89.8096 23.6001 89.3096 23.9501C88.8179 24.3001 88.1971 24.4751 87.4471 24.4751ZM95.603 24.3501C95.5614 24.1834 95.528 24.0001 95.503 23.8001C95.4864 23.6001 95.478 23.3584 95.478 23.0751L95.428 23.0751L95.428 20.0501C95.428 19.7168 95.3322 19.4668 95.1405 19.3001C94.9572 19.1251 94.6739 19.0376 94.2905 19.0376C93.9155 19.0376 93.6155 19.1084 93.3905 19.2501C93.1739 19.3834 93.0405 19.5793 92.9905 19.8376L91.478 19.8376C91.5447 19.2459 91.828 18.7668 92.328 18.4001C92.828 18.0334 93.4989 17.8501 94.3405 17.8501C95.2155 17.8501 95.878 18.0501 96.328 18.4501C96.778 18.8418 97.003 19.4209 97.003 20.1876L97.003 23.0751C97.003 23.2751 97.0155 23.4793 97.0405 23.6876C97.0739 23.8959 97.1197 24.1168 97.178 24.3501L95.603 24.3501ZM93.3905 24.4751C92.7489 24.4751 92.2364 24.3168 91.853 24.0001C91.478 23.6751 91.2905 23.2418 91.2905 22.7001C91.2905 22.1168 91.503 21.6543 91.928 21.3126C92.353 20.9709 92.953 20.7418 93.728 20.6251L95.7155 20.3251L95.7155 21.3251L93.9905 21.5876C93.6155 21.6459 93.3322 21.7501 93.1405 21.9001C92.9572 22.0501 92.8655 22.2584 92.8655 22.5251C92.8655 22.7668 92.953 22.9543 93.128 23.0876C93.303 23.2126 93.5447 23.2751 93.853 23.2751C94.303 23.2751 94.678 23.1626 94.978 22.9376C95.278 22.7126 95.428 22.4376 95.428 22.1126L95.603 23.0751C95.4364 23.5334 95.1614 23.8834 94.778 24.1251C94.403 24.3584 93.9405 24.4751 93.3905 24.4751ZM98.5982 24.3501L98.5982 17.9751L100.136 17.9751L100.136 19.5126L100.173 19.5126L100.173 24.3501L98.5982 24.3501ZM100.173 21.0251L100.011 19.5126C100.161 18.9709 100.415 18.5584 100.773 18.2751C101.132 17.9918 101.561 17.8501 102.061 17.8501C102.236 17.8501 102.361 17.8668 102.436 17.9001L102.436 19.3876C102.394 19.3709 102.336 19.3626 102.261 19.3626C102.186 19.3543 102.094 19.3501 101.986 19.3501C101.377 19.3501 100.923 19.4834 100.623 19.7501C100.323 20.0168 100.173 20.4418 100.173 21.0251ZM103.469 24.3501L103.469 17.9751L105.006 17.9751L105.006 19.4751L105.044 19.4751L105.044 24.3501L103.469 24.3501ZM107.944 24.3501L107.944 20.3251C107.944 19.9334 107.844 19.6376 107.644 19.4376C107.444 19.2376 107.152 19.1376 106.769 19.1376C106.436 19.1376 106.136 19.2126 105.869 19.3626C105.611 19.5126 105.406 19.7209 105.256 19.9876C105.115 20.2543 105.044 20.5626 105.044 20.9126L104.881 19.3876C105.098 18.9209 105.415 18.5501 105.831 18.2751C106.248 17.9918 106.748 17.8501 107.331 17.8501C108.023 17.8501 108.561 18.0459 108.944 18.4376C109.336 18.8293 109.531 19.3501 109.531 20.0001L109.531 24.3501L107.944 24.3501ZM113.985 24.4751C113.31 24.4751 112.718 24.3334 112.21 24.0501C111.71 23.7668 111.318 23.3751 111.035 22.8751C110.76 22.3751 110.623 21.8001 110.623 21.1501C110.623 20.5001 110.76 19.9293 111.035 19.4376C111.318 18.9376 111.71 18.5501 112.21 18.2751C112.71 17.9918 113.293 17.8501 113.96 17.8501C114.593 17.8501 115.143 17.9834 115.61 18.2501C116.077 18.5084 116.439 18.8751 116.698 19.3501C116.956 19.8251 117.085 20.3793 117.085 21.0126C117.085 21.1293 117.081 21.2376 117.073 21.3376C117.064 21.4376 117.052 21.5376 117.035 21.6376L111.598 21.6376L111.598 20.5376L115.823 20.5376L115.498 20.8376C115.498 20.2376 115.36 19.7876 115.085 19.4876C114.81 19.1876 114.427 19.0376 113.935 19.0376C113.402 19.0376 112.977 19.2209 112.66 19.5876C112.352 19.9543 112.198 20.4834 112.198 21.1751C112.198 21.8584 112.352 22.3834 112.66 22.7501C112.977 23.1084 113.423 23.2876 113.998 23.2876C114.331 23.2876 114.623 23.2251 114.873 23.1001C115.123 22.9751 115.306 22.7834 115.423 22.5251L116.91 22.5251C116.702 23.1251 116.348 23.6001 115.848 23.9501C115.356 24.3001 114.735 24.4751 113.985 24.4751ZM122.875 24.3501L122.875 22.9126L123 22.9376C122.891 23.4043 122.629 23.7793 122.212 24.0626C121.796 24.3376 121.3 24.4751 120.725 24.4751C120.141 24.4751 119.633 24.3418 119.2 24.0751C118.775 23.8001 118.446 23.4168 118.212 22.9251C117.979 22.4334 117.862 21.8543 117.862 21.1876C117.862 20.5126 117.983 19.9251 118.225 19.4251C118.466 18.9251 118.804 18.5376 119.237 18.2626C119.679 17.9876 120.191 17.8501 120.775 17.8501C121.375 17.8501 121.871 17.9959 122.262 18.2876C122.654 18.5709 122.896 18.9668 122.987 19.4751L122.825 19.4876L122.825 15.3501L124.412 15.3501L124.412 24.3501L122.875 24.3501ZM121.187 23.1876C121.696 23.1876 122.1 23.0126 122.4 22.6626C122.708 22.3043 122.862 21.8043 122.862 21.1626C122.862 20.5209 122.708 20.0251 122.4 19.6751C122.091 19.3251 121.683 19.1501 121.175 19.1501C120.675 19.1501 120.271 19.3293 119.962 19.6876C119.654 20.0376 119.5 20.5334 119.5 21.1751C119.5 21.8168 119.654 22.3126 119.962 22.6626C120.271 23.0126 120.679 23.1876 121.187 23.1876ZM131.368 24.4751C130.585 24.4751 130.005 24.2918 129.63 23.9251C129.264 23.5501 129.08 22.9918 129.08 22.2501L129.08 16.5251L130.668 15.9376L130.668 22.2876C130.668 22.5959 130.751 22.8251 130.918 22.9751C131.085 23.1251 131.347 23.2001 131.705 23.2001C131.847 23.2001 131.972 23.1918 132.08 23.1751C132.197 23.1501 132.305 23.1209 132.405 23.0876L132.405 24.3126C132.305 24.3626 132.164 24.4001 131.98 24.4251C131.797 24.4584 131.593 24.4751 131.368 24.4751ZM127.855 19.2126L127.855 17.9751L132.405 17.9751L132.405 19.2126L127.855 19.2126ZM136.288 24.4751C135.613 24.4751 135.017 24.3334 134.501 24.0501C133.992 23.7668 133.597 23.3751 133.313 22.8751C133.03 22.3668 132.888 21.7876 132.888 21.1376C132.888 20.4876 133.03 19.9168 133.313 19.4251C133.597 18.9334 133.992 18.5501 134.501 18.2751C135.017 17.9918 135.613 17.8501 136.288 17.8501C136.972 17.8501 137.567 17.9918 138.076 18.2751C138.584 18.5501 138.98 18.9334 139.263 19.4251C139.547 19.9168 139.688 20.4876 139.688 21.1376C139.688 21.7876 139.542 22.3668 139.251 22.8751C138.967 23.3751 138.572 23.7668 138.063 24.0501C137.555 24.3334 136.963 24.4751 136.288 24.4751ZM136.288 23.2126C136.622 23.2126 136.922 23.1293 137.188 22.9626C137.455 22.7876 137.663 22.5459 137.813 22.2376C137.963 21.9209 138.038 21.5501 138.038 21.1251C138.038 20.5001 137.872 20.0084 137.538 19.6501C137.213 19.2918 136.797 19.1126 136.288 19.1126C135.78 19.1126 135.359 19.2918 135.026 19.6501C134.692 20.0084 134.526 20.5001 134.526 21.1251C134.526 21.5501 134.601 21.9209 134.751 22.2376C134.909 22.5459 135.117 22.7876 135.376 22.9626C135.642 23.1293 135.947 23.2126 136.288 23.2126ZM145.482 24.3501L145.482 22.9126L145.607 22.9376C145.499 23.4043 145.236 23.7793 144.82 24.0626C144.403 24.3376 143.907 24.4751 143.332 24.4751C142.749 24.4751 142.241 24.3418 141.807 24.0751C141.382 23.8001 141.053 23.4168 140.82 22.9251C140.586 22.4334 140.47 21.8543 140.47 21.1876C140.47 20.5126 140.591 19.9251 140.832 19.4251C141.074 18.9251 141.411 18.5376 141.845 18.2626C142.286 17.9876 142.799 17.8501 143.382 17.8501C143.982 17.8501 144.478 17.9959 144.87 18.2876C145.261 18.5709 145.503 18.9668 145.595 19.4751L145.432 19.4876L145.432 15.3501L147.02 15.3501L147.02 24.3501L145.482 24.3501ZM143.795 23.1876C144.303 23.1876 144.707 23.0126 145.007 22.6626C145.316 22.3043 145.47 21.8043 145.47 21.1626C145.47 20.5209 145.316 20.0251 145.007 19.6751C144.699 19.3251 144.291 19.1501 143.782 19.1501C143.282 19.1501 142.878 19.3293 142.57 19.6876C142.261 20.0376 142.107 20.5334 142.107 21.1751C142.107 21.8168 142.261 22.3126 142.57 22.6626C142.878 23.0126 143.286 23.1876 143.795 23.1876ZM152.671 24.3501C152.629 24.1834 152.596 24.0001 152.571 23.8001C152.554 23.6001 152.546 23.3584 152.546 23.0751L152.496 23.0751L152.496 20.0501C152.496 19.7168 152.4 19.4668 152.208 19.3001C152.025 19.1251 151.742 19.0376 151.358 19.0376C150.983 19.0376 150.683 19.1084 150.458 19.2501C150.242 19.3834 150.108 19.5793 150.058 19.8376L148.546 19.8376C148.613 19.2459 148.896 18.7668 149.396 18.4001C149.896 18.0334 150.567 17.8501 151.408 17.8501C152.283 17.8501 152.946 18.0501 153.396 18.4501C153.846 18.8418 154.071 19.4209 154.071 20.1876L154.071 23.0751C154.071 23.2751 154.083 23.4793 154.108 23.6876C154.142 23.8959 154.188 24.1168 154.246 24.3501L152.671 24.3501ZM150.458 24.4751C149.817 24.4751 149.304 24.3168 148.921 24.0001C148.546 23.6751 148.358 23.2418 148.358 22.7001C148.358 22.1168 148.571 21.6543 148.996 21.3126C149.421 20.9709 150.021 20.7418 150.796 20.6251L152.783 20.3251L152.783 21.3251L151.058 21.5876C150.683 21.6459 150.4 21.7501 150.208 21.9001C150.025 22.0501 149.933 22.2584 149.933 22.5251C149.933 22.7668 150.021 22.9543 150.196 23.0876C150.371 23.2126 150.613 23.2751 150.921 23.2751C151.371 23.2751 151.746 23.1626 152.046 22.9376C152.346 22.7126 152.496 22.4376 152.496 22.1126L152.671 23.0751C152.504 23.5334 152.229 23.8834 151.846 24.1251C151.471 24.3584 151.008 24.4751 150.458 24.4751ZM155.688 26.9126L157.338 23.2126L157.625 22.7376L159.425 17.9751L161.1 17.9751L157.288 26.9126L155.688 26.9126ZM157.1 24.2876L154.513 17.9751L156.225 17.9751L158.388 23.7001L157.1 24.2876Z" fill="#FFFEFC"/>
</g>
<defs>
<filter id="filter0_d_2527_29190" x="1.07466e-08" y="0" width="175" height="44.9171" filterUnits="userSpaceOnUse" color-interpolation-filters="sRGB">
<feFlood flood-opacity="0" result="BackgroundImageFix"/>
<feColorMatrix in="SourceAlpha" type="matrix" values="0 0 0 0 0 0 0 0 0 0 0 0 0 0 0 0 0 0 127 0" result="hardAlpha"/>
<feOffset dy="4"/>
<feComposite in2="hardAlpha" operator="out"/>
<feColorMatrix type="matrix" values="0 0 0 0 0 0 0 0 0 0 0 0 0 0 0 0 0 0 0.18 0"/>
<feBlend mode="normal" in2="BackgroundImageFix" result="effect1_dropShadow_2527_29190"/>
<feBlend mode="normal" in="SourceGraphic" in2="effect1_dropShadow_2527_29190" result="shape"/>
</filter>
</defs>
</svg>
