<svg width="191" height="157" viewBox="0 0 191 157" fill="none" xmlns="http://www.w3.org/2000/svg">
<g filter="url(#filter0_dd_2517_28765)">
<rect width="123.086" height="84.585" rx="18" transform="matrix(0.995669 0.0929675 -0.0817021 0.996657 37.501 22.4056)" fill="white" shape-rendering="crispEdges"/>
<rect x="0.456984" y="0.544812" width="122.086" height="83.585" rx="17.5" transform="matrix(0.995669 0.0929675 -0.0817021 0.996657 37.5475 22.365)" stroke="#FEFCF5" shape-rendering="crispEdges"/>
<path d="M45.7121 63.6494C45.3537 63.6158 45.1852 63.4675 45.2068 63.2044C45.2283 62.9413 45.3954 62.8123 45.708 62.8174L47.1176 62.8047C47.6233 62.8038 47.9676 62.7155 48.1506 62.5398C48.3574 62.3663 48.4814 62.0284 48.5224 61.5261L50.2661 40.2132C50.2993 39.8066 50.2014 39.5323 49.9722 39.3903C49.7689 39.2267 49.486 39.152 49.1237 39.1663L47.8216 39.1891C47.3895 39.1728 47.1872 38.9972 47.2146 38.6623C47.2361 38.3992 47.441 38.2496 47.8292 38.2137C49.1132 38.1169 50.0618 38.0007 50.6749 37.8653C51.2899 37.7059 51.7407 37.6396 52.0275 37.6664C52.5293 37.7134 52.7587 38 52.7156 38.5262L50.8164 61.7407C50.7753 62.243 50.8306 62.5977 50.9822 62.8047C51.1577 63.014 51.4944 63.166 51.9923 63.2608L53.1634 63.515C53.4721 63.5679 53.6157 63.726 53.5942 63.9891C53.5726 64.2522 53.3826 64.367 53.0242 64.3335L45.7121 63.6494ZM54.196 70.0833C53.9116 70.3218 53.6807 70.3484 53.5033 70.1631C53.3019 69.9755 53.3563 69.7516 53.6666 69.4914C54.4163 68.8626 54.959 68.2626 55.2947 67.6914C55.6303 67.1202 55.8246 66.5117 55.8774 65.8659C55.9087 65.4831 55.8376 65.1752 55.6641 64.942C55.4885 64.7328 55.2882 64.5333 55.0629 64.3435C54.8376 64.1537 54.6382 63.9422 54.4647 63.709C54.2931 63.4519 54.2249 63.1081 54.2601 62.6775C54.2993 62.1991 54.4869 61.819 54.823 61.5371C55.1849 61.2335 55.6168 61.1052 56.1186 61.1521C56.716 61.208 57.1643 61.4669 57.4636 61.9288C57.7868 62.3929 57.9181 62.9957 57.8575 63.7372C57.7537 65.005 57.3552 66.197 56.662 67.3131C55.9906 68.4555 55.1686 69.3789 54.196 70.0833ZM62.4142 65.5374C61.769 65.4771 61.1078 65.3188 60.4305 65.0626C59.777 64.8086 59.239 64.469 58.8163 64.0438C58.3936 63.6186 58.2047 63.131 58.2497 62.5808C58.2791 62.222 58.4101 61.945 58.6428 61.7499C58.8774 61.5308 59.1739 61.438 59.5324 61.4715C59.9386 61.5095 60.2136 61.6799 60.3574 61.9826C60.5251 62.2875 60.6659 62.6261 60.7799 62.9983C60.894 63.3705 61.0945 63.7147 61.3817 64.0308C61.6928 64.3491 62.1948 64.5407 62.8878 64.6055C63.6524 64.6771 64.4108 64.5311 65.1629 64.1676C65.9408 63.7824 66.6099 63.1099 67.17 62.15C67.754 61.1923 68.1135 59.8882 68.2485 58.2377C68.4344 55.9653 68.0396 54.1688 67.0641 52.8483C66.0906 51.5038 64.3222 50.6032 61.7591 50.1465C61.4046 50.0651 61.2769 49.8603 61.376 49.5322L64.0858 39.807C64.183 39.5027 64.3749 39.364 64.6616 39.3908L70.2891 39.9173C70.6953 39.9553 70.9879 39.9104 71.1669 39.7825C71.3718 39.633 71.5398 39.492 71.6711 39.3597C71.8023 39.2273 71.9635 39.1701 72.1546 39.188C72.3458 39.2059 72.4465 39.2997 72.4567 39.4693C72.4927 39.6173 72.479 39.7848 72.4156 39.9717L71.7253 41.7871C71.6301 42.0675 71.4392 42.1942 71.1524 42.1674L65.2382 41.6141C64.9515 41.5872 64.7595 41.7259 64.6624 42.0302L63.1738 47.4226C63.0748 47.7508 63.2035 47.9436 63.5599 48.0011C65.4301 48.393 66.9154 49.0742 68.0158 50.0449C69.1421 50.9939 69.9272 52.14 70.3711 53.4831C70.8409 54.8045 71.0142 56.2187 70.8909 57.7257C70.7441 59.5197 70.2236 61.0256 69.3294 62.2435C68.461 63.4398 67.402 64.3169 66.1525 64.8748C64.9268 65.4351 63.6807 65.6559 62.4142 65.5374ZM77.0843 66.91C75.6983 66.7803 74.529 66.3576 73.5762 65.6417C72.6255 64.902 71.9154 64.016 71.446 62.9839C71.0025 61.9301 70.8248 60.8649 70.9128 59.7885C71.0342 58.3055 71.56 57.029 72.4903 55.9591C73.4225 54.8653 74.6865 53.9832 76.2824 53.313C76.4316 53.2547 76.5102 53.1777 76.518 53.082C76.5278 52.9624 76.4769 52.8492 76.3652 52.7423C75.1014 51.7081 74.1939 50.5868 73.6426 49.3783C73.0933 48.1458 72.8657 46.9555 72.9596 45.8073C73.0574 44.6113 73.4293 43.5976 74.0752 42.7662C74.745 41.9371 75.5784 41.3161 76.5753 40.9032C77.5722 40.4903 78.6322 40.3364 79.7553 40.4415C80.8306 40.5421 81.7779 40.8838 82.597 41.4666C83.4181 42.0255 84.0444 42.7589 84.4757 43.667C84.909 44.5512 85.0817 45.5315 84.9936 46.6079C84.8918 47.8517 84.4146 48.9761 83.5619 49.9809C82.7111 50.9619 81.6241 51.7399 80.3009 52.3151C80.1516 52.3735 80.0721 52.4624 80.0623 52.582C80.0545 52.6777 80.1184 52.7801 80.2539 52.8892C81.9083 54.1527 83.046 55.4041 83.667 56.6432C84.3138 57.8607 84.5805 59.1631 84.467 60.5505C84.3574 61.89 83.9608 63.0581 83.2773 64.0547C82.5938 65.0513 81.7129 65.8125 80.6345 66.3383C79.5581 66.8401 78.3746 67.0307 77.0843 66.91ZM78.7232 51.7337C79.0162 51.978 79.3278 51.9951 79.658 51.785C80.6189 51.2241 81.3674 50.4626 81.9036 49.5004C82.4638 48.5405 82.7918 47.4744 82.8876 46.3024C83.0011 44.915 82.7805 43.7856 82.2258 42.9142C81.6969 42.0211 80.8231 41.5175 79.6044 41.4035C78.3618 41.2873 77.3279 41.5641 76.5025 42.2341C75.7011 42.9063 75.2505 43.8524 75.1507 45.0723C75.092 45.7899 75.1298 46.5045 75.2642 47.2161C75.4226 47.9299 75.772 48.6616 76.3127 49.4111C76.8553 50.1368 77.6588 50.911 78.7232 51.7337ZM77.2352 65.9479C78.669 66.0821 79.8273 65.7566 80.7102 64.9715C81.617 64.1886 82.1301 63.0676 82.2494 61.6085C82.3492 60.3885 82.2074 59.3268 81.8238 58.4232C81.4661 57.4979 80.9433 56.6777 80.2553 55.9625C79.5694 55.2234 78.771 54.5341 77.8601 53.8945C77.5671 53.6502 77.2565 53.6211 76.9282 53.8073C74.6065 55.1086 73.3273 57.2064 73.0905 60.1007C73.0161 61.0097 73.0881 61.8962 73.3063 62.7602C73.5246 63.6243 73.9467 64.3507 74.5728 64.9396C75.2007 65.5045 76.0882 65.8406 77.2352 65.9479ZM91.1372 68.2248C89.7512 68.0951 88.5805 67.395 87.6249 66.1246C86.6694 64.8541 85.9871 63.1874 85.578 61.1245C85.1689 59.0615 85.0661 56.7862 85.2696 54.2985C85.4731 51.8108 85.9428 49.6011 86.6788 47.6694C87.4166 45.7138 88.3592 44.1991 89.5065 43.1254C90.6538 42.0517 91.9204 41.5796 93.3064 41.7093C94.6923 41.839 95.8511 42.5379 96.7828 43.8061C97.7383 45.0766 98.4206 46.7433 98.8297 48.8062C99.2647 50.8475 99.3804 53.112 99.1769 55.5997C98.9734 58.0874 98.4907 60.3079 97.729 62.2613C96.9911 64.217 96.0485 65.7316 94.9012 66.8053C93.7778 67.8813 92.5231 68.3544 91.1372 68.2248ZM91.2164 67.256C92.7218 67.3969 93.9042 66.4831 94.7635 64.5147C95.6467 62.5486 96.2576 59.4964 96.5962 55.3582C96.9347 51.22 96.8277 48.1128 96.2752 46.0364C95.7486 43.9384 94.7326 42.8189 93.2271 42.6781C91.7217 42.5372 90.5274 43.4499 89.6442 45.416C88.7868 47.3605 88.1889 50.4018 87.8503 54.54C87.5118 58.6781 87.6058 61.7963 88.1325 63.8943C88.683 65.9946 89.711 67.1152 91.2164 67.256Z" fill="#111111"/>
<path d="M46.6548 81.9126C46.3193 81.8812 46.1278 81.6475 46.1564 81.2971L46.3519 78.9076L44.4061 75.3272C44.3334 75.1978 44.3134 75.0832 44.3233 74.9615C44.3468 74.6744 44.5973 74.487 44.9036 74.5156C45.1272 74.5365 45.2469 74.6311 45.3647 74.8677L46.9723 77.9114L47.0063 77.9145L49.0838 75.2157C49.233 75.0089 49.3763 74.9341 49.5902 74.9541C49.8916 74.9823 50.1078 75.2134 50.0847 75.4957C50.0748 75.6173 50.0364 75.7265 49.9434 75.8453L47.4409 79.0095L47.2454 81.399C47.2168 81.7494 46.9951 81.9444 46.6548 81.9126ZM51.7382 82.4078C50.2749 82.2709 49.3947 81.1735 49.5296 79.5237C49.6642 77.8788 50.7141 76.9619 52.1726 77.0984C53.631 77.2348 54.5161 78.3327 54.3815 79.9776C54.2465 81.6274 53.2015 82.5447 51.7382 82.4078ZM51.8091 81.5416C52.6355 81.6189 53.2188 81.0163 53.312 79.8776C53.4047 78.7437 52.9233 78.0415 52.1017 77.9646C51.2801 77.8878 50.692 78.4899 50.5992 79.6238C50.506 80.7625 50.9875 81.4647 51.8091 81.5416ZM56.9452 82.8901C55.8319 82.7859 55.2106 81.9971 55.3065 80.8243L55.5394 77.9773C55.5681 77.6269 55.7991 77.4377 56.1103 77.4668C56.4165 77.4955 56.6182 77.7252 56.5895 78.0756L56.3733 80.7181C56.3096 81.4968 56.6449 81.9499 57.3693 82.0176C58.1277 82.0886 58.6277 81.6058 58.6929 80.8077L58.8988 78.2916C58.9274 77.9412 59.1633 77.7525 59.4696 77.7811C59.7808 77.8102 59.9776 78.0395 59.9489 78.3899L59.6045 82.5995C59.5778 82.9255 59.3614 83.1161 59.06 83.0879C58.7585 83.0597 58.5715 82.8314 58.5978 82.5102L58.6328 82.0819L58.6085 82.0796C58.2763 82.6665 57.7279 82.9633 56.9452 82.8901ZM61.3253 83.2999C61.0093 83.2703 60.8177 83.0366 60.8456 82.696L61.1908 78.4767C61.2171 78.1555 61.4384 77.9653 61.7349 77.9931C62.0266 78.0203 62.2137 78.2487 62.1874 78.5699L62.1516 79.0079L62.1759 79.0102C62.3639 78.4491 62.8669 78.1088 63.3773 78.1565C63.5621 78.1738 63.6995 78.2308 63.7802 78.3217C63.8711 78.4087 63.9045 78.5393 63.891 78.7048C63.8774 78.8702 63.814 78.9869 63.7051 79.0601C63.5906 79.1425 63.4315 79.1718 63.2127 79.1513C62.4928 79.0889 62.1617 79.5434 62.1095 80.1809L61.8957 82.7942C61.8678 83.1349 61.6364 83.329 61.3253 83.2999ZM67.0129 83.832C66.7018 83.8029 66.505 83.5736 66.5333 83.2281L66.8785 79.0088C66.9047 78.6876 67.1163 78.4965 67.4226 78.5252C67.724 78.5534 67.9159 78.7822 67.8893 79.1083L67.8562 79.5122L67.8805 79.5145C68.2054 78.9564 68.7689 78.6561 69.5564 78.7297C70.6843 78.8353 71.272 79.616 71.176 80.7889L70.9427 83.6407C70.9145 83.9862 70.6786 84.175 70.3674 84.1459C70.0612 84.1172 69.8595 83.8875 69.8878 83.542L70.1044 80.8946C70.1673 80.1256 69.8421 79.6686 69.1129 79.6004C68.3739 79.5312 67.8545 80.0122 67.7896 80.8055L67.5834 83.3264C67.5551 83.6719 67.3192 83.8607 67.0129 83.832ZM74.329 84.5214C72.7879 84.3772 71.9637 83.3145 72.0991 81.6598C72.232 80.0344 73.2417 79.0696 74.6905 79.2052C76.0517 79.3325 76.9096 80.4034 76.7953 81.8001C76.7675 82.1407 76.5571 82.3172 76.2313 82.2867L73.1394 81.9974L73.1374 82.0218C73.0609 82.9562 73.5382 83.5893 74.3744 83.6675C74.9481 83.7212 75.3242 83.5553 75.7565 83.0612C75.879 82.9403 75.9904 82.8968 76.1411 82.9109C76.3939 82.9345 76.5651 83.1173 76.5436 83.3801C76.5368 83.4628 76.4997 83.5574 76.4476 83.6555C76.0572 84.2957 75.2819 84.6106 74.329 84.5214ZM73.2044 81.2631L75.7616 81.5023C75.8029 80.6971 75.3456 80.1197 74.6163 80.0515C73.892 79.9837 73.3231 80.4699 73.2044 81.2631ZM77.7858 84.84C77.5039 84.8136 77.3148 84.6095 77.3359 84.3516C77.3451 84.2397 77.3923 84.1411 77.4845 84.0321L79.0088 82.2867L77.8109 80.2818C77.7464 80.1727 77.7207 80.0673 77.7307 79.9457C77.7518 79.6878 77.9865 79.5136 78.2733 79.5404C78.4726 79.559 78.574 79.6372 78.6845 79.8437L79.6989 81.6353L79.7184 81.6371L80.9828 80.0734C81.1255 79.8857 81.2486 79.8188 81.4285 79.8356C81.725 79.8633 81.9185 80.0727 81.8974 80.3306C81.8875 80.4523 81.8451 80.5513 81.7484 80.6551L80.2464 82.3682L81.4378 84.3921C81.5064 84.5113 81.5321 84.6167 81.5233 84.7238C81.501 84.9963 81.2716 85.1661 80.9848 85.1392C80.8 85.122 80.6849 85.0327 80.5955 84.8674L79.5615 83.0151L79.5372 83.0129L78.219 84.6353C78.0876 84.8044 77.9657 84.8568 77.7858 84.84ZM82.9788 83.9969L83.2292 80.9358L82.8597 80.9012C82.5875 80.8758 82.4349 80.7046 82.456 80.4466C82.4775 80.1838 82.6555 80.0436 82.9278 80.0691L83.2973 80.1036L83.3594 79.3444C83.3869 79.0086 83.6142 78.8043 83.9351 78.8344C84.2511 78.8639 84.4418 79.1073 84.4143 79.4431L84.3522 80.2023L84.9502 80.2583C85.2225 80.2837 85.3746 80.4598 85.3535 80.7177C85.3324 80.9757 85.1544 81.1159 84.8821 81.0905L84.2842 81.0345L84.0528 83.862C84.0194 84.2708 84.1453 84.4689 84.5221 84.5336L84.6043 84.5462C84.9033 84.6036 85.0441 84.7393 85.0238 84.9875C84.9979 85.3039 84.7417 85.4417 84.2264 85.3935L84.1729 85.3885C83.3124 85.308 82.9095 84.8437 82.9788 83.9969ZM91.279 86.1269C89.2955 85.9413 88.1697 84.4335 88.3528 82.1949C88.5348 79.9709 89.9037 78.6866 91.8629 78.87C93.1513 78.9905 94.1306 79.7147 94.4833 80.7922C94.5398 80.9397 94.5619 81.0889 94.5512 81.2203C94.5273 81.5123 94.3173 81.6839 94.0256 81.6566C93.7679 81.6325 93.6081 81.49 93.5097 81.1964C93.248 80.3824 92.5919 79.8993 91.7849 79.8238C90.5112 79.7046 89.5991 80.6736 89.4661 82.299C89.3319 83.9391 90.0639 85.0521 91.3522 85.1726C92.2079 85.2527 92.894 84.9491 93.2819 84.2204C93.4196 83.9734 93.5694 83.8795 93.8076 83.9018C94.1042 83.9295 94.2916 84.153 94.2681 84.4401C94.2558 84.591 94.2054 84.7285 94.1144 84.8818C93.5847 85.7885 92.5819 86.2488 91.279 86.1269ZM96.7943 86.6135C95.7928 86.5198 95.1388 85.8309 95.2141 84.9111C95.2873 84.0157 96.0227 83.5304 97.2388 83.5755L98.6505 83.6242L98.6828 83.23C98.7294 82.6606 98.3732 82.284 97.7314 82.224C97.2258 82.1767 96.8757 82.3254 96.5457 82.7653C96.426 82.911 96.2843 82.9664 96.0996 82.9491C95.8371 82.9245 95.6618 82.7316 95.6833 82.4688C95.6921 82.3617 95.7308 82.2477 95.8036 82.1368C96.1183 81.5827 96.9216 81.2852 97.8404 81.3711C99.0801 81.4871 99.8188 82.2182 99.7348 83.2451L99.482 86.3353C99.4549 86.6663 99.2295 86.8462 98.933 86.8185C98.6413 86.7912 98.4575 86.5828 98.4732 86.2704L98.5087 85.8373L98.4844 85.835C98.1412 86.3766 97.4603 86.6758 96.7943 86.6135ZM97.1492 85.8081C97.8833 85.8768 98.5032 85.4248 98.5578 84.7581L98.5908 84.3542L97.3204 84.3138C96.6897 84.2989 96.3121 84.5431 96.2763 84.9811C96.2397 85.4288 96.5901 85.7558 97.1492 85.8081ZM101.184 87.0291C100.868 86.9995 100.676 86.7658 100.704 86.4252L101.049 82.2059C101.076 81.8847 101.297 81.6945 101.593 81.7223C101.885 81.7495 102.072 81.9779 102.046 82.2991L102.01 82.7371L102.034 82.7394C102.222 82.1783 102.725 81.838 103.236 81.8857C103.421 81.903 103.558 81.96 103.639 82.0509C103.73 82.1379 103.763 82.2685 103.749 82.434C103.736 82.5994 103.672 82.7161 103.564 82.7893C103.449 82.8717 103.29 82.901 103.071 82.8805C102.351 82.8181 102.02 83.2726 101.968 83.9101L101.754 86.5234C101.726 86.8641 101.495 87.0582 101.184 87.0291ZM106.118 87.4956C104.577 87.3514 103.752 86.2886 103.888 84.634C104.021 83.0086 105.03 82.0438 106.479 82.1794C107.84 82.3067 108.698 83.3776 108.584 84.7743C108.556 85.1149 108.346 85.2914 108.02 85.2609L104.928 84.9716L104.926 84.996C104.85 85.9303 105.327 86.5634 106.163 86.6417C106.737 86.6954 107.113 86.5295 107.545 86.0354C107.668 85.9145 107.779 85.871 107.93 85.8851C108.182 85.9087 108.354 86.0915 108.332 86.3543C108.325 86.437 108.288 86.5316 108.236 86.6297C107.846 87.2699 107.07 87.5848 106.118 87.4956ZM104.993 84.2372L107.55 84.4765C107.592 83.6712 107.134 83.0939 106.405 83.0257C105.681 82.9579 105.112 83.4441 104.993 84.2372ZM111.577 88.0064C110.036 87.8622 109.212 86.7994 109.347 85.1448C109.48 83.5194 110.49 82.5546 111.938 82.6901C113.3 82.8175 114.158 83.8883 114.043 85.285C114.015 85.6257 113.805 85.8022 113.479 85.7717L110.387 85.4824L110.385 85.5067C110.309 86.4411 110.786 87.0742 111.622 87.1525C112.196 87.2061 112.572 87.0403 113.004 86.5462C113.127 86.4253 113.238 86.3817 113.389 86.3958C113.642 86.4195 113.813 86.6022 113.792 86.865C113.785 86.9478 113.748 87.0424 113.696 87.1405C113.305 87.7807 112.53 88.0955 111.577 88.0064ZM110.452 84.748L113.01 84.9873C113.051 84.182 112.594 83.6047 111.864 83.5365C111.14 83.4687 110.571 83.9549 110.452 84.748ZM115.345 88.354C115.029 88.3245 114.837 88.0908 114.865 87.7501L115.21 83.5308C115.237 83.2096 115.458 83.0194 115.755 83.0472C116.046 83.0745 116.233 83.3028 116.207 83.624L116.171 84.062L116.196 84.0643C116.384 83.5032 116.887 83.1629 117.397 83.2107C117.582 83.2279 117.719 83.2849 117.8 83.3759C117.891 83.4628 117.924 83.5934 117.911 83.7589C117.897 83.9244 117.834 84.041 117.725 84.1142C117.61 84.1967 117.451 84.2259 117.232 84.2054C116.512 84.143 116.181 84.5975 116.129 85.235L115.915 87.8484C115.888 88.189 115.656 88.3831 115.345 88.354ZM44.2263 97.764C43.2248 97.6703 42.5709 96.9814 42.6461 96.0616C42.7194 95.1662 43.4547 94.6809 44.6708 94.726L46.0826 94.7747L46.1148 94.3805C46.1614 93.8111 45.8052 93.4345 45.1635 93.3745C44.6579 93.3272 44.3077 93.4759 43.9778 93.9158C43.8581 94.0615 43.7164 94.1169 43.5317 94.0996C43.2691 94.075 43.0939 93.8821 43.1154 93.6193C43.1241 93.5122 43.1628 93.3982 43.2356 93.2873C43.5504 92.7332 44.3536 92.4357 45.2725 92.5216C46.5122 92.6376 47.2509 93.3687 47.1668 94.3956L46.914 97.4859C46.887 97.8168 46.6616 97.9967 46.365 97.969C46.0733 97.9417 45.8895 97.7333 45.9053 97.4209L45.9407 96.9878L45.9164 96.9855C45.5733 97.5271 44.8924 97.8263 44.2263 97.764ZM44.5812 96.9587C45.3153 97.0273 45.9353 96.5753 45.9898 95.9086L46.0229 95.5047L44.7525 95.4643C44.1218 95.4494 43.7442 95.6936 43.7083 96.1316C43.6717 96.5793 44.0222 96.9063 44.5812 96.9587ZM50.0114 98.3053C48.7182 98.1843 47.947 97.0725 48.0792 95.4568C48.2114 93.8411 49.151 92.8943 50.4345 93.0144C51.1686 93.0831 51.7217 93.5075 51.9624 94.0989L51.9818 94.1007L52.1693 91.8085C52.1976 91.463 52.4335 91.2742 52.7446 91.3033C53.0509 91.332 53.2526 91.5617 53.2243 91.9072L52.723 98.0343C52.696 98.3652 52.4661 98.5398 52.1599 98.5112C51.8633 98.4834 51.641 98.2665 51.6681 97.9355L51.7071 97.4586L51.6925 97.4573C51.381 98.0313 50.8087 98.3799 50.0114 98.3053ZM50.3614 97.4406C51.1684 97.5161 51.7642 96.8804 51.8518 95.8098C51.9386 94.7489 51.4559 94.0025 50.6489 93.9269C49.8175 93.8492 49.2416 94.4818 49.1536 95.5573C49.0652 96.6377 49.5301 97.3628 50.3614 97.4406ZM55.9274 98.8637C55.553 98.8286 55.3616 98.6538 55.2468 98.2606L54.0569 94.1232C54.0304 94.0276 54.0144 93.9231 54.0224 93.8258C54.0463 93.5338 54.2855 93.3649 54.5917 93.3935C54.8348 93.4163 54.9894 93.5632 55.0538 93.8536L56.0141 97.7439L56.0335 97.7457L57.6118 94.0831C57.7216 93.8188 57.8976 93.7028 58.1358 93.7251C58.4373 93.7533 58.6348 93.9729 58.6122 94.2503C58.6046 94.3427 58.5768 94.4431 58.5356 94.5275L56.6907 98.3957C56.5243 98.7528 56.2871 98.8973 55.9274 98.8637ZM61.1968 99.3616C59.6556 99.2174 58.8314 98.1546 58.9668 96.5C59.0998 94.8745 60.1095 93.9098 61.5582 94.0453C62.9195 94.1727 63.7773 95.2435 63.6631 96.6402C63.6352 96.9809 63.4248 97.1574 63.0991 97.1269L60.0071 96.8376L60.0051 96.8619C59.9287 97.7963 60.4059 98.4294 61.2421 98.5077C61.8158 98.5613 62.1919 98.3955 62.6242 97.9014C62.7468 97.7805 62.8581 97.7369 63.0088 97.751C63.2616 97.7747 63.4328 97.9574 63.4113 98.2202C63.4046 98.303 63.3674 98.3976 63.3153 98.4957C62.9249 99.1359 62.1496 99.4507 61.1968 99.3616ZM60.0721 96.1032L62.6293 96.3425C62.6707 95.5372 62.2133 94.9599 61.4841 94.8917C60.7597 94.8239 60.1908 95.3101 60.0721 96.1032ZM64.9647 99.7092C64.6536 99.6801 64.4568 99.4508 64.485 99.1053L64.8302 94.886C64.8565 94.5648 65.0681 94.3737 65.3744 94.4024C65.6758 94.4306 65.8677 94.6594 65.841 94.9855L65.808 95.3894L65.8323 95.3917C66.1572 94.8336 66.7206 94.5332 67.5082 94.6069C68.6361 94.7125 69.2238 95.4932 69.1278 96.666L68.8945 99.5178C68.8662 99.8634 68.6303 100.052 68.3192 100.023C68.0129 99.9944 67.8113 99.7647 67.8395 99.4191L68.0561 96.7717C68.119 96.0028 67.7939 95.5458 67.0647 95.4775C66.3257 95.4084 65.8063 95.8894 65.7414 96.6827L65.5351 99.2035C65.5069 99.5491 65.271 99.7379 64.9647 99.7092ZM70.4785 98.8961L70.7289 95.8351L70.3594 95.8005C70.0872 95.775 69.9346 95.6038 69.9557 95.3459C69.9772 95.0831 70.1553 94.9429 70.4275 94.9683L70.797 95.0029L70.8591 94.2437C70.8866 93.9079 71.1139 93.7036 71.4348 93.7336C71.7508 93.7632 71.9415 94.0066 71.9141 94.3424L71.852 95.1016L72.4499 95.1575C72.7222 95.183 72.8743 95.3591 72.8532 95.617C72.8321 95.8749 72.6541 96.0152 72.3819 95.9897L71.7839 95.9338L71.5526 98.7613C71.5191 99.17 71.645 99.3682 72.0218 99.4328L72.104 99.4454C72.4031 99.5028 72.5438 99.6386 72.5235 99.8868C72.4976 100.203 72.2414 100.341 71.7261 100.293L71.6726 100.288C70.8121 100.207 70.4092 99.7429 70.4785 98.8961ZM75.232 100.67C74.1187 100.566 73.4974 99.7769 73.5933 98.604L73.8262 95.7571C73.8549 95.4067 74.0859 95.2174 74.3971 95.2466C74.7034 95.2752 74.905 95.5049 74.8764 95.8553L74.6602 98.4979C74.5965 99.2765 74.9317 99.7296 75.6561 99.7974C76.4145 99.8684 76.9145 99.3855 76.9798 98.5874L77.1856 96.0714C77.2143 95.721 77.4502 95.5322 77.7564 95.5609C78.0676 95.59 78.2644 95.8192 78.2357 96.1696L77.8913 100.379C77.8646 100.705 77.6482 100.896 77.3468 100.868C77.0454 100.839 76.8583 100.611 76.8846 100.29L76.9196 99.8617L76.8953 99.8594C76.5632 100.446 76.0147 100.743 75.232 100.67ZM79.6121 101.08C79.2961 101.05 79.1046 100.816 79.1324 100.476L79.4776 96.2564C79.5039 95.9352 79.7252 95.7451 80.0218 95.7728C80.3134 95.8001 80.5005 96.0285 80.4742 96.3497L80.4384 96.7876L80.4627 96.7899C80.6507 96.2289 81.1537 95.8885 81.6642 95.9363C81.8489 95.9536 81.9863 96.0106 82.0671 96.1015C82.1579 96.1884 82.1913 96.3191 82.1778 96.4845C82.1642 96.65 82.1008 96.7666 81.992 96.8398C81.8774 96.9223 81.7183 96.9515 81.4995 96.9311C80.7796 96.8686 80.4485 97.3231 80.3963 97.9606L80.1825 100.574C80.1547 100.915 79.9232 101.109 79.6121 101.08ZM84.546 101.546C83.0049 101.402 82.1807 100.339 82.316 98.6846C82.449 97.0591 83.4587 96.0944 84.9075 96.2299C86.2687 96.3573 87.1266 97.4281 87.0123 98.8248C86.9844 99.1655 86.774 99.3419 86.4483 99.3115L83.3563 99.0222L83.3544 99.0465C83.2779 99.9809 83.7552 100.614 84.5914 100.692C85.165 100.746 85.5411 100.58 85.9735 100.086C86.096 99.965 86.2074 99.9215 86.3581 99.9356C86.6109 99.9593 86.7821 100.142 86.7606 100.405C86.7538 100.488 86.7167 100.582 86.6646 100.68C86.2742 101.32 85.4989 101.635 84.546 101.546ZM83.4213 98.2878L85.9785 98.527C86.0199 97.7218 85.5626 97.1445 84.8333 97.0762C84.1089 97.0085 83.5401 97.4947 83.4213 98.2878ZM91.5082 102.188C90.5067 102.094 89.8528 101.405 89.928 100.485C90.0013 99.5899 90.7366 99.1046 91.9527 99.1497L93.3645 99.1985L93.3967 98.8043C93.4433 98.2349 93.0871 97.8583 92.4454 97.7982C91.9398 97.7509 91.5896 97.8996 91.2597 98.3395C91.14 98.4852 90.9983 98.5406 90.8135 98.5233C90.551 98.4988 90.3758 98.3059 90.3973 98.0431C90.406 97.936 90.4447 97.8219 90.5175 97.711C90.8323 97.1569 91.6355 96.8594 92.5544 96.9454C93.7941 97.0614 94.5327 97.7925 94.4487 98.8193L94.1959 101.91C94.1689 102.241 93.9435 102.42 93.6469 102.393C93.3552 102.365 93.1714 102.157 93.1872 101.845L93.2226 101.412L93.1983 101.409C92.8552 101.951 92.1743 102.25 91.5082 102.188ZM91.8631 101.382C92.5972 101.451 93.2172 100.999 93.2717 100.332L93.3048 99.9284L92.0344 99.888C91.4036 99.8732 91.0261 100.117 90.9902 100.555C90.9536 101.003 91.3041 101.33 91.8631 101.382ZM96.8991 102.697C96.554 102.665 96.3726 102.486 96.2959 102.106L95.4584 97.9723C95.4291 97.8518 95.4221 97.758 95.4292 97.6704C95.4515 97.3979 95.6704 97.2369 95.9767 97.2656C96.2392 97.2901 96.3833 97.4458 96.427 97.749L97.0445 101.519L97.0639 101.521L98.3345 97.9667C98.4329 97.6621 98.6555 97.5162 98.9763 97.5462C99.2923 97.5758 99.483 97.7603 99.5304 98.0786L100.209 101.815L100.234 101.817L101.454 98.2194C101.546 97.9289 101.709 97.8018 101.971 97.8264C102.277 97.8551 102.462 98.0538 102.44 98.3263C102.432 98.4139 102.411 98.5001 102.367 98.6186L100.871 102.534C100.739 102.885 100.511 103.035 100.166 103.003C99.8015 102.969 99.6101 102.794 99.5435 102.41L98.8636 98.9234L98.8393 98.9212L97.6134 102.229C97.4867 102.58 97.254 102.73 96.8991 102.697ZM104.362 103.39C103.36 103.297 102.706 102.608 102.782 101.688C102.855 100.793 103.59 100.307 104.806 100.352L106.218 100.401L106.25 100.007C106.297 99.4375 105.941 99.0609 105.299 99.0008C104.793 98.9535 104.443 99.1022 104.113 99.5421C103.994 99.6878 103.852 99.7432 103.667 99.726C103.405 99.7014 103.229 99.5085 103.251 99.2457C103.26 99.1386 103.298 99.0245 103.371 98.9136C103.686 98.3595 104.489 98.062 105.408 98.148C106.648 98.264 107.386 98.9951 107.302 100.022L107.05 103.112C107.023 103.443 106.797 103.623 106.501 103.595C106.209 103.568 106.025 103.36 106.041 103.047L106.076 102.614L106.052 102.612C105.709 103.153 105.028 103.453 104.362 103.39ZM104.717 102.585C105.451 102.654 106.071 102.202 106.125 101.535L106.158 101.131L104.888 101.091C104.257 101.076 103.88 101.32 103.844 101.758C103.807 102.206 104.158 102.533 104.717 102.585ZM109.275 97.8232C108.94 97.7919 108.69 97.4939 108.717 97.1629C108.744 96.8271 109.038 96.5898 109.373 96.6212C109.714 96.653 109.964 96.9413 109.937 97.2771C109.91 97.608 109.615 97.8551 109.275 97.8232ZM108.785 103.809C108.469 103.78 108.278 103.541 108.306 103.205L108.648 99.0151C108.676 98.6744 108.903 98.475 109.219 98.5046C109.535 98.5341 109.726 98.7727 109.699 99.1133L109.356 103.303C109.328 103.639 109.101 103.839 108.785 103.809ZM110.998 102.687L111.249 99.6261L110.879 99.5916C110.607 99.5661 110.454 99.3949 110.475 99.137C110.497 98.8742 110.675 98.7339 110.947 98.7594L111.317 98.794L111.379 98.0348C111.406 97.699 111.634 97.4947 111.954 97.5247C112.27 97.5543 112.461 97.7977 112.434 98.1335L112.372 98.8927L112.97 98.9486C113.242 98.9741 113.394 99.1501 113.373 99.4081C113.352 99.666 113.174 99.8063 112.901 99.7808L112.303 99.7248L112.072 102.552C112.039 102.961 112.165 103.159 112.541 103.224L112.624 103.237C112.923 103.294 113.063 103.43 113.043 103.678C113.017 103.994 112.761 104.132 112.246 104.084L112.192 104.079C111.332 103.998 110.929 103.534 110.998 102.687ZM115.868 104.477C114.862 104.383 114.156 103.9 113.965 103.249C113.937 103.168 113.933 103.094 113.939 103.026C113.96 102.763 114.163 102.625 114.425 102.65C114.6 102.666 114.744 102.763 114.86 102.97C115.088 103.408 115.379 103.622 115.987 103.679C116.585 103.735 117.01 103.514 117.044 103.091C117.072 102.755 116.887 102.557 116.349 102.374L115.557 102.108C114.584 101.782 114.138 101.25 114.198 100.52C114.273 99.5953 115.126 99.0572 116.341 99.1709C117.265 99.2573 117.985 99.8003 118.081 100.417C118.086 100.477 118.092 100.526 118.088 100.575C118.069 100.809 117.91 100.951 117.648 100.926C117.477 100.91 117.332 100.838 117.243 100.663C117.046 100.252 116.752 100.018 116.237 99.9702C115.673 99.9175 115.261 100.158 115.228 100.558C115.202 100.879 115.432 101.126 115.961 101.303L116.738 101.562C117.792 101.911 118.174 102.334 118.112 103.093C118.034 104.042 117.132 104.595 115.868 104.477Z" fill="#70706E"/>
</g>
<defs>
<filter id="filter0_dd_2517_28765" x="-1.41016" y="-1.59436" width="193.464" height="159.745" filterUnits="userSpaceOnUse" color-interpolation-filters="sRGB">
<feFlood flood-opacity="0" result="BackgroundImageFix"/>
<feColorMatrix in="SourceAlpha" type="matrix" values="0 0 0 0 0 0 0 0 0 0 0 0 0 0 0 0 0 0 127 0" result="hardAlpha"/>
<feOffset dy="2"/>
<feComposite in2="hardAlpha" operator="out"/>
<feColorMatrix type="matrix" values="0 0 0 0 0 0 0 0 0 0 0 0 0 0 0 0 0 0 0.05 0"/>
<feBlend mode="normal" in2="BackgroundImageFix" result="effect1_dropShadow_2517_28765"/>
<feColorMatrix in="SourceAlpha" type="matrix" values="0 0 0 0 0 0 0 0 0 0 0 0 0 0 0 0 0 0 127 0" result="hardAlpha"/>
<feOffset dy="8"/>
<feGaussianBlur stdDeviation="16"/>
<feComposite in2="hardAlpha" operator="out"/>
<feColorMatrix type="matrix" values="0 0 0 0 0 0 0 0 0 0 0 0 0 0 0 0 0 0 0.1 0"/>
<feBlend mode="normal" in2="effect1_dropShadow_2517_28765" result="effect2_dropShadow_2517_28765"/>
<feBlend mode="normal" in="SourceGraphic" in2="effect2_dropShadow_2517_28765" result="shape"/>
</filter>
</defs>
</svg>
