 <svg viewBox="0 0 400 400" width="300" height="300">
        <g transform="translate(200, 200)" fill="#FFFFFF">
          {/* Inner Ring - Radius 35 */}
          <circle cx="0" cy="-35" r="5" />
          <circle cx="24.75" cy="-24.75" r="5" />
          <circle cx="35" cy="0" r="5" />
          <circle cx="24.75" cy="24.75" r="5" />
          <circle cx="0" cy="35" r="5" />
          <circle cx="-24.75" cy="24.75" r="5" />
          <circle cx="-35" cy="0" r="5" />
          <circle cx="-24.75" cy="-24.75" r="5" />

          {/* Middle Ring - Radius 70 */}
          <circle cx="0" cy="-70" r="6" />
          <circle cx="49.5" cy="-49.5" r="6" />
          <circle cx="70" cy="0" r="6" />
          <circle cx="49.5" cy="49.5" r="6" />
          <circle cx="0" cy="70" r="6" />
          <circle cx="-49.5" cy="49.5" r="6" />
          <circle cx="-70" cy="0" r="6" />
          <circle cx="-49.5" cy="-49.5" r="6" />

          {/* Outer Ring - Radius 110 */}
          <circle cx="0" cy="-110" r="7" />
          <circle cx="77.78" cy="-77.78" r="7" />
          <circle cx="110" cy="0" r="7" />
          <circle cx="77.78" cy="77.78" r="7" />
          <circle cx="0" cy="110" r="7" />
          <circle cx="-77.78" cy="77.78" r="7" />
          <circle cx="-110" cy="0" r="7" />
          <circle cx="-77.78" cy="-77.78" r="7" />
        </g>
      </svg>