<svg width="59" height="328" viewBox="0 0 59 328" fill="none" xmlns="http://www.w3.org/2000/svg">
<path d="M22.6598 45.7014C23.5763 46.6569 24.3173 47.8113 24.8165 49.0515C25.3079 50.2917 25.5575 51.5865 25.5692 52.854C25.5848 54.1995 25.3586 55.5099 25.0115 56.7813C24.7814 57.6315 24.4382 58.4622 23.9975 59.25C23.783 59.6478 23.5178 60.0222 23.2526 60.3966C22.964 60.7593 22.6715 61.1142 22.3478 61.4301C21.0725 62.7288 19.4891 63.6375 17.8706 64.2147C17.0594 64.4955 16.2326 64.7022 15.4058 64.8387C14.579 64.9674 13.7483 65.0337 12.9215 65.0415C12.0947 65.0415 11.2718 64.983 10.4567 64.866C9.64936 64.749 8.83816 64.5735 8.02696 64.3239C7.02856 64.0158 6.02236 63.5946 5.05906 63.0135C4.09576 62.4285 3.17146 61.6914 2.38756 60.7593C0.804161 58.8951 0.00856766 56.5707 -0.116232 54.3126C-0.244932 52.0467 0.26206 49.7496 1.43596 47.7294C2.58646 45.756 4.26346 44.1999 6.13156 43.1274C7.26646 42.4761 8.57686 42.1875 9.82486 42.09C11.0378 42.0042 11.8919 42.6672 12.3677 43.5915C12.7187 44.2662 12.7226 44.9916 12.5588 45.6039C12.3872 46.2123 12.0557 46.7037 11.576 46.9845C10.9676 47.3394 10.3085 47.5539 9.65717 47.7684C8.15567 48.2442 6.85696 49.2972 6.16276 50.5998C5.49586 51.8595 5.40617 53.5131 5.94047 54.7923C6.07307 55.1511 6.28367 55.467 6.46307 55.7673C6.65027 56.0637 6.81797 56.3328 6.92717 56.6448C7.09487 57.1284 7.44976 57.5964 7.92946 57.9708C8.40136 58.353 9.00196 58.6494 9.65326 58.8717C10.3046 59.094 11.0183 59.2539 11.7359 59.3553C12.4496 59.4606 13.1672 59.5152 13.8809 59.5386C14.4113 59.562 14.9417 59.5269 15.4526 59.4372C15.9674 59.3553 16.4588 59.2149 16.919 59.0355C17.387 58.8639 17.8121 58.6338 18.206 58.3764C18.6038 58.1268 18.9626 57.8187 19.2824 57.5028C19.8518 56.9451 20.2925 56.2041 20.5928 55.3929C20.8736 54.5739 21.014 53.6808 20.9438 52.7994C20.9126 52.3626 20.8424 51.9258 20.7098 51.5124C20.5928 51.0912 20.4134 50.7012 20.195 50.319C19.9844 49.9329 19.6919 49.5858 19.3916 49.2465C19.0757 48.9189 18.7208 48.6147 18.3386 48.3495C17.7263 47.9244 17.0984 47.5383 16.4471 47.1093C15.7919 46.6881 15.1016 46.2279 14.2787 45.717C13.526 45.2646 13.2296 43.9932 14.3021 43.5876C15.0431 43.338 15.8465 43.2093 16.6694 43.1976C17.4845 43.2054 18.3152 43.3224 19.1108 43.5564C20.429 43.9464 21.5834 44.8083 22.6052 45.7521C22.6286 45.7326 22.6481 45.717 22.6754 45.6975L22.6598 45.7014Z" fill="white" fill-opacity="0.2"/>
<path d="M42.9323 133.709C43.6694 134.426 44.309 135.382 44.6561 136.439C45.0266 137.519 45.0617 138.63 44.8979 139.617C44.7185 140.67 44.3246 141.591 43.88 142.456C43.5836 143.037 43.2209 143.583 42.7802 144.087L42.437 144.453L42.0899 144.781C41.852 144.991 41.6102 145.19 41.3567 145.374C40.3466 146.107 39.2468 146.598 38.1626 146.934C37.6205 147.101 37.0784 147.23 36.5402 147.327C36.2711 147.374 36.0059 147.417 35.7368 147.452C35.456 147.483 35.1479 147.507 34.8554 147.53C33.6776 147.581 32.5154 147.464 31.3571 147.16C30.6473 146.98 29.9336 146.703 29.2277 146.356C28.5218 145.974 27.8198 145.541 27.1646 144.902C26.525 144.266 25.9049 143.498 25.5227 142.542C25.1366 141.598 24.9455 140.6 24.9923 139.586C25.0469 138.58 25.3121 137.62 25.7138 136.809C26.1116 135.99 26.6186 135.284 27.1919 134.684C27.7613 134.083 28.4087 133.56 29.0951 133.143C29.7542 132.738 30.425 132.422 31.0763 132.172C31.868 131.864 32.6948 131.856 33.4397 131.891C34.1612 131.93 34.7228 132.562 35.1791 133.44C35.8538 134.727 35.7953 136.271 35.066 136.805C34.6097 137.148 34.0988 137.285 33.6269 137.355C33.0809 137.433 32.5934 137.57 32.1722 137.765C31.9577 137.87 31.7861 137.964 31.6184 138.088C31.4546 138.213 31.3064 138.354 31.1777 138.502C30.9242 138.806 30.7682 139.149 30.7448 139.43C30.7214 139.722 30.8072 139.902 30.9671 140.046C31.1465 140.206 31.3571 140.132 31.361 140.436C31.3883 140.678 31.5404 140.951 31.8251 141.158C32.0981 141.368 32.4452 141.54 32.8313 141.653C33.6035 141.899 34.4615 141.938 35.2727 142.004C36.6923 142.074 37.9715 141.626 38.8568 141.064C38.9621 141.002 39.0557 140.931 39.1532 140.865C39.2312 140.799 39.317 140.74 39.395 140.662C39.551 140.514 39.707 140.35 39.8318 140.163C40.0931 139.797 40.2647 139.371 40.3232 138.985C40.3583 138.79 40.3544 138.607 40.3349 138.432C40.331 138.342 40.3037 138.26 40.2842 138.174C40.2413 138.088 40.2257 137.987 40.1711 137.905C40.0073 137.546 39.6719 137.191 39.1961 136.864C38.4395 136.349 37.5659 135.635 36.8483 134.266C36.5207 133.635 36.8288 132.383 37.4606 132.234C38.3576 132.036 39.3287 132.028 40.3622 132.285C41.2085 132.492 42.0431 133.053 42.8621 133.752C42.8855 133.732 42.905 133.713 42.9245 133.693L42.9323 133.709Z" fill="white" fill-opacity="0.2"/>
<path d="M43.0723 97.0135C43.4311 97.2865 43.7938 97.6102 44.1292 97.9885C44.3008 98.1835 44.4451 98.3668 44.6128 98.6008C44.7922 98.8504 44.9365 99.1039 45.0613 99.3574C45.3187 99.8995 45.4552 100.442 45.6151 100.992C45.8257 101.721 45.9076 102.583 45.619 103.554C45.4747 104.034 45.2134 104.529 44.8663 104.954C44.5075 105.387 44.0824 105.718 43.6807 105.952C42.8656 106.416 42.2065 106.549 41.7619 106.67C41.3095 106.783 40.822 106.869 40.2955 106.908C39.6481 106.955 38.9305 106.947 38.1388 106.783C37.3549 106.627 36.4657 106.288 35.6818 105.707L35.3932 105.48C35.3035 105.41 35.1709 105.278 35.0656 105.176C34.8355 104.954 34.66 104.72 34.4845 104.478C34.1608 103.998 33.919 103.491 33.7747 102.988C33.4744 101.978 33.4393 100.937 33.7747 99.7903C33.9892 99.0922 34.621 98.4214 35.3815 98.0392C35.7364 97.8481 36.1615 97.8832 36.5047 98.0626C36.8557 98.2537 37.1521 98.6047 37.3822 99.0259C37.7215 99.646 37.8502 100.368 38.0413 100.933L38.0764 101.038V101.027C38.0764 101.027 38.0647 101.003 38.0569 100.992L38.0452 100.968C38.0452 100.968 38.0452 100.968 38.0452 100.964C38.053 100.984 38.1622 101.097 38.3572 101.187C38.5795 101.3 38.8603 101.346 39.0085 101.346H39.0592C39.0553 101.346 39.0787 101.346 39.0592 101.346L39.0436 101.354C39.0436 101.354 39.0436 101.366 39.0514 101.362C38.9695 101.382 38.755 101.495 38.6302 101.604C38.5951 101.639 38.5756 101.651 38.5444 101.682L38.5249 101.705L38.5132 101.717L39.0748 101.062L39.1021 101.034C39.1372 101.003 39.1762 100.956 39.2113 100.91C39.301 100.8 39.379 100.594 39.4024 100.8C39.4609 101.132 39.7495 101.226 40.0654 101.222C40.2253 101.222 40.4008 101.202 40.5841 101.19C40.7557 101.179 40.9897 101.167 41.1379 101.202C41.2471 101.229 41.3173 101.241 41.3329 101.257C41.3368 101.265 41.3329 101.249 41.3407 101.272L41.407 101.436C41.4382 101.526 41.4889 101.627 41.5201 101.694C41.5942 101.85 41.6527 101.947 41.7034 102.017C41.7307 102.052 41.7463 102.08 41.7658 102.099L41.8243 102.165C41.8477 102.189 41.8204 102.162 41.8204 102.165C41.7697 102.13 41.6878 102.091 41.5474 102.056C41.4265 102.025 41.2861 102.013 41.1613 102.017C41.1301 102.017 41.0989 102.017 41.0677 102.021H41.0326H41.0404C41.056 102.021 41.0638 102.009 41.0755 102.002C41.1223 101.959 41.1418 101.881 41.1652 101.818C41.2198 101.787 41.1457 101.627 41.0482 101.502C40.9468 101.37 40.7947 101.226 40.5919 101.093C40.2799 100.875 39.9835 100.336 39.8548 99.1039C39.8002 98.5345 40.1317 97.2865 40.4398 97.0681C40.8805 96.76 41.3446 96.6118 41.8321 96.6079C42.2377 96.6079 42.6043 96.8653 43.0177 97.0759C43.0333 97.0486 43.045 97.0252 43.0606 97.0018L43.0723 97.0135Z" fill="white" fill-opacity="0.2"/>
<path d="M45.2407 10.1919C45.619 10.8003 45.8998 11.4282 46.0519 12.1068C46.2079 12.7815 46.2742 13.4796 46.1806 14.2167C46.165 14.4078 46.126 14.5989 46.0792 14.7939C46.0285 14.9889 45.9934 15.1761 45.9193 15.3672L45.7087 15.9327L45.4864 16.4124C45.0964 17.2665 44.488 18.0075 43.8016 18.5613C43.1113 19.119 42.3469 19.5129 41.5591 19.7703C40.7674 20.0277 39.9484 20.1525 39.1021 20.133C38.2675 20.1174 37.3705 19.938 36.571 19.5987C35.5882 19.1853 34.7146 18.5847 33.9658 17.7735C33.2287 16.9701 32.6008 15.921 32.3395 14.6496C32.2693 14.3376 32.2381 14.0061 32.2147 13.6785C32.2147 13.3392 32.203 13.0428 32.2693 12.6372C32.3161 12.2472 32.4214 11.8962 32.5384 11.5452C32.671 11.2137 32.8153 10.8783 32.9947 10.5936C33.3457 9.99686 33.7786 9.50156 34.2739 9.08816C34.7653 8.66696 35.3269 8.32376 35.9704 8.07806C36.7426 7.77386 37.7293 7.83236 38.5951 8.17946C39.0124 8.33936 39.2932 8.69036 39.4063 9.08816C39.5194 9.48596 39.4648 9.95786 39.3049 10.4181C39.0709 11.0889 38.599 11.6505 38.2675 12.1497C38.1115 12.3681 37.9204 12.7308 37.9867 12.6021C37.9945 12.5787 37.9789 12.6255 37.9828 12.6177C37.9555 12.6996 37.9399 12.957 38.0023 13.1949C38.0101 13.23 38.0179 13.2651 38.0296 13.2963C38.0335 13.3119 38.0413 13.3275 38.0452 13.3431L38.053 13.3665C38.053 13.3665 38.0335 13.3158 38.0179 13.3158C37.9867 13.2924 37.9477 13.2885 37.9048 13.2924C37.8229 13.3041 37.7605 13.3665 37.7566 13.4055C37.7488 13.4133 37.7605 13.4211 37.7644 13.4289C37.7878 13.4445 37.7176 13.4133 37.6786 13.4016L37.5577 13.3743C37.5577 13.3743 37.5226 13.3704 37.5031 13.3704H37.4953C38.2363 13.4211 37.702 13.386 37.8658 13.3977H37.8736L37.8892 13.4133C37.9594 13.464 38.0608 13.4913 38.1934 13.4991C38.3494 13.5186 38.5678 13.4445 38.4898 13.6551C38.3806 14.01 38.6263 14.283 38.8798 14.4039C39.1333 14.5365 39.379 14.5404 39.6988 14.6691C39.9367 14.7627 40.2019 14.7471 40.4281 14.6925C40.6582 14.6379 40.8454 14.5404 41.0092 14.4741C41.1574 14.4117 41.2744 14.3454 41.3797 14.2557C41.3953 14.2362 41.4499 14.1972 41.4499 14.1972C41.4577 14.1894 41.4811 14.1894 41.4967 14.1816C41.5045 14.166 41.524 14.1543 41.5435 14.1387C41.5513 14.1153 41.563 14.0919 41.5825 14.0646C41.6917 13.8228 41.5825 13.2963 41.3524 12.996C41.2588 12.8868 41.2471 12.7152 41.1886 12.4227C41.1301 12.1458 40.9975 11.6934 40.588 11.202C40.2214 10.7379 39.6481 9.54446 40.2682 9.10766C40.471 8.95166 40.7089 8.85026 40.9624 8.76056C41.2198 8.66306 41.4811 8.61626 41.7541 8.59286C42.0349 8.56166 42.2962 8.57726 42.5653 8.60846C42.8422 8.63576 43.0879 8.70206 43.3375 8.78786C44.1526 9.06476 44.722 9.68876 45.1744 10.2621C45.1978 10.2465 45.2212 10.2309 45.2485 10.2114L45.2407 10.1919Z" fill="white" fill-opacity="0.2"/>
<path d="M-3.46981 25.7175C-3.3177 26.0217 -3.10321 26.1504 -2.93551 26.2089C-2.84191 26.244 -2.7561 26.2401 -2.76 26.2947C-2.7834 26.4351 -2.80681 26.6106 -2.69371 26.8251C-2.63911 26.9265 -2.54161 27.0435 -2.40121 27.1332C-2.32711 27.2034 -2.27641 27.2502 -2.21011 27.2814C-2.13211 27.3165 -2.0658 27.336 -2.019 27.3399C-1.9761 27.3516 -1.9449 27.3399 -1.9449 27.3399C-1.9371 27.336 -2.01121 27.3399 -2.10871 27.3828C-2.13601 27.3945 -2.2842 27.2268 -2.4441 27.0708C-2.5962 26.9148 -3.0486 26.3337 -3.6375 25.5732C-4.4994 24.4656 -5.34961 23.2332 -5.38861 22.8237C-5.41591 22.5702 -5.29891 22.4922 -5.14291 22.4961C-4.42531 22.5156 -3.99241 22.2192 -3.38011 21.5484C-3.21241 21.3651 -3.0057 21.096 -2.7483 21.2598C-1.9722 21.7941 -1.27021 21.4314 -0.455112 21.9969C0.118187 22.4298 0.64079 22.7574 0.94889 23.2722C1.21409 23.7246 1.36619 24.2121 1.42469 24.723C1.47929 25.2339 1.43639 25.7877 1.22969 26.3298C1.07369 26.7588 0.391187 27.0708 -0.626713 26.4624C-1.09081 26.1894 -1.99951 25.2573 -2.29591 25.1598C-2.69371 24.9999 -3.04471 25.0779 -3.26701 25.23C-3.45031 25.3704 -3.3801 25.5693 -3.384 25.7097C-3.4152 25.7097 -3.44251 25.7097 -3.46981 25.7097V25.7175Z" fill="white" fill-opacity="0.2"/>
<path d="M18.5801 86.0583C18.662 86.1987 18.7205 86.3547 18.74 86.5107C18.7478 86.5926 18.7595 86.6862 18.6854 86.7135C18.584 86.7486 18.4397 86.8344 18.3227 86.9553C18.2018 87.0684 18.0809 87.2634 18.0068 87.4272C17.8547 87.7782 17.8391 88.0668 17.882 88.254C17.9054 88.371 17.9483 88.4607 18.0068 88.5504C18.0302 88.5855 18.0926 88.6518 18.1004 88.6596C18.1199 88.6791 18.1316 88.6908 18.1433 88.6986C18.1862 88.7259 18.1199 88.6557 17.9249 88.566C17.8703 88.5387 17.8742 88.3086 17.8703 88.0707C17.8703 87.8406 18.0575 87.1308 18.35 86.2104C18.7751 84.8727 19.3328 83.4804 19.5941 83.1996C19.7618 83.0202 19.8671 83.0592 19.9412 83.1801C20.2961 83.7417 20.846 83.8743 21.8366 84.0186C21.9731 84.0381 22.1291 84.0537 22.2617 84.1083C22.3943 84.1668 22.523 84.2799 22.5425 84.4476C22.6166 84.9897 22.7921 85.3485 22.9832 85.7463C23.1665 86.1324 23.3537 86.5809 23.2991 87.0957C23.2523 87.474 23.225 87.8562 23.1353 88.254C23.0456 88.6518 22.8818 89.0496 22.6478 89.3499C22.2149 89.9115 21.6611 90.2391 21.2087 90.3951C20.7446 90.5589 20.3585 90.5823 20.0153 90.5901C19.7423 90.5901 19.4069 90.2196 18.9935 89.1276C18.7985 88.6206 18.5255 87.3609 18.5216 87.0645C18.5216 86.6433 18.5216 86.3664 18.5294 86.1987C18.5294 86.0583 18.5957 86.148 18.6113 86.1441C18.5996 86.1168 18.5918 86.0895 18.5801 86.0622V86.0583Z" fill="white" fill-opacity="0.2"/>
<path d="M2.14939 146.13C1.56829 145.865 1.10029 145.502 0.698593 145.132C0.487993 144.929 0.30469 144.719 0.0745904 144.574C-0.55331 144.2 -1.16561 143.697 -1.63361 142.96C-1.86371 142.589 -2.05871 142.172 -2.17571 141.712C-2.29271 141.228 -2.33561 140.822 -2.31221 140.397C-2.26931 139.34 -1.87541 138.428 -1.45031 137.765C-1.01741 137.082 -0.541607 136.595 -0.0931067 136.17C0.0433934 136.041 0.328089 136.076 0.597189 136.131C0.862389 136.181 1.42009 136.673 2.08699 137.363C3.05809 138.373 3.97069 139.567 4.09939 139.925C4.18129 140.156 4.10719 140.218 3.99019 140.218C3.43249 140.202 3.21018 140.604 3.56508 140.986C3.65868 141.092 3.87709 141.193 3.68209 141.107C3.36229 140.986 3.19459 140.947 3.08929 140.936H3.03079V140.932L2.57059 140.959H2.57838H2.59399L2.63299 140.947C2.68759 140.936 2.76169 140.908 2.84359 140.865C2.88259 140.846 2.91768 140.822 2.95668 140.795C2.97618 140.783 2.99179 140.772 3.00349 140.756L2.98399 140.776C2.85139 140.92 2.88649 141.251 2.99959 141.454C3.04639 141.524 3.05029 142.004 3.57679 143.053C3.81859 143.545 4.30218 144.746 4.13838 145.093C3.92778 145.584 3.54949 145.916 3.14779 146.084C2.80849 146.228 2.47308 146.091 2.15329 146.041C2.14548 146.068 2.14159 146.095 2.13379 146.126L2.14939 146.13Z" fill="white" fill-opacity="0.2"/>
</svg>
