<svg width="100" height="102" viewBox="0 0 100 102" fill="none" xmlns="http://www.w3.org/2000/svg">
<path d="M30.8683 18.7903C31.6843 20.1673 32.6443 21.4668 33.7683 22.5908C34.3283 23.1539 34.9183 23.6822 35.5503 24.1535C36.1823 24.6227 36.8443 25.0429 37.5363 25.404C38.1203 25.712 38.7303 25.9568 39.3483 26.1731L39.4143 26.1955C40.0743 26.4281 40.4263 27.1625 40.1983 27.8357C40.0823 28.1804 39.8343 28.4436 39.5343 28.5864C38.5063 29.0719 37.4683 29.5003 36.4743 29.9369C35.6083 30.3184 34.7763 30.6958 34.0043 31.1262C33.2303 31.5526 32.5243 32.0462 31.8663 32.6113C31.7023 32.7521 31.5383 32.8949 31.3843 33.0499L31.1483 33.2764C31.0723 33.3518 31.0203 33.4232 30.9563 33.4946C30.8323 33.6395 30.7023 33.77 30.5863 33.9516C30.4683 34.125 30.3423 34.28 30.2303 34.4677L29.8943 35.0267C29.7843 35.2164 29.6843 35.4204 29.5803 35.6162L29.4243 35.912L29.2803 36.2221L28.9923 36.8402C28.2603 38.5253 27.6543 40.3042 27.1463 42.1075C26.9023 43.0112 26.6643 43.919 26.4783 44.8289C26.2923 45.7346 26.1243 46.6506 26.0423 47.5156C25.9623 48.3622 25.2243 48.9823 24.3943 48.9007C23.7623 48.8375 23.2583 48.3866 23.0903 47.7991L23.0863 47.7808C22.7723 46.6751 22.5743 45.6245 22.3803 44.582L21.8383 41.4996C21.5423 39.8288 21.2263 38.1805 20.7883 36.6424C20.5643 35.8814 20.3023 35.1511 19.9963 34.5208L19.7543 34.0842C19.6583 33.9353 19.5523 33.7823 19.4523 33.6313C19.2363 33.3335 19.0123 33.0377 18.7603 32.7562C18.2663 32.189 17.7123 31.6525 17.1183 31.1486C16.5203 30.6509 15.8863 30.1837 15.2263 29.7492C13.9063 28.8822 12.4803 28.1478 11.0203 27.5664C10.2003 27.24 9.79434 26.2955 10.1163 25.4591C10.2803 25.0286 10.6043 24.7104 10.9923 24.5472L11.0063 24.5411C12.1603 24.0596 13.3123 23.5762 14.3863 23.007C15.4803 22.4603 16.4863 21.8197 17.4123 21.1078L18.0903 20.557L18.7123 19.9552C18.9303 19.7634 19.1063 19.5349 19.2963 19.3187C19.4783 19.0963 19.6863 18.8944 19.8423 18.6475L20.3443 17.9396C20.5023 17.6948 20.6403 17.4337 20.7903 17.1848L21.0123 16.8054C21.0803 16.6728 21.1403 16.5361 21.2043 16.4035L21.5863 15.5977C22.2403 14.0555 22.8123 12.399 23.3003 10.7262C23.4083 10.3223 23.5243 9.95508 23.6483 9.6246C23.7103 9.45936 23.7743 9.30228 23.8403 9.15336C23.8583 9.10848 23.8683 9.09828 23.8823 9.07788C23.8943 9.05952 23.9083 9.04116 23.9223 9.02484C23.9503 8.99016 23.9803 8.95752 24.0143 8.92488C24.1463 8.79432 24.3283 8.65968 24.5043 8.472C24.6823 8.28636 24.8483 8.05584 24.9803 7.81308C25.3643 7.09296 25.4163 6.66252 25.6623 6.942C25.7223 7.0134 25.7943 7.13376 25.8743 7.32144C25.9543 7.50708 26.0403 7.76616 26.1023 8.09664C26.1643 8.42508 26.1943 8.82084 26.1803 9.23496C26.1763 9.33696 26.1703 9.44712 26.1643 9.543C26.1583 9.61236 26.1543 9.68376 26.1483 9.7572C26.1363 9.90408 26.1203 10.055 26.1003 10.2121C26.0523 10.6099 25.9943 11.0138 25.9303 11.4239C25.8623 11.8339 25.7583 12.246 25.6643 12.6601C25.4903 13.4904 25.1963 14.3146 24.9323 15.1102C24.7943 15.4692 24.6423 15.8242 24.4983 16.1812L24.2803 16.7156L24.0243 17.2379C23.8483 17.5847 23.6883 17.9376 23.4983 18.2762L22.8963 19.282C22.0423 20.5957 21.0083 21.8014 19.8383 22.8254L18.9383 23.5578C18.6323 23.7904 18.3143 23.9984 18.0003 24.2208C17.6903 24.4493 17.3643 24.6349 17.0403 24.8308C16.7163 25.0246 16.3963 25.2306 16.0643 25.3958L15.0783 25.9222L14.0823 26.4036L13.5843 26.6423L13.0843 26.8646L12.0823 27.3114L12.0703 24.7777C13.5963 25.3469 15.0643 26.0384 16.4763 26.8626C17.3943 27.3991 18.3103 27.9968 19.1683 28.6904C20.0263 29.382 20.8243 30.1715 21.4763 31.065C21.6883 31.3751 21.9103 31.6709 22.1023 31.9993C22.2003 32.1646 22.3043 32.3094 22.3963 32.493L22.6703 33.0275C22.7703 33.207 22.8243 33.3804 22.9023 33.5579C22.9723 33.7333 23.0523 33.9108 23.1123 34.0842C23.2243 34.431 23.3603 34.7819 23.4523 35.1246C23.8603 36.5036 24.1363 37.8582 24.3903 39.2005C24.6403 40.5428 24.8563 41.875 25.0783 43.1846C25.3023 44.4902 25.5263 45.7938 25.8343 46.9709L23.1883 47.2075C23.3083 46.1345 23.5183 45.139 23.7543 44.1475C24.0403 42.9643 24.3703 41.8056 24.7363 40.653C25.1003 39.5004 25.4983 38.358 25.9583 37.2299C26.4183 36.1018 26.9103 34.9818 27.5423 33.8904C27.8603 33.3457 28.2003 32.8051 28.6103 32.2788C28.6603 32.2135 28.7063 32.1462 28.7623 32.0809L28.9363 31.8871L29.2883 31.5036C29.4063 31.3751 29.5203 31.2833 29.6383 31.1731C29.7563 31.067 29.8683 30.9569 29.9903 30.8569C30.6283 30.3 31.3263 29.8043 32.0483 29.3698C32.7703 28.9352 33.5143 28.5701 34.2503 28.2437C35.7263 27.595 37.1503 27.0646 38.5063 26.4138L38.6643 28.4681C37.3443 28.0356 36.0923 27.4216 34.9363 26.6749C33.7863 25.9181 32.7343 25.0307 31.7803 24.0556C30.8323 23.0743 29.9863 22.0013 29.2363 20.867C28.4883 19.7348 27.8563 18.5088 27.3243 17.2726C26.6463 15.6834 26.1763 14.08 25.8723 12.5234C25.5643 10.9669 25.4243 9.45324 25.4223 8.01708C25.4243 7.47648 25.5383 7.15008 25.7043 7.06032L25.5223 7.52952C25.4783 7.57032 25.4123 7.60704 25.3463 7.62336C25.2803 7.63968 25.2183 7.63968 25.1743 7.6356C25.0843 7.6254 25.0503 7.61316 25.0423 7.6254C25.0383 7.6356 25.0623 7.67436 25.1623 7.71312C25.2123 7.73148 25.2843 7.7478 25.3683 7.73964C25.4523 7.73352 25.5443 7.70292 25.6123 7.66008L25.8563 7.02972C26.0723 7.0542 26.3263 7.39896 26.5423 8.06604C27.1883 10.0652 27.8563 12.1338 28.6363 14.1024C29.2723 15.7181 29.9363 17.3521 30.8183 18.7924C30.8323 18.7883 30.8463 18.7842 30.8643 18.7801L30.8683 18.7903Z" fill="white" fill-opacity="0.2"/>
<path d="M65.7676 39.5492C66.0376 40.3489 66.3256 41.1425 66.6256 41.9238C66.7016 42.1156 66.7776 42.3196 66.8536 42.4991C66.9296 42.6684 66.9956 42.8438 67.0796 43.0111C67.2416 43.3457 67.4196 43.6741 67.6176 43.9883C68.4116 45.251 69.5156 46.3322 70.8216 47.1768C71.9336 47.9132 73.1916 48.4844 74.4996 48.9169C75.1596 49.1352 75.5196 49.8574 75.3076 50.5285C75.2036 50.857 74.9816 51.112 74.7076 51.2629L74.6736 51.2813C74.3976 51.4322 74.1176 51.5689 73.8516 51.7403C72.3176 52.6807 70.9396 53.9516 69.7416 55.3776C68.5416 56.8056 67.5216 58.4029 66.7016 60.088C65.8836 61.773 65.2616 63.5539 64.9336 65.3593C64.6076 67.1606 64.5756 68.9946 64.9796 70.6592L62.0056 71.2794C61.6916 69.5087 61.3856 67.7502 61.0136 66.0305C60.6796 64.4821 60.2996 62.9582 59.8236 61.4854C59.3456 60.0145 58.7736 58.5926 58.0776 57.2544C57.9016 56.9239 57.7156 56.5934 57.5316 56.2711C57.3436 55.957 57.1496 55.6489 56.9416 55.3552C56.5276 54.7636 56.0756 54.2148 55.5876 53.7334C54.6096 52.7664 53.4796 52.1197 52.3216 51.9626C51.4496 51.8443 50.8356 51.0263 50.9516 50.1368C51.0196 49.6207 51.3156 49.1944 51.7216 48.9496L51.7336 48.9434C52.7916 48.3151 53.7696 47.5664 54.6156 46.6729C54.8356 46.4587 55.0276 46.216 55.2336 45.9875C55.4236 45.7427 55.6236 45.5081 55.8016 45.2531C56.1716 44.7553 56.5016 44.2208 56.8076 43.67C58.0356 41.4628 58.7716 38.9168 59.2316 36.3016C59.5296 34.59 59.8176 32.8315 60.0276 31.0832C60.1256 30.2468 60.2716 29.5553 60.4536 28.9882C60.5436 28.7046 60.6456 28.4516 60.7556 28.2272C60.8096 28.0477 60.8816 27.8478 60.9676 27.6989C61.0536 27.5438 61.1496 27.4296 61.2276 27.3582C61.6756 27.0094 61.3316 27.6234 61.8656 28.1212C61.9956 28.2334 62.1856 28.2721 62.3096 28.2538C62.3716 28.2517 62.4176 28.2293 62.4476 28.2456C62.4756 28.3415 62.5036 28.4414 62.5276 28.5496C62.6316 28.98 62.6996 29.5124 62.7216 30.1367C62.7756 31.7177 62.6516 33.4537 62.3956 35.0837C62.1496 36.6524 61.8336 38.2151 61.3996 39.7614C61.1816 40.5325 60.9396 41.3016 60.6536 42.0564C60.3716 42.8132 60.0556 43.5619 59.6916 44.2902C58.9736 45.7508 58.0676 47.1421 56.9756 48.3804C56.4256 48.9965 55.8356 49.5758 55.2036 50.1103C54.5676 50.6366 53.8976 51.1181 53.1996 51.5546L52.6976 48.9781C54.1476 49.1434 55.5136 49.7452 56.6376 50.5571C57.5836 51.2364 58.4236 52.0544 59.1236 52.9418C59.4796 53.3845 59.7976 53.8456 60.0856 54.3168L60.2956 54.6718C60.3596 54.7901 60.4216 54.9084 60.4856 55.0267C60.6076 55.2634 60.7336 55.498 60.8416 55.7366C61.9716 58.1744 62.7576 60.704 63.3756 63.2275C63.9916 65.7551 64.4356 68.2867 64.8436 70.7837L64.8476 70.8082C64.9696 71.5609 64.4716 72.2749 63.7316 72.3994C63.0196 72.5197 62.3436 72.0485 62.1856 71.3386C61.8816 69.9595 61.7996 68.5601 61.9096 67.2035C62.1216 64.6616 62.8256 62.2422 63.8276 59.988C64.8396 57.7379 66.1556 55.6408 67.7616 53.7864C69.3976 51.9014 71.3416 50.2409 73.6416 49.1087L73.7956 51.214C73.0676 50.9569 72.3416 50.6917 71.6356 50.3551C70.9276 50.0328 70.2376 49.6534 69.5716 49.227C68.9036 48.8068 68.2716 48.3151 67.6776 47.7786C67.0836 47.2421 66.5336 46.6444 66.0536 45.9916C65.5716 45.3408 65.1516 44.6411 64.8096 43.9046C64.7296 43.721 64.6376 43.5313 64.5656 43.3538L64.3516 42.8255C64.2096 42.4726 64.0756 42.1196 63.9416 41.7647C63.4116 40.3469 62.9256 38.9189 62.4856 37.4705C61.9956 35.8548 61.6176 34.2452 61.4156 32.6683C61.2196 31.0975 61.1796 29.5369 61.4856 28.1293C61.5816 27.7682 61.7016 27.5275 61.8276 27.4133L61.7996 27.2521C61.7876 27.1787 61.7496 27.091 61.6936 27.0216C61.6376 26.9502 61.5736 26.9012 61.5236 26.8666C61.4236 26.7972 61.3716 26.7605 61.3616 26.7197C61.3556 26.683 61.3816 26.632 61.5416 26.6197C61.6196 26.6156 61.7436 26.632 61.8816 26.7074C62.0196 26.7788 62.1476 26.9114 62.2256 27.0359L62.3016 27.4643C62.3676 27.5479 62.4236 27.6703 62.4696 27.8254C62.5176 27.9824 62.5356 28.166 62.5776 28.4068C62.6156 28.6475 62.6336 28.8821 62.6856 29.1289C62.7316 29.3737 62.7776 29.6206 62.8256 29.8674C62.9416 30.3672 63.0476 30.867 63.1856 31.375C63.4476 32.3868 63.7476 33.4129 64.0736 34.4329C64.6016 36.1098 65.1136 37.8581 65.7336 39.5431C65.7496 39.5431 65.7636 39.5431 65.7816 39.5431L65.7676 39.5492Z" fill="white" fill-opacity="0.2"/>
<path d="M39.8878 69.4558C40.3838 70.9062 41.2238 72.1282 42.4298 73.0013C42.5418 73.0972 42.6738 73.1686 42.7998 73.2461L43.1818 73.4807C43.4498 73.6194 43.7298 73.7377 44.0058 73.8642L44.1038 73.9091C44.7318 74.1967 45.0118 74.9474 44.7298 75.588C44.5898 75.9083 44.3298 76.1408 44.0318 76.2571C43.8118 76.3428 43.5938 76.4285 43.3818 76.5182C42.9418 76.7039 42.5238 76.8895 42.1538 77.0894C41.7838 77.2914 41.4598 77.5036 41.1698 77.7565C40.5938 78.2584 40.0858 78.956 39.6578 79.717C39.2338 80.482 38.8858 81.3061 38.6778 82.1119C38.4658 82.9096 38.4238 83.7154 38.5838 84.207L35.6518 84.9557C35.4258 83.9479 35.1858 82.9687 34.8918 82.0385C34.4398 80.6105 33.8478 79.2988 33.0138 78.2461C32.1818 77.1874 31.1158 76.3816 29.9798 76.0694C29.1318 75.8369 28.6318 74.9474 28.8598 74.0825C28.9718 73.6602 29.2378 73.3216 29.5798 73.1135L29.6518 73.0706L30.0398 72.836L30.2338 72.7198L30.4178 72.5851L30.7898 72.3179L31.1418 72.016L31.3178 71.865L31.4838 71.6998L31.8178 71.3672L32.1298 71.0082L32.2858 70.8287C32.3358 70.7675 32.3838 70.7002 32.4318 70.6369C33.2218 69.621 33.8758 68.45 34.3898 67.1934C34.7198 66.4039 35.1078 65.6104 35.4418 64.7984C35.6118 64.4149 35.7978 64.1048 36.0338 63.8682C36.2598 63.6275 36.5178 63.4541 36.7958 63.3337C37.1998 63.1583 37.5658 63.2236 37.8178 63.5092C38.0678 63.7927 38.2158 64.3007 38.1398 64.9637C38.0478 65.8021 37.7878 66.6916 37.4418 67.4933C37.2818 67.8931 37.0898 68.2848 36.9138 68.6785L36.6238 69.2599L36.4778 69.5496L36.3198 69.8352C35.9158 70.6022 35.4398 71.3407 34.9298 72.0547C34.4178 72.7708 33.8258 73.4399 33.1898 74.0723C32.5398 74.6945 31.8158 75.2494 31.0358 75.739L30.7518 73.1543C31.3698 73.2971 31.9698 73.5174 32.5338 73.7969C33.6478 74.3395 34.6958 75.1392 35.3498 76.1184C35.7938 76.7671 36.1738 77.4526 36.5058 78.136C36.8378 78.8194 37.1138 79.515 37.3598 80.2086C37.8438 81.5999 38.1838 82.9912 38.4458 84.3539L38.4518 84.3886C38.5958 85.1352 38.1198 85.8614 37.3878 86.0083C36.6898 86.1491 36.0098 85.7105 35.8218 85.023C35.6278 84.307 35.6218 83.6236 35.6938 82.9952C35.7798 82.2588 35.9598 81.5815 36.1798 80.9389C36.4018 80.2963 36.6698 79.6864 36.9758 79.0968C37.2818 78.5093 37.6258 77.9442 38.0258 77.4016C38.4278 76.861 38.8798 76.3387 39.4338 75.8818C40.0178 75.3901 40.6898 75.0066 41.3258 74.7271C41.9678 74.4395 42.5738 74.2294 43.1658 74.0111L43.1898 76.1306C41.6698 75.5309 40.2398 74.5394 39.1758 73.2359C39.0478 73.0706 38.9278 72.8993 38.8038 72.73L38.6218 72.475C38.5658 72.3872 38.5158 72.2975 38.4618 72.2077L38.1478 71.6712L37.8818 71.1143L37.7498 70.8368L37.6398 70.5533L37.4218 69.9841L37.2438 69.4068C37.1838 69.215 37.1258 69.0233 37.0838 68.8274C37.0298 68.6071 36.9798 68.3868 36.9358 68.1685C36.9018 67.9502 36.8698 67.732 36.8438 67.5157C36.8138 67.2995 36.7998 67.0853 36.7938 66.8731C36.7858 66.661 36.7798 66.4508 36.7838 66.2428C36.8118 65.4104 36.9358 64.6189 37.1898 63.8804C37.4198 63.2011 38.0858 63.2195 38.2838 63.9518C38.5698 64.9902 38.8238 66.051 39.1078 67.0547C39.3338 67.8809 39.5198 68.7152 39.8338 69.468C39.8478 69.4639 39.8618 69.4619 39.8778 69.4578L39.8878 69.4558Z" fill="white" fill-opacity="0.2"/>
<path d="M86.4298 18.9539C86.6098 19.5904 86.8558 20.2003 87.1418 20.7858C87.2178 20.9286 87.2818 21.0816 87.3678 21.2183L87.6138 21.6385C87.7938 21.9037 87.9698 22.1791 88.1738 22.4239C88.4678 22.8074 88.8098 23.1461 89.1698 23.4582L89.1858 23.4725C89.7258 23.9396 89.7938 24.7638 89.3358 25.3166C89.2638 25.4044 89.1758 25.4839 89.0878 25.5472C88.9298 25.6594 88.7718 25.7736 88.6178 25.8899C87.6178 26.7385 86.7918 27.8605 86.2178 29.1029C85.9278 29.721 85.6938 30.3677 85.5378 31.0103C85.5038 31.1694 85.4578 31.3306 85.4378 31.4876C85.4118 31.6447 85.3818 31.8038 85.3718 31.9528L85.3498 32.1772V32.3852L85.3438 32.4893C85.3438 32.5219 85.3498 32.5505 85.3518 32.579C85.3578 32.6382 85.3618 32.6974 85.3638 32.7565L85.3678 32.8279C85.4038 33.6704 84.7638 34.3865 83.9378 34.4232C83.2718 34.4538 82.6858 34.0315 82.4658 33.4277C82.2538 32.8422 82.0738 32.2588 81.9218 31.712C81.7678 31.1674 81.6298 30.6349 81.4758 30.1616C81.4398 30.0413 81.4018 29.925 81.3618 29.8169C81.3218 29.7067 81.2858 29.5925 81.2438 29.4864C81.1558 29.2824 81.0758 29.0682 80.9758 28.8907C80.8878 28.6949 80.7738 28.5378 80.6738 28.3644C80.6178 28.2848 80.5558 28.2134 80.4998 28.1359L80.4138 28.0217L80.3138 27.9217C79.8058 27.377 79.1118 26.965 78.2558 26.6855C77.4218 26.4142 76.9618 25.5043 77.2278 24.6536C77.3498 24.262 77.6058 23.9519 77.9258 23.756L78.0038 23.7091L78.3958 23.4704C78.4618 23.4296 78.5278 23.3929 78.5918 23.3521L78.7738 23.2154C78.8938 23.1236 79.0218 23.04 79.1398 22.9441L79.4798 22.6442C79.9138 22.222 80.3278 21.7711 80.6538 21.2366C80.9878 20.7124 81.2838 20.1473 81.5078 19.5353C81.6358 19.2395 81.7178 18.9151 81.8238 18.603L81.9478 18.1175L82.0098 17.8747L82.0578 17.6258C82.2098 16.9424 82.3958 16.2346 82.5718 15.5246C82.6078 15.3533 82.6618 15.1982 82.7278 15.0554C82.7978 14.9004 82.8678 14.8433 82.9738 14.5332C83.0818 14.2904 83.2218 14.1007 83.3598 13.9885C83.4978 13.8743 83.6258 13.8294 83.7298 13.8294C84.0318 13.8396 84.1038 14.2619 84.4018 14.6046C84.5418 14.776 84.7578 14.9106 84.9498 14.9167C85.0438 14.9228 85.1198 14.9024 85.1658 14.8841L85.1738 14.88C85.1738 14.88 85.1798 14.88 85.1798 14.8902L85.1918 14.9371C85.1978 14.9677 85.2058 15.0004 85.2118 15.033C85.2238 15.0983 85.2338 15.1656 85.2418 15.237C85.2598 15.4145 85.2718 15.5981 85.2778 15.7817C85.2778 15.9673 85.2678 16.155 85.2538 16.3427C85.2338 16.718 85.1618 17.0954 85.0878 17.4606C84.8978 18.297 84.6898 19.1314 84.3918 19.9514C84.0998 20.7695 83.7638 21.5814 83.3178 22.3505C82.4598 23.8988 81.2138 25.2962 79.7058 26.306C79.6198 26.3652 79.5358 26.4264 79.4478 26.4856L79.2118 23.701C79.6478 23.8356 80.0958 23.9376 80.5298 24.1559C80.7478 24.2558 80.9618 24.3558 81.1638 24.5006C81.2658 24.568 81.3638 24.6373 81.4618 24.7108C81.5598 24.7801 81.6538 24.8556 81.7398 24.9454C82.3318 25.4839 82.8318 26.1367 83.2298 26.8038C83.6318 27.477 83.9058 28.1767 84.1218 28.8397C84.3398 29.5027 84.5078 30.1494 84.6618 30.7512C84.8178 31.353 84.9698 31.9222 85.1318 32.4566L82.5438 33.0544C82.5378 32.7892 82.5218 32.5056 82.5518 32.2669C82.5978 31.6304 82.7238 31.0633 82.8738 30.5064L82.9898 30.0943L83.1258 29.6924C83.2118 29.4211 83.3218 29.1661 83.4238 28.905C83.8498 27.8707 84.4058 26.9017 85.0898 26.0225C85.8458 25.0616 86.7498 24.1967 87.8058 23.5337L87.7338 25.3778C86.6738 24.4823 85.7938 23.4011 85.1478 22.2179L84.9058 21.7732L84.6898 21.3182L84.5818 21.0918L84.4878 20.8592L84.2998 20.3941C84.0738 19.7678 83.8698 19.1354 83.7238 18.4908C83.3678 17.0098 83.4458 15.5226 84.0158 14.3068C84.0918 14.1436 84.2038 14.0314 84.3258 13.9783C84.3478 13.9681 84.3578 13.9436 84.3478 13.9212C84.3478 13.9171 84.3438 13.913 84.3398 13.909L84.1558 13.7029C84.0798 13.6172 83.9418 13.5724 83.8578 13.556C83.7698 13.5377 83.7178 13.5234 83.6978 13.4887C83.6798 13.4561 83.6898 13.399 83.7898 13.3316C83.8398 13.299 83.9178 13.2643 84.0218 13.2521C84.1238 13.2378 84.2478 13.2521 84.3578 13.2868L84.7818 13.9783C84.9258 14.0477 85.0478 14.1905 85.1058 14.4026C85.3398 15.2492 85.5618 16.104 85.8058 16.9302C86.0038 17.6075 86.1478 18.3113 86.3838 18.9743C86.3978 18.9702 86.4118 18.9682 86.4278 18.9641L86.4298 18.9539Z" fill="white" fill-opacity="0.2"/>
<path d="M82.2857 80.7492C82.3237 80.9165 82.3617 81.0899 82.4037 81.249C82.4237 81.3327 82.4457 81.4082 82.4657 81.4775C82.4857 81.5489 82.5057 81.6224 82.5317 81.6917C82.6257 81.9753 82.7437 82.2568 82.8857 82.5159C83.1697 83.0381 83.5417 83.4992 83.9737 83.8317C84.2137 84.0132 84.4717 84.1581 84.7457 84.2499L84.8337 84.2805C85.4877 84.5008 85.8437 85.2209 85.6257 85.888C85.5237 86.2022 85.3097 86.451 85.0477 86.6C84.7677 86.7591 84.5037 86.9406 84.2657 87.1528C83.7717 87.5955 83.3597 88.134 82.9717 88.7603C82.7777 89.0724 82.5877 89.407 82.3957 89.7558L82.1017 90.2903C82.0117 90.4576 81.9357 90.6004 81.8617 90.7616C81.5677 91.3878 81.3537 92.0406 81.2637 92.6812C81.1697 93.3218 81.1937 93.9399 81.3377 94.5009L78.4037 95.1496C78.1737 94.0929 77.9277 93.0708 77.6077 92.1141C77.2257 90.9656 76.7397 89.915 76.0837 89.0378C75.4297 88.1565 74.6217 87.4506 73.7317 87.061C72.9257 86.706 72.5517 85.7513 72.8997 84.9292C73.0537 84.564 73.3237 84.2866 73.6477 84.1214L73.7237 84.0826L74.0857 83.897L74.2677 83.8072L74.4397 83.6991L74.7837 83.4828L75.1077 83.234L75.2717 83.1116L75.4237 82.9708L75.7277 82.6934L76.0077 82.3853C76.0537 82.3343 76.1037 82.2854 76.1477 82.2323L76.2757 82.065C76.3617 81.9528 76.4497 81.8447 76.5337 81.7305L76.7697 81.3735C76.8517 81.2572 76.9217 81.1307 76.9917 81.0042C77.0617 80.8778 77.1357 80.7533 77.2017 80.6248C77.3217 80.3576 77.4617 80.1026 77.5617 79.821C77.6157 79.6823 77.6717 79.5477 77.7237 79.4069L77.8617 78.9806C78.0657 78.3012 78.3377 77.6178 78.5317 76.9079C78.6317 76.5734 78.7657 76.2837 78.9577 76.0695C79.0337 76.1103 79.1857 76.2041 79.3817 76.1878C79.5777 76.1756 79.7577 76.0348 79.8477 75.8573C80.1037 75.3208 79.8877 74.8802 80.1817 74.8271C80.2557 74.819 80.3737 74.8434 80.5317 74.9597C80.6877 75.0719 80.8737 75.2984 80.9817 75.5819C81.0377 75.7227 81.0757 75.8696 81.1017 76.0124C81.1117 76.0776 81.1217 76.1429 81.1317 76.2102C81.1397 76.2408 81.1477 76.2714 81.1557 76.3041C81.1857 76.4326 81.2057 76.5713 81.2157 76.7223C81.2497 77.1038 81.2097 77.5016 81.1657 77.8994C81.1357 78.0972 81.0937 78.2951 81.0517 78.491C81.0297 78.5889 81.0077 78.6868 80.9837 78.7827C80.9537 78.8786 80.9257 78.9744 80.8977 79.0683C80.4197 80.6493 79.7217 82.1711 78.7437 83.54C78.2537 84.2234 77.6777 84.8496 77.0457 85.4229C76.4037 85.99 75.6857 86.4653 74.9257 86.8794L74.9177 84.254C75.2457 84.3845 75.5737 84.5232 75.8837 84.6905C76.8477 85.1924 77.7677 85.9002 78.3277 86.7693C79.9597 89.2907 80.7457 92.008 81.1897 94.5825L81.2037 94.66C81.3317 95.4026 80.8457 96.1125 80.1157 96.243C79.3957 96.3716 78.7097 95.8881 78.5677 95.1618C78.5057 94.8456 78.4617 94.5254 78.4477 94.2092C78.3837 92.9097 78.6417 91.6673 79.0777 90.5494C79.2957 89.9904 79.5637 89.4498 79.8657 88.95C80.1317 88.5094 80.4057 88.0484 80.7157 87.5853C81.1017 87.008 81.5437 86.4204 82.0717 85.89C82.5937 85.3556 83.2057 84.8986 83.8437 84.5314L84.1057 86.5653C83.3777 86.3327 82.7177 85.9451 82.1717 85.4616C81.6217 84.9802 81.1777 84.4131 80.8237 83.8113C80.6437 83.5094 80.4937 83.1952 80.3557 82.8749C80.2257 82.5567 80.1077 82.214 80.0237 81.9039C79.8457 81.2735 79.7157 80.6574 79.6017 80.0373C79.4637 79.2764 79.4037 78.5277 79.4497 77.7994C79.4957 77.0732 79.6417 76.3632 79.9397 75.7349C80.0077 75.5982 80.0977 75.4983 80.1977 75.4412L80.1937 75.4738C80.2137 75.4983 80.2137 75.5574 80.1837 75.6105C80.1537 75.6656 80.1017 75.7064 80.0637 75.7329C79.9837 75.7859 79.9417 75.8165 79.9357 75.8675C79.9357 75.9124 79.9557 75.992 80.1237 76.0246C80.2057 76.0389 80.3437 76.0246 80.4817 75.9328C80.6197 75.8451 80.7177 75.6921 80.7557 75.5799L80.7677 75.4656C80.8877 75.5432 80.9777 75.6696 81.0257 75.8553C81.2537 76.7141 81.4937 77.6138 81.7317 78.5093C81.9277 79.2498 82.0377 80.0332 82.2377 80.7554C82.2517 80.7533 82.2657 80.7513 82.2817 80.7492H82.2857Z" fill="white" fill-opacity="0.2"/>
</svg>
