<svg preserveAspectRatio="none" width="100%" height="100%" overflow="visible" style="display: block;" viewBox="0 0 14 14" fill="none" xmlns="http://www.w3.org/2000/svg">
<g id="SVG">
<path id="Vector" opacity="0.9" d="M7 12C7 12 1.5 8.5 1.5 5C1.64612 4.44349 1.92719 3.93159 2.31832 3.50961C2.70946 3.08763 3.19859 2.76858 3.74243 2.58071C4.28626 2.39284 4.86803 2.34194 5.43623 2.43252C6.00443 2.52309 6.54153 2.75235 7 3.1C7.45847 2.75235 7.99557 2.52309 8.56377 2.43252C9.13197 2.34194 9.71374 2.39284 10.2576 2.58071C10.8014 2.76858 11.2905 3.08763 11.6817 3.50961C12.0728 3.93159 12.3539 4.44349 12.5 5C12.5 8.5 7 12 7 12Z" fill="var(--fill-0, white)"/>
</g>
</svg>
