<svg width="69" height="17" viewBox="0 5 69 17" fill="none" xmlns="http://www.w3.org/2000/svg">
<path fill-rule="evenodd" clip-rule="evenodd" d="M7.9998 5.7998C4.02335 5.7998 0.799805 9.02335 0.799805 12.9998C0.799805 16.9763 4.02335 20.1998 7.9998 20.1998C11.9763 20.1998 15.1998 16.9763 15.1998 12.9998C15.1998 9.02335 11.9763 5.7998 7.9998 5.7998ZM11.0746 11.1667C11.2772 10.9045 11.2289 10.5276 10.9667 10.325C10.7045 10.1224 10.3277 10.1707 10.125 10.4329L7.16473 14.2639L5.84578 12.7984C5.62411 12.5521 5.24473 12.5322 4.99843 12.7538C4.75212 12.9755 4.73215 13.3549 4.95383 13.6012L6.75383 15.6012C6.87286 15.7334 7.04446 15.806 7.22228 15.7994C7.40009 15.7927 7.56577 15.7075 7.67457 15.5667L11.0746 11.1667Z" fill="#387440"/>
<path d="M29.2988 17.6162C28.7588 17.6162 28.4102 17.3018 28.4102 16.8027C28.4102 16.666 28.4443 16.4746 28.5264 16.2627L31.3906 8.47656C31.6299 7.82031 32.0264 7.51953 32.6689 7.51953C33.3184 7.51953 33.7148 7.80664 33.9609 8.46973L36.832 16.2627C36.9141 16.4883 36.9482 16.6455 36.9482 16.8027C36.9482 17.2812 36.5791 17.6162 36.0664 17.6162C35.5879 17.6162 35.3213 17.3975 35.1641 16.8711L34.5146 14.9844H30.8301L30.1807 16.8574C30.0166 17.3906 29.7568 17.6162 29.2988 17.6162ZM31.2471 13.5898H34.084L32.6826 9.37891H32.6348L31.2471 13.5898ZM40.4857 17.6367C39.8568 17.6367 39.515 17.3838 39.2894 16.7686L37.2523 11.3682C37.1976 11.2178 37.1566 11.0469 37.1566 10.8828C37.1566 10.418 37.5189 10.1104 38.0111 10.1104C38.4144 10.1104 38.6879 10.3291 38.8177 10.7871L40.472 15.9209H40.5062L42.1605 10.7734C42.2904 10.3223 42.5638 10.1104 42.9603 10.1104C43.4388 10.1104 43.7875 10.4385 43.7875 10.876C43.7875 11.0332 43.7533 11.1973 43.6986 11.3408L41.6615 16.7686C41.4496 17.3633 41.0873 17.6367 40.4857 17.6367ZM46.8669 17.6162C45.4655 17.6162 44.447 16.7344 44.447 15.4287C44.447 14.1436 45.4382 13.3711 47.2019 13.2617L49.1228 13.1523V12.6328C49.1228 11.874 48.6101 11.4365 47.7693 11.4365C47.1062 11.4365 46.6755 11.6621 46.2517 12.2842C46.0739 12.5166 45.8484 12.626 45.5613 12.626C45.1443 12.626 44.8435 12.3525 44.8435 11.9424C44.8435 11.7852 44.8845 11.6348 44.9597 11.4775C45.3288 10.6367 46.4499 10.1035 47.8376 10.1035C49.6355 10.1035 50.8044 11.0537 50.8044 12.5098V16.7822C50.8044 17.3291 50.4558 17.6367 49.9773 17.6367C49.5124 17.6367 49.1911 17.3564 49.1638 16.8506V16.3447H49.1296C48.7126 17.1309 47.8034 17.6162 46.8669 17.6162ZM47.3864 16.3311C48.3435 16.3311 49.1228 15.6885 49.1228 14.8135V14.2598L47.4411 14.3623C46.6208 14.417 46.1491 14.7861 46.1491 15.3604C46.1491 15.9551 46.6482 16.3311 47.3864 16.3311ZM52.7901 15.709V11.5664H52.3321C51.9083 11.5664 51.6485 11.3135 51.6485 10.9033C51.6485 10.5 51.9083 10.2539 52.3321 10.2539H52.7901V9.29004C52.7901 8.74316 53.1182 8.40137 53.6446 8.40137C54.1641 8.40137 54.4923 8.74316 54.4923 9.29004V10.2539H55.2784C55.7022 10.2539 55.962 10.5 55.962 10.9033C55.962 11.3135 55.7022 11.5664 55.2784 11.5664H54.4923V15.3398C54.4923 15.8867 54.6837 16.126 55.1759 16.167L55.2989 16.1807C55.7501 16.2217 55.9825 16.4131 55.9825 16.8096C55.9825 17.3086 55.545 17.5752 54.7657 17.5752H54.6973C53.4327 17.5752 52.7901 16.9463 52.7901 15.709ZM59.1918 17.6162C57.7905 17.6162 56.7719 16.7344 56.7719 15.4287C56.7719 14.1436 57.7631 13.3711 59.5268 13.2617L61.4477 13.1523V12.6328C61.4477 11.874 60.935 11.4365 60.0942 11.4365C59.4311 11.4365 59.0004 11.6621 58.5766 12.2842C58.3989 12.5166 58.1733 12.626 57.8862 12.626C57.4692 12.626 57.1684 12.3525 57.1684 11.9424C57.1684 11.7852 57.2094 11.6348 57.2846 11.4775C57.6537 10.6367 58.7748 10.1035 60.1625 10.1035C61.9604 10.1035 63.1293 11.0537 63.1293 12.5098V16.7822C63.1293 17.3291 62.7807 17.6367 62.3022 17.6367C61.8373 17.6367 61.5161 17.3564 61.4887 16.8506V16.3447H61.4545C61.0375 17.1309 60.1284 17.6162 59.1918 17.6162ZM59.7114 16.3311C60.6684 16.3311 61.4477 15.6885 61.4477 14.8135V14.2598L59.7661 14.3623C58.9457 14.417 58.4741 14.7861 58.4741 15.3604C58.4741 15.9551 58.9731 16.3311 59.7114 16.3311ZM65.491 17.6367C64.9783 17.6367 64.6434 17.3018 64.6434 16.7412V10.9717C64.6434 10.4385 64.9715 10.1104 65.4568 10.1104C65.9285 10.1104 66.2635 10.4385 66.2635 10.9717V11.5254H66.2977C66.4959 10.6777 67.1248 10.1309 67.8494 10.1309C68.116 10.1309 68.3211 10.1992 68.451 10.3154C68.6082 10.4453 68.6902 10.6504 68.6902 10.9307C68.6902 11.1973 68.6082 11.3955 68.4373 11.5322C68.2732 11.6758 68.0203 11.751 67.6854 11.7578C66.7146 11.7646 66.3455 12.373 66.3455 13.2549V16.7412C66.3455 17.3018 66.0037 17.6367 65.491 17.6367Z" fill="#387440"/>
</svg>
