<svg width="97" height="97" viewBox="0 0 97 97" fill="none" xmlns="http://www.w3.org/2000/svg">
<rect width="96.72" height="96.72" rx="16" fill="#F8F8F4"/>
<g clip-path="url(#clip0_3296_4682)">
<path d="M48.5435 109.196C62.3143 109.196 73.4777 98.0331 73.4777 84.2623C73.4777 70.4915 62.3143 59.3281 48.5435 59.3281C34.7728 59.3281 23.6094 70.4915 23.6094 84.2623C23.6094 98.0331 34.7728 109.196 48.5435 109.196Z" fill="#0EA5E9"/>
<path d="M48.5438 76.329C56.0551 76.329 62.1443 69.7324 62.1443 61.5952C62.1443 53.4579 56.0551 46.8613 48.5438 46.8613C41.0325 46.8613 34.9434 53.4579 34.9434 61.5952C34.9434 69.7324 41.0325 76.329 48.5438 76.329Z" fill="#5D4037"/>
<path d="M36.0762 53.6614C44.3876 45.35 52.699 45.35 61.0103 53.6614C61.0103 48.3724 56.8546 44.2167 48.5433 41.1943C40.2319 44.2167 36.0762 48.3724 36.0762 53.6614Z" fill="#2E1A10"/>
<path d="M45.1436 68.3955C47.4103 69.9067 49.677 69.9067 51.9438 68.3955" stroke="#3C2415" stroke-width="1.36007" stroke-linecap="round"/>
</g>
<defs>
<clipPath id="clip0_3296_4682">
<rect width="63.47" height="63.47" fill="white" transform="translate(16.8086 29.8604)"/>
</clipPath>
</defs>
</svg>
