<svg width="1024" height="1024" viewBox="0 0 1024 1024" fill="none" xmlns="http://www.w3.org/2000/svg">
<path d="M553.5 423C591.332 423 622 387.183 622 343C622 298.817 591.332 263 553.5 263C515.668 263 485 298.817 485 343C485 387.183 515.668 423 553.5 423Z" fill="#8B5A3C"/>
<path d="M538.381 330.279C532.09 338.781 513.734 337.736 512.116 327.618C511.326 322.681 514.647 316.196 520.06 314.606C530.438 311.559 541.796 320.497 538.381 330.279ZM523.789 318.451C525.913 319.948 524.37 323.21 521.843 323.478C519.994 323.674 518.34 322.689 517.79 321.112C515.058 326.36 518.928 333.632 525.573 334.123C542.953 335.409 535.547 306.585 519.574 318.303C519.661 318.535 522.133 317.283 523.789 318.451Z" fill="#FDFDFD"/>
<path d="M580.333 298.07C590.127 297.287 600.308 303.118 606 314C601.175 312.428 596.493 309.632 591.493 308.89C587.48 308.295 571.719 309.987 570.066 308.89C562.656 303.975 577.333 298.31 580.333 298.07Z" fill="black"/>
<path d="M521.843 298.121C525.129 297.738 531.739 298.249 534.774 299.898C537.028 301.122 541.306 305.68 537.45 308.189C535.238 309.628 520.896 307.989 516.492 308.781C511.588 309.664 506.473 312.276 502 315C504.893 305.392 514.408 298.987 521.843 298.121Z" fill="black"/>
<path d="M578 365.496C573.089 379.802 537.791 381.109 527.576 367.479C526.971 366.672 526.497 365.869 526 365L545.172 367.975C556.184 368.28 567.136 366.998 578 365.496Z" fill="#FEFDFD"/>
<path d="M578.863 363.158C565.657 370.653 535.684 368.989 522.577 361.311C521.911 360.921 520.458 359.968 521.211 358.847L580.776 357C585.726 358.267 581.201 361.831 578.863 363.158Z" fill="#FDFDFD"/>
<path d="M577.993 361.833C578.054 362.867 577.724 363.935 577.449 364.889C566.211 366.74 554.882 368.321 543.491 367.944L523.659 364.278C522.872 362.637 523.007 362.822 522.029 361.222C521.944 361.083 522.076 360.381 522.029 360C535.061 367.619 564.862 369.271 577.993 361.833Z" fill="#C2B7BB"/>
<path d="M594.466 328.53C591.686 338.774 572.953 338.297 568.109 328.237C565.844 308.842 599.609 309.576 594.466 328.53ZM579.248 315.618C571.144 316.674 568.877 329.515 576.11 333.225C590.612 340.663 596.584 313.359 579.248 315.618Z" fill="#FDFDFD"/>
<path d="M588.044 324.6C583.648 323.147 584.338 318.871 588.044 317C589.493 317.213 590.759 316.702 592.297 317.475C597.73 320.205 594.286 326.663 588.044 324.6Z" fill="#FDFDFD"/>
<path d="M546.314 347.19C548.515 347.498 550.678 349.247 554.635 349.343C558.497 349.436 561.177 347.873 563.461 347.805C563.842 347.794 568.012 348.35 568 348.882C562.547 351.566 555.676 352.435 548.836 351.803C547.525 349.606 543.484 348.15 539.758 349.035C536.665 346.719 543.879 346.849 546.314 347.19Z" fill="#824B25"/>
<path d="M562.73 347.507C559.953 347.617 556.695 350.145 552.001 349.993C547.189 349.838 544.56 347.011 541.885 346.513C535.587 342.233 546.7 340.717 551.388 341.042C554.161 341.235 568.249 344.813 562.73 347.507Z" fill="#B38164"/>
<path d="M574.987 420C575.045 420.481 574.889 421.093 574.987 421.526C565.691 442.913 547.506 446.382 529 437.3C530.369 432.994 530.684 425.216 531.705 420.509C544.814 423.269 561.937 423.045 574.987 420Z" fill="#5B2F14"/>
<path d="M582 440.296C574.099 461.851 564.362 482.141 553.995 502C541.718 485.462 532.544 466.206 522.463 447.668C521.2 444.84 522.818 444.068 523.786 441.934C527.384 440.379 528.477 441.045 529.96 435.928C548.062 445.675 565.851 441.952 574.944 419C575.727 422.814 580.056 437.95 582 440.296Z" fill="#986546"/>
</svg>
