<svg width="229" height="373" viewBox="0 0 229 373" fill="none" xmlns="http://www.w3.org/2000/svg">
<g clip-path="url(#clip0_3384_119170)">
<path d="M165.844 203.39C166.592 190.214 165.285 175.365 159.585 163.6C158.406 161.168 153.413 153.354 151.285 152.471C149.473 151.72 136.456 154.575 133.324 154.91C112.143 157.178 90.8602 157.076 69.6444 155.215C61.2706 170.225 59.589 186.61 59.9836 204C54.3896 188.457 49.0392 171.971 48.2819 155.063C45.4552 153.922 42.5249 154.265 39.8457 155.673C40.8107 149.818 44.5229 143.468 49.9147 141.952C41.3302 139.992 37.064 131.138 39.8457 121.828L56.4459 130.975C48.0008 122.145 49.9432 107.217 57.9426 98.8079C69.0005 112.536 84.5432 101.937 97.6742 98.8079C115.529 94.553 136.997 93.5562 151.829 107.345C157.601 112.712 163.031 120.56 159.721 129.298C166.596 121.351 178.122 131.937 178.906 140.732C179.42 146.49 177.704 156.753 176.729 162.685C174.484 176.344 170.66 190.623 165.844 203.39Z" fill="#0D0100"/>
<path d="M165.944 203.127C186.368 187.047 188.844 215.633 180.573 230.765C176.011 239.11 167.081 245.352 160.119 236.11C157.269 255.558 143.132 267.696 126.663 271.536C118.821 273.363 108.533 273.497 100.656 271.841C97.4816 271.173 90.7789 268.557 87.7878 266.955C77.9443 261.682 71.0243 251.353 67.7409 239.774C58.0393 250.302 46.9415 236.311 43.7659 225.879C38.7271 209.324 44.5022 194.862 60.6974 205.875C61.4134 205.814 60.5761 204.365 60.562 203.738C60.1692 186.319 61.8431 169.908 70.1791 154.874C91.299 156.738 112.485 156.84 133.571 154.569C136.689 154.233 149.647 151.373 151.45 152.126C153.57 153.01 158.54 160.836 159.713 163.273C165.388 175.057 166.688 189.929 165.944 203.127ZM134.925 182.054C133.104 182.176 124.197 185.054 128.694 187.552C129.697 188.109 139.262 187.249 141.698 187.552C144.733 187.928 147.574 189.349 150.502 190.147C147.048 184.619 140.869 181.657 134.925 182.054ZM86.4333 182.665C81.9163 183.112 76.1354 186.415 74.3781 191.369C77.0955 189.964 80.2031 188.617 83.1825 188.162C85.8579 187.754 94.5713 188.599 95.915 187.857C98.2578 186.563 95.6587 184.213 94.2895 183.581C92.4455 182.731 88.4299 182.468 86.4333 182.665ZM125.308 211.983C129.49 222.453 145.664 222.949 148.064 212.289C152.101 208.06 151.029 200.744 146.845 197.019C137.599 188.787 119.472 197.373 125.308 211.983ZM78.4417 211.372C79.7937 221.822 95.1288 222.901 100.385 214.121C108.071 201.281 89.5376 188.361 80.2025 196.713C76.5307 199.999 75.0954 207.164 78.4417 211.372ZM175.832 207.402C169.956 208.279 165.783 218.713 163.506 224.046C163.521 224.897 167.244 221.307 167.975 221.145C169.766 220.748 172.615 221.42 173.529 223.436C175.432 227.633 170.971 234.607 171.497 234.888C176.159 229.494 180.963 218.207 180.302 210.609C180.005 207.196 178.643 206.983 175.832 207.402ZM47.9649 211.067C45.2795 212.08 47.8964 222.138 48.6422 224.352C50.2294 229.063 53.6499 234.491 57.1757 237.637C51.096 228.985 53.7945 219.392 64.0837 226.184C61.4522 220.512 55.0171 208.408 47.9649 211.067ZM144.678 219.618C138.31 220.462 138.281 228.286 144.678 229.085C155.522 230.44 154.78 218.279 144.678 219.618ZM78.848 219.924C72.7109 220.972 72.9911 228.748 79.3898 229.391C90.294 230.486 89.1315 218.166 78.848 219.924ZM109.325 226.337C108.017 225.998 104.142 225.869 105.803 228.169C106.533 229.18 109.472 230.712 110.679 230.918C114.354 231.545 118.045 230.683 120.974 228.017C120.98 227.489 118.74 226.936 118.535 226.948C120.974 225.293 114.749 223.096 113.524 222.978C111.452 222.778 106.542 223.709 109.325 226.337ZM100.385 239.774C100.408 239.965 100.343 240.315 100.385 240.385L98.4886 239.927L102.01 243.439C107.279 251.834 125.484 251.029 128.017 242.217C128.154 241.741 128.318 241.207 128.288 240.691C129.447 240.032 131.69 238.265 129.236 237.637L99.7076 238.553C99.3346 239.108 100.055 239.581 100.385 239.774Z" fill="#996647"/>
<path d="M134.789 182.035C140.975 181.644 147.405 184.559 151 190C147.953 189.214 144.996 187.816 141.837 187.445C139.303 187.147 129.349 187.993 128.305 187.445C123.625 184.987 132.894 182.155 134.789 182.035Z" fill="black"/>
<path d="M86.3348 183.057C88.3776 182.877 92.4863 183.117 94.3731 183.893C95.774 184.469 98.4333 186.614 96.0362 187.795C94.6614 188.472 85.746 187.701 83.0085 188.074C79.96 188.489 76.7804 189.718 74 191C75.7981 186.479 81.713 183.465 86.3348 183.057Z" fill="black"/>
<path d="M148.412 212C152.95 192.779 123.161 192.034 125.159 211.702C119.195 197.465 137.719 189.099 147.166 197.121C151.442 200.751 152.537 207.879 148.412 212Z" fill="black"/>
<path d="M100.153 214C103.045 203.927 93.4262 194.724 84.6378 197.862C80.0535 199.498 77.2413 206.176 77.91 211.26C74.5181 207.063 75.9729 199.919 79.6949 196.644C89.1575 188.315 107.944 201.198 100.153 214Z" fill="black"/>
<path d="M148.525 212.19C146.055 222.9 129.403 222.401 125.097 211.884C123.084 191.607 153.097 192.375 148.525 212.19ZM134.998 198.692C127.795 199.796 125.779 213.22 132.209 217.099C145.099 224.875 150.408 196.33 134.998 198.692Z" fill="#FDFDFD"/>
<path d="M100.473 214.019C95.1133 222.907 79.4771 221.815 78.0985 211.237C77.4259 206.075 80.2547 199.296 84.866 197.634C93.7062 194.448 103.382 203.792 100.473 214.019ZM88.0425 201.653C89.8521 203.219 88.5378 206.628 86.3852 206.909C84.8096 207.113 83.4012 206.084 82.9324 204.435C80.6049 209.922 83.9014 217.524 89.5618 218.038C104.368 219.382 98.0587 189.248 84.4516 201.498C84.5262 201.741 86.6319 200.432 88.0425 201.653Z" fill="#FDFDFD"/>
<path d="M134.625 199.133C149.944 196.877 144.666 224.141 131.852 216.714C125.46 213.009 127.463 200.188 134.625 199.133ZM139.477 206.751C142.936 208.024 144.845 204.04 141.834 202.356C140.981 201.88 140.28 202.195 139.477 202.063C135.967 201.489 132.602 201.529 130.881 205.433C129.618 208.301 129.881 210.762 132.129 212.905C137.72 218.233 140.307 212.769 139.477 206.751Z" fill="#573220"/>
<path d="M86.2334 207.124C85.412 212.162 87.0091 215.529 92.2093 214.647C98.3773 213.601 94.2589 198.809 87.9011 202.008C86.4816 200.82 84.3628 202.094 84.2877 201.858C97.9798 189.933 104.328 219.266 89.4298 217.957C83.734 217.457 80.417 210.057 82.759 204.717C83.2307 206.321 84.6479 207.323 86.2334 207.124Z" fill="#583320"/>
<path d="M86.1989 206.891C88.313 206.603 89.6038 203.091 87.8266 201.478C94.032 198.093 98.0517 213.745 92.0315 214.852C86.956 215.785 85.3972 212.222 86.1989 206.891Z" fill="#060000"/>
<path d="M139.856 202.262C137.91 203.392 137.548 205.976 139.856 206.854C140.642 212.749 138.192 218.101 132.897 212.881C130.767 210.782 130.518 208.372 131.715 205.562C133.344 201.738 136.531 201.699 139.856 202.262Z" fill="#050000"/>
<path d="M139.826 206.75C137.189 205.842 137.603 203.169 139.826 202C140.696 202.133 141.455 201.814 142.378 202.297C145.638 204.003 143.572 208.04 139.826 206.75Z" fill="#FDFDFD"/>
<path d="M176.43 207.16C179.265 206.735 180.639 206.951 180.938 210.408C181.605 218.104 176.761 229.537 172.059 235C171.528 234.715 176.028 227.651 174.108 223.4C173.186 221.359 170.313 220.678 168.508 221.08C167.77 221.244 164.016 224.88 164 224.019C166.296 218.617 170.505 208.048 176.43 207.16Z" fill="#652C0D"/>
<path d="M48.1636 211.363C55.0922 208.797 61.4145 220.476 64 225.95C53.8911 219.396 51.2399 228.652 57.213 237C53.749 233.965 50.3884 228.728 48.829 224.182C48.0963 222.046 45.5252 212.34 48.1636 211.363Z" fill="#652D0D"/>
<path d="M144.921 219.107C155.308 217.723 156.071 230.291 144.921 228.891C138.344 228.065 138.375 219.979 144.921 219.107Z" fill="#7E3734"/>
<path d="M78.5527 220.159C89.1089 218.53 90.3022 229.951 79.1089 228.936C72.5404 228.34 72.2529 221.132 78.5527 220.159Z" fill="#7F3734"/>
<path d="M118.418 226.615C117.145 226.676 115.652 228.08 113.5 227.996C111.295 227.91 110.09 226.34 108.864 226.063C105.977 223.685 111.071 222.843 113.219 223.024C114.491 223.131 120.948 225.119 118.418 226.615Z" fill="#B38164"/>
<path d="M109.035 226.19C110.249 226.498 111.443 228.247 113.626 228.343C115.757 228.436 117.235 226.873 118.496 226.805C118.706 226.794 121.006 227.35 121 227.882C117.992 230.566 114.201 231.435 110.427 230.803C109.703 228.606 107.474 227.15 105.418 228.035C103.712 225.719 107.692 225.849 109.035 226.19Z" fill="#824B25"/>
<path d="M111 231C109.762 230.795 106.748 229.268 106 228.26C108.052 227.384 110.278 228.825 111 231Z" fill="#6A3412"/>
<path d="M127.998 240.359C121.608 244.447 107.105 243.539 100.763 239.351C100.441 239.139 99.7379 238.619 100.102 238.008L128.924 237C131.319 237.691 129.129 239.635 127.998 240.359Z" fill="#FDFDFD"/>
<path d="M100.154 240.391C100.707 241.074 100.631 240.995 101.077 241.696C101.368 242.153 101.646 242.575 102 243L98 240L100.154 240.391Z" fill="#572D15"/>
<path d="M127.996 240.917C128.027 241.434 127.862 241.968 127.725 242.444C122.105 243.37 116.441 244.16 110.745 243.972L100.83 242.139C100.436 241.318 100.503 241.411 100.015 240.611C99.9722 240.541 100.038 240.19 100.015 240C106.531 243.809 121.431 244.635 127.996 240.917Z" fill="#C2B7BB"/>
<path d="M127 242.289C124.639 250.635 107.669 251.397 102.758 243.446C102.467 242.975 102.239 242.507 102 242L111.217 243.735C116.511 243.914 121.777 243.166 127 242.289Z" fill="#FEFDFD"/>
<path d="M126.992 271C127.027 271.284 126.932 271.646 126.992 271.902C121.334 284.539 110.264 286.589 99 281.222C99.8332 278.679 100.025 274.082 100.647 271.301C108.626 272.931 119.048 272.799 126.992 271Z" fill="#5B2F14"/>
<path d="M131 283.803C126.128 295.749 120.123 306.994 113.73 318C106.16 308.834 100.502 298.163 94.2853 287.888C93.5069 286.321 94.5042 285.893 95.1011 284.711C97.3201 283.849 97.994 284.218 98.9086 281.382C110.072 286.784 121.041 284.72 126.649 272C127.132 274.114 129.801 282.502 131 283.803Z" fill="#986546"/>
<path d="M132 284.303C126.844 297.11 120.808 309.345 113.77 320.993C112.41 321.385 101.762 305.737 100.475 303.558C98.2708 299.827 93.5017 291.122 92.2505 287.184C91.978 286.327 91.7645 286.454 92.5247 285.819C93.3747 285.585 94.4335 285.231 95.266 284.91C94.6643 286.094 93.659 286.523 94.4436 288.093C100.71 298.388 106.413 309.08 114.044 318.264C120.488 307.236 126.54 295.969 131.452 284C131.499 284.051 131.884 284.23 132 284.303Z" fill="#01551F"/>
<path d="M133 284.609C127.544 299.404 120.147 313.058 112.435 326.46L114.194 329.961C113.419 330.535 108.346 324.663 107.565 323.721C99.1183 313.535 92.5381 299.865 87.5412 287.196L87 287.044C87.6386 286.483 88.6514 286.332 89.4353 286.131C88.7077 292.1 109.022 325.7 111.218 325.395C111.353 325.376 112.721 322.961 112.706 322.808C112.652 322.273 107.057 316.087 106.212 314.894C99.9506 306.057 94.8176 296.34 90.5176 286.131C91.1947 285.958 91.9899 285.716 92.6824 285.522C91.932 286.159 92.1428 286.031 92.4118 286.892C93.6467 290.844 98.3542 299.583 100.529 303.328C101.8 305.515 112.311 321.223 113.653 320.829C120.6 309.137 126.558 296.856 131.647 284C131.746 284.064 132.837 284.549 133 284.609Z" fill="#3C854F"/>
<path d="M137 285.907C136.101 292.338 119.186 333.603 116.138 334.896C114.415 335.627 114.216 332.302 115.184 330.965C116.768 329.669 118.423 326.246 119.547 324.161C126.036 312.122 130.713 298.943 135.636 286.058L133.728 285.756C129.113 301.768 121.446 316.245 114.366 330.965C112.661 332.106 113.601 333.899 110.684 331.872C104.074 327.278 89.7619 302.064 87.0952 293.618C86.5293 291.827 85.9435 289.327 86.0044 287.419C86.1841 287.429 86.3698 287.415 86.5498 287.419L87.0952 287.57C92.1312 300.157 98.7628 313.739 107.275 323.859C108.062 324.794 113.175 330.628 113.957 330.058L112.184 326.58C119.956 313.265 127.411 299.699 132.909 285C133.749 285.304 135.801 285.558 137 285.907ZM114.775 323.103C114.649 323.695 116.407 324.486 116.547 324.161C116.513 323.286 115.36 323.228 114.775 323.103Z" fill="#05531E"/>
<path d="M114.846 330.988C114.726 331.082 114.641 330.575 114 330.988C121.323 316.34 129.253 301.934 134.026 286L136 286.301C130.908 299.123 126.07 312.237 119.359 324.217C118.196 326.292 116.485 329.698 114.846 330.988Z" fill="#39854E"/>
<path d="M172 296.849C165.262 316.552 162.419 337.815 163.825 358.931C131.403 359.025 98.9597 359.021 66.5379 358.931C67.3563 337.869 63.1326 316.906 57 297.151C61.3981 295.162 82.7905 287.314 86.4313 287.507C86.3705 289.408 86.9559 291.899 87.5213 293.685C90.1862 302.102 104.488 327.229 111.094 331.808C114.008 333.828 113.069 332.041 114.773 330.904C115.391 330.49 115.474 330.998 115.59 330.904C114.623 332.237 114.822 335.55 116.544 334.821C119.589 333.532 136.492 292.409 137.391 286C149.311 289.465 160.317 292.048 172 296.849Z" fill="#337B32"/>
<path d="M90.135 286.025C94.5661 296.419 99.8556 306.311 106.308 315.307C107.179 316.522 112.945 322.819 113 323.364C113.016 323.52 111.606 325.979 111.466 325.998C109.203 326.308 88.2699 292.102 89.0197 286.025C89.3601 285.939 89.7943 286.111 90.135 286.025Z" fill="#005723"/>
<path d="M163.355 358.974C161.931 337.895 164.812 316.668 171.637 297C176.749 299.07 181.359 299.539 183.785 305.875L194 358.824C183.791 359.121 173.565 358.945 163.355 358.974Z" fill="#003415"/>
<path d="M56.4957 297C62.5424 317.119 66.707 338.468 65.9001 359.917C55.6176 359.887 45.2607 360.322 35 359.456L46.8226 305.44C48.783 300.219 52.3376 298.941 56.4957 297Z" fill="#003415"/>
<path d="M115.007 323C115.665 323.11 116.961 323.162 117 323.933C116.842 324.22 114.866 323.523 115.007 323Z" fill="#1F6F3F"/>
</g>
<defs>
<clipPath id="clip0_3384_119170">
<rect width="229" height="373" fill="white"/>
</clipPath>
</defs>
</svg>
