<svg width="92" height="96" viewBox="0 0 92 96" fill="none" xmlns="http://www.w3.org/2000/svg">
<g filter="url(#filter0_d_3384_119160)">
<rect x="4" y="4" width="84" height="84" rx="42" fill="#387440" shape-rendering="crispEdges"/>
<rect x="5" y="5" width="82" height="82" rx="41" stroke="white" stroke-width="2" shape-rendering="crispEdges"/>
<rect x="2" y="2" width="88" height="88" rx="44" stroke="#387440" stroke-opacity="0.35" stroke-width="4"/>
<path d="M36.77 34.423L41.039 26.981L45.308 34.423H36.77ZM38.56 43.498C37.8794 42.8173 37.539 41.9873 37.539 41.008C37.539 40.0146 37.879 39.1783 38.559 38.499C39.2404 37.8203 40.0734 37.481 41.058 37.481C42.0427 37.481 42.8754 37.8213 43.556 38.502C44.2367 39.1826 44.577 40.0153 44.577 41C44.577 41.9846 44.2367 42.8173 43.556 43.498C42.8754 44.1786 42.0427 44.519 41.058 44.519C40.0734 44.519 39.2414 44.1786 38.56 43.498ZM42.845 42.788C43.333 42.3 43.577 41.704 43.577 41C43.577 40.296 43.333 39.7003 42.845 39.213C42.357 38.7256 41.7614 38.4816 41.058 38.481C40.3547 38.4803 39.7587 38.7243 39.27 39.213C38.7814 39.7016 38.538 40.2973 38.54 41C38.542 41.7026 38.7857 42.2986 39.271 42.788C39.7564 43.2773 40.3524 43.521 41.059 43.519C41.7657 43.517 42.3604 43.2733 42.845 42.788ZM38.496 33.423H43.6L41.039 29.01L38.496 33.423ZM47.519 44.519V37.481H54.558V44.519H47.519ZM48.519 43.519H53.558V38.481H48.519V43.519ZM51.039 34.423C50.4224 33.9303 49.857 33.4733 49.343 33.052C48.8297 32.63 48.3877 32.2203 48.017 31.823C47.647 31.4256 47.3594 31.0306 47.154 30.638C46.9487 30.246 46.846 29.8353 46.846 29.406C46.846 28.8093 47.0414 28.317 47.432 27.929C47.822 27.5403 48.319 27.346 48.923 27.346C49.3217 27.346 49.6944 27.4436 50.041 27.639C50.3877 27.8343 50.7204 28.1283 51.039 28.521C51.357 28.1416 51.6957 27.851 52.055 27.649C52.415 27.447 52.7877 27.346 53.173 27.346C53.7597 27.346 54.2494 27.5503 54.642 27.959C55.0347 28.3683 55.231 28.8696 55.231 29.463C55.231 29.8796 55.1284 30.281 54.923 30.667C54.7184 31.0536 54.4307 31.4423 54.06 31.833C53.6894 32.2236 53.2474 32.63 52.734 33.052C52.2207 33.474 51.6557 33.931 51.039 34.423ZM51.039 33.125C52.2004 32.2276 53.0227 31.5 53.506 30.942C53.9894 30.384 54.231 29.8886 54.231 29.456C54.231 29.1366 54.13 28.8716 53.928 28.661C53.726 28.451 53.472 28.346 53.166 28.346C52.9507 28.346 52.7407 28.411 52.536 28.541C52.3314 28.671 52.048 28.917 51.686 29.279L51.039 29.915L50.391 29.279C50.0164 28.9043 49.7307 28.6553 49.534 28.532C49.3374 28.408 49.13 28.346 48.912 28.346C48.592 28.346 48.3347 28.4416 48.14 28.633C47.9454 28.8243 47.8474 29.0856 47.846 29.417C47.846 29.8763 48.0877 30.3846 48.571 30.942C49.0544 31.4993 49.8777 32.227 51.039 33.125Z" fill="url(#paint0_linear_3384_119160)"/>
<path d="M20.0614 63.8428C19.5975 63.8428 19.3241 63.5596 19.3241 63.0762V57.3779C19.3241 56.8896 19.5975 56.6064 20.0614 56.6064C20.5253 56.6064 20.7987 56.8896 20.7987 57.3779V63.0762C20.7987 63.5596 20.5253 63.8428 20.0614 63.8428ZM22.9786 63.8428C22.5343 63.8428 22.2706 63.5742 22.2706 63.1055V57.3438C22.2706 56.875 22.544 56.6064 23.0128 56.6064C23.3155 56.6064 23.5206 56.7285 23.7452 57.0361L26.7921 61.2939H26.8311V57.3486C26.8311 56.875 27.0948 56.6064 27.5391 56.6064C27.9835 56.6064 28.2423 56.875 28.2423 57.3486V63.125C28.2423 63.584 27.9835 63.8428 27.5196 63.8428C27.2022 63.8428 27.0069 63.7305 26.7823 63.418L23.7257 59.1357H23.6817V63.1055C23.6817 63.5742 23.418 63.8428 22.9786 63.8428ZM32.1409 63.8428C31.677 63.8428 31.4036 63.5596 31.4036 63.0762V57.9248H29.9485C29.5481 57.9248 29.2796 57.6953 29.2796 57.3145C29.2796 56.9336 29.5432 56.7041 29.9485 56.7041H34.3382C34.7386 56.7041 35.0022 56.9336 35.0022 57.3145C35.0022 57.6953 34.7337 57.9248 34.3382 57.9248H32.8782V63.0762C32.8782 63.5596 32.6048 63.8428 32.1409 63.8428ZM36.772 63.75C36.3081 63.75 36.0346 63.4668 36.0346 62.9785V57.4707C36.0346 56.9873 36.3081 56.7041 36.772 56.7041H40.1216C40.5268 56.7041 40.7905 56.9336 40.7905 57.3145C40.7905 57.6953 40.522 57.9248 40.1216 57.9248H37.5093V59.6191H39.9946C40.3608 59.6191 40.6098 59.834 40.6098 60.1855C40.6098 60.5371 40.3657 60.752 39.9946 60.752H37.5093V62.5293H40.1216C40.522 62.5293 40.7905 62.7588 40.7905 63.1396C40.7905 63.5205 40.5268 63.75 40.1216 63.75H36.772ZM42.8044 63.8525C42.3454 63.8525 42.0671 63.5693 42.0671 63.0859V57.4707C42.0671 56.9873 42.3405 56.7041 42.8044 56.7041H44.9528C46.5739 56.7041 47.5016 57.5586 47.5016 58.9502C47.5016 59.8291 47.0671 60.5811 46.2907 60.9131L47.3063 62.6709C47.4284 62.8809 47.4626 63.0078 47.4626 63.1787C47.4626 63.5693 47.1501 63.8525 46.7204 63.8525C46.3688 63.8525 46.2077 63.7256 45.9684 63.2959L44.7966 61.1719H43.5417V63.0859C43.5417 63.5693 43.2682 63.8525 42.8044 63.8525ZM43.5417 60.1025H44.8112C45.5534 60.1025 45.988 59.6777 45.988 58.9795C45.988 58.2959 45.529 57.8564 44.7966 57.8564H43.5417V60.1025ZM49.5106 63.75C49.0468 63.75 48.7733 63.4668 48.7733 62.9785V57.4707C48.7733 56.9873 49.0468 56.7041 49.5106 56.7041H52.8602C53.2655 56.7041 53.5292 56.9336 53.5292 57.3145C53.5292 57.6953 53.2606 57.9248 52.8602 57.9248H50.2479V59.6191H52.7333C53.0995 59.6191 53.3485 59.834 53.3485 60.1855C53.3485 60.5371 53.1044 60.752 52.7333 60.752H50.2479V62.5293H52.8602C53.2606 62.5293 53.5292 62.7588 53.5292 63.1396C53.5292 63.5205 53.2655 63.75 52.8602 63.75H49.5106ZM57.3839 63.8672C55.9288 63.8672 54.9962 63.2861 54.713 62.5146C54.6641 62.3877 54.6348 62.251 54.6348 62.1191C54.6348 61.7285 54.9034 61.4697 55.2843 61.4697C55.587 61.4697 55.7872 61.5869 55.963 61.8994C56.1925 62.4365 56.7442 62.6807 57.418 62.6807C58.2091 62.6807 58.7462 62.2998 58.7462 61.7822C58.7462 61.3184 58.4141 61.0547 57.5303 60.874L56.7833 60.7275C55.377 60.4492 54.6886 59.7754 54.6886 58.7256C54.6886 57.4365 55.8116 56.582 57.379 56.582C58.668 56.582 59.6397 57.124 59.9522 58.042C59.9864 58.1396 60.0059 58.2422 60.0059 58.3691C60.0059 58.7207 59.752 58.96 59.3761 58.96C59.044 58.96 58.8389 58.8281 58.6729 58.5254C58.4386 57.9932 57.9845 57.7734 57.379 57.7734C56.6514 57.7734 56.168 58.1152 56.168 58.6328C56.168 59.0674 56.505 59.3359 57.3399 59.502L58.0821 59.6533C59.5762 59.9512 60.2208 60.5518 60.2208 61.6211C60.2208 62.998 59.1417 63.8672 57.3839 63.8672ZM63.846 63.8428C63.3821 63.8428 63.1087 63.5596 63.1087 63.0762V57.9248H61.6536C61.2532 57.9248 60.9846 57.6953 60.9846 57.3145C60.9846 56.9336 61.2483 56.7041 61.6536 56.7041H66.0432C66.4436 56.7041 66.7073 56.9336 66.7073 57.3145C66.7073 57.6953 66.4387 57.9248 66.0432 57.9248H64.5833V63.0762C64.5833 63.5596 64.3098 63.8428 63.846 63.8428ZM70.3179 63.8672C68.8628 63.8672 67.9302 63.2861 67.647 62.5146C67.5981 62.3877 67.5688 62.251 67.5688 62.1191C67.5688 61.7285 67.8374 61.4697 68.2182 61.4697C68.521 61.4697 68.7212 61.5869 68.897 61.8994C69.1264 62.4365 69.6782 62.6807 70.352 62.6807C71.143 62.6807 71.6802 62.2998 71.6802 61.7822C71.6802 61.3184 71.3481 61.0547 70.4643 60.874L69.7173 60.7275C68.311 60.4492 67.6225 59.7754 67.6225 58.7256C67.6225 57.4365 68.7456 56.582 70.313 56.582C71.602 56.582 72.5737 57.124 72.8862 58.042C72.9204 58.1396 72.9399 58.2422 72.9399 58.3691C72.9399 58.7207 72.686 58.96 72.31 58.96C71.978 58.96 71.7729 58.8281 71.6069 58.5254C71.3725 57.9932 70.9184 57.7734 70.313 57.7734C69.5854 57.7734 69.102 58.1152 69.102 58.6328C69.102 59.0674 69.4389 59.3359 70.2739 59.502L71.0161 59.6533C72.5102 59.9512 73.1548 60.5518 73.1548 61.6211C73.1548 62.998 72.0757 63.8672 70.3179 63.8672Z" fill="white"/>
<rect x="5" y="10" width="20" height="20" rx="10" fill="#C8951A"/>
<rect x="5" y="10" width="20" height="20" rx="10" stroke="white" stroke-width="2"/>
<path d="M12.8781 23C12.7648 23 12.7081 22.9667 12.7081 22.9C12.7081 22.8333 12.7614 22.7433 12.8681 22.63L14.5081 20.75C14.7214 20.5033 14.9548 20.2333 15.2081 19.94C15.4681 19.64 15.7114 19.3267 15.9381 19C16.1714 18.6667 16.3614 18.3333 16.5081 18C16.6614 17.66 16.7381 17.3267 16.7381 17C16.7381 16.7133 16.6581 16.49 16.4981 16.33C16.3448 16.17 16.1148 16.09 15.8081 16.09C15.5214 16.09 15.2414 16.19 14.9681 16.39C14.7014 16.5833 14.4814 16.9167 14.3081 17.39C14.2748 17.4833 14.2214 17.53 14.1481 17.53C14.1014 17.53 14.0681 17.51 14.0481 17.47C14.0281 17.43 14.0281 17.38 14.0481 17.32C14.1881 16.92 14.3614 16.6033 14.5681 16.37C14.7748 16.13 14.9981 15.96 15.2381 15.86C15.4781 15.7533 15.7181 15.7 15.9581 15.7C16.4181 15.7 16.7814 15.8233 17.0481 16.07C17.3214 16.3167 17.4581 16.6467 17.4581 17.06C17.4581 17.4133 17.3648 17.76 17.1781 18.1C16.9914 18.44 16.7514 18.7733 16.4581 19.1C16.1714 19.4267 15.8714 19.7433 15.5581 20.05C15.2448 20.3567 14.9648 20.65 14.7181 20.93L13.6181 22.17C13.5648 22.23 13.5448 22.2833 13.5581 22.33C13.5781 22.3767 13.6314 22.4 13.7181 22.4H14.8381C15.0981 22.4 15.3081 22.37 15.4681 22.31C15.6348 22.25 15.7781 22.1467 15.8981 22C16.0248 21.8467 16.1514 21.6267 16.2781 21.34L16.4781 20.89C16.5114 20.8167 16.5614 20.78 16.6281 20.78C16.7281 20.78 16.7614 20.84 16.7281 20.96L16.1881 22.81C16.1681 22.8833 16.1314 22.9333 16.0781 22.96C16.0248 22.9867 15.9614 23 15.8881 23H12.8781Z" fill="white"/>
</g>
<defs>
<filter id="filter0_d_3384_119160" x="0" y="0" width="92" height="96" filterUnits="userSpaceOnUse" color-interpolation-filters="sRGB">
<feFlood flood-opacity="0" result="BackgroundImageFix"/>
<feColorMatrix in="SourceAlpha" type="matrix" values="0 0 0 0 0 0 0 0 0 0 0 0 0 0 0 0 0 0 127 0" result="hardAlpha"/>
<feOffset dy="4"/>
<feComposite in2="hardAlpha" operator="out"/>
<feColorMatrix type="matrix" values="0 0 0 0 0.133333 0 0 0 0 0.27451 0 0 0 0 0.14902 0 0 0 1 0"/>
<feBlend mode="normal" in2="BackgroundImageFix" result="effect1_dropShadow_3384_119160"/>
<feBlend mode="normal" in="SourceGraphic" in2="effect1_dropShadow_3384_119160" result="shape"/>
</filter>
<linearGradient id="paint0_linear_3384_119160" x1="55.231" y1="26.981" x2="41.0203" y2="47.4673" gradientUnits="userSpaceOnUse">
<stop stop-color="#FEF1E7"/>
<stop offset="0.201923" stop-color="#E8F2ED"/>
</linearGradient>
</defs>
</svg>
