<svg width="62" height="17" viewBox="0 0 62 17" fill="none" xmlns="http://www.w3.org/2000/svg">
<path fill-rule="evenodd" clip-rule="evenodd" d="M7.9998 1.2998C4.02335 1.2998 0.799805 4.52335 0.799805 8.4998C0.799805 12.4763 4.02335 15.6998 7.9998 15.6998C11.9763 15.6998 15.1998 12.4763 15.1998 8.4998C15.1998 4.52335 11.9763 1.2998 7.9998 1.2998ZM11.0746 6.66667C11.2772 6.40446 11.2289 6.02765 10.9667 5.82503C10.7045 5.62242 10.3277 5.67073 10.125 5.93294L7.16473 9.76392L5.84578 8.29842C5.62411 8.05212 5.24473 8.03215 4.99843 8.25383C4.75212 8.4755 4.73215 8.85488 4.95383 9.10118L6.75383 11.1012C6.87286 11.2334 7.04446 11.306 7.22228 11.2994C7.40009 11.2927 7.56577 11.2075 7.67457 11.0667L11.0746 6.66667Z" fill="#BABAB7"/>
<path d="M33.0859 13.1641C30.2969 13.1641 28.5537 11.209 28.5537 8.06445C28.5537 4.94043 30.3174 2.97168 33.0723 2.97168C34.8838 2.97168 36.333 3.85352 36.9482 5.30957C37.0439 5.50781 37.0918 5.71289 37.0918 5.89746C37.0918 6.30762 36.8184 6.57422 36.4082 6.57422C36.0459 6.57422 35.8066 6.39648 35.6357 6C35.1777 4.89941 34.207 4.31152 33.0723 4.31152C31.2812 4.31152 30.1191 5.78125 30.1191 8.06445C30.1191 10.3682 31.2676 11.8242 33.0791 11.8242C34.2822 11.8242 35.2051 11.3115 35.6631 10.2451C35.8271 9.88281 36.0254 9.73242 36.3604 9.73242C36.7773 9.73242 37.0645 10.0195 37.0645 10.4229C37.0645 10.6348 37.0098 10.833 36.9004 11.0586C36.2646 12.3916 34.918 13.1641 33.0859 13.1641ZM41.723 13.1367C39.556 13.1367 38.2845 11.7627 38.2845 9.43848C38.2845 7.15527 39.5834 5.67871 41.6205 5.67871C43.5345 5.67871 44.8539 7.05957 44.8539 9.02148C44.8539 9.5 44.5804 9.77344 44.1224 9.77344H39.7748V9.80762C39.7748 11.1201 40.513 11.9404 41.6888 11.9404C42.4955 11.9404 43.0013 11.6602 43.5482 10.915C43.7054 10.7305 43.8558 10.6553 44.0677 10.6553C44.4232 10.6553 44.683 10.8877 44.683 11.2568C44.683 11.373 44.642 11.5098 44.5804 11.6533C44.1088 12.5967 43.0629 13.1367 41.723 13.1367ZM39.7816 8.74121H43.3773C43.3431 7.61328 42.639 6.86816 41.6136 6.86816C40.5951 6.86816 39.8568 7.62012 39.7816 8.74121ZM46.8806 13.1299C46.4363 13.1299 46.1423 12.8291 46.1423 12.3506V6.42383C46.1423 5.97266 46.4294 5.67871 46.8464 5.67871C47.2566 5.67871 47.5437 5.97266 47.5437 6.42383V7.03906H47.5779C47.7761 6.23242 48.4392 5.69238 49.157 5.69238C49.4167 5.69238 49.615 5.75391 49.738 5.87012C49.8747 5.97949 49.9363 6.15723 49.9363 6.38965C49.9363 6.62207 49.8611 6.79297 49.7175 6.90918C49.5671 7.03906 49.3484 7.10059 49.0407 7.10059C48.029 7.10742 47.6189 7.78418 47.6189 8.67969V12.3506C47.6189 12.8291 47.3181 13.1299 46.8806 13.1299ZM51.3067 11.2773V6.97754H50.7872C50.4044 6.97754 50.172 6.75879 50.172 6.39648C50.172 6.02734 50.4044 5.80859 50.7872 5.80859H51.3067V4.74219C51.3067 4.27051 51.6007 3.95605 52.0518 3.95605C52.4962 3.95605 52.7901 4.27051 52.7901 4.74219V5.80859H53.6309C54.0138 5.80859 54.2462 6.03418 54.2462 6.39648C54.2462 6.75879 54.0138 6.97754 53.6309 6.97754H52.7901V10.9492C52.7901 11.5234 52.9884 11.7832 53.5216 11.8242L53.6378 11.8311C54.0616 11.8721 54.2735 12.043 54.2735 12.3916C54.2735 12.8359 53.9317 13.0615 53.2071 13.0615H53.1319C51.922 13.0615 51.3067 12.4668 51.3067 11.2773ZM58.1664 13.1367C56.7514 13.1367 55.7123 12.5557 55.3705 11.6738C55.3227 11.5645 55.309 11.4619 55.309 11.3662C55.309 10.9971 55.5756 10.7783 55.9448 10.7783C56.1909 10.7783 56.4028 10.8945 56.5873 11.168C56.9565 11.749 57.3871 12.0088 58.2416 12.0088C59.0825 12.0088 59.6498 11.6465 59.6498 11.0518C59.6498 10.5801 59.3696 10.3271 58.5971 10.1426L57.4623 9.87598C56.0678 9.54785 55.3842 8.86426 55.3842 7.83887C55.3842 6.54004 56.5121 5.67871 58.2211 5.67871C59.52 5.67871 60.5864 6.3418 60.7914 7.18945C60.8051 7.27148 60.8188 7.33984 60.8188 7.4082C60.8188 7.73633 60.6137 7.95508 60.2446 7.95508C60.0053 7.95508 59.7934 7.87305 59.6498 7.64062C59.3286 7.09375 58.8911 6.80664 58.1664 6.80664C57.3735 6.80664 56.8266 7.19629 56.8266 7.75684C56.8266 8.20801 57.1752 8.52246 57.934 8.7002L59.0483 8.95996C60.559 9.30859 61.1401 9.84863 61.1401 10.915C61.1401 12.248 59.9438 13.1367 58.1664 13.1367Z" fill="#BABAB7"/>
</svg>
