<svg width="47" height="37" viewBox="0 0 47 37" fill="none" xmlns="http://www.w3.org/2000/svg">
<g clip-path="url(#clip0_3326_9663)">
<path d="M23.4995 42.286C30.8187 42.286 36.752 36.3698 36.752 29.0717C36.752 21.7737 30.8187 15.8574 23.4995 15.8574C16.1804 15.8574 10.2471 21.7737 10.2471 29.0717C10.2471 36.3698 16.1804 42.286 23.4995 42.286Z" fill="#F5F3FF"/>
<path d="M10.2471 18.5004C10.2471 9.6909 14.6646 5.28613 23.4995 5.28613C32.3345 5.28613 36.752 9.6909 36.752 18.5004V30.3933H10.2471V18.5004Z" fill="#5B21B6"/>
<path d="M23.5001 25.7678C27.1596 25.7678 30.1262 22.514 30.1262 18.5001C30.1262 14.4863 27.1596 11.2324 23.5001 11.2324C19.8406 11.2324 16.874 14.4863 16.874 18.5001C16.874 22.514 19.8406 25.7678 23.5001 25.7678Z" fill="#A06B4A"/>
</g>
<defs>
<clipPath id="clip0_3326_9663">
<rect width="47" height="37" fill="white"/>
</clipPath>
</defs>
</svg>
