<svg width="64" height="64" viewBox="0 0 64 64" fill="none" xmlns="http://www.w3.org/2000/svg">
<g clip-path="url(#clip0_3317_5169)">
<path d="M31.735 79.3361C45.5057 79.3361 56.6691 68.1727 56.6691 54.4019C56.6691 40.6312 45.5057 29.4678 31.735 29.4678C17.9642 29.4678 6.80078 40.6312 6.80078 54.4019C6.80078 68.1727 17.9642 79.3361 31.735 79.3361Z" fill="#5B21B6"/>
<path d="M31.7352 46.4686C39.2465 46.4686 45.3357 39.8721 45.3357 31.7348C45.3357 23.5975 39.2465 17.001 31.7352 17.001C24.2239 17.001 18.1348 23.5975 18.1348 31.7348C18.1348 39.8721 24.2239 46.4686 31.7352 46.4686Z" fill="#8B5A3C"/>
<path d="M19.2676 22.668C27.579 18.1345 35.8904 18.1345 44.2017 22.668C43.4462 19.6457 39.2905 17.0011 31.7347 14.7344C24.1789 17.0011 20.0232 19.6457 19.2676 22.668Z" fill="#1E1B1B"/>
<path d="M19.2674 37.9685C20.2064 37.9685 20.9675 37.2073 20.9675 36.2684C20.9675 35.3295 20.2064 34.5684 19.2674 34.5684C18.3285 34.5684 17.5674 35.3295 17.5674 36.2684C17.5674 37.2073 18.3285 37.9685 19.2674 37.9685Z" fill="#FBBF24"/>
<path d="M28.335 38.5352C30.6017 40.0463 32.8684 40.0463 35.1352 38.5352" stroke="#3C2415" stroke-width="1.36007" stroke-linecap="round"/>
</g>
<defs>
<clipPath id="clip0_3317_5169">
<rect width="63.47" height="63.47" fill="white"/>
</clipPath>
</defs>
</svg>
