<svg width="1024" height="1024" viewBox="0 0 1024 1024" fill="none" xmlns="http://www.w3.org/2000/svg">
<path d="M487 470.903L514 443.376C532 439.706 545.5 443.376 554.5 454.387C563.5 443.376 577 439.706 595 443.376L622 470.903L601.75 481.914V570H507.25V481.914L487 470.903Z" fill="#10B981"/>
<path opacity="0.9" d="M575 466H535V506H575V466Z" fill="#FBBF24"/>
<path d="M535 466H575ZM535 486H575ZM535 506H575Z" fill="black"/>
<path d="M535 466H575M535 486H575M535 506H575" stroke="#0F172A" stroke-width="0.733158"/>
<path d="M540 466H535V471H540V466Z" fill="#DC2626"/>
<path d="M573 466H568V471H573V466Z" fill="#DC2626"/>
<path d="M541 498H536V503H541V498Z" fill="#DC2626"/>
<path d="M573 498H568V503H573V498Z" fill="#DC2626"/>
</svg>
