<svg width="47" height="37" viewBox="0 0 47 37" fill="none" xmlns="http://www.w3.org/2000/svg">
<g clip-path="url(#clip0_3326_9685)">
<path d="M23.4995 42.286C30.8187 42.286 36.752 36.3698 36.752 29.0717C36.752 21.7737 30.8187 15.8574 23.4995 15.8574C16.1804 15.8574 10.2471 21.7737 10.2471 29.0717C10.2471 36.3698 16.1804 42.286 23.4995 42.286Z" fill="#E0F2FE"/>
<path d="M23.4996 26.4281C27.5251 26.4281 30.7884 22.8784 30.7884 18.4997C30.7884 14.121 27.5251 10.5713 23.4996 10.5713C19.4742 10.5713 16.2109 14.121 16.2109 18.4997C16.2109 22.8784 19.4742 26.4281 23.4996 26.4281Z" fill="#8B5A3C"/>
<path opacity="0.5" d="M19.5242 14.2057C20.0731 14.2057 20.5181 13.762 20.5181 13.2147C20.5181 12.6673 20.0731 12.2236 19.5242 12.2236C18.9753 12.2236 18.5303 12.6673 18.5303 13.2147C18.5303 13.762 18.9753 14.2057 19.5242 14.2057Z" fill="white"/>
</g>
<defs>
<clipPath id="clip0_3326_9685">
<rect width="47" height="37" fill="white"/>
</clipPath>
</defs>
</svg>
