<svg width="1024" height="1024" viewBox="0 0 1024 1024" fill="none" xmlns="http://www.w3.org/2000/svg">
<path d="M483 382.5C484.907 382.5 486.762 381.626 488.492 379.967C490.225 378.306 491.809 375.878 493.149 372.84C495.83 366.764 497.5 358.336 497.5 349C497.5 339.664 495.83 331.236 493.149 325.16C491.809 322.122 490.225 319.694 488.492 318.033C486.762 316.374 484.907 315.5 483 315.5C481.093 315.5 479.238 316.374 477.508 318.033C475.775 319.694 474.191 322.122 472.851 325.16C470.17 331.236 468.5 339.664 468.5 349C468.5 358.336 470.17 366.764 472.851 372.84C474.191 375.878 475.775 378.306 477.508 379.967C479.238 381.626 481.093 382.5 483 382.5Z" fill="#8B5A3C" stroke="black"/>
<path d="M625 382.5C626.907 382.5 628.762 381.626 630.492 379.967C632.225 378.306 633.809 375.878 635.149 372.84C637.83 366.764 639.5 358.336 639.5 349C639.5 339.664 637.83 331.236 635.149 325.16C633.809 322.122 632.225 319.694 630.492 318.033C628.762 316.374 626.907 315.5 625 315.5C623.093 315.5 621.238 316.374 619.508 318.033C617.775 319.694 616.191 322.122 614.851 325.16C612.17 331.236 610.5 339.664 610.5 349C610.5 358.336 612.17 366.764 614.851 372.84C616.191 375.878 617.775 378.306 619.508 379.967C621.238 381.626 623.093 382.5 625 382.5Z" fill="#8B5A3C" stroke="black"/>
<path d="M479.158 394.316C485.32 394.316 490.316 389.32 490.316 383.158C490.316 376.996 485.32 372 479.158 372C472.996 372 468 376.996 468 383.158C468 389.32 472.996 394.316 479.158 394.316Z" stroke="#FBBF24" stroke-width="3.34744"/>
<path d="M629.158 394.316C635.32 394.316 640.316 389.32 640.316 383.158C640.316 376.996 635.32 372 629.158 372C622.996 372 618 376.996 618 383.158C618 389.32 622.996 394.316 629.158 394.316Z" stroke="#FBBF24" stroke-width="3.34744"/>
</svg>
