<svg width="50" height="35" viewBox="0 0 50 35" fill="none" xmlns="http://www.w3.org/2000/svg">
<g clip-path="url(#clip0_3326_9651)">
<path d="M25.3044 40.5156C33.0907 40.5156 39.4028 34.2366 39.4028 26.4912C39.4028 18.7457 33.0907 12.4668 25.3044 12.4668C17.5181 12.4668 11.2061 18.7457 11.2061 26.4912C11.2061 34.2366 17.5181 40.5156 25.3044 40.5156Z" fill="#E0E7FF"/>
<path d="M25.3038 23.6863C29.5861 23.6863 33.0577 19.9191 33.0577 15.2719C33.0577 10.6247 29.5861 6.85742 25.3038 6.85742C21.0214 6.85742 17.5498 10.6247 17.5498 15.2719C17.5498 19.9191 21.0214 23.6863 25.3038 23.6863Z" fill="#8B5A3C"/>
<path d="M17.5498 10.3627C22.7191 5.2205 27.8884 5.2205 33.0577 10.3627C33.0577 7.09038 30.473 4.51929 25.3038 2.64941C20.1345 4.51929 17.5498 7.09038 17.5498 10.3627Z" fill="#2E1A10"/>
</g>
<defs>
<clipPath id="clip0_3326_9651">
<rect width="50" height="35" fill="white"/>
</clipPath>
</defs>
</svg>
