<svg width="64" height="64" viewBox="0 0 64 64" fill="none" xmlns="http://www.w3.org/2000/svg">
<g clip-path="url(#clip0_3317_5139)">
<path d="M31.735 79.3361C45.5057 79.3361 56.6691 68.1727 56.6691 54.4019C56.6691 40.6312 45.5057 29.4678 31.735 29.4678C17.9642 29.4678 6.80078 40.6312 6.80078 54.4019C6.80078 68.1727 17.9642 79.3361 31.735 79.3361Z" fill="#F59E0B"/>
<path d="M31.7341 28.3346C42.3752 28.3346 51.0014 22.7529 51.0014 15.8675C51.0014 8.9821 42.3752 3.40039 31.7341 3.40039C21.0931 3.40039 12.4668 8.9821 12.4668 15.8675C12.4668 22.7529 21.0931 28.3346 31.7341 28.3346Z" fill="#1E1B1B"/>
<path d="M31.7352 48.7352C39.2465 48.7352 45.3357 42.1387 45.3357 34.0014C45.3357 25.8641 39.2465 19.2676 31.7352 19.2676C24.2239 19.2676 18.1348 25.8641 18.1348 34.0014C18.1348 42.1387 24.2239 48.7352 31.7352 48.7352Z" fill="#8B5A3C"/>
<path d="M28.335 40.8018C30.6017 42.3129 32.8684 42.3129 35.1352 40.8018" stroke="#3C2415" stroke-width="1.36007" stroke-linecap="round"/>
</g>
<defs>
<clipPath id="clip0_3317_5139">
<rect width="63.47" height="63.47" fill="white"/>
</clipPath>
</defs>
</svg>
