<svg width="52" height="40" viewBox="0 0 52 40" fill="none" xmlns="http://www.w3.org/2000/svg">
<g clip-path="url(#clip0_3326_9608)">
<path d="M26.0002 45.714C34.098 45.714 40.6625 39.3181 40.6625 31.4283C40.6625 23.5385 34.098 17.1426 26.0002 17.1426C17.9024 17.1426 11.3379 23.5385 11.3379 31.4283C11.3379 39.3181 17.9024 45.714 26.0002 45.714Z" fill="#FCE7F3"/>
<path d="M25.9997 28.5712C30.4533 28.5712 34.0638 24.7337 34.0638 20C34.0638 15.2662 30.4533 11.4287 25.9997 11.4287C21.546 11.4287 17.9355 15.2662 17.9355 20C17.9355 24.7337 21.546 28.5712 25.9997 28.5712Z" fill="#5D4037"/>
<path d="M15.7357 12.8571L14.2695 31.4281L15.7357 12.8571ZM18.6681 11.4285L17.2019 32.8567L18.6681 11.4285ZM21.6005 10L20.1343 32.8567L21.6005 10ZM30.3977 10L31.8639 32.8567L30.3977 10ZM33.3301 11.4285L34.7963 32.8567L33.3301 11.4285ZM36.2625 12.8571L37.7287 31.4281L36.2625 12.8571Z" fill="black"/>
<path d="M15.7357 12.8571L14.2695 31.4281M18.6681 11.4285L17.2019 32.8567M21.6005 10L20.1343 32.8567M30.3977 10L31.8639 32.8567M33.3301 11.4285L34.7963 32.8567M36.2625 12.8571L37.7287 31.4281" stroke="#2E1A10" stroke-width="2.6457" stroke-linecap="round"/>
<path d="M26 13.5714C31.2635 13.5714 35.5303 11.9725 35.5303 10.0001C35.5303 8.02766 31.2635 6.42871 26 6.42871C20.7366 6.42871 16.4697 8.02766 16.4697 10.0001C16.4697 11.9725 20.7366 13.5714 26 13.5714Z" fill="#2E1A10"/>
</g>
<defs>
<clipPath id="clip0_3326_9608">
<rect width="52" height="40" fill="white"/>
</clipPath>
</defs>
</svg>
