<svg width="64" height="63" viewBox="0 0 64 63" fill="none" xmlns="http://www.w3.org/2000/svg">
<g clip-path="url(#clip0_3317_5090)">
<path d="M31.735 79.3361C45.5057 79.3361 56.6691 68.1727 56.6691 54.4019C56.6691 40.6312 45.5057 29.4678 31.735 29.4678C17.9642 29.4678 6.80078 40.6312 6.80078 54.4019C6.80078 68.1727 17.9642 79.3361 31.735 79.3361Z" fill="#387440"/>
<path d="M31.7352 46.4686C39.2465 46.4686 45.3357 39.8721 45.3357 31.7348C45.3357 23.5975 39.2465 17.001 31.7352 17.001C24.2239 17.001 18.1348 23.5975 18.1348 31.7348C18.1348 39.8721 24.2239 46.4686 31.7352 46.4686Z" fill="#8B5A3C"/>
<path d="M43.0868 31.8814C43.2524 29.3193 42.9631 26.4322 41.7009 24.1445C41.44 23.6715 40.3344 22.1521 39.863 21.9805C39.4618 21.8344 36.5796 22.3896 35.886 22.4548C31.1959 22.8956 26.4833 22.8759 21.7855 22.5141C19.9313 25.4326 19.559 28.6186 19.6464 32C18.4077 28.9778 17.223 25.7722 17.0553 22.4844C16.4294 22.2625 15.7805 22.3294 15.1873 22.603C15.4009 21.4647 16.2229 20.2299 17.4168 19.9351C15.516 19.554 14.5713 17.8324 15.1873 16.0222L18.863 17.8008C16.993 16.0838 17.4231 13.1812 19.1944 11.546C21.643 14.2153 25.0846 12.1544 27.9921 11.546C31.9457 10.7186 36.6993 10.5248 39.9835 13.206C41.2617 14.2495 42.4641 15.7755 41.731 17.4747C43.2534 15.9293 45.8055 17.9877 45.9792 19.6979C46.0929 20.8176 45.7131 22.813 45.4971 23.9666C45 26.6225 44.1532 29.3989 43.0868 31.8814Z" fill="#0D0100"/>
<path d="M18.1345 35.1352C20.0123 35.1352 21.5346 33.6129 21.5346 31.7351C21.5346 29.8572 20.0123 28.335 18.1345 28.335C16.2567 28.335 14.7344 29.8572 14.7344 31.7351C14.7344 33.6129 16.2567 35.1352 18.1345 35.1352Z" fill="#1E1B1B"/>
<path d="M45.3357 35.1352C47.2135 35.1352 48.7358 33.6129 48.7358 31.7351C48.7358 29.8572 47.2135 28.335 45.3357 28.335C43.4578 28.335 41.9355 29.8572 41.9355 31.7351C41.9355 33.6129 43.4578 35.1352 45.3357 35.1352Z" fill="#1E1B1B"/>
<path d="M26.0684 35.7022C28.2592 35.7022 30.0352 33.9262 30.0352 31.7354C30.0352 29.5446 28.2592 27.7686 26.0684 27.7686C23.8776 27.7686 22.1016 29.5446 22.1016 31.7354C22.1016 33.9262 23.8776 35.7022 26.0684 35.7022Z" stroke="#0F172A" stroke-width="1.13339"/>
<path d="M37.4023 35.7022C39.5932 35.7022 41.3691 33.9262 41.3691 31.7354C41.3691 29.5446 39.5932 27.7686 37.4023 27.7686C35.2115 27.7686 33.4355 29.5446 33.4355 31.7354C33.4355 33.9262 35.2115 35.7022 37.4023 35.7022Z" stroke="#0F172A" stroke-width="1.13339"/>
<path d="M28.335 38.5352C30.6017 40.0463 32.8684 40.0463 35.1352 38.5352" stroke="#3C2415" stroke-width="1.36007" stroke-linecap="round"/>
</g>
<defs>
<clipPath id="clip0_3317_5090">
<rect width="63.47" height="63.47" fill="white"/>
</clipPath>
</defs>
</svg>
