<svg width="1024" height="1024" viewBox="0 0 1024 1024" fill="none" xmlns="http://www.w3.org/2000/svg">
<path d="M549.5 293C585.122 293 614 283.15 614 271C614 258.85 585.122 249 549.5 249C513.878 249 485 258.85 485 271C485 283.15 513.878 293 549.5 293Z" fill="#2E1A10"/>
<path d="M490.75 279L482 402.5L490.75 279ZM508.25 269.5L499.5 412L508.25 269.5ZM525.75 260L517 412L525.75 260ZM578.25 260L587 412L578.25 260ZM595.75 269.5L604.5 412L595.75 269.5ZM613.25 279L622 402.5L613.25 279Z" fill="black"/>
<path d="M490.75 279L482 402.5M508.25 269.5L499.5 412M525.75 260L517 412M578.25 260L587 412M595.75 269.5L604.5 412M613.25 279L622 402.5" stroke="#2E1A10" stroke-width="7" stroke-linecap="round"/>
</svg>
