<svg width="50" height="50" viewBox="0 0 50 50" fill="none" xmlns="http://www.w3.org/2000/svg">
<path d="M12.6289 17.5L17.5775 11.25C20.8765 10.4167 23.3508 11.25 25.0004 13.75C26.6499 11.25 29.1242 10.4167 32.4232 11.25L37.3718 17.5L33.6604 20V40H16.3403V20L12.6289 17.5Z" fill="white" stroke="#CBD5E1" stroke-width="1.83289"/>
<path d="M25 13.75V40V13.75Z" fill="black"/>
<path d="M25 13.75V40" stroke="#CBD5E1" stroke-width="1.22193"/>
<path d="M24.9994 20.6249C25.341 20.6249 25.618 20.3451 25.618 20C25.618 19.6548 25.341 19.375 24.9994 19.375C24.6578 19.375 24.3809 19.6548 24.3809 20C24.3809 20.3451 24.6578 20.6249 24.9994 20.6249Z" fill="#94A3B8"/>
<path d="M24.9994 25.6249C25.341 25.6249 25.618 25.3451 25.618 25C25.618 24.6548 25.341 24.375 24.9994 24.375C24.6578 24.375 24.3809 24.6548 24.3809 25C24.3809 25.3451 24.6578 25.6249 24.9994 25.6249Z" fill="#94A3B8"/>
<path d="M24.9994 30.6249C25.341 30.6249 25.618 30.3451 25.618 30C25.618 29.6548 25.341 29.375 24.9994 29.375C24.6578 29.375 24.3809 29.6548 24.3809 30C24.3809 30.3451 24.6578 30.6249 24.9994 30.6249Z" fill="#94A3B8"/>
<path d="M24.9994 35.6249C25.341 35.6249 25.618 35.3451 25.618 35C25.618 34.6548 25.341 34.375 24.9994 34.375C24.6578 34.375 24.3809 34.6548 24.3809 35C24.3809 35.3451 24.6578 35.6249 24.9994 35.6249Z" fill="#94A3B8"/>
</svg>
