<svg width="54" height="48" viewBox="0 0 54 48" fill="none" xmlns="http://www.w3.org/2000/svg">
<path d="M21.7241 23.1337C22.1973 23.1337 22.5809 22.75 22.5809 22.2768C22.5809 21.8036 22.1973 21.4199 21.7241 21.4199C21.2508 21.4199 20.8672 21.8036 20.8672 22.2768C20.8672 22.75 21.2508 23.1337 21.7241 23.1337Z" fill="#5D4037"/>
<path d="M25.1518 19.7069C25.625 19.7069 26.0087 19.3233 26.0087 18.85C26.0087 18.3768 25.625 17.9932 25.1518 17.9932C24.6786 17.9932 24.2949 18.3768 24.2949 18.85C24.2949 19.3233 24.6786 19.7069 25.1518 19.7069Z" fill="#5D4037"/>
<path d="M28.5795 23.1337C29.0528 23.1337 29.4364 22.75 29.4364 22.2768C29.4364 21.8036 29.0528 21.4199 28.5795 21.4199C28.1063 21.4199 27.7227 21.8036 27.7227 22.2768C27.7227 22.75 28.1063 23.1337 28.5795 23.1337Z" fill="#5D4037"/>
<path d="M32.0053 19.7069C32.4785 19.7069 32.8622 19.3233 32.8622 18.85C32.8622 18.3768 32.4785 17.9932 32.0053 17.9932C31.5321 17.9932 31.1484 18.3768 31.1484 18.85C31.1484 19.3233 31.5321 19.7069 32.0053 19.7069Z" fill="#5D4037"/>
<path d="M20.0112 28.2743C20.4844 28.2743 20.868 27.8906 20.868 27.4174C20.868 26.9442 20.4844 26.5605 20.0112 26.5605C19.5379 26.5605 19.1543 26.9442 19.1543 27.4174C19.1543 27.8906 19.5379 28.2743 20.0112 28.2743Z" fill="#5D4037"/>
<path d="M33.7201 28.2743C34.1934 28.2743 34.577 27.8906 34.577 27.4174C34.577 26.9442 34.1934 26.5605 33.7201 26.5605C33.2469 26.5605 32.8633 26.9442 32.8633 27.4174C32.8633 27.8906 33.2469 28.2743 33.7201 28.2743Z" fill="#5D4037"/>
<path d="M26.8647 31.701C27.3379 31.701 27.7215 31.3174 27.7215 30.8442C27.7215 30.3709 27.3379 29.9873 26.8647 29.9873C26.3914 29.9873 26.0078 30.3709 26.0078 30.8442C26.0078 31.3174 26.3914 31.701 26.8647 31.701Z" fill="#5D4037"/>
</svg>
