<svg width="47" height="36" viewBox="0 0 47 36" fill="none" xmlns="http://www.w3.org/2000/svg">
<g clip-path="url(#clip0_3326_9644)">
<path d="M23.4995 41.143C30.8187 41.143 36.752 35.3867 36.752 28.2859C36.752 21.185 30.8187 15.4287 23.4995 15.4287C16.1804 15.4287 10.2471 21.185 10.2471 28.2859C10.2471 35.3867 16.1804 41.143 23.4995 41.143Z" fill="#DBEAFE"/>
<path d="M23.4996 25.7144C27.5251 25.7144 30.7884 22.2607 30.7884 18.0003C30.7884 13.7399 27.5251 10.2861 23.4996 10.2861C19.4742 10.2861 16.2109 13.7399 16.2109 18.0003C16.2109 22.2607 19.4742 25.7144 23.4996 25.7144Z" fill="#6B4226"/>
<path d="M15.5488 14.1428C20.8497 9.85713 26.1506 9.85713 31.4515 14.1428C31.4515 12.8571 28.801 11.1428 23.5001 9C18.1993 11.1428 15.5488 12.8571 15.5488 14.1428Z" fill="#1E1B1B"/>
</g>
<defs>
<clipPath id="clip0_3326_9644">
<rect width="47" height="36" fill="white"/>
</clipPath>
</defs>
</svg>
