<svg width="1024" height="1024" viewBox="0 0 1024 1024" fill="none" xmlns="http://www.w3.org/2000/svg">
<g filter="url(#filter0_d_18_114)">
<path d="M504 284C536 256.5 568 256.5 600 284C600 275.75 584 264.75 552 251C520 264.75 504 275.75 504 284Z" fill="#1E1B1B"/>
<path d="M552 252.634C567.671 259.393 579.369 265.449 587.15 270.799C591.092 273.509 593.969 275.997 595.847 278.256C596.151 278.622 596.424 278.98 596.672 279.327C581.898 267.756 567.001 261.875 552 261.875C536.998 261.875 522.102 267.756 507.327 279.327C507.575 278.98 507.849 278.622 508.153 278.256C510.031 275.997 512.908 273.509 516.85 270.799C524.631 265.449 536.329 259.393 552 252.634Z" stroke="black" stroke-width="3"/>
</g>
<defs>
<filter id="filter0_d_18_114" x="500" y="251" width="104" height="41" filterUnits="userSpaceOnUse" color-interpolation-filters="sRGB">
<feFlood flood-opacity="0" result="BackgroundImageFix"/>
<feColorMatrix in="SourceAlpha" type="matrix" values="0 0 0 0 0 0 0 0 0 0 0 0 0 0 0 0 0 0 127 0" result="hardAlpha"/>
<feOffset dy="4"/>
<feGaussianBlur stdDeviation="2"/>
<feComposite in2="hardAlpha" operator="out"/>
<feColorMatrix type="matrix" values="0 0 0 0 0 0 0 0 0 0 0 0 0 0 0 0 0 0 0.25 0"/>
<feBlend mode="normal" in2="BackgroundImageFix" result="effect1_dropShadow_18_114"/>
<feBlend mode="normal" in="SourceGraphic" in2="effect1_dropShadow_18_114" result="shape"/>
</filter>
</defs>
</svg>
