<svg width="64" height="64" viewBox="0 0 64 64" fill="none" xmlns="http://www.w3.org/2000/svg">
<g clip-path="url(#clip0_3317_5132)">
<path d="M31.735 79.3361C45.5057 79.3361 56.6691 68.1727 56.6691 54.4019C56.6691 40.6312 45.5057 29.4678 31.735 29.4678C17.9642 29.4678 6.80078 40.6312 6.80078 54.4019C6.80078 68.1727 17.9642 79.3361 31.735 79.3361Z" fill="#84CC16"/>
<path d="M31.7352 46.4686C39.2465 46.4686 45.3357 39.8721 45.3357 31.7348C45.3357 23.5975 39.2465 17.001 31.7352 17.001C24.2239 17.001 18.1348 23.5975 18.1348 31.7348C18.1348 39.8721 24.2239 46.4686 31.7352 46.4686Z" fill="#6B4226"/>
<path d="M18.1348 24.9342C27.2017 17.3783 36.2687 17.3783 45.3357 24.9342C45.3357 22.6674 40.8022 19.6451 31.7352 15.8672C22.6683 19.6451 18.1348 22.6674 18.1348 24.9342Z" fill="#1E1B1B"/>
<path d="M28.335 38.5352C30.6017 40.0463 32.8684 40.0463 35.1352 38.5352" stroke="#3C2415" stroke-width="1.36007" stroke-linecap="round"/>
</g>
<defs>
<clipPath id="clip0_3317_5132">
<rect width="63.47" height="63.47" fill="white"/>
</clipPath>
</defs>
</svg>
