<svg width="1024" height="1024" viewBox="0 0 1024 1024" fill="none" xmlns="http://www.w3.org/2000/svg">
<path d="M471 473.097L504.2 440.624C526.333 436.294 542.933 440.624 554 453.613C565.067 440.624 581.667 436.294 603.8 440.624L637 473.097L612.1 486.086V590H495.9V486.086L471 473.097Z" fill="white" stroke="#CBD5E1" stroke-width="1.83289"/>
<path d="M554 457V587Z" fill="black"/>
<path d="M554 457V587" stroke="#CBD5E1" stroke-width="1.22193"/>
<path d="M554 480C556.761 480 559 477.761 559 475C559 472.239 556.761 470 554 470C551.239 470 549 472.239 549 475C549 477.761 551.239 480 554 480Z" fill="#94A3B8"/>
<path d="M555 512C557.761 512 560 509.761 560 507C560 504.239 557.761 502 555 502C552.239 502 550 504.239 550 507C550 509.761 552.239 512 555 512Z" fill="#94A3B8"/>
<path d="M554 544C556.761 544 559 541.761 559 539C559 536.239 556.761 534 554 534C551.239 534 549 536.239 549 539C549 541.761 551.239 544 554 544Z" fill="#94A3B8"/>
<path d="M554 576C556.761 576 559 573.761 559 571C559 568.239 556.761 566 554 566C551.239 566 549 568.239 549 571C549 573.761 551.239 576 554 576Z" fill="#94A3B8"/>
</svg>
