<svg width="1024" height="1024" viewBox="0 0 1024 1024" fill="none" xmlns="http://www.w3.org/2000/svg">
<path d="M501.857 349.714C502.33 349.714 502.714 349.33 502.714 348.857C502.714 348.384 502.33 348 501.857 348C501.384 348 501 348.384 501 348.857C501 349.33 501.384 349.714 501.857 349.714Z" fill="#5D4037"/>
<path d="M512.857 349.714C513.33 349.714 513.714 349.33 513.714 348.857C513.714 348.384 513.33 348 512.857 348C512.384 348 512 348.384 512 348.857C512 349.33 512.384 349.714 512.857 349.714Z" fill="#5D4037"/>
<path d="M499.857 362.714C500.33 362.714 500.714 362.33 500.714 361.857C500.714 361.384 500.33 361 499.857 361C499.384 361 499 361.384 499 361.857C499 362.33 499.384 362.714 499.857 362.714Z" fill="#5D4037"/>
<path d="M512.857 364.714C513.33 364.714 513.714 364.33 513.714 363.857C513.714 363.384 513.33 363 512.857 363C512.384 363 512 363.384 512 363.857C512 364.33 512.384 364.714 512.857 364.714Z" fill="#5D4037"/>
<path d="M503.857 356.714C504.33 356.714 504.714 356.33 504.714 355.857C504.714 355.384 504.33 355 503.857 355C503.384 355 503 355.384 503 355.857C503 356.33 503.384 356.714 503.857 356.714Z" fill="#5D4037"/>
<path d="M591.037 346.853C591.51 346.853 591.893 346.47 591.893 345.997C591.893 345.523 591.51 345.14 591.037 345.14C590.563 345.14 590.18 345.523 590.18 345.997C590.18 346.47 590.563 346.853 591.037 346.853Z" fill="#5D4037"/>
<g filter="url(#filter0_d_28_198)">
<path d="M604.857 348.714C605.33 348.714 605.714 348.33 605.714 347.857C605.714 347.384 605.33 347 604.857 347C604.384 347 604 347.384 604 347.857C604 348.33 604.384 348.714 604.857 348.714Z" fill="#5D4037"/>
<path d="M604.856 347C604.384 347 604 347.384 604 347.856C604 348.3 604.337 348.665 604.77 348.709L604.856 348.714C605.3 348.714 605.665 348.376 605.709 347.944L605.714 347.856C605.714 347.383 605.33 347 604.856 347ZM604.856 348.714V347M604.856 348.714V347" stroke="black" stroke-width="10"/>
</g>
<path d="M594.857 360.714C595.33 360.714 595.714 360.33 595.714 359.857C595.714 359.384 595.33 359 594.857 359C594.384 359 594 359.384 594 359.857C594 360.33 594.384 360.714 594.857 360.714Z" fill="#5D4037"/>
<path d="M603.857 362.714C604.33 362.714 604.714 362.33 604.714 361.857C604.714 361.384 604.33 361 603.857 361C603.384 361 603 361.384 603 361.857C603 362.33 603.384 362.714 603.857 362.714Z" fill="#5D4037"/>
<path d="M596.857 352.714C597.33 352.714 597.714 352.33 597.714 351.857C597.714 351.384 597.33 351 596.857 351C596.384 351 596 351.384 596 351.857C596 352.33 596.384 352.714 596.857 352.714Z" fill="#5D4037"/>
<defs>
<filter id="filter0_d_28_198" x="600" y="347" width="9.71289" height="9.71373" filterUnits="userSpaceOnUse" color-interpolation-filters="sRGB">
<feFlood flood-opacity="0" result="BackgroundImageFix"/>
<feColorMatrix in="SourceAlpha" type="matrix" values="0 0 0 0 0 0 0 0 0 0 0 0 0 0 0 0 0 0 127 0" result="hardAlpha"/>
<feOffset dy="4"/>
<feGaussianBlur stdDeviation="2"/>
<feComposite in2="hardAlpha" operator="out"/>
<feColorMatrix type="matrix" values="0 0 0 0 0 0 0 0 0 0 0 0 0 0 0 0 0 0 0.25 0"/>
<feBlend mode="normal" in2="BackgroundImageFix" result="effect1_dropShadow_28_198"/>
<feBlend mode="normal" in="SourceGraphic" in2="effect1_dropShadow_28_198" result="shape"/>
</filter>
</defs>
</svg>
