<svg width="64" height="17" viewBox="0 0 64 17" fill="none" xmlns="http://www.w3.org/2000/svg">
<path fill-rule="evenodd" clip-rule="evenodd" d="M7.9998 1.2998C4.02335 1.2998 0.799805 4.52335 0.799805 8.4998C0.799805 12.4763 4.02335 15.6998 7.9998 15.6998C11.9763 15.6998 15.1998 12.4763 15.1998 8.4998C15.1998 4.52335 11.9763 1.2998 7.9998 1.2998ZM11.0746 6.66667C11.2772 6.40446 11.2289 6.02765 10.9667 5.82503C10.7045 5.62242 10.3277 5.67073 10.125 5.93294L7.16473 9.76392L5.84578 8.29842C5.62411 8.05212 5.24473 8.03215 4.99843 8.25383C4.75212 8.4755 4.73215 8.85488 4.95383 9.10118L6.75383 11.1012C6.87286 11.2334 7.04446 11.306 7.22228 11.2994C7.40009 11.2927 7.56577 11.2075 7.67457 11.0667L11.0746 6.66667Z" fill="#BABAB7"/>
<path d="M33.1543 13.1641C30.3311 13.1641 28.5537 11.1885 28.5537 8.02344C28.5537 4.91309 30.3242 2.97168 33.1338 2.97168C34.9727 2.97168 36.4492 3.8877 36.9961 5.20703C37.085 5.42578 37.1055 5.59668 37.1055 5.76758C37.1055 6.1709 36.8389 6.44434 36.4219 6.44434C36.0732 6.44434 35.8477 6.28027 35.6562 5.89746C35.1572 4.85156 34.2822 4.31152 33.1406 4.31152C31.2539 4.31152 30.1191 5.69238 30.1191 8.00977C30.1191 10.3682 31.2881 11.8242 33.168 11.8242C34.7676 11.8242 35.875 10.7988 35.8955 9.30176V9.13086H33.9062C33.5098 9.13086 33.2363 8.88477 33.2363 8.51562C33.2363 8.13965 33.5098 7.89355 33.9062 7.89355H36.6406C37.1123 7.89355 37.4062 8.19434 37.4062 8.69336V8.93945C37.4062 11.5439 35.8408 13.1641 33.1543 13.1641ZM41.9554 13.1367C39.8978 13.1367 38.5443 11.7217 38.5443 9.4043C38.5443 7.09375 39.9046 5.67871 41.9554 5.67871C44.0062 5.67871 45.3666 7.09375 45.3666 9.4043C45.3666 11.7217 44.013 13.1367 41.9554 13.1367ZM41.9554 11.9199C43.1175 11.9199 43.8627 11.0039 43.8627 9.4043C43.8627 7.81152 43.1107 6.89551 41.9554 6.89551C40.8002 6.89551 40.0482 7.81152 40.0482 9.4043C40.0482 11.0039 40.8002 11.9199 41.9554 11.9199ZM48.7536 13.123C47.3454 13.123 46.3542 12.248 46.3542 10.9561C46.3542 9.69824 47.3249 8.92578 49.0271 8.83008L51.0027 8.71387V8.16016C51.0027 7.36035 50.4626 6.88184 49.5603 6.88184C48.8493 6.88184 48.3777 7.13477 47.9675 7.79102C47.8171 8.00977 47.6257 8.10547 47.3659 8.10547C46.9968 8.10547 46.7302 7.85938 46.7302 7.49023C46.7302 7.33984 46.7712 7.17578 46.8601 7.01172C47.2361 6.19824 48.323 5.67871 49.615 5.67871C51.3581 5.67871 52.4724 6.60156 52.4724 8.04395V12.3848C52.4724 12.8496 52.1784 13.1299 51.7614 13.1299C51.3513 13.1299 51.071 12.8633 51.0573 12.4258V11.8174H51.0232C50.6062 12.6172 49.6902 13.123 48.7536 13.123ZM49.157 11.9541C50.1892 11.9541 51.0027 11.2432 51.0027 10.3066V9.73926L49.2253 9.84863C48.3435 9.91016 47.8445 10.2998 47.8445 10.915C47.8445 11.5439 48.3708 11.9541 49.157 11.9541ZM54.8409 13.1299C54.4102 13.1299 54.1026 12.8359 54.1026 12.3506V3.78516C54.1026 3.2998 54.4102 3.00586 54.8409 3.00586C55.2716 3.00586 55.5792 3.2998 55.5792 3.78516V12.3506C55.5792 12.8359 55.2716 13.1299 54.8409 13.1299ZM59.8891 13.1367C58.4741 13.1367 57.435 12.5557 57.0932 11.6738C57.0454 11.5645 57.0317 11.4619 57.0317 11.3662C57.0317 10.9971 57.2983 10.7783 57.6674 10.7783C57.9135 10.7783 58.1254 10.8945 58.31 11.168C58.6791 11.749 59.1098 12.0088 59.9643 12.0088C60.8051 12.0088 61.3725 11.6465 61.3725 11.0518C61.3725 10.5801 61.0922 10.3271 60.3198 10.1426L59.185 9.87598C57.7905 9.54785 57.1069 8.86426 57.1069 7.83887C57.1069 6.54004 58.2348 5.67871 59.9438 5.67871C61.2426 5.67871 62.309 6.3418 62.5141 7.18945C62.5278 7.27148 62.5414 7.33984 62.5414 7.4082C62.5414 7.73633 62.3364 7.95508 61.9672 7.95508C61.728 7.95508 61.5161 7.87305 61.3725 7.64062C61.0512 7.09375 60.6137 6.80664 59.8891 6.80664C59.0961 6.80664 58.5493 7.19629 58.5493 7.75684C58.5493 8.20801 58.8979 8.52246 59.6567 8.7002L60.7709 8.95996C62.2817 9.30859 62.8627 9.84863 62.8627 10.915C62.8627 12.248 61.6664 13.1367 59.8891 13.1367Z" fill="#BABAB7"/>
</svg>
