<svg width="86" height="31" viewBox="0 0 86 31" fill="none" xmlns="http://www.w3.org/2000/svg">
<g filter="url(#filter0_d_3384_119167)">
<rect width="86" height="21" rx="4" fill="#387440" shape-rendering="crispEdges"/>
<path d="M17.8972 13.0938C16.2253 13.0938 15.2097 12 15.2097 10.1797C15.2097 8.36328 16.2448 7.26562 17.8659 7.26562C18.9206 7.26562 19.737 7.73438 20.1238 8.54688C20.2019 8.69531 20.2409 8.84766 20.2409 8.98828C20.2409 9.29688 20.0339 9.49609 19.7214 9.49609C19.4558 9.49609 19.2878 9.37891 19.1589 9.10547C18.9011 8.53125 18.4402 8.24219 17.8777 8.24219C16.987 8.24219 16.4128 8.98828 16.4128 10.1758C16.4128 11.3789 16.9792 12.1211 17.8816 12.1211C18.4753 12.1211 18.9206 11.8516 19.1745 11.2852C19.2956 11.0195 19.4441 10.9141 19.6941 10.9141C20.0261 10.9141 20.2448 11.125 20.2448 11.4375C20.2448 11.5703 20.2136 11.6953 20.155 11.832C19.8034 12.6133 18.9636 13.0938 17.8972 13.0938ZM24.4316 13.0938C22.7597 13.0938 21.7128 11.9766 21.7128 10.1836C21.7128 8.38672 22.7597 7.26562 24.4316 7.26562C26.0995 7.26562 27.1503 8.38672 27.1503 10.1836C27.1503 11.9766 26.0995 13.0938 24.4316 13.0938ZM24.4316 12.1094C25.3534 12.1094 25.9433 11.3633 25.9433 10.1836C25.9433 9 25.3534 8.25 24.4316 8.25C23.5097 8.25 22.9159 9 22.9159 10.1836C22.9159 11.3633 23.5058 12.1094 24.4316 12.1094ZM29.2784 13.0742C28.923 13.0742 28.712 12.8594 28.712 12.4844V7.875C28.712 7.5 28.9308 7.28516 29.3058 7.28516C29.548 7.28516 29.712 7.38281 29.8917 7.62891L32.3292 11.0352H32.3605V7.87891C32.3605 7.5 32.5714 7.28516 32.9269 7.28516C33.2823 7.28516 33.4894 7.5 33.4894 7.87891V12.5C33.4894 12.8672 33.2823 13.0742 32.9113 13.0742C32.6573 13.0742 32.5011 12.9844 32.3214 12.7344L29.8761 9.30859H29.8409V12.4844C29.8409 12.8594 29.63 13.0742 29.2784 13.0742ZM37.1683 13.0742C36.7972 13.0742 36.5784 12.8477 36.5784 12.4609V8.33984H35.4144C35.0941 8.33984 34.8792 8.15625 34.8792 7.85156C34.8792 7.54688 35.0902 7.36328 35.4144 7.36328H38.9261C39.2464 7.36328 39.4573 7.54688 39.4573 7.85156C39.4573 8.15625 39.2425 8.33984 38.9261 8.33984H37.7581V12.4609C37.7581 12.8477 37.5394 13.0742 37.1683 13.0742ZM41.4331 13.0742C41.062 13.0742 40.8433 12.8477 40.8433 12.4609V7.90234C40.8433 7.51172 41.062 7.28516 41.4331 7.28516C41.8042 7.28516 42.023 7.51172 42.023 7.90234V12.4609C42.023 12.8477 41.8042 13.0742 41.4331 13.0742ZM44.3269 13.0742C43.9714 13.0742 43.7605 12.8594 43.7605 12.4844V7.875C43.7605 7.5 43.9792 7.28516 44.3542 7.28516C44.5964 7.28516 44.7605 7.38281 44.9402 7.62891L47.3777 11.0352H47.4089V7.87891C47.4089 7.5 47.6198 7.28516 47.9753 7.28516C48.3308 7.28516 48.5378 7.5 48.5378 7.87891V12.5C48.5378 12.8672 48.3308 13.0742 47.9597 13.0742C47.7058 13.0742 47.5495 12.9844 47.3698 12.7344L44.9245 9.30859H44.8894V12.4844C44.8894 12.8594 44.6784 13.0742 44.3269 13.0742ZM52.6425 13.0938C51.1972 13.0938 50.2792 12.25 50.2792 11.0078V7.90234C50.2792 7.51172 50.498 7.28516 50.8691 7.28516C51.2402 7.28516 51.4589 7.51172 51.4589 7.90234V10.8906C51.4589 11.6133 51.8847 12.0859 52.6425 12.0859C53.3964 12.0859 53.8222 11.6133 53.8222 10.8906V7.90234C53.8222 7.51172 54.0409 7.28516 54.412 7.28516C54.7831 7.28516 55.0019 7.51172 55.0019 7.90234V11.0078C55.0019 12.25 54.0839 13.0938 52.6425 13.0938ZM57.3331 13C56.962 13 56.7433 12.7734 56.7433 12.3828V7.97656C56.7433 7.58984 56.962 7.36328 57.3331 7.36328H60.0128C60.337 7.36328 60.548 7.54688 60.548 7.85156C60.548 8.15625 60.3331 8.33984 60.0128 8.33984H57.923V9.69531H59.9112C60.2042 9.69531 60.4034 9.86719 60.4034 10.1484C60.4034 10.4297 60.2081 10.6016 59.9112 10.6016H57.923V12.0234H60.0128C60.3331 12.0234 60.548 12.207 60.548 12.5117C60.548 12.8164 60.337 13 60.0128 13H57.3331ZM70.812 10.168C70.812 10.3008 70.7573 10.4336 70.6675 10.5234L68.6831 12.5C68.5816 12.5977 68.4644 12.6484 68.3511 12.6484C68.0698 12.6484 67.8784 12.4531 67.8784 12.1953C67.8784 12.0547 67.9409 11.9414 68.0308 11.8555L68.6519 11.2305L69.3316 10.6094L68.6636 10.6484H65.3238C65.0269 10.6484 64.8277 10.4531 64.8277 10.168C64.8277 9.88281 65.0269 9.69141 65.3238 9.69141H68.6636L69.3316 9.73047L68.6519 9.10938L68.0308 8.48438C67.9409 8.39453 67.8784 8.28516 67.8784 8.14062C67.8784 7.88281 68.0698 7.6875 68.3511 7.6875C68.4644 7.6875 68.5816 7.73828 68.6831 7.83984L70.6675 9.81641C70.7573 9.90625 70.812 10.0391 70.812 10.168Z" fill="white"/>
<rect x="48.1602" y="22" width="4" height="4" stroke="#2A5730" stroke-width="4"/>
</g>
<defs>
<filter id="filter0_d_3384_119167" x="0" y="0" width="86" height="31" filterUnits="userSpaceOnUse" color-interpolation-filters="sRGB">
<feFlood flood-opacity="0" result="BackgroundImageFix"/>
<feColorMatrix in="SourceAlpha" type="matrix" values="0 0 0 0 0 0 0 0 0 0 0 0 0 0 0 0 0 0 127 0" result="hardAlpha"/>
<feOffset dy="3"/>
<feComposite in2="hardAlpha" operator="out"/>
<feColorMatrix type="matrix" values="0 0 0 0 0.164706 0 0 0 0 0.341176 0 0 0 0 0.188235 0 0 0 1 0"/>
<feBlend mode="normal" in2="BackgroundImageFix" result="effect1_dropShadow_3384_119167"/>
<feBlend mode="normal" in="SourceGraphic" in2="effect1_dropShadow_3384_119167" result="shape"/>
</filter>
</defs>
</svg>
