<svg width="97" height="97" viewBox="0 0 97 97" fill="none" xmlns="http://www.w3.org/2000/svg">
<rect width="96.72" height="96.72" rx="16" fill="#F8F8F4"/>
<g clip-path="url(#clip0_3296_4661)">
<path d="M48.5533 109.196C62.3241 109.196 73.4875 98.0331 73.4875 84.2623C73.4875 70.4915 62.3241 59.3281 48.5533 59.3281C34.7825 59.3281 23.6191 70.4915 23.6191 84.2623C23.6191 98.0331 34.7825 109.196 48.5533 109.196Z" fill="#0EA5E9"/>
<path d="M25.8857 63.8618C25.8857 48.7501 33.4416 41.1943 48.5532 41.1943C63.6648 41.1943 71.2206 48.7501 71.2206 63.8618V84.2625H25.8857V63.8618Z" fill="#5B21B6"/>
<path d="M48.553 77.4626C55.4384 77.4626 61.0201 71.3735 61.0201 63.8622C61.0201 56.3509 55.4384 50.2617 48.553 50.2617C41.6676 50.2617 36.0859 56.3509 36.0859 63.8622C36.0859 71.3735 41.6676 77.4626 48.553 77.4626Z" fill="#A06B4A"/>
<path d="M45.1533 68.3955C47.4201 69.9067 49.6868 69.9067 51.9535 68.3955" stroke="#3C2415" stroke-width="1.36007" stroke-linecap="round"/>
</g>
<defs>
<clipPath id="clip0_3296_4661">
<rect width="63.47" height="63.47" fill="white" transform="translate(16.8184 29.8604)"/>
</clipPath>
</defs>
</svg>
