<svg width="82" height="17" viewBox="0 0 82 17" fill="none" xmlns="http://www.w3.org/2000/svg">
<path fill-rule="evenodd" clip-rule="evenodd" d="M7.9998 1.2998C4.02335 1.2998 0.799805 4.52335 0.799805 8.4998C0.799805 12.4763 4.02335 15.6998 7.9998 15.6998C11.9763 15.6998 15.1998 12.4763 15.1998 8.4998C15.1998 4.52335 11.9763 1.2998 7.9998 1.2998ZM11.0746 6.66667C11.2772 6.40446 11.2289 6.02765 10.9667 5.82503C10.7045 5.62242 10.3277 5.67073 10.125 5.93294L7.16473 9.76392L5.84578 8.29842C5.62411 8.05212 5.24473 8.03215 4.99843 8.25383C4.75212 8.4755 4.73215 8.85488 4.95383 9.10118L6.75383 11.1012C6.87286 11.2334 7.04446 11.306 7.22228 11.2994C7.40009 11.2927 7.56577 11.2075 7.67457 11.0667L11.0746 6.66667Z" fill="#BABAB7"/>
<path d="M29.6748 13.1094C29.1963 13.1094 28.9092 12.8086 28.9092 12.3164V3.81934C28.9092 3.32715 29.1963 3.02637 29.6748 3.02637C30.1465 3.02637 30.4404 3.32715 30.4404 3.81934V12.3164C30.4404 12.8086 30.1465 13.1094 29.6748 13.1094ZM32.9593 13.1299C32.5218 13.1299 32.2211 12.8359 32.2211 12.3506V6.42383C32.2211 5.97266 32.4945 5.67871 32.9252 5.67871C33.349 5.67871 33.6429 5.97266 33.6429 6.43066V6.99805H33.6771C34.0668 6.17773 34.8187 5.68555 35.9261 5.68555C37.5121 5.68555 38.4213 6.69727 38.4213 8.34473V12.3506C38.4213 12.8359 38.1136 13.1299 37.6761 13.1299C37.2455 13.1299 36.9379 12.8359 36.9379 12.3506V8.63184C36.9379 7.55176 36.432 6.95703 35.4066 6.95703C34.3675 6.95703 33.6976 7.69531 33.6976 8.80957V12.3506C33.6976 12.8359 33.39 13.1299 32.9593 13.1299ZM40.4206 11.2773V6.97754H39.9011C39.5183 6.97754 39.2859 6.75879 39.2859 6.39648C39.2859 6.02734 39.5183 5.80859 39.9011 5.80859H40.4206V4.74219C40.4206 4.27051 40.7146 3.95605 41.1657 3.95605C41.6101 3.95605 41.904 4.27051 41.904 4.74219V5.80859H42.7448C43.1277 5.80859 43.3601 6.03418 43.3601 6.39648C43.3601 6.75879 43.1277 6.97754 42.7448 6.97754H41.904V10.9492C41.904 11.5234 42.1023 11.7832 42.6355 11.8242L42.7517 11.8311C43.1755 11.8721 43.3874 12.043 43.3874 12.3916C43.3874 12.8359 43.0456 13.0615 42.321 13.0615H42.2458C41.0359 13.0615 40.4206 12.4668 40.4206 11.2773ZM47.5811 13.1367C45.4141 13.1367 44.1427 11.7627 44.1427 9.43848C44.1427 7.15527 45.4415 5.67871 47.4786 5.67871C49.3927 5.67871 50.712 7.05957 50.712 9.02148C50.712 9.5 50.4386 9.77344 49.9805 9.77344H45.6329V9.80762C45.6329 11.1201 46.3712 11.9404 47.547 11.9404C48.3536 11.9404 48.8595 11.6602 49.4063 10.915C49.5636 10.7305 49.7139 10.6553 49.9259 10.6553C50.2813 10.6553 50.5411 10.8877 50.5411 11.2568C50.5411 11.373 50.5001 11.5098 50.4386 11.6533C49.9669 12.5967 48.921 13.1367 47.5811 13.1367ZM45.6397 8.74121H49.2354C49.2013 7.61328 48.4971 6.86816 47.4718 6.86816C46.4532 6.86816 45.7149 7.62012 45.6397 8.74121ZM52.7387 13.1299C52.2944 13.1299 52.0004 12.8291 52.0004 12.3506V6.42383C52.0004 5.97266 52.2875 5.67871 52.7045 5.67871C53.1147 5.67871 53.4018 5.97266 53.4018 6.42383V7.03906H53.436C53.6342 6.23242 54.2973 5.69238 55.0151 5.69238C55.2748 5.69238 55.4731 5.75391 55.5961 5.87012C55.7329 5.97949 55.7944 6.15723 55.7944 6.38965C55.7944 6.62207 55.7192 6.79297 55.5756 6.90918C55.4252 7.03906 55.2065 7.10059 54.8989 7.10059C53.8871 7.10742 53.477 7.78418 53.477 8.67969V12.3506C53.477 12.8291 53.1762 13.1299 52.7387 13.1299ZM59.5506 13.1367C57.3836 13.1367 56.1121 11.7627 56.1121 9.43848C56.1121 7.15527 57.4109 5.67871 59.448 5.67871C61.3621 5.67871 62.6814 7.05957 62.6814 9.02148C62.6814 9.5 62.408 9.77344 61.95 9.77344H57.6023V9.80762C57.6023 11.1201 58.3406 11.9404 59.5164 11.9404C60.323 11.9404 60.8289 11.6602 61.3758 10.915C61.533 10.7305 61.6834 10.6553 61.8953 10.6553C62.2508 10.6553 62.5105 10.8877 62.5105 11.2568C62.5105 11.373 62.4695 11.5098 62.408 11.6533C61.9363 12.5967 60.8904 13.1367 59.5506 13.1367ZM57.6092 8.74121H61.2049C61.1707 7.61328 60.4666 6.86816 59.4412 6.86816C58.4227 6.86816 57.6844 7.62012 57.6092 8.74121ZM66.6222 13.1367C65.2072 13.1367 64.1681 12.5557 63.8263 11.6738C63.7785 11.5645 63.7648 11.4619 63.7648 11.3662C63.7648 10.9971 64.0314 10.7783 64.4005 10.7783C64.6466 10.7783 64.8586 10.8945 65.0431 11.168C65.4123 11.749 65.8429 12.0088 66.6974 12.0088C67.5382 12.0088 68.1056 11.6465 68.1056 11.0518C68.1056 10.5801 67.8254 10.3271 67.0529 10.1426L65.9181 9.87598C64.5236 9.54785 63.84 8.86426 63.84 7.83887C63.84 6.54004 64.9679 5.67871 66.6769 5.67871C67.9757 5.67871 69.0421 6.3418 69.2472 7.18945C69.2609 7.27148 69.2746 7.33984 69.2746 7.4082C69.2746 7.73633 69.0695 7.95508 68.7004 7.95508C68.4611 7.95508 68.2492 7.87305 68.1056 7.64062C67.7843 7.09375 67.3468 6.80664 66.6222 6.80664C65.8293 6.80664 65.2824 7.19629 65.2824 7.75684C65.2824 8.20801 65.631 8.52246 66.3898 8.7002L67.5041 8.95996C69.0148 9.30859 69.5959 9.84863 69.5959 10.915C69.5959 12.248 68.3996 13.1367 66.6222 13.1367ZM71.3081 11.2773V6.97754H70.7886C70.4058 6.97754 70.1734 6.75879 70.1734 6.39648C70.1734 6.02734 70.4058 5.80859 70.7886 5.80859H71.3081V4.74219C71.3081 4.27051 71.6021 3.95605 72.0532 3.95605C72.4976 3.95605 72.7915 4.27051 72.7915 4.74219V5.80859H73.6323C74.0152 5.80859 74.2476 6.03418 74.2476 6.39648C74.2476 6.75879 74.0152 6.97754 73.6323 6.97754H72.7915V10.9492C72.7915 11.5234 72.9898 11.7832 73.523 11.8242L73.6392 11.8311C74.063 11.8721 74.2749 12.043 74.2749 12.3916C74.2749 12.8359 73.9331 13.0615 73.2085 13.0615H73.1333C71.9234 13.0615 71.3081 12.4668 71.3081 11.2773ZM78.1679 13.1367C76.7528 13.1367 75.7137 12.5557 75.372 11.6738C75.3241 11.5645 75.3104 11.4619 75.3104 11.3662C75.3104 10.9971 75.577 10.7783 75.9462 10.7783C76.1923 10.7783 76.4042 10.8945 76.5887 11.168C76.9579 11.749 77.3886 12.0088 78.243 12.0088C79.0839 12.0088 79.6512 11.6465 79.6512 11.0518C79.6512 10.5801 79.371 10.3271 78.5985 10.1426L77.4637 9.87598C76.0692 9.54785 75.3856 8.86426 75.3856 7.83887C75.3856 6.54004 76.5136 5.67871 78.2225 5.67871C79.5214 5.67871 80.5878 6.3418 80.7929 7.18945C80.8065 7.27148 80.8202 7.33984 80.8202 7.4082C80.8202 7.73633 80.6151 7.95508 80.246 7.95508C80.0067 7.95508 79.7948 7.87305 79.6512 7.64062C79.33 7.09375 78.8925 6.80664 78.1679 6.80664C77.3749 6.80664 76.828 7.19629 76.828 7.75684C76.828 8.20801 77.1766 8.52246 77.9354 8.7002L79.0497 8.95996C80.5604 9.30859 81.1415 9.84863 81.1415 10.915C81.1415 12.248 79.9452 13.1367 78.1679 13.1367Z" fill="#BABAB7"/>
</svg>
