<svg width="97" height="97" viewBox="0 0 97 97" fill="none" xmlns="http://www.w3.org/2000/svg">
<rect width="96.72" height="96.72" rx="16" fill="#F8F8F4"/>
<g clip-path="url(#clip0_3296_4670)">
<path d="M48.5533 109.196C62.3241 109.196 73.4875 98.0331 73.4875 84.2623C73.4875 70.4915 62.3241 59.3281 48.5533 59.3281C34.7825 59.3281 23.6191 70.4915 23.6191 84.2623C23.6191 98.0331 34.7825 109.196 48.5533 109.196Z" fill="#10B981"/>
<path d="M28.1523 57.0613C28.1523 49.5054 34.9526 45.7275 48.553 45.7275C62.1535 45.7275 68.9537 49.5054 68.9537 57.0613" fill="#D97706"/>
<path d="M32.6855 50.2617H64.4199H32.6855ZM32.6855 53.6618H64.4199H32.6855Z" fill="black"/>
<path d="M32.6855 50.2617H64.4199M32.6855 53.6618H64.4199" stroke="#FBBF24" stroke-width="1.70009"/>
<path d="M48.553 77.4626C55.4384 77.4626 61.0201 71.3735 61.0201 63.8622C61.0201 56.3509 55.4384 50.2617 48.553 50.2617C41.6676 50.2617 36.0859 56.3509 36.0859 63.8622C36.0859 71.3735 41.6676 77.4626 48.553 77.4626Z" fill="#A06B4A"/>
<path d="M45.1533 69.5293C47.4201 71.0405 49.6868 71.0405 51.9535 69.5293" stroke="#3C2415" stroke-width="1.36007" stroke-linecap="round"/>
</g>
<defs>
<clipPath id="clip0_3296_4670">
<rect width="63.47" height="63.47" fill="white" transform="translate(16.8184 29.8604)"/>
</clipPath>
</defs>
</svg>
