<svg width="97" height="97" viewBox="0 0 97 97" fill="none" xmlns="http://www.w3.org/2000/svg">
<rect width="96.72" height="96.72" rx="16" fill="#F8F8F4"/>
<g clip-path="url(#clip0_3296_4664)">
<path d="M48.5533 109.196C62.3241 109.196 73.4875 98.0331 73.4875 84.2623C73.4875 70.4915 62.3241 59.3281 48.5533 59.3281C34.7825 59.3281 23.6191 70.4915 23.6191 84.2623C23.6191 98.0331 34.7825 109.196 48.5533 109.196Z" fill="#84CC16"/>
<path d="M48.5536 76.329C56.0649 76.329 62.154 69.7324 62.154 61.5952C62.154 53.4579 56.0649 46.8613 48.5536 46.8613C41.0423 46.8613 34.9531 53.4579 34.9531 61.5952C34.9531 69.7324 41.0423 76.329 48.5536 76.329Z" fill="#6B4226"/>
<path d="M34.9531 54.7945C44.0201 47.2387 53.0871 47.2387 62.154 54.7945C62.154 52.5278 57.6206 49.5054 48.5536 45.7275C39.4866 49.5054 34.9531 52.5278 34.9531 54.7945Z" fill="#1E1B1B"/>
<path d="M45.1533 68.3955C47.4201 69.9067 49.6868 69.9067 51.9535 68.3955" stroke="#3C2415" stroke-width="1.36007" stroke-linecap="round"/>
</g>
<defs>
<clipPath id="clip0_3296_4664">
<rect width="63.47" height="63.47" fill="white" transform="translate(16.8184 29.8604)"/>
</clipPath>
</defs>
</svg>
