<svg width="76" height="82" viewBox="0 0 76 82" fill="none" xmlns="http://www.w3.org/2000/svg">
<g filter="url(#filter0_d_3384_119214)">
<rect width="76" height="76" rx="38" fill="url(#paint0_linear_3384_119214)" shape-rendering="crispEdges"/>
<rect x="1.5" y="1.5" width="73" height="73" rx="36.5" stroke="#FCD34D" stroke-width="3" shape-rendering="crispEdges"/>
<path d="M17.9658 56.3301V49.8501H20.8638C21.3318 49.8501 21.7398 49.9311 22.0878 50.0931C22.4358 50.2491 22.7058 50.4711 22.8978 50.7591C23.0898 51.0471 23.1858 51.3831 23.1858 51.7671C23.1858 52.1451 23.0898 52.4781 22.8978 52.7661C22.7058 53.0481 22.4358 53.2701 22.0878 53.4321C21.7398 53.5881 21.3318 53.6661 20.8638 53.6661H19.0638V52.6491H20.8278C21.1578 52.6491 21.4098 52.5741 21.5838 52.4241C21.7638 52.2681 21.8538 52.0521 21.8538 51.7761C21.8538 51.4941 21.7668 51.2811 21.5928 51.1371C21.4188 50.9871 21.1638 50.9121 20.8278 50.9121H19.3518V56.3301H17.9658ZM21.6198 56.3301L19.0188 52.9641H20.4858L23.4918 56.3301H21.6198ZM24.3136 56.3301V49.8501H25.6996V56.3301H24.3136ZM24.9616 56.3301V55.2681H29.1376V56.3301H24.9616ZM24.9616 53.5401V52.4961H28.8226V53.5401H24.9616ZM24.9616 50.9121V49.8501H29.0296V50.9121H24.9616ZM31.7634 56.3301L29.9364 49.8501H31.3404L32.8524 55.7811H32.4114L33.7614 49.8501H35.3364L36.6684 55.7811H36.2364L37.7574 49.8501H39.0984L37.2714 56.3301H35.7234L34.3464 50.5161H34.7064L33.3114 56.3301H31.7634ZM38.9266 56.3301L41.2486 49.8501H42.4366L40.3036 56.3301H38.9266ZM43.6786 56.3301L41.5546 49.8501H42.7966L45.1186 56.3301H43.6786ZM40.1506 53.8191H43.7866V54.8991H40.1506V53.8191ZM45.9373 56.3301V49.8501H48.8353C49.3033 49.8501 49.7113 49.9311 50.0593 50.0931C50.4073 50.2491 50.6773 50.4711 50.8693 50.7591C51.0613 51.0471 51.1573 51.3831 51.1573 51.7671C51.1573 52.1451 51.0613 52.4781 50.8693 52.7661C50.6773 53.0481 50.4073 53.2701 50.0593 53.4321C49.7113 53.5881 49.3033 53.6661 48.8353 53.6661H47.0353V52.6491H48.7993C49.1293 52.6491 49.3813 52.5741 49.5553 52.4241C49.7353 52.2681 49.8253 52.0521 49.8253 51.7761C49.8253 51.4941 49.7383 51.2811 49.5643 51.1371C49.3903 50.9871 49.1353 50.9121 48.7993 50.9121H47.3233V56.3301H45.9373ZM49.5913 56.3301L46.9903 52.9641H48.4573L51.4633 56.3301H49.5913ZM53.131 56.3301V55.2501H54.769C55.237 55.2501 55.633 55.1571 55.957 54.9711C56.287 54.7791 56.536 54.5181 56.704 54.1881C56.878 53.8581 56.965 53.4801 56.965 53.0541C56.965 52.6341 56.881 52.2651 56.713 51.9471C56.545 51.6291 56.296 51.3801 55.966 51.2001C55.642 51.0201 55.243 50.9301 54.769 50.9301H53.158V49.8501H54.769C55.495 49.8501 56.128 49.9821 56.668 50.2461C57.208 50.5041 57.625 50.8761 57.919 51.3621C58.219 51.8421 58.369 52.4121 58.369 53.0721C58.369 53.7321 58.219 54.3081 57.919 54.8001C57.619 55.2861 57.199 55.6641 56.659 55.9341C56.125 56.1981 55.498 56.3301 54.778 56.3301H53.131ZM52.285 56.3301V49.8501H53.671V56.3301H52.285Z" fill="#78350F"/>
</g>
<defs>
<filter id="filter0_d_3384_119214" x="0" y="0" width="76" height="82" filterUnits="userSpaceOnUse" color-interpolation-filters="sRGB">
<feFlood flood-opacity="0" result="BackgroundImageFix"/>
<feColorMatrix in="SourceAlpha" type="matrix" values="0 0 0 0 0 0 0 0 0 0 0 0 0 0 0 0 0 0 127 0" result="hardAlpha"/>
<feOffset dy="6"/>
<feComposite in2="hardAlpha" operator="out"/>
<feColorMatrix type="matrix" values="0 0 0 0 0.85098 0 0 0 0 0.466667 0 0 0 0 0.0235294 0 0 0 1 0"/>
<feBlend mode="normal" in2="BackgroundImageFix" result="effect1_dropShadow_3384_119214"/>
<feBlend mode="normal" in="SourceGraphic" in2="effect1_dropShadow_3384_119214" result="shape"/>
</filter>
<linearGradient id="paint0_linear_3384_119214" x1="7.64422" y1="-5.35254" x2="68.3558" y2="81.3525" gradientUnits="userSpaceOnUse">
<stop stop-color="#FFF8DC"/>
<stop offset="1" stop-color="#FEF3C7"/>
</linearGradient>
</defs>
</svg>
