<svg width="1024" height="1024" viewBox="0 0 1024 1024" fill="none" xmlns="http://www.w3.org/2000/svg">
<g transform="translate(-107.323 -80.632) scale(1.1905)">
<path d="M506.96 461.17L523.4 440.355C537.667 436.742 548.367 440.355 555.5 451.194C562.633 440.355 573.333 436.742 587.6 440.355L604.04 461.17Q609 467.452 609 475.452V565H502V475.452Q502 467.452 506.96 461.17Z" fill="white" stroke="#CBD5E1" stroke-width="1.83223"/>
<path d="M554 458V558Z" fill="black"/>
<path d="M554 458V558" stroke="#CBD5E1" stroke-width="1.22149"/>
<path d="M548 485H563" stroke="#0F172A" stroke-width="0.732891"/>
<path d="M577 488H562V508H577V488Z" stroke="#CBD5E1" stroke-width="1.22149"/>
<path d="M568 498C569.657 498 571 496.657 571 495C571 493.343 569.657 492 568 492C566.343 492 565 493.343 565 495C565 496.657 566.343 498 568 498Z" fill="#0EA5E9"/>
</g>
</svg>
