<svg width="64" height="64" viewBox="0 0 64 64" fill="none" xmlns="http://www.w3.org/2000/svg">
<g clip-path="url(#clip0_3317_5177)">
<path d="M31.735 79.3361C45.5057 79.3361 56.6691 68.1727 56.6691 54.4019C56.6691 40.6312 45.5057 29.4678 31.735 29.4678C17.9642 29.4678 6.80078 40.6312 6.80078 54.4019C6.80078 68.1727 17.9642 79.3361 31.735 79.3361Z" fill="#F43F5E"/>
<path d="M31.7352 48.7352C39.2465 48.7352 45.3357 42.1387 45.3357 34.0014C45.3357 25.8641 39.2465 19.2676 31.7352 19.2676C24.2239 19.2676 18.1348 25.8641 18.1348 34.0014C18.1348 42.1387 24.2239 48.7352 31.7352 48.7352Z" fill="#A06B4A"/>
<path d="M15.8672 20.4011C15.8672 12.8453 21.1563 9.06738 31.7344 9.06738C42.3125 9.06738 47.6016 12.8453 47.6016 20.4011C47.6016 34.0016 46.846 43.8241 45.3348 49.8688C43.8237 39.2906 44.5793 29.4681 47.6016 20.4011M15.8672 20.4011C15.8672 34.0016 16.6228 43.8241 18.1339 49.8688C19.6451 39.2906 18.8895 29.4681 15.8672 20.4011Z" fill="#3C2415"/>
<path d="M28.335 40.8018C30.6017 42.3129 32.8684 42.3129 35.1352 40.8018" stroke="#3C2415" stroke-width="1.36007" stroke-linecap="round"/>
</g>
<defs>
<clipPath id="clip0_3317_5177">
<rect width="63.47" height="63.47" fill="white"/>
</clipPath>
</defs>
</svg>
