<svg width="60" height="47" viewBox="0 0 60 47" fill="none" xmlns="http://www.w3.org/2000/svg">
<g clip-path="url(#clip0_3326_9668)">
<path d="M30.0001 53.714C39.3436 53.714 46.9181 46.1988 46.9181 36.9283C46.9181 27.6578 39.3436 20.1426 30.0001 20.1426C20.6565 20.1426 13.082 27.6578 13.082 36.9283C13.082 46.1988 20.6565 53.714 30.0001 53.714Z" fill="#FFEDD5"/>
<path d="M14.7734 18.464C14.7734 12.8689 19.8487 10.0713 29.9994 10.0713C40.15 10.0713 45.2253 12.8689 45.2253 18.464" fill="#D97706"/>
<path d="M18.1572 13.4287H41.842H18.1572ZM18.1572 15.9465H41.842H18.1572Z" fill="black"/>
<path d="M18.1572 13.4287H41.842M18.1572 15.9465H41.842" stroke="#FBBF24" stroke-width="1.98427"/>
<path d="M24.9242 10.9108C25.8585 10.9108 26.616 10.1593 26.616 9.23225C26.616 8.30522 25.8585 7.55371 24.9242 7.55371C23.9899 7.55371 23.2324 8.30522 23.2324 9.23225C23.2324 10.1593 23.9899 10.9108 24.9242 10.9108Z" fill="#10B981"/>
<path d="M29.9999 32.7315C34.6716 32.7315 38.4587 28.5982 38.4587 23.4995C38.4587 18.4009 34.6716 14.2676 29.9999 14.2676C25.3282 14.2676 21.541 18.4009 21.541 23.4995C21.541 28.5982 25.3282 32.7315 29.9999 32.7315Z" fill="#A06B4A"/>
</g>
<defs>
<clipPath id="clip0_3326_9668">
<rect width="60" height="47" fill="white"/>
</clipPath>
</defs>
</svg>
