<svg width="70" height="74" viewBox="0 0 70 74" fill="none" xmlns="http://www.w3.org/2000/svg">
<g filter="url(#filter0_d_3384_119225)">
<rect width="70" height="70" rx="35" fill="#EBEBEB" shape-rendering="crispEdges"/>
<rect x="1.5" y="1.5" width="67" height="67" rx="33.5" stroke="#E8E8E4" stroke-width="3" shape-rendering="crispEdges"/>
<g opacity="0.22">
<rect width="16.5" height="22" transform="translate(26.75 17.3301)" fill="white" style="mix-blend-mode:saturation"/>
<path d="M39 24.3301C39 22.4441 39 21.5021 38.414 20.9161C37.828 20.3301 36.886 20.3301 35 20.3301C33.114 20.3301 32.172 20.3301 31.586 20.9161C31 21.5021 31 22.4441 31 24.3301M25 31.3301C25 28.5211 25 27.1171 25.674 26.1081C25.9659 25.6711 26.3411 25.296 26.778 25.0041C27.787 24.3301 29.19 24.3301 32 24.3301H38C40.809 24.3301 42.213 24.3301 43.222 25.0041C43.6589 25.296 44.0341 25.6711 44.326 26.1081C45 27.1171 45 28.5201 45 31.3301C45 34.1401 45 35.5431 44.326 36.5521C44.0341 36.989 43.6589 37.3642 43.222 37.6561C42.213 38.3301 40.81 38.3301 38 38.3301H32C29.191 38.3301 27.787 38.3301 26.778 37.6561C26.3411 37.3642 25.9659 36.989 25.674 36.5521C25 35.5431 25 34.1401 25 31.3301Z" stroke="black" stroke-width="1.5" stroke-linecap="round" stroke-linejoin="round"/>
<path d="M29 28.3301L29.652 28.5321C33.1378 29.5973 36.8622 29.5973 40.348 28.5321L41 28.3301M35 29.3301V31.3301" stroke="black" stroke-width="1.5" stroke-linecap="round" stroke-linejoin="round"/>
</g>
<path d="M23.6591 50.4136C23.2417 50.4136 23.0131 50.2114 22.8813 49.7368L21.5586 44.938C21.5146 44.7754 21.4882 44.6172 21.4882 44.4985C21.4882 44.1294 21.7387 43.9009 22.143 43.9009C22.4902 43.9009 22.7011 44.0942 22.7802 44.4722L23.7295 48.5811H23.7646L24.8325 44.4941C24.9336 44.0811 25.1445 43.9009 25.5136 43.9009C25.874 43.9009 26.0937 44.0942 26.1904 44.4854L27.2583 48.5811H27.2934L28.2426 44.4722C28.3261 44.0898 28.5371 43.9009 28.8842 43.9009C29.2885 43.9009 29.539 44.1294 29.539 44.4985C29.539 44.6128 29.5127 44.771 29.4687 44.938L28.1416 49.7456C28.0097 50.2114 27.7812 50.4136 27.3725 50.4136C26.9462 50.4136 26.7133 50.2158 26.5859 49.7412L25.5312 45.9971H25.4917L24.4414 49.7412C24.3139 50.207 24.0766 50.4136 23.6591 50.4136ZM33.3283 50.4355C31.4474 50.4355 30.2697 49.1787 30.2697 47.1616C30.2697 45.1401 31.4474 43.8789 33.3283 43.8789C35.2047 43.8789 36.3869 45.1401 36.3869 47.1616C36.3869 49.1787 35.2047 50.4355 33.3283 50.4355ZM33.3283 49.3281C34.3654 49.3281 35.029 48.4888 35.029 47.1616C35.029 45.8301 34.3654 44.9863 33.3283 44.9863C32.2912 44.9863 31.6232 45.8301 31.6232 47.1616C31.6232 48.4888 32.2868 49.3281 33.3283 49.3281ZM38.2074 50.4224C37.7943 50.4224 37.5438 50.1675 37.5438 49.7324V44.6787C37.5438 44.2437 37.7899 43.9888 38.2074 43.9888H40.141C41.6 43.9888 42.4349 44.7578 42.4349 46.0103C42.4349 46.8013 42.0438 47.478 41.3451 47.7769L42.2591 49.3589C42.369 49.5479 42.3998 49.6621 42.3998 49.8159C42.3998 50.1675 42.1185 50.4224 41.7318 50.4224C41.4154 50.4224 41.2704 50.3081 41.055 49.9214L40.0004 48.0098H38.871V49.7324C38.871 50.1675 38.6249 50.4224 38.2074 50.4224ZM38.871 47.0474H40.0135C40.6815 47.0474 41.0726 46.665 41.0726 46.0366C41.0726 45.4214 40.6595 45.0259 40.0004 45.0259H38.871V47.0474ZM44.273 50.4136C43.8555 50.4136 43.6094 50.1587 43.6094 49.7236V44.5952C43.6094 44.1558 43.8555 43.9009 44.273 43.9009C44.6905 43.9009 44.9366 44.1558 44.9366 44.5952V46.7925H44.9761L47.3624 44.1865C47.5469 43.9844 47.7139 43.9009 47.9337 43.9009C48.2852 43.9009 48.5577 44.1689 48.5577 44.5117C48.5577 44.6963 48.4918 44.8413 48.3248 45.0171L46.5757 46.8496L48.4786 49.1611C48.6763 49.4072 48.7642 49.5962 48.7642 49.7764C48.7642 50.1367 48.4874 50.418 48.1226 50.418C47.8502 50.418 47.6656 50.3169 47.459 50.0532L45.5694 47.7285L44.9366 48.3921V49.7236C44.9366 50.1587 44.6905 50.4136 44.273 50.4136Z" fill="#BABAB7"/>
<rect x="51" y="51" width="18" height="18" rx="9" fill="#BABAB7"/>
<rect x="51" y="51" width="18" height="18" rx="9" stroke="white" stroke-width="2"/>
<path d="M55.1492 65.2H65.1492V55.2H55.1492V65.2Z" fill="#111111"/>
<rect x="1" y="6" width="20" height="20" rx="10" fill="#C8951A"/>
<rect x="1" y="6" width="20" height="20" rx="10" stroke="white" stroke-width="2"/>
<path d="M10.186 19.09C10.0126 19.09 9.81931 19.0633 9.60598 19.01C9.39264 18.9567 9.21264 18.8733 9.06598 18.76C8.91264 18.64 8.83598 18.49 8.83598 18.31C8.83598 18.2033 8.86931 18.1133 8.93598 18.04C9.00264 17.96 9.08931 17.92 9.19598 17.92C9.30264 17.92 9.37931 17.95 9.42598 18.01C9.47264 18.07 9.50931 18.1467 9.53598 18.24C9.56264 18.3267 9.59264 18.4167 9.62598 18.51C9.66598 18.6033 9.73264 18.68 9.82598 18.74C9.91931 18.8 10.056 18.83 10.236 18.83C10.516 18.83 10.7626 18.7633 10.976 18.63C11.1893 18.4967 11.3693 18.32 11.516 18.1C11.6693 17.8733 11.7826 17.6233 11.856 17.35C11.936 17.0767 11.976 16.8 11.976 16.52C11.976 16.0067 11.846 15.5967 11.586 15.29C11.3326 14.9833 10.9326 14.7633 10.386 14.63C10.2926 14.6033 10.266 14.5467 10.306 14.46L11.396 11.91C11.4293 11.8367 11.4893 11.8 11.576 11.8H13.126C13.2393 11.8 13.3226 11.78 13.376 11.74C13.436 11.6933 13.486 11.65 13.526 11.61C13.5726 11.57 13.6193 11.55 13.666 11.55C13.7793 11.55 13.7993 11.62 13.726 11.76L13.446 12.3C13.4126 12.3667 13.3526 12.4 13.266 12.4H11.656C11.5693 12.4 11.5093 12.4367 11.476 12.51L10.856 13.98C10.8226 14.06 10.8493 14.1133 10.936 14.14C11.536 14.3 11.9726 14.59 12.246 15.01C12.5193 15.4233 12.656 15.8967 12.656 16.43C12.656 16.7567 12.596 17.0767 12.476 17.39C12.3626 17.7033 12.196 17.99 11.976 18.25C11.7626 18.5033 11.5026 18.7067 11.196 18.86C10.896 19.0133 10.5593 19.09 10.186 19.09Z" fill="white"/>
</g>
<defs>
<filter id="filter0_d_3384_119225" x="0" y="0" width="70" height="74" filterUnits="userSpaceOnUse" color-interpolation-filters="sRGB">
<feFlood flood-opacity="0" result="BackgroundImageFix"/>
<feColorMatrix in="SourceAlpha" type="matrix" values="0 0 0 0 0 0 0 0 0 0 0 0 0 0 0 0 0 0 127 0" result="hardAlpha"/>
<feOffset dy="4"/>
<feComposite in2="hardAlpha" operator="out"/>
<feColorMatrix type="matrix" values="0 0 0 0 0.784314 0 0 0 0 0.784314 0 0 0 0 0.764706 0 0 0 1 0"/>
<feBlend mode="normal" in2="BackgroundImageFix" result="effect1_dropShadow_3384_119225"/>
<feBlend mode="normal" in="SourceGraphic" in2="effect1_dropShadow_3384_119225" result="shape"/>
</filter>
</defs>
</svg>
