<svg width="70" height="74" viewBox="0 0 70 74" fill="none" xmlns="http://www.w3.org/2000/svg">
<g filter="url(#filter0_d_3384_119247)">
<rect width="70" height="70" rx="35" fill="#EBEBEB" shape-rendering="crispEdges"/>
<rect x="1.5" y="1.5" width="67" height="67" rx="33.5" stroke="#E8E8E4" stroke-width="3" shape-rendering="crispEdges"/>
<g opacity="0.22">
<rect width="16.5" height="22" transform="translate(26.75 17.3301)" fill="white" style="mix-blend-mode:saturation"/>
<path d="M35 30.0801C35 30.279 34.921 30.4698 34.7803 30.6104C34.6397 30.7511 34.4489 30.8301 34.25 30.8301H29.75C29.5511 30.8301 29.3603 30.7511 29.2197 30.6104C29.079 30.4698 29 30.279 29 30.0801C29 29.8812 29.079 29.6904 29.2197 29.5497C29.3603 29.4091 29.5511 29.3301 29.75 29.3301H34.25C34.4489 29.3301 34.6397 29.4091 34.7803 29.5497C34.921 29.6904 35 29.8812 35 30.0801ZM34.25 26.3301H29.75C29.5511 26.3301 29.3603 26.4091 29.2197 26.5497C29.079 26.6904 29 26.8812 29 27.0801C29 27.279 29.079 27.4698 29.2197 27.6104C29.3603 27.7511 29.5511 27.8301 29.75 27.8301H34.25C34.4489 27.8301 34.6397 27.7511 34.7803 27.6104C34.921 27.4698 35 27.279 35 27.0801C35 26.8812 34.921 26.6904 34.7803 26.5497C34.6397 26.4091 34.4489 26.3301 34.25 26.3301ZM44.75 32.4679V38.3301C44.7512 38.4623 44.7174 38.5925 44.6521 38.7074C44.5867 38.8224 44.4921 38.918 44.3779 38.9847C44.2637 39.0513 44.1339 39.0865 44.0017 39.0868C43.8695 39.0871 43.7395 39.0524 43.625 38.9863L41.375 37.6982L39.125 38.9863C39.0105 39.0524 38.8805 39.0871 38.7483 39.0868C38.6161 39.0865 38.4863 39.0513 38.3721 38.9847C38.2579 38.918 38.1633 38.8224 38.0979 38.7074C38.0326 38.5925 37.9988 38.4623 38 38.3301V36.0801H26.75C26.3522 36.0801 25.9706 35.922 25.6893 35.6407C25.408 35.3594 25.25 34.9779 25.25 34.5801V22.5801C25.25 22.1823 25.408 21.8007 25.6893 21.5194C25.9706 21.2381 26.3522 21.0801 26.75 21.0801H43.25C43.6478 21.0801 44.0294 21.2381 44.3107 21.5194C44.592 21.8007 44.75 22.1823 44.75 22.5801V25.4423C45.2241 25.8963 45.6014 26.4416 45.8592 27.0453C46.1169 27.649 46.2498 28.2986 46.2498 28.9551C46.2498 29.6115 46.1169 30.2612 45.8592 30.8649C45.6014 31.4686 45.2241 32.0139 44.75 32.4679ZM38 34.5801V32.4679C37.1827 31.6797 36.6662 30.6309 36.5396 29.5025C36.4129 28.3741 36.6842 27.2369 37.3065 26.2872C37.9287 25.3374 38.863 24.6347 39.9481 24.3002C41.0332 23.9657 42.201 24.0205 43.25 24.4551V22.5801H26.75V34.5801H38ZM43.25 33.4551C42.656 33.7032 42.0187 33.831 41.375 33.831C40.7313 33.831 40.094 33.7032 39.5 33.4551V37.0382L41 36.1795C41.1133 36.1147 41.2416 36.0806 41.3722 36.0806C41.5027 36.0806 41.631 36.1147 41.7444 36.1795L43.2444 37.0382L43.25 33.4551ZM44.75 28.9551C44.75 28.2876 44.5521 27.635 44.1812 27.08C43.8104 26.525 43.2833 26.0924 42.6666 25.837C42.0499 25.5815 41.3713 25.5147 40.7166 25.6449C40.0619 25.7752 39.4605 26.0966 38.9885 26.5686C38.5165 27.0406 38.1951 27.642 38.0648 28.2966C37.9346 28.9513 38.0015 29.6299 38.2569 30.2466C38.5124 30.8633 38.9449 31.3904 39.5 31.7613C40.055 32.1321 40.7075 32.3301 41.375 32.3301C41.8182 32.3301 42.2571 32.2428 42.6666 32.0732C43.076 31.9036 43.4481 31.655 43.7615 31.3416C44.0749 31.0282 44.3235 30.6561 44.4931 30.2466C44.6627 29.8372 44.75 29.3983 44.75 28.9551Z" fill="black"/>
</g>
<path d="M23.6375 50.4355C21.7566 50.4355 20.614 49.2051 20.614 47.1572C20.614 45.1138 21.7786 43.8789 23.6023 43.8789C24.7888 43.8789 25.7073 44.4062 26.1424 45.3203C26.2303 45.4873 26.2742 45.6587 26.2742 45.8169C26.2742 46.1641 26.0413 46.3882 25.6897 46.3882C25.3909 46.3882 25.2019 46.2563 25.0569 45.9487C24.7669 45.3027 24.2483 44.9775 23.6155 44.9775C22.6136 44.9775 21.9676 45.8169 21.9676 47.1528C21.9676 48.5063 22.6048 49.3413 23.6199 49.3413C24.2879 49.3413 24.7888 49.0381 25.0745 48.4009C25.2107 48.1021 25.3777 47.9834 25.659 47.9834C26.0325 47.9834 26.2786 48.2207 26.2786 48.5723C26.2786 48.7217 26.2434 48.8623 26.1775 49.0161C25.782 49.895 24.8372 50.4355 23.6375 50.4355ZM28.1914 50.3301C27.7739 50.3301 27.5278 50.0752 27.5278 49.6357V44.6787C27.5278 44.2437 27.7739 43.9888 28.1914 43.9888H31.206C31.5708 43.9888 31.8081 44.1953 31.8081 44.5381C31.8081 44.8809 31.5664 45.0874 31.206 45.0874H28.855V46.6123H31.0918C31.4214 46.6123 31.6455 46.8057 31.6455 47.1221C31.6455 47.4385 31.4258 47.6318 31.0918 47.6318H28.855V49.2314H31.206C31.5664 49.2314 31.8081 49.438 31.8081 49.7808C31.8081 50.1235 31.5708 50.3301 31.206 50.3301H28.1914ZM33.6506 50.4224C33.2375 50.4224 32.987 50.1675 32.987 49.7324V44.6787C32.987 44.2437 33.2331 43.9888 33.6506 43.9888H35.5842C37.0431 43.9888 37.8781 44.7578 37.8781 46.0103C37.8781 46.8013 37.487 47.478 36.7883 47.7769L37.7023 49.3589C37.8122 49.5479 37.8429 49.6621 37.8429 49.8159C37.8429 50.1675 37.5617 50.4224 37.175 50.4224C36.8586 50.4224 36.7136 50.3081 36.4982 49.9214L35.4435 48.0098H34.3141V49.7324C34.3141 50.1675 34.068 50.4224 33.6506 50.4224ZM34.3141 47.0474H35.4567C36.1247 47.0474 36.5158 46.665 36.5158 46.0366C36.5158 45.4214 36.1027 45.0259 35.4435 45.0259H34.3141V47.0474ZM41.2323 50.4136C40.8148 50.4136 40.5687 50.1587 40.5687 49.7236V45.0874H39.2592C38.8988 45.0874 38.6571 44.8809 38.6571 44.5381C38.6571 44.1953 38.8944 43.9888 39.2592 43.9888H43.2098C43.5702 43.9888 43.8075 44.1953 43.8075 44.5381C43.8075 44.8809 43.5658 45.0874 43.2098 45.0874H41.8959V49.7236C41.8959 50.1587 41.6498 50.4136 41.2323 50.4136ZM47.087 50.4355C45.7774 50.4355 44.9381 49.9126 44.6832 49.2183C44.6392 49.104 44.6129 48.981 44.6129 48.8623C44.6129 48.5107 44.8546 48.2778 45.1973 48.2778C45.4698 48.2778 45.65 48.3833 45.8082 48.6646C46.0147 49.1479 46.5113 49.3677 47.1178 49.3677C47.8297 49.3677 48.3131 49.0249 48.3131 48.5591C48.3131 48.1416 48.0142 47.9043 47.2188 47.7417L46.5465 47.6099C45.2808 47.3594 44.6612 46.7529 44.6612 45.8081C44.6612 44.6479 45.672 43.8789 47.0826 43.8789C48.2428 43.8789 49.1173 44.3667 49.3985 45.1929C49.4293 45.2808 49.4469 45.373 49.4469 45.4873C49.4469 45.8037 49.2183 46.019 48.88 46.019C48.5811 46.019 48.3966 45.9004 48.2471 45.6279C48.0362 45.1489 47.6275 44.9512 47.0826 44.9512C46.4278 44.9512 45.9928 45.2588 45.9928 45.7246C45.9928 46.1157 46.296 46.3574 47.0474 46.5068L47.7154 46.6431C49.0601 46.9111 49.6402 47.4517 49.6402 48.4141C49.6402 49.6533 48.669 50.4355 47.087 50.4355Z" fill="#BABAB7"/>
<rect x="51" y="51" width="18" height="18" rx="9" fill="#BABAB7"/>
<rect x="51" y="51" width="18" height="18" rx="9" stroke="white" stroke-width="2"/>
<path d="M55.1492 65.2H65.1492V55.2H55.1492V65.2Z" fill="#111111"/>
<rect x="1" y="6" width="20" height="20" rx="10" fill="#C8951A"/>
<rect x="1" y="6" width="20" height="20" rx="10" stroke="white" stroke-width="2"/>
<path d="M9.6734 19C9.62673 19 9.5934 18.9867 9.5734 18.96C9.56007 18.9333 9.56673 18.8967 9.5934 18.85L13.2834 12.56C13.3501 12.4533 13.3234 12.4 13.2034 12.4H10.9834C10.8767 12.4 10.7901 12.42 10.7234 12.46C10.6634 12.5 10.6134 12.5433 10.5734 12.59C10.5334 12.63 10.4867 12.65 10.4334 12.65C10.3801 12.65 10.3501 12.63 10.3434 12.59C10.3434 12.5433 10.3567 12.4933 10.3834 12.44L10.6534 11.92C10.6934 11.84 10.7534 11.8 10.8334 11.8H13.7834C13.8701 11.8 13.9134 11.83 13.9134 11.89C13.9134 11.9167 13.9034 11.9567 13.8834 12.01C13.8634 12.0633 13.8234 12.1433 13.7634 12.25L10.0934 18.89C10.0601 18.9633 10.0034 19 9.9234 19H9.6734Z" fill="white"/>
</g>
<defs>
<filter id="filter0_d_3384_119247" x="0" y="0" width="70" height="74" filterUnits="userSpaceOnUse" color-interpolation-filters="sRGB">
<feFlood flood-opacity="0" result="BackgroundImageFix"/>
<feColorMatrix in="SourceAlpha" type="matrix" values="0 0 0 0 0 0 0 0 0 0 0 0 0 0 0 0 0 0 127 0" result="hardAlpha"/>
<feOffset dy="4"/>
<feComposite in2="hardAlpha" operator="out"/>
<feColorMatrix type="matrix" values="0 0 0 0 0.784314 0 0 0 0 0.784314 0 0 0 0 0.764706 0 0 0 1 0"/>
<feBlend mode="normal" in2="BackgroundImageFix" result="effect1_dropShadow_3384_119247"/>
<feBlend mode="normal" in="SourceGraphic" in2="effect1_dropShadow_3384_119247" result="shape"/>
</filter>
</defs>
</svg>
