<svg width="70" height="75" viewBox="0 0 70 75" fill="none" xmlns="http://www.w3.org/2000/svg">
<g filter="url(#filter0_d_3384_119217)">
<rect width="70" height="70" rx="35" fill="white" shape-rendering="crispEdges"/>
<rect x="1.5" y="1.5" width="67" height="67" rx="33.5" stroke="#E8E8E4" stroke-width="3" shape-rendering="crispEdges"/>
<g opacity="0.4">
<rect width="11.02" height="22" transform="translate(29.48 17.3301)" fill="white" fill-opacity="0.9" style="mix-blend-mode:saturation"/>
<path d="M28.5824 18.502V18.5066C27.4105 18.6566 26.3746 20.0066 26.3746 21.7316C26.3746 22.6879 26.7074 23.5316 27.1949 24.1176L27.673 24.6895L26.9371 24.8254C26.2949 24.9473 25.8215 25.2895 25.4277 25.8332C25.0293 26.3723 24.7293 27.1223 24.5184 27.9801C24.134 29.5551 24.0543 31.4816 24.0449 33.1598H26.1074L26.6652 40.5848H31.1793L31.6715 33.1598H33.6355C33.6355 31.4629 33.6215 29.5129 33.2699 27.9238C33.0824 27.0566 32.7918 26.3113 32.3934 25.7723C31.9902 25.2379 31.4934 24.8957 30.7762 24.7879L30.0262 24.6707L30.4996 24.0801C30.9684 23.4941 31.2824 22.6645 31.2824 21.7316C31.2824 19.8941 30.1199 18.5066 28.8262 18.5066C28.6902 18.5066 28.6059 18.502 28.5824 18.502ZM43.6246 18.877C42.8184 18.877 42.1715 19.5224 42.1715 20.3301C42.1715 21.1377 42.8184 21.7832 43.6246 21.7832C44.4309 21.7832 45.0777 21.1377 45.0777 20.3301C45.0777 19.5224 44.4309 18.877 43.6246 18.877ZM37.5777 19.9082V22.1582H32.7496V23.002H37.5777V30.4082H34.9996V31.252H37.5777V36.4082H32.7496V37.252H37.5777V38.752H41.3652C41.3418 38.616 41.3277 38.4754 41.3277 38.3301C41.3277 38.1848 41.3418 38.0441 41.3652 37.9082H38.4215V31.252H41.3652C41.3418 31.116 41.3277 30.9754 41.3277 30.8301C41.3277 30.6848 41.3418 30.5441 41.3652 30.4082H38.4215V20.752H41.3652C41.3418 20.6151 41.3277 20.474 41.3277 20.3301C41.3277 20.1862 41.3418 20.0451 41.3652 19.9082H37.5777ZM43.6246 29.377C42.8184 29.377 42.1715 30.0238 42.1715 30.8301C42.1715 31.6363 42.8184 32.2832 43.6246 32.2832C44.4309 32.2832 45.0777 31.6363 45.0777 30.8301C45.0777 30.0238 44.4309 29.377 43.6246 29.377ZM43.6246 36.877C42.8184 36.877 42.1715 37.5238 42.1715 38.3301C42.1715 39.1363 42.8184 39.7832 43.6246 39.7832C44.4309 39.7832 45.0777 39.1363 45.0777 38.3301C45.0777 37.5238 44.4309 36.877 43.6246 36.877Z" fill="black"/>
</g>
<path d="M22.4633 50.4355C21.1538 50.4355 20.3144 49.9126 20.0595 49.2183C20.0156 49.104 19.9892 48.981 19.9892 48.8623C19.9892 48.5107 20.2309 48.2778 20.5737 48.2778C20.8462 48.2778 21.0263 48.3833 21.1845 48.6646C21.3911 49.1479 21.8877 49.3677 22.4941 49.3677C23.206 49.3677 23.6894 49.0249 23.6894 48.5591C23.6894 48.1416 23.3906 47.9043 22.5952 47.7417L21.9228 47.6099C20.6572 47.3594 20.0376 46.7529 20.0376 45.8081C20.0376 44.6479 21.0483 43.8789 22.4589 43.8789C23.6191 43.8789 24.4936 44.3667 24.7749 45.1929C24.8056 45.2808 24.8232 45.373 24.8232 45.4873C24.8232 45.8037 24.5947 46.019 24.2563 46.019C23.9575 46.019 23.7729 45.9004 23.6235 45.6279C23.4126 45.1489 23.0039 44.9512 22.4589 44.9512C21.8042 44.9512 21.3691 45.2588 21.3691 45.7246C21.3691 46.1157 21.6723 46.3574 22.4238 46.5068L23.0918 46.6431C24.4365 46.9111 25.0166 47.4517 25.0166 48.4141C25.0166 49.6533 24.0454 50.4355 22.4633 50.4355ZM26.7931 50.4136C26.3756 50.4136 26.1296 50.1587 26.1296 49.7236V44.5952C26.1296 44.1558 26.3756 43.9009 26.7931 43.9009C27.2106 43.9009 27.4567 44.1558 27.4567 44.5952V46.7925H27.4963L29.8825 44.1865C30.0671 43.9844 30.234 43.9009 30.4538 43.9009C30.8053 43.9009 31.0778 44.1689 31.0778 44.5117C31.0778 44.6963 31.0119 44.8413 30.8449 45.0171L29.0959 46.8496L30.9987 49.1611C31.1964 49.4072 31.2843 49.5962 31.2843 49.7764C31.2843 50.1367 31.0075 50.418 30.6427 50.418C30.3703 50.418 30.1857 50.3169 29.9792 50.0532L28.0895 47.7285L27.4567 48.3921V49.7236C27.4567 50.1587 27.2106 50.4136 26.7931 50.4136ZM33.0433 50.4136C32.6258 50.4136 32.3797 50.1587 32.3797 49.7236V44.5952C32.3797 44.1558 32.6258 43.9009 33.0433 43.9009C33.4608 43.9009 33.7069 44.1558 33.7069 44.5952V49.7236C33.7069 50.1587 33.4608 50.4136 33.0433 50.4136ZM35.7252 50.3301C35.3077 50.3301 35.0616 50.0752 35.0616 49.6357V44.5952C35.0616 44.1558 35.3077 43.9009 35.7252 43.9009C36.1426 43.9009 36.3887 44.1558 36.3887 44.5952V49.2314H38.6387C38.9991 49.2314 39.2408 49.438 39.2408 49.7808C39.2408 50.1235 39.0035 50.3301 38.6387 50.3301H35.7252ZM40.9119 50.3301C40.4944 50.3301 40.2483 50.0752 40.2483 49.6357V44.5952C40.2483 44.1558 40.4944 43.9009 40.9119 43.9009C41.3294 43.9009 41.5755 44.1558 41.5755 44.5952V49.2314H43.8255C44.1858 49.2314 44.4275 49.438 44.4275 49.7808C44.4275 50.1235 44.1902 50.3301 43.8255 50.3301H40.9119ZM47.7553 50.4355C46.4458 50.4355 45.6064 49.9126 45.3515 49.2183C45.3076 49.104 45.2812 48.981 45.2812 48.8623C45.2812 48.5107 45.5229 48.2778 45.8657 48.2778C46.1381 48.2778 46.3183 48.3833 46.4765 48.6646C46.6831 49.1479 47.1796 49.3677 47.7861 49.3677C48.498 49.3677 48.9814 49.0249 48.9814 48.5591C48.9814 48.1416 48.6826 47.9043 47.8872 47.7417L47.2148 47.6099C45.9492 47.3594 45.3296 46.7529 45.3296 45.8081C45.3296 44.6479 46.3403 43.8789 47.7509 43.8789C48.9111 43.8789 49.7856 44.3667 50.0669 45.1929C50.0976 45.2808 50.1152 45.373 50.1152 45.4873C50.1152 45.8037 49.8867 46.019 49.5483 46.019C49.2495 46.019 49.0649 45.9004 48.9155 45.6279C48.7046 45.1489 48.2959 44.9512 47.7509 44.9512C47.0962 44.9512 46.6611 45.2588 46.6611 45.7246C46.6611 46.1157 46.9643 46.3574 47.7158 46.5068L48.3838 46.6431C49.7285 46.9111 50.3086 47.4517 50.3086 48.4141C50.3086 49.6533 49.3374 50.4355 47.7553 50.4355Z" fill="#BABAB7"/>
<rect x="1" y="6" width="20" height="20" rx="10" fill="#C8951A"/>
<rect x="1" y="6" width="20" height="20" rx="10" stroke="white" stroke-width="2"/>
<path d="M10.2718 19C10.1718 19 10.1218 18.9667 10.1218 18.9C10.1218 18.8267 10.1718 18.7833 10.2718 18.77L10.7418 18.71C10.8885 18.69 10.9885 18.6567 11.0418 18.61C11.0951 18.5567 11.1351 18.4667 11.1618 18.34L11.4618 17.05C11.4818 16.95 11.4418 16.9 11.3418 16.9H9.3118C9.20513 16.9 9.1518 16.86 9.1518 16.78C9.1518 16.74 9.16513 16.6967 9.1918 16.65C9.22513 16.6033 9.26513 16.5467 9.3118 16.48L12.7718 11.9C12.8185 11.8333 12.8785 11.8 12.9518 11.8H13.1518C13.2051 11.8 13.2351 11.8167 13.2418 11.85C13.2551 11.8767 13.2418 11.9167 13.2018 11.97L9.8318 16.2C9.76513 16.2933 9.77846 16.34 9.8718 16.34H11.4918C11.5785 16.34 11.6318 16.3 11.6518 16.22L12.1118 14.24C12.1318 14.1733 12.1785 14.12 12.2518 14.08L12.6418 13.87C12.6951 13.8367 12.7351 13.83 12.7618 13.85C12.7951 13.87 12.8051 13.9067 12.7918 13.96L12.2818 16.2C12.2618 16.2933 12.2951 16.34 12.3818 16.34H12.8218C12.9085 16.34 12.9418 16.38 12.9218 16.46L12.8418 16.78C12.8218 16.86 12.7718 16.9 12.6918 16.9H12.2518C12.1585 16.9 12.1018 16.9467 12.0818 17.04L11.7818 18.34C11.7551 18.48 11.7551 18.5767 11.7818 18.63C11.8151 18.6767 11.8985 18.71 12.0318 18.73L12.2118 18.76C12.2718 18.7667 12.3118 18.7833 12.3318 18.81C12.3518 18.83 12.3618 18.8533 12.3618 18.88C12.3618 18.96 12.3018 19 12.1818 19H10.2718Z" fill="white"/>
</g>
<defs>
<filter id="filter0_d_3384_119217" x="0" y="0" width="70" height="75" filterUnits="userSpaceOnUse" color-interpolation-filters="sRGB">
<feFlood flood-opacity="0" result="BackgroundImageFix"/>
<feColorMatrix in="SourceAlpha" type="matrix" values="0 0 0 0 0 0 0 0 0 0 0 0 0 0 0 0 0 0 127 0" result="hardAlpha"/>
<feOffset dy="5"/>
<feComposite in2="hardAlpha" operator="out"/>
<feColorMatrix type="matrix" values="0 0 0 0 0.752941 0 0 0 0 0.752941 0 0 0 0 0.733333 0 0 0 1 0"/>
<feBlend mode="normal" in2="BackgroundImageFix" result="effect1_dropShadow_3384_119217"/>
<feBlend mode="normal" in="SourceGraphic" in2="effect1_dropShadow_3384_119217" result="shape"/>
</filter>
</defs>
</svg>
