<svg width="76" height="80" viewBox="0 0 76 80" fill="none" xmlns="http://www.w3.org/2000/svg">
<g filter="url(#filter0_d_3384_119280)">
<rect x="3" y="3" width="70" height="70" rx="35" fill="#387440" shape-rendering="crispEdges"/>
<rect x="4" y="4" width="68" height="68" rx="34" stroke="white" stroke-width="2" shape-rendering="crispEdges"/>
<rect x="1.5" y="1.5" width="73" height="73" rx="36.5" stroke="#387440" stroke-width="3"/>
<path d="M43.1968 27.8301C43.1968 25.0687 40.9582 22.8301 38.1968 22.8301C35.4354 22.8301 33.1968 25.0687 33.1968 27.8301C33.1968 30.5915 35.4354 32.8301 38.1968 32.8301C40.9582 32.8301 43.1968 30.5915 43.1968 27.8301Z" stroke="url(#paint0_linear_3384_119280)" stroke-width="1.5" stroke-linecap="round" stroke-linejoin="round"/>
<path d="M45.1968 39.8301C45.1968 35.9641 42.0628 32.8301 38.1968 32.8301C34.3308 32.8301 31.1968 35.9641 31.1968 39.8301" stroke="url(#paint1_linear_3384_119280)" stroke-width="1.5" stroke-linecap="round" stroke-linejoin="round"/>
<path d="M21.8685 53.4136C21.4554 53.4136 21.1961 53.1719 21.1961 52.7896C21.1961 52.6797 21.2269 52.5303 21.284 52.3677L23.0154 47.6523C23.2 47.1382 23.512 46.9009 24.013 46.9009C24.5316 46.9009 24.8392 47.1294 25.0281 47.6479L26.7684 52.3677C26.8299 52.5391 26.8519 52.6577 26.8519 52.7896C26.8519 53.1543 26.575 53.4136 26.1883 53.4136C25.8148 53.4136 25.617 53.2422 25.4984 52.8291L25.1644 51.8271H22.8748L22.5408 52.8159C22.4178 53.2378 22.22 53.4136 21.8685 53.4136ZM23.1649 50.7988H24.8568L24.0174 48.2017H23.9866L23.1649 50.7988ZM29.8062 53.4136C29.2876 53.4136 28.98 53.1851 28.7866 52.6445L27.02 47.9028C26.9761 47.7798 26.9541 47.6567 26.9541 47.5293C26.9541 47.1558 27.2354 46.9009 27.6529 46.9009C28.0088 46.9009 28.2197 47.0635 28.3296 47.4238L29.815 51.9634H29.8457L31.3267 47.4106C31.4365 47.0547 31.6343 46.9009 31.9815 46.9009C32.3858 46.9009 32.6626 47.1514 32.6626 47.5117C32.6626 47.6304 32.6406 47.749 32.5967 47.8677L30.8213 52.6489C30.6279 53.1851 30.3203 53.4136 29.8062 53.4136ZM33.4372 53.4136C33.0241 53.4136 32.7649 53.1719 32.7649 52.7896C32.7649 52.6797 32.7956 52.5303 32.8528 52.3677L34.5842 47.6523C34.7688 47.1382 35.0808 46.9009 35.5818 46.9009C36.1003 46.9009 36.4079 47.1294 36.5969 47.6479L38.3371 52.3677C38.3987 52.5391 38.4206 52.6577 38.4206 52.7896C38.4206 53.1543 38.1438 53.4136 37.7571 53.4136C37.3835 53.4136 37.1858 53.2422 37.0671 52.8291L36.7331 51.8271H34.4436L34.1096 52.8159C33.9865 53.2378 33.7888 53.4136 33.4372 53.4136ZM34.7336 50.7988H36.4255L35.5862 48.2017H35.5554L34.7336 50.7988ZM40.8564 53.4136C40.4389 53.4136 40.1928 53.1587 40.1928 52.7236V48.0874H38.8832C38.5229 48.0874 38.2812 47.8809 38.2812 47.5381C38.2812 47.1953 38.5185 46.9888 38.8832 46.9888H42.8339C43.1943 46.9888 43.4316 47.1953 43.4316 47.5381C43.4316 47.8809 43.1899 48.0874 42.8339 48.0874H41.5199V52.7236C41.5199 53.1587 41.2738 53.4136 40.8564 53.4136ZM43.9601 53.4136C43.547 53.4136 43.2877 53.1719 43.2877 52.7896C43.2877 52.6797 43.3185 52.5303 43.3756 52.3677L45.1071 47.6523C45.2916 47.1382 45.6036 46.9009 46.1046 46.9009C46.6232 46.9009 46.9308 47.1294 47.1197 47.6479L48.86 52.3677C48.9215 52.5391 48.9435 52.6577 48.9435 52.7896C48.9435 53.1543 48.6666 53.4136 48.2799 53.4136C47.9064 53.4136 47.7086 53.2422 47.59 52.8291L47.256 51.8271H44.9664L44.6324 52.8159C44.5094 53.2378 44.3116 53.4136 43.9601 53.4136ZM45.2565 50.7988H46.9484L46.109 48.2017H46.0782L45.2565 50.7988ZM50.7156 53.4224C50.3026 53.4224 50.0521 53.1675 50.0521 52.7324V47.6787C50.0521 47.2437 50.2982 46.9888 50.7156 46.9888H52.6492C54.1082 46.9888 54.9432 47.7578 54.9432 49.0103C54.9432 49.8013 54.5521 50.478 53.8533 50.7769L54.7674 52.3589C54.8773 52.5479 54.908 52.6621 54.908 52.8159C54.908 53.1675 54.6268 53.4224 54.2401 53.4224C53.9237 53.4224 53.7786 53.3081 53.5633 52.9214L52.5086 51.0098H51.3792V52.7324C51.3792 53.1675 51.1331 53.4224 50.7156 53.4224ZM51.3792 50.0474H52.5218C53.1898 50.0474 53.5809 49.665 53.5809 49.0366C53.5809 48.4214 53.1678 48.0259 52.5086 48.0259H51.3792V50.0474Z" fill="white" fill-opacity="0.9"/>
<rect x="54" y="54" width="18" height="18" rx="9" fill="white"/>
<rect x="54" y="54" width="18" height="18" rx="9" stroke="#387440" stroke-width="2"/>
<path d="M61.0445 66.94C61.0445 66.8533 61.0278 66.81 60.9945 66.81L60.7645 66.92C60.7645 66.8733 60.7378 66.84 60.6845 66.82L60.6045 66.81C60.5512 66.81 60.4845 66.8333 60.4045 66.88C60.3912 66.8467 60.3745 66.8133 60.3545 66.78C60.3345 66.7467 60.3178 66.7167 60.3045 66.69C60.2178 66.5233 60.1312 66.34 60.0445 66.14C59.9645 65.9333 59.8878 65.7367 59.8145 65.55C59.7478 65.3633 59.6945 65.2167 59.6545 65.11C59.6278 65.0233 59.5978 64.8933 59.5645 64.72C59.5312 64.5467 59.4978 64.3267 59.4645 64.06C59.5378 64.1067 59.5945 64.13 59.6345 64.13C59.6812 64.13 59.7245 64.06 59.7645 63.92C59.7845 63.9467 59.8212 63.96 59.8745 63.96C59.9145 63.96 59.9445 63.9467 59.9645 63.92L60.1245 63.68L60.3045 63.74H60.3145C60.3278 63.74 60.3412 63.7333 60.3545 63.72C60.3678 63.7067 60.3878 63.6933 60.4145 63.68C60.4678 63.6467 60.5078 63.63 60.5345 63.63L60.5645 63.64C60.7312 63.72 60.8378 63.8667 60.8845 64.08C61.0045 64.5867 61.1245 64.84 61.2445 64.84C61.3645 64.84 61.5045 64.7133 61.6645 64.46C61.7445 64.3333 61.8245 64.1867 61.9045 64.02C61.9912 63.8533 62.0778 63.6667 62.1645 63.46C62.1778 63.54 62.1912 63.58 62.2045 63.58C62.2378 63.58 62.2945 63.4967 62.3745 63.33C62.4612 63.1633 62.5978 62.9333 62.7845 62.64C62.8912 62.46 63.0245 62.2567 63.1845 62.03C63.3512 61.8033 63.5278 61.57 63.7145 61.33C63.9012 61.09 64.0812 60.8633 64.2545 60.65C64.4345 60.4367 64.5945 60.2533 64.7345 60.1C64.8745 59.9467 64.9778 59.8467 65.0445 59.8C65.2978 59.6267 65.4978 59.46 65.6445 59.3C65.6378 59.3467 65.6278 59.39 65.6145 59.43C65.6078 59.4633 65.6045 59.4867 65.6045 59.5C65.6045 59.5267 65.6178 59.54 65.6445 59.54L65.9245 59.4V59.44C65.9245 59.4933 65.9378 59.52 65.9645 59.52C65.9845 59.52 66.0245 59.49 66.0845 59.43C66.1445 59.37 66.1778 59.3267 66.1845 59.3L66.1645 59.44L66.5045 59.24L66.4245 59.42C66.5312 59.3467 66.6078 59.31 66.6545 59.31C66.6812 59.31 66.7012 59.3267 66.7145 59.36C66.7278 59.3867 66.7345 59.4133 66.7345 59.44C66.7345 59.48 66.7178 59.5267 66.6845 59.58C66.6512 59.6333 66.6078 59.6967 66.5545 59.77C66.5145 59.8233 66.4478 59.9033 66.3545 60.01C66.2678 60.11 66.1345 60.26 65.9545 60.46C65.7745 60.6533 65.5345 60.9233 65.2345 61.27C65.1545 61.3567 65.0312 61.51 64.8645 61.73C64.6978 61.9433 64.5078 62.1933 64.2945 62.48C64.0878 62.76 63.8812 63.0433 63.6745 63.33C63.4678 63.6167 63.2845 63.8767 63.1245 64.11C62.9645 64.3367 62.8512 64.5067 62.7845 64.62L62.1645 65.67C62.0312 65.8967 61.9212 66.0833 61.8345 66.23C61.7478 66.37 61.6812 66.4667 61.6345 66.52C61.5345 66.64 61.4245 66.7467 61.3045 66.84L61.2145 66.79L61.1345 66.84L61.0445 66.94Z" fill="#387440"/>
<rect x="2.88965" y="3.15039" width="20" height="20" rx="10" fill="#C8951A"/>
<rect x="2.88965" y="3.15039" width="20" height="20" rx="10" stroke="white" stroke-width="2"/>
<path d="M11.389 16.1504C11.289 16.1504 11.239 16.1171 11.239 16.0504C11.239 15.9704 11.289 15.9271 11.389 15.9204L11.789 15.8804C11.9357 15.8671 12.039 15.8337 12.099 15.7804C12.1657 15.7271 12.2123 15.6304 12.239 15.4904L13.609 9.55039C13.6357 9.43706 13.6223 9.36372 13.569 9.33039C13.5157 9.29039 13.4357 9.27706 13.329 9.29039L12.959 9.33039C12.9057 9.33706 12.8657 9.32706 12.839 9.30039C12.819 9.27372 12.809 9.24706 12.809 9.22039C12.809 9.13372 12.8757 9.08039 13.009 9.06039C13.369 9.00039 13.6357 8.94372 13.809 8.89039C13.989 8.83039 14.119 8.80039 14.199 8.80039C14.3323 8.80039 14.3857 8.87372 14.359 9.02039L12.859 15.4904C12.8323 15.6304 12.8357 15.7271 12.869 15.7804C12.909 15.8337 12.9957 15.8671 13.129 15.8804L13.439 15.9204C13.519 15.9271 13.559 15.9637 13.559 16.0304C13.559 16.1104 13.499 16.1504 13.379 16.1504H11.389Z" fill="white"/>
</g>
<defs>
<filter id="filter0_d_3384_119280" x="0" y="0" width="76" height="80" filterUnits="userSpaceOnUse" color-interpolation-filters="sRGB">
<feFlood flood-opacity="0" result="BackgroundImageFix"/>
<feColorMatrix in="SourceAlpha" type="matrix" values="0 0 0 0 0 0 0 0 0 0 0 0 0 0 0 0 0 0 127 0" result="hardAlpha"/>
<feOffset dy="4"/>
<feComposite in2="hardAlpha" operator="out"/>
<feColorMatrix type="matrix" values="0 0 0 0 0.133333 0 0 0 0 0.27451 0 0 0 0 0.14902 0 0 0 1 0"/>
<feBlend mode="normal" in2="BackgroundImageFix" result="effect1_dropShadow_3384_119280"/>
<feBlend mode="normal" in="SourceGraphic" in2="effect1_dropShadow_3384_119280" result="shape"/>
</filter>
<linearGradient id="paint0_linear_3384_119280" x1="43.1968" y1="22.8301" x2="34.9567" y2="34.1151" gradientUnits="userSpaceOnUse">
<stop stop-color="#FEF1E7"/>
<stop offset="0.201923" stop-color="#E8F2ED"/>
</linearGradient>
<linearGradient id="paint1_linear_3384_119280" x1="45.1968" y1="32.8301" x2="41.2952" y2="43.5169" gradientUnits="userSpaceOnUse">
<stop stop-color="#FEF1E7"/>
<stop offset="0.201923" stop-color="#E8F2ED"/>
</linearGradient>
</defs>
</svg>
