<svg width="70" height="74" viewBox="0 0 70 74" fill="none" xmlns="http://www.w3.org/2000/svg">
<g filter="url(#filter0_d_3384_119237)">
<rect width="70" height="70" rx="35" fill="#EBEBEB" shape-rendering="crispEdges"/>
<rect x="1.5" y="1.5" width="67" height="67" rx="33.5" stroke="#E8E8E4" stroke-width="3" shape-rendering="crispEdges"/>
<g opacity="0.22">
<rect width="16.5" height="22" transform="translate(26.75 17.3301)" fill="white" style="mix-blend-mode:saturation"/>
<path d="M27.8 23.3297H23.936C23.492 23.3297 23.048 23.7137 23.108 24.3377L24.98 36.3257C24.98 36.3257 27.2 27.4937 27.632 25.3697C27.764 24.7337 28.364 24.5297 28.808 24.5297H35C35 24.5297 34.16 22.0337 34.076 21.7577C33.932 21.2297 33.668 20.9297 33.14 20.9297H29.168C28.736 20.9297 28.328 21.2057 28.208 21.6977C28.1 22.1777 27.8 23.3297 27.8 23.3297ZM33.656 23.3297H28.856C28.856 23.3297 29.36 22.1297 29.9 22.1297H32.456C33.032 22.1297 33.656 23.3297 33.656 23.3297ZM26.204 36.8297C25.832 37.3937 25.292 37.7297 24.692 37.7297H43.568C44.216 37.7297 44.672 37.3577 44.804 36.7337C45.332 34.1057 46.82 26.6057 46.82 26.6057C46.904 26.0057 46.46 25.7297 46.076 25.7297H42.2V23.9657C42.2 23.7737 41.888 23.3297 41.408 23.3297H36.896C36.272 23.3297 35.852 24.0257 35.852 24.0257L35 25.7297H29.708C29.324 25.7297 28.952 25.9577 28.88 26.3297C28.88 26.3297 26.972 34.3697 26.816 35.1257C26.732 35.5697 26.552 36.3137 26.204 36.8297ZM41.456 25.7297H36.2C36.2 25.7297 36.896 24.5297 37.556 24.5297H40.304C41.156 24.5297 41.456 25.7297 41.456 25.7297Z" fill="black"/>
</g>
<path d="M10.4456 50.4136C10.0281 50.4136 9.78201 50.1587 9.78201 49.7236V44.6787C9.78201 44.2437 10.0281 43.9888 10.4456 43.9888H12.3616C13.6624 43.9888 14.5589 44.8545 14.5589 46.1597C14.5589 47.4604 13.6316 48.3306 12.2957 48.3306H11.1092V49.7236C11.1092 50.1587 10.8631 50.4136 10.4456 50.4136ZM11.1092 47.2935H12.0056C12.7659 47.2935 13.2097 46.8892 13.2097 46.1641C13.2097 45.4434 12.7703 45.0391 12.01 45.0391H11.1092V47.2935ZM18.5063 50.4355C16.6255 50.4355 15.4477 49.1787 15.4477 47.1616C15.4477 45.1401 16.6255 43.8789 18.5063 43.8789C20.3828 43.8789 21.5649 45.1401 21.5649 47.1616C21.5649 49.1787 20.3828 50.4355 18.5063 50.4355ZM18.5063 49.3281C19.5434 49.3281 20.207 48.4888 20.207 47.1616C20.207 45.8301 19.5434 44.9863 18.5063 44.9863C17.4692 44.9863 16.8012 45.8301 16.8012 47.1616C16.8012 48.4888 17.4648 49.3281 18.5063 49.3281ZM23.3854 50.4224C22.9723 50.4224 22.7219 50.1675 22.7219 49.7324V44.6787C22.7219 44.2437 22.9679 43.9888 23.3854 43.9888H25.319C26.778 43.9888 27.613 44.7578 27.613 46.0103C27.613 46.8013 27.2219 47.478 26.5231 47.7769L27.4372 49.3589C27.5471 49.5479 27.5778 49.6621 27.5778 49.8159C27.5778 50.1675 27.2966 50.4224 26.9098 50.4224C26.5934 50.4224 26.4484 50.3081 26.2331 49.9214L25.1784 48.0098H24.049V49.7324C24.049 50.1675 23.8029 50.4224 23.3854 50.4224ZM24.049 47.0474H25.1916C25.8596 47.0474 26.2507 46.665 26.2507 46.0366C26.2507 45.4214 25.8376 45.0259 25.1784 45.0259H24.049V47.0474ZM30.9672 50.4136C30.5497 50.4136 30.3036 50.1587 30.3036 49.7236V45.0874H28.994C28.6337 45.0874 28.392 44.8809 28.392 44.5381C28.392 44.1953 28.6293 43.9888 28.994 43.9888H32.9447C33.3051 43.9888 33.5424 44.1953 33.5424 44.5381C33.5424 44.8809 33.3007 45.0874 32.9447 45.0874H31.6307V49.7236C31.6307 50.1587 31.3846 50.4136 30.9672 50.4136ZM35.1651 50.4136C34.7476 50.4136 34.5015 50.1587 34.5015 49.7236V44.6787C34.5015 44.2437 34.7476 43.9888 35.1651 43.9888H38.1314C38.4962 43.9888 38.7335 44.1953 38.7335 44.5381C38.7335 44.8809 38.4918 45.0874 38.1314 45.0874H35.8287V46.7837H37.9161C38.2589 46.7837 38.483 46.9814 38.483 47.3066C38.483 47.6362 38.2633 47.834 37.9161 47.834H35.8287V49.7236C35.8287 50.1587 35.5826 50.4136 35.1651 50.4136ZM42.6018 50.4355C40.721 50.4355 39.5432 49.1787 39.5432 47.1616C39.5432 45.1401 40.721 43.8789 42.6018 43.8789C44.4783 43.8789 45.6604 45.1401 45.6604 47.1616C45.6604 49.1787 44.4783 50.4355 42.6018 50.4355ZM42.6018 49.3281C43.6389 49.3281 44.3025 48.4888 44.3025 47.1616C44.3025 45.8301 43.6389 44.9863 42.6018 44.9863C41.5647 44.9863 40.8968 45.8301 40.8968 47.1616C40.8968 48.4888 41.5603 49.3281 42.6018 49.3281ZM47.4809 50.3301C47.0635 50.3301 46.8174 50.0752 46.8174 49.6357V44.5952C46.8174 44.1558 47.0635 43.9009 47.4809 43.9009C47.8984 43.9009 48.1445 44.1558 48.1445 44.5952V49.2314H50.3945C50.7549 49.2314 50.9966 49.438 50.9966 49.7808C50.9966 50.1235 50.7593 50.3301 50.3945 50.3301H47.4809ZM52.6677 50.4136C52.2502 50.4136 52.0041 50.1587 52.0041 49.7236V44.5952C52.0041 44.1558 52.2502 43.9009 52.6677 43.9009C53.0851 43.9009 53.3312 44.1558 53.3312 44.5952V49.7236C53.3312 50.1587 53.0851 50.4136 52.6677 50.4136ZM57.5468 50.4355C55.6659 50.4355 54.4882 49.1787 54.4882 47.1616C54.4882 45.1401 55.6659 43.8789 57.5468 43.8789C59.4232 43.8789 60.6054 45.1401 60.6054 47.1616C60.6054 49.1787 59.4232 50.4355 57.5468 50.4355ZM57.5468 49.3281C58.5839 49.3281 59.2474 48.4888 59.2474 47.1616C59.2474 45.8301 58.5839 44.9863 57.5468 44.9863C56.5097 44.9863 55.8417 45.8301 55.8417 47.1616C55.8417 48.4888 56.5053 49.3281 57.5468 49.3281Z" fill="#BABAB7"/>
<rect x="51" y="51" width="18" height="18" rx="9" fill="#BABAB7"/>
<rect x="51" y="51" width="18" height="18" rx="9" stroke="white" stroke-width="2"/>
<path d="M55.1492 65.2H65.1492V55.2H55.1492V65.2Z" fill="#111111"/>
<rect x="1" y="6" width="20" height="20" rx="10" fill="#C8951A"/>
<rect x="1" y="6" width="20" height="20" rx="10" stroke="white" stroke-width="2"/>
<path d="M10.7039 19.09C10.4039 19.09 10.1539 19.0033 9.95391 18.83C9.75391 18.65 9.60391 18.41 9.50391 18.11C9.40391 17.8033 9.35391 17.4633 9.35391 17.09C9.35391 16.6433 9.42724 16.1867 9.57391 15.72C9.72057 15.2467 9.92724 14.79 10.1939 14.35C10.4606 13.91 10.7672 13.5067 11.1139 13.14C11.4672 12.7667 11.8472 12.4567 12.2539 12.21C12.6672 11.9567 13.0939 11.7867 13.5339 11.7C13.6539 11.6733 13.7139 11.71 13.7139 11.81C13.7139 11.8567 13.7006 11.89 13.6739 11.91C13.6472 11.9233 13.6072 11.9367 13.5539 11.95C12.9406 12.1233 12.4072 12.4233 11.9539 12.85C11.5006 13.2767 11.1139 13.82 10.7939 14.48C10.7739 14.52 10.7739 14.5533 10.7939 14.58C10.8139 14.6 10.8439 14.5967 10.8839 14.57C10.9706 14.5233 11.0672 14.49 11.1739 14.47C11.2872 14.45 11.3906 14.44 11.4839 14.44C11.9039 14.44 12.2339 14.61 12.4739 14.95C12.7139 15.29 12.8339 15.74 12.8339 16.3C12.8339 16.56 12.7839 16.85 12.6839 17.17C12.5839 17.49 12.4406 17.7967 12.2539 18.09C12.0672 18.3767 11.8439 18.6167 11.5839 18.81C11.3239 18.9967 11.0306 19.09 10.7039 19.09ZM10.6839 18.83C10.8839 18.83 11.0639 18.76 11.2239 18.62C11.3906 18.4733 11.5339 18.2867 11.6539 18.06C11.7739 17.8267 11.8739 17.5767 11.9539 17.31C12.0339 17.0433 12.0939 16.7867 12.1339 16.54C12.1739 16.2867 12.1939 16.0667 12.1939 15.88C12.1939 15.5 12.1306 15.2067 12.0039 15C11.8839 14.7933 11.6972 14.69 11.4439 14.69C11.2239 14.69 11.0272 14.76 10.8539 14.9C10.6872 15.04 10.5406 15.2267 10.4139 15.46C10.2939 15.6867 10.1939 15.9333 10.1139 16.2C10.0339 16.4667 9.97391 16.7267 9.93391 16.98C9.90057 17.2333 9.88391 17.4567 9.88391 17.65C9.88391 18.0167 9.94724 18.3067 10.0739 18.52C10.2006 18.7267 10.4039 18.83 10.6839 18.83Z" fill="white"/>
</g>
<defs>
<filter id="filter0_d_3384_119237" x="0" y="0" width="70" height="74" filterUnits="userSpaceOnUse" color-interpolation-filters="sRGB">
<feFlood flood-opacity="0" result="BackgroundImageFix"/>
<feColorMatrix in="SourceAlpha" type="matrix" values="0 0 0 0 0 0 0 0 0 0 0 0 0 0 0 0 0 0 127 0" result="hardAlpha"/>
<feOffset dy="4"/>
<feComposite in2="hardAlpha" operator="out"/>
<feColorMatrix type="matrix" values="0 0 0 0 0.784314 0 0 0 0 0.784314 0 0 0 0 0.764706 0 0 0 1 0"/>
<feBlend mode="normal" in2="BackgroundImageFix" result="effect1_dropShadow_3384_119237"/>
<feBlend mode="normal" in="SourceGraphic" in2="effect1_dropShadow_3384_119237" result="shape"/>
</filter>
</defs>
</svg>
