<svg width="70" height="75" viewBox="0 0 70 75" fill="none" xmlns="http://www.w3.org/2000/svg">
<g filter="url(#filter0_d_3384_119208)">
<rect width="70" height="70" rx="35" fill="white" shape-rendering="crispEdges"/>
<rect x="1.5" y="1.5" width="67" height="67" rx="33.5" stroke="#E8E8E4" stroke-width="3" shape-rendering="crispEdges"/>
<path d="M7.34844 49.4043C6.97734 49.4043 6.75859 49.1777 6.75859 48.791V44.3066C6.75859 43.9199 6.97734 43.6934 7.34844 43.6934H9.05156C10.2078 43.6934 11.0047 44.4629 11.0047 45.623C11.0047 46.7793 10.1805 47.5527 8.99297 47.5527H7.93828V48.791C7.93828 49.1777 7.71953 49.4043 7.34844 49.4043ZM7.93828 46.6309H8.73516C9.41094 46.6309 9.80547 46.2715 9.80547 45.627C9.80547 44.9863 9.41484 44.627 8.73906 44.627H7.93828V46.6309ZM12.5938 49.3301C12.2227 49.3301 12.0039 49.1035 12.0039 48.7129V44.3066C12.0039 43.9199 12.2227 43.6934 12.5938 43.6934H15.2734C15.5977 43.6934 15.8086 43.877 15.8086 44.1816C15.8086 44.4863 15.5938 44.6699 15.2734 44.6699H13.1836V46.0254H15.1719C15.4648 46.0254 15.6641 46.1973 15.6641 46.4785C15.6641 46.7598 15.4688 46.9316 15.1719 46.9316H13.1836V48.3535H15.2734C15.5938 48.3535 15.8086 48.5371 15.8086 48.8418C15.8086 49.1465 15.5977 49.3301 15.2734 49.3301H12.5938ZM17.4797 49.4121C17.1125 49.4121 16.8898 49.1855 16.8898 48.7988V44.3066C16.8898 43.9199 17.1086 43.6934 17.4797 43.6934H19.1984C20.4953 43.6934 21.2375 44.377 21.2375 45.4902C21.2375 46.1934 20.8898 46.7949 20.2688 47.0605L21.0813 48.4668C21.1789 48.6348 21.2063 48.7363 21.2063 48.873C21.2063 49.1855 20.9563 49.4121 20.6125 49.4121C20.3313 49.4121 20.2023 49.3105 20.0109 48.9668L19.0734 47.2676H18.0695V48.7988C18.0695 49.1855 17.8508 49.4121 17.4797 49.4121ZM18.0695 46.4121H19.0852C19.6789 46.4121 20.0266 46.0723 20.0266 45.5137C20.0266 44.9668 19.6594 44.6152 19.0734 44.6152H18.0695V46.4121ZM24.3773 49.4238C23.2133 49.4238 22.4672 48.959 22.2406 48.3418C22.2016 48.2402 22.1781 48.1309 22.1781 48.0254C22.1781 47.7129 22.393 47.5059 22.6977 47.5059C22.9398 47.5059 23.1 47.5996 23.2406 47.8496C23.4242 48.2793 23.8656 48.4746 24.4047 48.4746C25.0375 48.4746 25.4672 48.1699 25.4672 47.7559C25.4672 47.3848 25.2016 47.1738 24.4945 47.0293L23.8969 46.9121C22.7719 46.6895 22.2211 46.1504 22.2211 45.3105C22.2211 44.2793 23.1195 43.5957 24.3734 43.5957C25.4047 43.5957 26.182 44.0293 26.432 44.7637C26.4594 44.8418 26.475 44.9238 26.475 45.0254C26.475 45.3066 26.2719 45.498 25.9711 45.498C25.7055 45.498 25.5414 45.3926 25.4086 45.1504C25.2211 44.7246 24.8578 44.5488 24.3734 44.5488C23.7914 44.5488 23.4047 44.8223 23.4047 45.2363C23.4047 45.584 23.6742 45.7988 24.3422 45.9316L24.9359 46.0527C26.1313 46.291 26.6469 46.7715 26.6469 47.627C26.6469 48.7285 25.7836 49.4238 24.3773 49.4238ZM30.2125 49.4238C28.5406 49.4238 27.4938 48.3066 27.4938 46.5137C27.4938 44.7168 28.5406 43.5957 30.2125 43.5957C31.8805 43.5957 32.9313 44.7168 32.9313 46.5137C32.9313 48.3066 31.8805 49.4238 30.2125 49.4238ZM30.2125 48.4395C31.1344 48.4395 31.7242 47.6934 31.7242 46.5137C31.7242 45.3301 31.1344 44.5801 30.2125 44.5801C29.2906 44.5801 28.6969 45.3301 28.6969 46.5137C28.6969 47.6934 29.2867 48.4395 30.2125 48.4395ZM34.5594 49.4043C34.2039 49.4043 33.993 49.1895 33.993 48.8145V44.2051C33.993 43.8301 34.2117 43.6152 34.5867 43.6152C34.8289 43.6152 34.993 43.7129 35.1727 43.959L37.6102 47.3652H37.6414V44.209C37.6414 43.8301 37.8523 43.6152 38.2078 43.6152C38.5633 43.6152 38.7703 43.8301 38.7703 44.209V48.8301C38.7703 49.1973 38.5633 49.4043 38.1922 49.4043C37.9383 49.4043 37.782 49.3145 37.6023 49.0645L35.157 45.6387H35.1219V48.8145C35.1219 49.1895 34.9109 49.4043 34.5594 49.4043ZM40.3867 49.4043C40.0195 49.4043 39.7891 49.1895 39.7891 48.8496C39.7891 48.752 39.8164 48.6191 39.8672 48.4746L41.4062 44.2832C41.5703 43.8262 41.8477 43.6152 42.293 43.6152C42.7539 43.6152 43.0273 43.8184 43.1953 44.2793L44.7422 48.4746C44.7969 48.627 44.8164 48.7324 44.8164 48.8496C44.8164 49.1738 44.5703 49.4043 44.2266 49.4043C43.8945 49.4043 43.7188 49.252 43.6133 48.8848L43.3164 47.9941H41.2812L40.9844 48.873C40.875 49.248 40.6992 49.4043 40.3867 49.4043ZM41.5391 47.0801H43.043L42.2969 44.7715H42.2695L41.5391 47.0801ZM46.425 49.3301C46.0539 49.3301 45.8352 49.1035 45.8352 48.7129V44.2324C45.8352 43.8418 46.0539 43.6152 46.425 43.6152C46.7961 43.6152 47.0148 43.8418 47.0148 44.2324V48.3535H49.0148C49.3352 48.3535 49.55 48.5371 49.55 48.8418C49.55 49.1465 49.3391 49.3301 49.0148 49.3301H46.425ZM51.0688 49.4043C50.6977 49.4043 50.4789 49.1777 50.4789 48.791V44.2324C50.4789 43.8418 50.6977 43.6152 51.0688 43.6152C51.4398 43.6152 51.6586 43.8418 51.6586 44.2324V48.791C51.6586 49.1777 51.4398 49.4043 51.0688 49.4043ZM54.8336 49.4043C54.4625 49.4043 54.2438 49.1777 54.2438 48.791V44.6699H53.0797C52.7594 44.6699 52.5445 44.4863 52.5445 44.1816C52.5445 43.877 52.7555 43.6934 53.0797 43.6934H56.5914C56.9117 43.6934 57.1227 43.877 57.1227 44.1816C57.1227 44.4863 56.9078 44.6699 56.5914 44.6699H55.4234V48.791C55.4234 49.1777 55.2047 49.4043 54.8336 49.4043ZM60.2 49.4043C59.8289 49.4043 59.6102 49.1777 59.6102 48.791V47.2246L57.8914 44.5684C57.8055 44.4355 57.7703 44.3027 57.7703 44.1699C57.7703 43.8496 58.0203 43.6152 58.3602 43.6152C58.6141 43.6152 58.7508 43.709 58.907 43.9785L60.1961 46.0996H60.2234L61.5164 43.9785C61.6648 43.7207 61.8172 43.6152 62.0516 43.6152C62.3836 43.6152 62.6336 43.8496 62.6336 44.1621C62.6336 44.2988 62.5945 44.4277 62.5086 44.5645L60.7898 47.2246V48.791C60.7898 49.1777 60.5711 49.4043 60.2 49.4043Z" fill="#BABAB7"/>
<rect x="1" y="6" width="20" height="20" rx="10" fill="#C8951A"/>
<rect x="1" y="6" width="20" height="20" rx="10" stroke="white" stroke-width="2"/>
<path d="M10.0943 19.09C9.801 19.09 9.54434 19.0267 9.32434 18.9C9.111 18.7733 9.00434 18.5867 9.00434 18.34C9.00434 18.2067 9.041 18.1033 9.11434 18.03C9.181 17.9567 9.261 17.92 9.35434 17.92C9.46767 17.92 9.54434 17.95 9.58434 18.01C9.631 18.07 9.65767 18.1467 9.66434 18.24C9.67767 18.3267 9.691 18.4167 9.70434 18.51C9.72434 18.6033 9.76434 18.68 9.82434 18.74C9.891 18.8 10.001 18.83 10.1543 18.83C10.441 18.83 10.6943 18.7467 10.9143 18.58C11.1343 18.4133 11.3177 18.1967 11.4643 17.93C11.6177 17.6567 11.731 17.3633 11.8043 17.05C11.8843 16.73 11.9243 16.4233 11.9243 16.13C11.9243 15.7233 11.8577 15.4133 11.7243 15.2C11.5977 14.9867 11.3777 14.88 11.0643 14.88C10.9377 14.88 10.8243 14.8933 10.7243 14.92C10.6243 14.9467 10.531 14.98 10.4443 15.02C10.371 15.0533 10.311 15.0633 10.2643 15.05C10.2243 15.0367 10.2043 15.0067 10.2043 14.96C10.2043 14.9133 10.251 14.8567 10.3443 14.79L11.1943 14.21C11.6077 13.93 11.9077 13.6633 12.0943 13.41C12.281 13.1567 12.3743 12.89 12.3743 12.61C12.3743 12.4233 12.3243 12.28 12.2243 12.18C12.1243 12.0733 11.9777 12.02 11.7843 12.02C11.551 12.02 11.3343 12.1033 11.1343 12.27C10.941 12.4367 10.801 12.69 10.7143 13.03C10.6943 13.1167 10.6443 13.16 10.5643 13.16C10.4643 13.16 10.431 13.0933 10.4643 12.96C10.5577 12.5467 10.741 12.2333 11.0143 12.02C11.2943 11.8067 11.6043 11.7 11.9443 11.7C12.2977 11.7 12.571 11.7867 12.7643 11.96C12.9643 12.1267 13.0643 12.3433 13.0643 12.61C13.0643 12.9367 12.9277 13.2433 12.6543 13.53C12.3877 13.8167 11.9677 14.1033 11.3943 14.39L11.1143 14.53C11.081 14.5433 11.0677 14.5633 11.0743 14.59C11.081 14.61 11.1043 14.6167 11.1443 14.61C11.2177 14.59 11.281 14.58 11.3343 14.58C11.721 14.58 12.0343 14.7333 12.2743 15.04C12.5143 15.34 12.6343 15.7533 12.6343 16.28C12.6343 16.5933 12.5643 16.9133 12.4243 17.24C12.2843 17.5667 12.0943 17.87 11.8543 18.15C11.621 18.43 11.351 18.6567 11.0443 18.83C10.7443 19.0033 10.4277 19.09 10.0943 19.09Z" fill="white"/>
</g>
<defs>
<filter id="filter0_d_3384_119208" x="0" y="0" width="70" height="75" filterUnits="userSpaceOnUse" color-interpolation-filters="sRGB">
<feFlood flood-opacity="0" result="BackgroundImageFix"/>
<feColorMatrix in="SourceAlpha" type="matrix" values="0 0 0 0 0 0 0 0 0 0 0 0 0 0 0 0 0 0 127 0" result="hardAlpha"/>
<feOffset dy="5"/>
<feComposite in2="hardAlpha" operator="out"/>
<feColorMatrix type="matrix" values="0 0 0 0 0.752941 0 0 0 0 0.752941 0 0 0 0 0.733333 0 0 0 1 0"/>
<feBlend mode="normal" in2="BackgroundImageFix" result="effect1_dropShadow_3384_119208"/>
<feBlend mode="normal" in="SourceGraphic" in2="effect1_dropShadow_3384_119208" result="shape"/>
</filter>
</defs>
</svg>
