<svg width="70" height="74" viewBox="0 0 70 74" fill="none" xmlns="http://www.w3.org/2000/svg">
<g filter="url(#filter0_d_3384_119257)">
<rect width="70" height="70" rx="35" fill="#EBEBEB" shape-rendering="crispEdges"/>
<rect x="1.5" y="1.5" width="67" height="67" rx="33.5" stroke="#E8E8E4" stroke-width="3" shape-rendering="crispEdges"/>
<g opacity="0.22">
<rect width="16.5" height="22" transform="translate(26.75 17.3301)" fill="white" style="mix-blend-mode:saturation"/>
<path d="M33.6601 27.9902C33.3034 28.3451 33.102 28.827 33.1001 29.3302C33.1001 29.8341 33.3003 30.3174 33.6566 30.6737C34.0129 31.0301 34.4962 31.2302 35.0001 31.2302C35.5033 31.2284 35.9852 31.027 36.3401 30.6702" stroke="black" stroke-width="1.5" stroke-linecap="round" stroke-linejoin="round"/>
<path d="M34.9998 23.6299C33.8725 23.6299 32.7704 23.9642 31.8331 24.5905C30.8957 25.2168 30.1651 26.107 29.7337 27.1486C29.3023 28.1901 29.1894 29.3362 29.4093 30.4419C29.6293 31.5476 30.1721 32.5632 30.9693 33.3604C31.7665 34.1575 32.7821 34.7004 33.8878 34.9204C34.9935 35.1403 36.1396 35.0274 37.1811 34.596C38.2226 34.1646 39.1129 33.434 39.7392 32.4966C40.3655 31.5593 40.6998 30.4572 40.6998 29.3299" stroke="black" stroke-width="1.5" stroke-linecap="round" stroke-linejoin="round"/>
<path d="M35 19.8301C33.1211 19.8301 31.2844 20.3872 29.7221 21.4311C28.1598 22.475 26.9422 23.9587 26.2231 25.6946C25.5041 27.4305 25.316 29.3406 25.6825 31.1834C26.0491 33.0263 26.9539 34.719 28.2825 36.0476C29.6111 37.3762 31.3038 38.281 33.1466 38.6475C34.9895 39.0141 36.8996 38.826 38.6355 38.1069C40.3714 37.3879 41.8551 36.1703 42.899 34.608C43.9428 33.0457 44.5 31.209 44.5 29.3301M38.525 25.8061L35.95 28.3801" stroke="black" stroke-width="1.5" stroke-linecap="round" stroke-linejoin="round"/>
<path d="M43.9402 23.1744L40.7002 23.6304L41.1562 20.3904C41.1596 20.3528 41.1516 20.315 41.1334 20.2819C41.1152 20.2488 41.0875 20.2219 41.0539 20.2046C41.0203 20.1874 40.9823 20.1805 40.9448 20.1849C40.9072 20.1893 40.8719 20.2048 40.8432 20.2294L38.6952 22.3664C38.4746 22.5886 38.3123 22.8619 38.2228 23.162C38.1333 23.4621 38.1194 23.7796 38.1822 24.0864L38.5242 25.8064L40.2442 26.1474C40.551 26.2103 40.8685 26.1963 41.1686 26.1068C41.4687 26.0173 41.742 25.855 41.9642 25.6344L44.1002 23.4874C44.1249 23.4587 44.1405 23.4232 44.1448 23.3856C44.1492 23.348 44.1423 23.3099 44.1249 23.2762C44.1075 23.2426 44.0804 23.2149 44.0471 23.1968C44.0139 23.1786 43.9759 23.1708 43.9382 23.1744" stroke="black" stroke-width="1.5" stroke-linecap="round" stroke-linejoin="round"/>
</g>
<path d="M22.9552 50.4355C21.0611 50.4355 19.901 49.2007 19.901 47.1396C19.901 45.1094 21.0611 43.8789 22.9244 43.8789C24.1417 43.8789 25.0953 44.4502 25.4513 45.228C25.526 45.3818 25.5479 45.5093 25.5479 45.6367C25.5479 45.9751 25.315 46.208 24.9679 46.208C24.6866 46.208 24.4888 46.0894 24.3263 45.8213C24.0142 45.2544 23.5528 44.9775 22.9288 44.9775C21.8829 44.9775 21.2545 45.7729 21.2545 47.1221C21.2545 48.4976 21.9224 49.3369 22.9771 49.3369C23.8429 49.3369 24.4449 48.8052 24.4713 48.0186L24.4757 47.9175H23.5528C23.2364 47.9175 23.0211 47.7373 23.0211 47.4341C23.0211 47.1309 23.232 46.9507 23.5528 46.9507H25.1041C25.5216 46.9507 25.7677 47.2056 25.7677 47.6406V47.7373C25.7677 49.3501 24.7437 50.4355 22.9552 50.4355ZM29.8074 50.4355C27.9265 50.4355 26.7488 49.1787 26.7488 47.1616C26.7488 45.1401 27.9265 43.8789 29.8074 43.8789C31.6839 43.8789 32.866 45.1401 32.866 47.1616C32.866 49.1787 31.6839 50.4355 29.8074 50.4355ZM29.8074 49.3281C30.8445 49.3281 31.5081 48.4888 31.5081 47.1616C31.5081 45.8301 30.8445 44.9863 29.8074 44.9863C28.7703 44.9863 28.1023 45.8301 28.1023 47.1616C28.1023 48.4888 28.7659 49.3281 29.8074 49.3281ZM34.1811 50.4136C33.768 50.4136 33.5088 50.1719 33.5088 49.7896C33.5088 49.6797 33.5395 49.5303 33.5967 49.3677L35.3281 44.6523C35.5127 44.1382 35.8247 43.9009 36.3257 43.9009C36.8442 43.9009 37.1518 44.1294 37.3408 44.6479L39.081 49.3677C39.1426 49.5391 39.1645 49.6577 39.1645 49.7896C39.1645 50.1543 38.8877 50.4136 38.501 50.4136C38.1274 50.4136 37.9297 50.2422 37.811 49.8291L37.477 48.8271H35.1875L34.8535 49.8159C34.7304 50.2378 34.5327 50.4136 34.1811 50.4136ZM35.4775 47.7988H37.1694L36.3301 45.2017H36.2993L35.4775 47.7988ZM40.9367 50.3301C40.5192 50.3301 40.2731 50.0752 40.2731 49.6357V44.5952C40.2731 44.1558 40.5192 43.9009 40.9367 43.9009C41.3542 43.9009 41.6003 44.1558 41.6003 44.5952V49.2314H43.8503C44.2106 49.2314 44.4523 49.438 44.4523 49.7808C44.4523 50.1235 44.215 50.3301 43.8503 50.3301H40.9367ZM47.7802 50.4355C46.4706 50.4355 45.6312 49.9126 45.3763 49.2183C45.3324 49.104 45.306 48.981 45.306 48.8623C45.306 48.5107 45.5477 48.2778 45.8905 48.2778C46.163 48.2778 46.3431 48.3833 46.5013 48.6646C46.7079 49.1479 47.2045 49.3677 47.8109 49.3677C48.5228 49.3677 49.0062 49.0249 49.0062 48.5591C49.0062 48.1416 48.7074 47.9043 47.912 47.7417L47.2396 47.6099C45.974 47.3594 45.3544 46.7529 45.3544 45.8081C45.3544 44.6479 46.3651 43.8789 47.7758 43.8789C48.9359 43.8789 49.8104 44.3667 50.0917 45.1929C50.1224 45.2808 50.14 45.373 50.14 45.4873C50.14 45.8037 49.9115 46.019 49.5731 46.019C49.2743 46.019 49.0897 45.9004 48.9403 45.6279C48.7294 45.1489 48.3207 44.9512 47.7758 44.9512C47.121 44.9512 46.6859 45.2588 46.6859 45.7246C46.6859 46.1157 46.9891 46.3574 47.7406 46.5068L48.4086 46.6431C49.7533 46.9111 50.3334 47.4517 50.3334 48.4141C50.3334 49.6533 49.3622 50.4355 47.7802 50.4355Z" fill="#BABAB7"/>
<rect x="51" y="51" width="18" height="18" rx="9" fill="#BABAB7"/>
<rect x="51" y="51" width="18" height="18" rx="9" stroke="white" stroke-width="2"/>
<path d="M55.1492 65.2H65.1492V55.2H55.1492V65.2Z" fill="#111111"/>
<rect x="1" y="6" width="20" height="20" rx="10" fill="#C8951A"/>
<rect x="1" y="6" width="20" height="20" rx="10" stroke="white" stroke-width="2"/>
<path d="M10.767 19.09C10.4403 19.09 10.1436 19.02 9.87695 18.88C9.61029 18.7333 9.40029 18.5333 9.24695 18.28C9.09362 18.0267 9.01695 17.7367 9.01695 17.41C9.01695 17.0633 9.09362 16.7533 9.24695 16.48C9.40695 16.2 9.62362 15.96 9.89695 15.76C10.1703 15.5533 10.4736 15.39 10.807 15.27C10.8536 15.2567 10.8803 15.2367 10.887 15.21C10.9003 15.1767 10.8903 15.1467 10.857 15.12C10.6103 14.88 10.4303 14.6233 10.317 14.35C10.2036 14.07 10.147 13.7767 10.147 13.47C10.147 13.1567 10.2236 12.8667 10.377 12.6C10.537 12.3267 10.757 12.11 11.037 11.95C11.3236 11.7833 11.6503 11.7 12.017 11.7C12.317 11.7 12.5803 11.7667 12.807 11.9C13.0336 12.0267 13.2103 12.2 13.337 12.42C13.4703 12.64 13.537 12.8833 13.537 13.15C13.537 13.45 13.4636 13.7233 13.317 13.97C13.177 14.2167 12.987 14.4333 12.747 14.62C12.5136 14.8 12.2503 14.9433 11.957 15.05C11.917 15.0633 11.8936 15.0867 11.887 15.12C11.887 15.1533 11.9003 15.1833 11.927 15.21C12.247 15.5033 12.477 15.79 12.617 16.07C12.7636 16.3433 12.837 16.6267 12.837 16.92C12.837 17.32 12.747 17.6833 12.567 18.01C12.387 18.3367 12.1403 18.6 11.827 18.8C11.5136 18.9933 11.1603 19.09 10.767 19.09ZM11.807 14.89C12.1003 14.7433 12.3303 14.5567 12.497 14.33C12.6703 14.0967 12.7936 13.86 12.867 13.62C12.9403 13.38 12.977 13.1667 12.977 12.98C12.977 12.6867 12.897 12.4467 12.737 12.26C12.577 12.0667 12.3303 11.97 11.997 11.97C11.7036 11.97 11.467 12.04 11.287 12.18C11.107 12.3133 10.9736 12.48 10.887 12.68C10.807 12.8733 10.767 13.06 10.767 13.24C10.767 13.56 10.8236 13.8433 10.937 14.09C11.057 14.3367 11.2603 14.5967 11.547 14.87C11.587 14.91 11.627 14.93 11.667 14.93C11.707 14.93 11.7536 14.9167 11.807 14.89ZM10.797 18.83C11.137 18.83 11.407 18.75 11.607 18.59C11.8136 18.4233 11.9603 18.22 12.047 17.98C12.1403 17.7333 12.187 17.4933 12.187 17.26C12.187 16.8933 12.1136 16.58 11.967 16.32C11.827 16.0533 11.5803 15.7667 11.227 15.46C11.1403 15.3867 11.0536 15.3733 10.967 15.42C10.627 15.58 10.357 15.7833 10.157 16.03C9.95695 16.27 9.81029 16.5233 9.71695 16.79C9.63029 17.05 9.58695 17.3 9.58695 17.54C9.58695 17.8533 9.64362 18.1067 9.75695 18.3C9.87029 18.4867 10.0203 18.6233 10.207 18.71C10.3936 18.79 10.5903 18.83 10.797 18.83Z" fill="white"/>
</g>
<defs>
<filter id="filter0_d_3384_119257" x="0" y="0" width="70" height="74" filterUnits="userSpaceOnUse" color-interpolation-filters="sRGB">
<feFlood flood-opacity="0" result="BackgroundImageFix"/>
<feColorMatrix in="SourceAlpha" type="matrix" values="0 0 0 0 0 0 0 0 0 0 0 0 0 0 0 0 0 0 127 0" result="hardAlpha"/>
<feOffset dy="4"/>
<feComposite in2="hardAlpha" operator="out"/>
<feColorMatrix type="matrix" values="0 0 0 0 0.784314 0 0 0 0 0.784314 0 0 0 0 0.764706 0 0 0 1 0"/>
<feBlend mode="normal" in2="BackgroundImageFix" result="effect1_dropShadow_3384_119257"/>
<feBlend mode="normal" in="SourceGraphic" in2="effect1_dropShadow_3384_119257" result="shape"/>
</filter>
</defs>
</svg>
