<svg width="97" height="17" viewBox="0 0 97 17" fill="none" xmlns="http://www.w3.org/2000/svg">
<path fill-rule="evenodd" clip-rule="evenodd" d="M7.9998 1.2998C4.02335 1.2998 0.799805 4.52335 0.799805 8.4998C0.799805 12.4763 4.02335 15.6998 7.9998 15.6998C11.9763 15.6998 15.1998 12.4763 15.1998 8.4998C15.1998 4.52335 11.9763 1.2998 7.9998 1.2998ZM11.0746 6.66667C11.2772 6.40446 11.2289 6.02765 10.9667 5.82503C10.7045 5.62242 10.3277 5.67073 10.125 5.93294L7.16473 9.76392L5.84578 8.29842C5.62411 8.05212 5.24473 8.03215 4.99843 8.25383C4.75212 8.4755 4.73215 8.85488 4.95383 9.10118L6.75383 11.1012C6.87286 11.2334 7.04446 11.306 7.22228 11.2994C7.40009 11.2927 7.56577 11.2075 7.67457 11.0667L11.0746 6.66667Z" fill="#BABAB7"/>
<path d="M29.6748 13.1094C29.1963 13.1094 28.9092 12.8086 28.9092 12.3164V3.92871C28.9092 3.43652 29.1963 3.13574 29.6748 3.13574H32.6074C34.5215 3.13574 35.8545 4.45508 35.8545 6.37598C35.8545 8.30371 34.4941 9.62988 32.5596 9.62988H30.4404V12.3164C30.4404 12.8086 30.1465 13.1094 29.6748 13.1094ZM30.4404 8.34473H32.1973C33.5303 8.34473 34.2891 7.62695 34.2891 6.38281C34.2891 5.13867 33.5303 4.42773 32.2041 4.42773H30.4404V8.34473ZM39.973 13.1367C37.806 13.1367 36.5345 11.7627 36.5345 9.43848C36.5345 7.15527 37.8334 5.67871 39.8705 5.67871C41.7845 5.67871 43.1039 7.05957 43.1039 9.02148C43.1039 9.5 42.8304 9.77344 42.3724 9.77344H38.0248V9.80762C38.0248 11.1201 38.763 11.9404 39.9388 11.9404C40.7455 11.9404 41.2513 11.6602 41.7982 10.915C41.9554 10.7305 42.1058 10.6553 42.3177 10.6553C42.6732 10.6553 42.933 10.8877 42.933 11.2568C42.933 11.373 42.892 11.5098 42.8304 11.6533C42.3588 12.5967 41.3129 13.1367 39.973 13.1367ZM38.0316 8.74121H41.6273C41.5931 7.61328 40.889 6.86816 39.8636 6.86816C38.8451 6.86816 38.1068 7.62012 38.0316 8.74121ZM45.1306 13.1299C44.6862 13.1299 44.3923 12.8291 44.3923 12.3506V6.42383C44.3923 5.97266 44.6794 5.67871 45.0964 5.67871C45.5066 5.67871 45.7937 5.97266 45.7937 6.42383V7.03906H45.8279C46.0261 6.23242 46.6892 5.69238 47.407 5.69238C47.6667 5.69238 47.865 5.75391 47.988 5.87012C48.1247 5.97949 48.1862 6.15723 48.1862 6.38965C48.1862 6.62207 48.1111 6.79297 47.9675 6.90918C47.8171 7.03906 47.5984 7.10059 47.2907 7.10059C46.279 7.10742 45.8689 7.78418 45.8689 8.67969V12.3506C45.8689 12.8291 45.5681 13.1299 45.1306 13.1299ZM51.7784 13.1367C50.3634 13.1367 49.3243 12.5557 48.9825 11.6738C48.9346 11.5645 48.921 11.4619 48.921 11.3662C48.921 10.9971 49.1876 10.7783 49.5567 10.7783C49.8028 10.7783 50.0147 10.8945 50.1993 11.168C50.5684 11.749 50.9991 12.0088 51.8536 12.0088C52.6944 12.0088 53.2618 11.6465 53.2618 11.0518C53.2618 10.5801 52.9815 10.3271 52.2091 10.1426L51.0743 9.87598C49.6798 9.54785 48.9962 8.86426 48.9962 7.83887C48.9962 6.54004 50.1241 5.67871 51.8331 5.67871C53.1319 5.67871 54.1983 6.3418 54.4034 7.18945C54.4171 7.27148 54.4307 7.33984 54.4307 7.4082C54.4307 7.73633 54.2257 7.95508 53.8565 7.95508C53.6173 7.95508 53.4054 7.87305 53.2618 7.64062C52.9405 7.09375 52.503 6.80664 51.7784 6.80664C50.9854 6.80664 50.4386 7.19629 50.4386 7.75684C50.4386 8.20801 50.7872 8.52246 51.546 8.7002L52.6602 8.95996C54.171 9.30859 54.752 9.84863 54.752 10.915C54.752 12.248 53.5557 13.1367 51.7784 13.1367ZM59.1235 13.1367C57.0659 13.1367 55.7123 11.7217 55.7123 9.4043C55.7123 7.09375 57.0727 5.67871 59.1235 5.67871C61.1743 5.67871 62.5346 7.09375 62.5346 9.4043C62.5346 11.7217 61.1811 13.1367 59.1235 13.1367ZM59.1235 11.9199C60.2856 11.9199 61.0307 11.0039 61.0307 9.4043C61.0307 7.81152 60.2787 6.89551 59.1235 6.89551C57.9682 6.89551 57.2162 7.81152 57.2162 9.4043C57.2162 11.0039 57.9682 11.9199 59.1235 11.9199ZM64.5545 13.1299C64.117 13.1299 63.8162 12.8359 63.8162 12.3506V6.42383C63.8162 5.97266 64.0896 5.67871 64.5203 5.67871C64.9441 5.67871 65.2381 5.97266 65.2381 6.43066V6.99805H65.2723C65.6619 6.17773 66.4139 5.68555 67.5213 5.68555C69.1072 5.68555 70.0164 6.69727 70.0164 8.34473V12.3506C70.0164 12.8359 69.7088 13.1299 69.2713 13.1299C68.8406 13.1299 68.533 12.8359 68.533 12.3506V8.63184C68.533 7.55176 68.0271 6.95703 67.0018 6.95703C65.9627 6.95703 65.2928 7.69531 65.2928 8.80957V12.3506C65.2928 12.8359 64.9852 13.1299 64.5545 13.1299ZM73.6906 13.123C72.2824 13.123 71.2912 12.248 71.2912 10.9561C71.2912 9.69824 72.2619 8.92578 73.964 8.83008L75.9396 8.71387V8.16016C75.9396 7.36035 75.3996 6.88184 74.4972 6.88184C73.7863 6.88184 73.3146 7.13477 72.9045 7.79102C72.7541 8.00977 72.5627 8.10547 72.3029 8.10547C71.9338 8.10547 71.6671 7.85938 71.6671 7.49023C71.6671 7.33984 71.7082 7.17578 71.797 7.01172C72.173 6.19824 73.2599 5.67871 74.5519 5.67871C76.2951 5.67871 77.4093 6.60156 77.4093 8.04395V12.3848C77.4093 12.8496 77.1154 13.1299 76.6984 13.1299C76.2882 13.1299 76.008 12.8633 75.9943 12.4258V11.8174H75.9601C75.5431 12.6172 74.6271 13.123 73.6906 13.123ZM74.0939 11.9541C75.1261 11.9541 75.9396 11.2432 75.9396 10.3066V9.73926L74.1623 9.84863C73.2804 9.91016 72.7814 10.2998 72.7814 10.915C72.7814 11.5439 73.3078 11.9541 74.0939 11.9541ZM79.7779 13.1299C79.3472 13.1299 79.0396 12.8359 79.0396 12.3506V3.78516C79.0396 3.2998 79.3472 3.00586 79.7779 3.00586C80.2085 3.00586 80.5161 3.2998 80.5161 3.78516V12.3506C80.5161 12.8359 80.2085 13.1299 79.7779 13.1299ZM82.9598 4.72168C82.4882 4.72168 82.1054 4.33887 82.1054 3.87402C82.1054 3.40234 82.4882 3.0332 82.9598 3.0332C83.4384 3.0332 83.8212 3.40234 83.8212 3.87402C83.8212 4.33887 83.4384 4.72168 82.9598 4.72168ZM82.9598 13.1299C82.5155 13.1299 82.2216 12.8223 82.2216 12.3506V6.46484C82.2216 5.98633 82.5155 5.67871 82.9598 5.67871C83.4042 5.67871 83.6981 5.98633 83.6981 6.46484V12.3506C83.6981 12.8223 83.4042 13.1299 82.9598 13.1299ZM85.7795 11.2773V6.97754H85.26C84.8772 6.97754 84.6448 6.75879 84.6448 6.39648C84.6448 6.02734 84.8772 5.80859 85.26 5.80859H85.7795V4.74219C85.7795 4.27051 86.0735 3.95605 86.5246 3.95605C86.969 3.95605 87.2629 4.27051 87.2629 4.74219V5.80859H88.1037C88.4866 5.80859 88.719 6.03418 88.719 6.39648C88.719 6.75879 88.4866 6.97754 88.1037 6.97754H87.2629V10.9492C87.2629 11.5234 87.4612 11.7832 87.9944 11.8242L88.1106 11.8311C88.5344 11.8721 88.7463 12.043 88.7463 12.3916C88.7463 12.8359 88.4045 13.0615 87.6799 13.0615H87.6047C86.3948 13.0615 85.7795 12.4668 85.7795 11.2773ZM90.8756 15.6797C90.192 15.6797 89.816 15.4268 89.816 14.9688C89.816 14.6543 90.0348 14.4492 90.3902 14.4492C90.5475 14.4492 90.6021 14.4561 90.773 14.4561C91.1832 14.4561 91.6002 14.2305 91.8668 13.4922L92.0035 13.0752L89.5973 6.7793C89.5426 6.62891 89.5152 6.47852 89.5152 6.3623C89.5152 5.95898 89.8365 5.67871 90.2672 5.67871C90.6363 5.67871 90.8482 5.83594 90.9781 6.24609L92.8102 11.6602H92.8307L94.6695 6.24609C94.7926 5.84277 94.9977 5.67871 95.3736 5.67871C95.7975 5.67871 96.0914 5.95898 96.0914 6.35547C96.0914 6.47168 96.0641 6.62207 96.0162 6.76562L93.5211 13.3623C92.8854 15.0918 92.2086 15.6797 90.8756 15.6797Z" fill="#BABAB7"/>
</svg>
