<svg width="97" height="97" viewBox="0 0 97 97" fill="none" xmlns="http://www.w3.org/2000/svg">
<rect width="96.72" height="96.72" rx="16" fill="#F8F8F4"/>
<g clip-path="url(#clip0_3296_4673)">
<path d="M48.5533 109.196C62.3241 109.196 73.4875 98.0331 73.4875 84.2623C73.4875 70.4915 62.3241 59.3281 48.5533 59.3281C34.7825 59.3281 23.6191 70.4915 23.6191 84.2623C23.6191 98.0331 34.7825 109.196 48.5533 109.196Z" fill="#EC4899"/>
<path d="M48.5536 51.3945C56.0649 51.3945 62.154 47.8426 62.154 43.4609C62.154 39.0793 56.0649 35.5273 48.5536 35.5273C41.0423 35.5273 34.9531 39.0793 34.9531 43.4609C34.9531 47.8426 41.0423 51.3945 48.5536 51.3945Z" fill="#2E1A10"/>
<path d="M48.5536 43.4607C51.6833 43.4607 54.2204 40.9235 54.2204 37.7938C54.2204 34.6641 51.6833 32.127 48.5536 32.127C45.4239 32.127 42.8867 34.6641 42.8867 37.7938C42.8867 40.9235 45.4239 43.4607 48.5536 43.4607Z" fill="#2E1A10"/>
<path d="M48.5536 78.5956C56.0649 78.5956 62.154 71.999 62.154 63.8618C62.154 55.7245 56.0649 49.1279 48.5536 49.1279C41.0423 49.1279 34.9531 55.7245 34.9531 63.8618C34.9531 71.999 41.0423 78.5956 48.5536 78.5956Z" fill="#6B4226"/>
<path d="M45.1533 69.5293C47.4201 71.0405 49.6868 71.0405 51.9535 69.5293" stroke="#3C2415" stroke-width="1.36007" stroke-linecap="round"/>
</g>
<defs>
<clipPath id="clip0_3296_4673">
<rect width="63.47" height="63.47" fill="white" transform="translate(16.8184 29.8604)"/>
</clipPath>
</defs>
</svg>
