<svg width="97" height="97" viewBox="0 0 97 97" fill="none" xmlns="http://www.w3.org/2000/svg">
<rect width="96.72" height="96.72" rx="16" fill="#F8F8F4"/>
<g clip-path="url(#clip0_3296_4658)">
<path d="M48.0147 109.196C61.7855 109.196 72.9489 98.0331 72.9489 84.2623C72.9489 70.4915 61.7855 59.3281 48.0147 59.3281C34.244 59.3281 23.0806 70.4915 23.0806 84.2623C23.0806 98.0331 34.244 109.196 48.0147 109.196Z" fill="#EC4899"/>
<path d="M48.015 76.329C55.5263 76.329 61.6155 69.7324 61.6155 61.5952C61.6155 53.4579 55.5263 46.8613 48.015 46.8613C40.5037 46.8613 34.4146 53.4579 34.4146 61.5952C34.4146 69.7324 40.5037 76.329 48.015 76.329Z" fill="#5D4037"/>
<path d="M34.4137 50.2619L32.147 75.196L34.4137 50.2619ZM38.9472 47.9951L36.6805 79.7295L38.9472 47.9951ZM57.0811 47.9951L59.3479 79.7295L57.0811 47.9951ZM61.6146 50.2619L63.8814 75.196L61.6146 50.2619Z" fill="black"/>
<path d="M34.4137 50.2619L32.147 75.196M38.9472 47.9951L36.6805 79.7295M57.0811 47.9951L59.3479 79.7295M61.6146 50.2619L63.8814 75.196" stroke="#2E1A10" stroke-width="3.40018" stroke-linecap="round"/>
<path d="M48.0146 53.6618C56.1519 53.6618 62.7484 51.1247 62.7484 47.995C62.7484 44.8653 56.1519 42.3281 48.0146 42.3281C39.8773 42.3281 33.2808 44.8653 33.2808 47.995C33.2808 51.1247 39.8773 53.6618 48.0146 53.6618Z" fill="#2E1A10"/>
<path d="M44.6147 68.3955C46.8815 69.9067 49.1482 69.9067 51.415 68.3955" stroke="#3C2415" stroke-width="1.36007" stroke-linecap="round"/>
</g>
<defs>
<clipPath id="clip0_3296_4658">
<rect width="63.47" height="63.47" fill="white" transform="translate(16.2798 29.8604)"/>
</clipPath>
</defs>
</svg>
