<svg width="60" height="17" viewBox="0 0 60 17" fill="none" xmlns="http://www.w3.org/2000/svg">
<path fill-rule="evenodd" clip-rule="evenodd" d="M7.9998 1.2998C4.02335 1.2998 0.799805 4.52335 0.799805 8.4998C0.799805 12.4763 4.02335 15.6998 7.9998 15.6998C11.9763 15.6998 15.1998 12.4763 15.1998 8.4998C15.1998 4.52335 11.9763 1.2998 7.9998 1.2998ZM11.0746 6.66667C11.2772 6.40446 11.2289 6.02765 10.9667 5.82503C10.7045 5.62242 10.3277 5.67073 10.125 5.93294L7.16473 9.76392L5.84578 8.29842C5.62411 8.05212 5.24473 8.03215 4.99843 8.25383C4.75212 8.4755 4.73215 8.85488 4.95383 9.10118L6.75383 11.1012C6.87286 11.2334 7.04446 11.306 7.22228 11.2994C7.40009 11.2927 7.56577 11.2075 7.67457 11.0667L11.0746 6.66667Z" fill="#BABAB7"/>
<path d="M29.6748 13.1094C29.1963 13.1094 28.9092 12.8086 28.9092 12.3164V3.92871C28.9092 3.43652 29.1963 3.13574 29.6748 3.13574H32.6074C34.5215 3.13574 35.8545 4.45508 35.8545 6.37598C35.8545 8.30371 34.4941 9.62988 32.5596 9.62988H30.4404V12.3164C30.4404 12.8086 30.1465 13.1094 29.6748 13.1094ZM30.4404 8.34473H32.1973C33.5303 8.34473 34.2891 7.62695 34.2891 6.38281C34.2891 5.13867 33.5303 4.42773 32.2041 4.42773H30.4404V8.34473ZM37.9427 4.72168C37.4711 4.72168 37.0882 4.33887 37.0882 3.87402C37.0882 3.40234 37.4711 3.0332 37.9427 3.0332C38.4213 3.0332 38.8041 3.40234 38.8041 3.87402C38.8041 4.33887 38.4213 4.72168 37.9427 4.72168ZM37.9427 13.1299C37.4984 13.1299 37.2045 12.8223 37.2045 12.3506V6.46484C37.2045 5.98633 37.4984 5.67871 37.9427 5.67871C38.3871 5.67871 38.681 5.98633 38.681 6.46484V12.3506C38.681 12.8223 38.3871 13.1299 37.9427 13.1299ZM40.7624 11.2773V6.97754H40.2429C39.8601 6.97754 39.6277 6.75879 39.6277 6.39648C39.6277 6.02734 39.8601 5.80859 40.2429 5.80859H40.7624V4.74219C40.7624 4.27051 41.0564 3.95605 41.5075 3.95605C41.9519 3.95605 42.2458 4.27051 42.2458 4.74219V5.80859H43.0866C43.4695 5.80859 43.7019 6.03418 43.7019 6.39648C43.7019 6.75879 43.4695 6.97754 43.0866 6.97754H42.2458V10.9492C42.2458 11.5234 42.4441 11.7832 42.9773 11.8242L43.0935 11.8311C43.5173 11.8721 43.7292 12.043 43.7292 12.3916C43.7292 12.8359 43.3874 13.0615 42.6628 13.0615H42.5876C41.3777 13.0615 40.7624 12.4668 40.7624 11.2773ZM47.8819 13.1367C45.8243 13.1367 44.4845 11.708 44.4845 9.41797C44.4845 7.1416 45.8175 5.67871 47.8682 5.67871C49.2559 5.67871 50.4454 6.41699 50.7598 7.42188C50.8009 7.53809 50.8282 7.66113 50.8282 7.76367C50.8282 8.13965 50.5616 8.37207 50.1993 8.37207C49.8848 8.37207 49.7071 8.24902 49.5294 7.9209C49.1602 7.2373 48.6544 6.90918 47.8956 6.90918C46.7403 6.90918 45.9884 7.87305 45.9884 9.4043C45.9884 10.9697 46.754 11.8994 47.8956 11.8994C48.6954 11.8994 49.1807 11.5439 49.5294 10.9219C49.7345 10.5664 49.8917 10.4434 50.213 10.4434C50.5753 10.4434 50.8419 10.6895 50.8419 11.0586C50.8419 11.1748 50.8145 11.2979 50.7598 11.4414C50.3839 12.4326 49.2149 13.1367 47.8819 13.1367ZM52.9711 13.1299C52.5405 13.1299 52.2329 12.8359 52.2329 12.3506V3.77148C52.2329 3.30664 52.5131 3.00586 52.9643 3.00586C53.4223 3.00586 53.6957 3.30664 53.6957 3.77148V7.01172H53.7299C54.1264 6.1709 54.9125 5.68555 56.0063 5.68555C57.5854 5.68555 58.5287 6.73828 58.5287 8.36523V12.3506C58.5287 12.8359 58.2211 13.1299 57.7836 13.1299C57.353 13.1299 57.0454 12.8359 57.0454 12.3506V8.65234C57.0454 7.59277 56.5121 6.95703 55.4731 6.95703C54.3793 6.95703 53.7094 7.70898 53.7094 8.84375V12.3506C53.7094 12.8359 53.4018 13.1299 52.9711 13.1299Z" fill="#BABAB7"/>
</svg>
