<svg width="80" height="17" viewBox="0 0 80 17" fill="none" xmlns="http://www.w3.org/2000/svg">
<path fill-rule="evenodd" clip-rule="evenodd" d="M7.9998 1.2998C4.02335 1.2998 0.799805 4.52335 0.799805 8.4998C0.799805 12.4763 4.02335 15.6998 7.9998 15.6998C11.9763 15.6998 15.1998 12.4763 15.1998 8.4998C15.1998 4.52335 11.9763 1.2998 7.9998 1.2998ZM11.0746 6.66667C11.2772 6.40446 11.2289 6.02765 10.9667 5.82503C10.7045 5.62242 10.3277 5.67073 10.125 5.93294L7.16473 9.76392L5.84578 8.29842C5.62411 8.05212 5.24473 8.03215 4.99843 8.25383C4.75212 8.4755 4.73215 8.85488 4.95383 9.10118L6.75383 11.1012C6.87286 11.2334 7.04446 11.306 7.22228 11.2994C7.40009 11.2927 7.56577 11.2075 7.67457 11.0667L11.0746 6.66667Z" fill="#BABAB7"/>
<path d="M29.6748 13.1094C29.1963 13.1094 28.9092 12.8086 28.9092 12.3164V3.92871C28.9092 3.43652 29.1963 3.13574 29.6748 3.13574H32.6074C34.5215 3.13574 35.8545 4.45508 35.8545 6.37598C35.8545 8.30371 34.4941 9.62988 32.5596 9.62988H30.4404V12.3164C30.4404 12.8086 30.1465 13.1094 29.6748 13.1094ZM30.4404 8.34473H32.1973C33.5303 8.34473 34.2891 7.62695 34.2891 6.38281C34.2891 5.13867 33.5303 4.42773 32.2041 4.42773H30.4404V8.34473ZM39.9457 13.1367C37.888 13.1367 36.5345 11.7217 36.5345 9.4043C36.5345 7.09375 37.8949 5.67871 39.9457 5.67871C41.9964 5.67871 43.3568 7.09375 43.3568 9.4043C43.3568 11.7217 42.0033 13.1367 39.9457 13.1367ZM39.9457 11.9199C41.1078 11.9199 41.8529 11.0039 41.8529 9.4043C41.8529 7.81152 41.1009 6.89551 39.9457 6.89551C38.7904 6.89551 38.0384 7.81152 38.0384 9.4043C38.0384 11.0039 38.7904 11.9199 39.9457 11.9199ZM45.3767 13.1299C44.9323 13.1299 44.6384 12.8291 44.6384 12.3506V6.42383C44.6384 5.97266 44.9255 5.67871 45.3425 5.67871C45.7527 5.67871 46.0398 5.97266 46.0398 6.42383V7.03906H46.0739C46.2722 6.23242 46.9353 5.69238 47.653 5.69238C47.9128 5.69238 48.1111 5.75391 48.2341 5.87012C48.3708 5.97949 48.4323 6.15723 48.4323 6.38965C48.4323 6.62207 48.3571 6.79297 48.2136 6.90918C48.0632 7.03906 47.8445 7.10059 47.5368 7.10059C46.5251 7.10742 46.115 7.78418 46.115 8.67969V12.3506C46.115 12.8291 45.8142 13.1299 45.3767 13.1299ZM49.8028 11.2773V6.97754H49.2833C48.9005 6.97754 48.668 6.75879 48.668 6.39648C48.668 6.02734 48.9005 5.80859 49.2833 5.80859H49.8028V4.74219C49.8028 4.27051 50.0968 3.95605 50.5479 3.95605C50.9923 3.95605 51.2862 4.27051 51.2862 4.74219V5.80859H52.127C52.5098 5.80859 52.7423 6.03418 52.7423 6.39648C52.7423 6.75879 52.5098 6.97754 52.127 6.97754H51.2862V10.9492C51.2862 11.5234 51.4845 11.7832 52.0177 11.8242L52.1339 11.8311C52.5577 11.8721 52.7696 12.043 52.7696 12.3916C52.7696 12.8359 52.4278 13.0615 51.7032 13.0615H51.628C50.418 13.0615 49.8028 12.4668 49.8028 11.2773ZM55.186 13.1299C54.7348 13.1299 54.4409 12.8496 54.4409 12.3574V6.97754H53.9282C53.5795 6.97754 53.3403 6.77246 53.3403 6.40332C53.3403 6.04785 53.5795 5.82227 53.9282 5.82227H54.4409V5.11816C54.4409 3.72363 55.1176 3.07422 56.3549 3.06738C57.1411 3.06738 57.517 3.32031 57.517 3.7168C57.517 3.95605 57.4008 4.09961 57.1616 4.16797C57.059 4.19531 56.936 4.21582 56.7856 4.21582C56.1635 4.22266 55.9037 4.5166 55.9037 5.17285V5.82227H56.8745C57.2231 5.82227 57.4623 6.04785 57.4623 6.40332C57.4623 6.77246 57.2231 6.97754 56.8745 6.97754H55.9243V12.3574C55.9243 12.8496 55.6303 13.1299 55.186 13.1299ZM61.4646 13.1367C59.407 13.1367 58.0535 11.7217 58.0535 9.4043C58.0535 7.09375 59.4139 5.67871 61.4646 5.67871C63.5154 5.67871 64.8758 7.09375 64.8758 9.4043C64.8758 11.7217 63.5223 13.1367 61.4646 13.1367ZM61.4646 11.9199C62.6268 11.9199 63.3719 11.0039 63.3719 9.4043C63.3719 7.81152 62.6199 6.89551 61.4646 6.89551C60.3094 6.89551 59.5574 7.81152 59.5574 9.4043C59.5574 11.0039 60.3094 11.9199 61.4646 11.9199ZM66.9504 13.1299C66.5197 13.1299 66.2121 12.8359 66.2121 12.3506V3.78516C66.2121 3.2998 66.5197 3.00586 66.9504 3.00586C67.381 3.00586 67.6886 3.2998 67.6886 3.78516V12.3506C67.6886 12.8359 67.381 13.1299 66.9504 13.1299ZM70.1323 4.72168C69.6607 4.72168 69.2779 4.33887 69.2779 3.87402C69.2779 3.40234 69.6607 3.0332 70.1323 3.0332C70.6109 3.0332 70.9937 3.40234 70.9937 3.87402C70.9937 4.33887 70.6109 4.72168 70.1323 4.72168ZM70.1323 13.1299C69.688 13.1299 69.3941 12.8223 69.3941 12.3506V6.46484C69.3941 5.98633 69.688 5.67871 70.1323 5.67871C70.5767 5.67871 70.8706 5.98633 70.8706 6.46484V12.3506C70.8706 12.8223 70.5767 13.1299 70.1323 13.1299ZM75.6112 13.1367C73.5536 13.1367 72.2001 11.7217 72.2001 9.4043C72.2001 7.09375 73.5604 5.67871 75.6112 5.67871C77.662 5.67871 79.0223 7.09375 79.0223 9.4043C79.0223 11.7217 77.6688 13.1367 75.6112 13.1367ZM75.6112 11.9199C76.7733 11.9199 77.5184 11.0039 77.5184 9.4043C77.5184 7.81152 76.7665 6.89551 75.6112 6.89551C74.4559 6.89551 73.704 7.81152 73.704 9.4043C73.704 11.0039 74.4559 11.9199 75.6112 11.9199Z" fill="#BABAB7"/>
</svg>
