<svg width="97" height="97" viewBox="0 0 97 97" fill="none" xmlns="http://www.w3.org/2000/svg">
<rect width="96.72" height="96.72" rx="16" fill="#F8F8F4"/>
<g clip-path="url(#clip0_3296_4676)">
<path d="M48.5533 109.196C62.3241 109.196 73.4875 98.0331 73.4875 84.2623C73.4875 70.4915 62.3241 59.3281 48.5533 59.3281C34.7825 59.3281 23.6191 70.4915 23.6191 84.2623C23.6191 98.0331 34.7825 109.196 48.5533 109.196Z" fill="#5B21B6"/>
<path d="M48.5536 76.329C56.0649 76.329 62.154 69.7324 62.154 61.5952C62.154 53.4579 56.0649 46.8613 48.5536 46.8613C41.0423 46.8613 34.9531 53.4579 34.9531 61.5952C34.9531 69.7324 41.0423 76.329 48.5536 76.329Z" fill="#8B5A3C"/>
<path d="M36.0859 52.5283C44.3973 47.9948 52.7087 47.9948 61.0201 52.5283C60.2645 49.506 56.1088 46.8615 48.553 44.5947C40.9972 46.8615 36.8415 49.506 36.0859 52.5283Z" fill="#1E1B1B"/>
<path d="M36.0858 67.8288C37.0247 67.8288 37.7859 67.0677 37.7859 66.1288C37.7859 65.1899 37.0247 64.4287 36.0858 64.4287C35.1469 64.4287 34.3857 65.1899 34.3857 66.1288C34.3857 67.0677 35.1469 67.8288 36.0858 67.8288Z" fill="#FBBF24"/>
<path d="M45.1533 68.3955C47.4201 69.9067 49.6868 69.9067 51.9535 68.3955" stroke="#3C2415" stroke-width="1.36007" stroke-linecap="round"/>
</g>
<defs>
<clipPath id="clip0_3296_4676">
<rect width="63.47" height="63.47" fill="white" transform="translate(16.8184 29.8604)"/>
</clipPath>
</defs>
</svg>
