<svg width="97" height="97" viewBox="0 0 97 97" fill="none" xmlns="http://www.w3.org/2000/svg">
<rect width="96.72" height="96.72" rx="16" fill="#F8F8F4"/>
<g clip-path="url(#clip0_3296_4679)">
<path d="M48.5533 109.196C62.3241 109.196 73.4875 98.0331 73.4875 84.2623C73.4875 70.4915 62.3241 59.3281 48.5533 59.3281C34.7825 59.3281 23.6191 70.4915 23.6191 84.2623C23.6191 98.0331 34.7825 109.196 48.5533 109.196Z" fill="#F43F5E"/>
<path d="M48.5536 78.5956C56.0649 78.5956 62.154 71.999 62.154 63.8618C62.154 55.7245 56.0649 49.1279 48.5536 49.1279C41.0423 49.1279 34.9531 55.7245 34.9531 63.8618C34.9531 71.999 41.0423 78.5956 48.5536 78.5956Z" fill="#A06B4A"/>
<path d="M32.6855 50.2614C32.6855 42.7056 37.9746 38.9277 48.5527 38.9277C59.1309 38.9277 64.4199 42.7056 64.4199 50.2614C64.4199 63.8619 63.6644 73.6845 62.1532 79.7291C60.642 69.151 61.3976 59.3284 64.4199 50.2614M32.6855 50.2614C32.6855 63.8619 33.4411 73.6845 34.9523 79.7291C36.4635 69.151 35.7079 59.3284 32.6855 50.2614Z" fill="#3C2415"/>
<path d="M45.1533 70.6621C47.4201 72.1733 49.6868 72.1733 51.9535 70.6621" stroke="#3C2415" stroke-width="1.36007" stroke-linecap="round"/>
</g>
<defs>
<clipPath id="clip0_3296_4679">
<rect width="63.47" height="63.47" fill="white" transform="translate(16.8184 29.8604)"/>
</clipPath>
</defs>
</svg>
