<svg width="54" height="42" viewBox="0 0 54 42" fill="none" xmlns="http://www.w3.org/2000/svg">
<g clip-path="url(#clip0_3326_9626)">
<path d="M26.9997 48C35.4089 48 42.2259 41.2843 42.2259 33C42.2259 24.7157 35.4089 18 26.9997 18C18.5905 18 11.7734 24.7157 11.7734 33C11.7734 41.2843 18.5905 48 26.9997 48Z" fill="#FEF3C7"/>
<path d="M26.9993 29.9996C31.6242 29.9996 35.3735 25.9703 35.3735 20.9998C35.3735 16.0294 31.6242 12 26.9993 12C22.3743 12 18.625 16.0294 18.625 20.9998C18.625 25.9703 22.3743 29.9996 26.9993 29.9996Z" fill="#8B5A3C"/>
<path d="M17.8643 16.4999C23.9546 12.5 30.045 12.5 36.1354 16.4999" stroke="#1E1B1B" stroke-width="2.91027"/>
<path d="M19.3867 13.5C24.462 10.5 29.5373 10.5 34.6126 13.5" stroke="#1E1B1B" stroke-width="2.6457"/>
<path d="M20.9092 10.5C24.9694 8.50001 29.0297 8.50001 33.0899 10.5" stroke="#1E1B1B" stroke-width="2.38113"/>
<path d="M16.3418 19.4999C23.4472 14.5 30.5527 14.5 37.6581 19.4999" stroke="#1E1B1B" stroke-width="2.91027"/>
</g>
<defs>
<clipPath id="clip0_3326_9626">
<rect width="54" height="42" fill="white"/>
</clipPath>
</defs>
</svg>
