<svg width="64" height="64" viewBox="0 0 64 64" fill="none" xmlns="http://www.w3.org/2000/svg">
<g clip-path="url(#clip0_3317_5105)">
<path d="M31.735 79.3361C45.5057 79.3361 56.6691 68.1727 56.6691 54.4019C56.6691 40.6312 45.5057 29.4678 31.735 29.4678C17.9642 29.4678 6.80078 40.6312 6.80078 54.4019C6.80078 68.1727 17.9642 79.3361 31.735 79.3361Z" fill="#EC4899"/>
<path d="M31.7352 46.4686C39.2465 46.4686 45.3357 39.8721 45.3357 31.7348C45.3357 23.5975 39.2465 17.001 31.7352 17.001C24.2239 17.001 18.1348 23.5975 18.1348 31.7348C18.1348 39.8721 24.2239 46.4686 31.7352 46.4686Z" fill="#5D4037"/>
<path d="M18.1339 20.4015L15.8672 45.3357L18.1339 20.4015ZM22.6674 18.1348L20.4007 49.8692L22.6674 18.1348ZM40.8014 18.1348L43.0681 49.8692L40.8014 18.1348ZM45.3348 20.4015L47.6016 45.3357L45.3348 20.4015Z" fill="black"/>
<path d="M18.1339 20.4015L15.8672 45.3357M22.6674 18.1348L20.4007 49.8692M40.8014 18.1348L43.0681 49.8692M45.3348 20.4015L47.6016 45.3357" stroke="#2E1A10" stroke-width="3.40018" stroke-linecap="round"/>
<path d="M31.7348 23.8015C39.8721 23.8015 46.4686 21.2643 46.4686 18.1346C46.4686 15.0049 39.8721 12.4678 31.7348 12.4678C23.5975 12.4678 17.001 15.0049 17.001 18.1346C17.001 21.2643 23.5975 23.8015 31.7348 23.8015Z" fill="#2E1A10"/>
<path d="M28.335 38.5352C30.6017 40.0463 32.8684 40.0463 35.1352 38.5352" stroke="#3C2415" stroke-width="1.36007" stroke-linecap="round"/>
</g>
<defs>
<clipPath id="clip0_3317_5105">
<rect width="63.47" height="63.47" fill="white"/>
</clipPath>
</defs>
</svg>
