<svg width="64" height="64" viewBox="0 0 64 64" fill="none" xmlns="http://www.w3.org/2000/svg">
<g clip-path="url(#clip0_3317_5154)">
<path d="M31.735 79.3361C45.5057 79.3361 56.6691 68.1727 56.6691 54.4019C56.6691 40.6312 45.5057 29.4678 31.735 29.4678C17.9642 29.4678 6.80078 40.6312 6.80078 54.4019C6.80078 68.1727 17.9642 79.3361 31.735 79.3361Z" fill="#EC4899"/>
<path d="M31.7352 21.5342C39.2465 21.5342 45.3357 17.9822 45.3357 13.6006C45.3357 9.21899 39.2465 5.66699 31.7352 5.66699C24.2239 5.66699 18.1348 9.21899 18.1348 13.6006C18.1348 17.9822 24.2239 21.5342 31.7352 21.5342Z" fill="#2E1A10"/>
<path d="M31.7352 13.6003C34.8649 13.6003 37.4021 11.0632 37.4021 7.93346C37.4021 4.80374 34.8649 2.2666 31.7352 2.2666C28.6055 2.2666 26.0684 4.80374 26.0684 7.93346C26.0684 11.0632 28.6055 13.6003 31.7352 13.6003Z" fill="#2E1A10"/>
<path d="M31.7352 48.7352C39.2465 48.7352 45.3357 42.1387 45.3357 34.0014C45.3357 25.8641 39.2465 19.2676 31.7352 19.2676C24.2239 19.2676 18.1348 25.8641 18.1348 34.0014C18.1348 42.1387 24.2239 48.7352 31.7352 48.7352Z" fill="#6B4226"/>
<path d="M28.335 39.6689C30.6017 41.1801 32.8684 41.1801 35.1352 39.6689" stroke="#3C2415" stroke-width="1.36007" stroke-linecap="round"/>
</g>
<defs>
<clipPath id="clip0_3317_5154">
<rect width="63.47" height="63.47" fill="white"/>
</clipPath>
</defs>
</svg>
