<svg width="21" height="38" viewBox="0 0 21 38" fill="none" xmlns="http://www.w3.org/2000/svg">
<g clip-path="url(#clip0_3384_81115)">
<path d="M5.77539 23C9.22007 24.143 12.6648 24.143 16.1094 23" stroke="#EC4899" stroke-width="1.71359"/>
<path d="M5.77539 26C9.22007 27.143 12.6648 27.143 16.1094 26" stroke="#EC4899" stroke-width="1.71359"/>
<path opacity="0.4" d="M4.05308 17.8577C5.95552 17.8577 7.49776 16.3226 7.49776 14.4289C7.49776 12.5351 5.95552 11 4.05308 11C2.15063 11 0.608398 12.5351 0.608398 14.4289C0.608398 16.3226 2.15063 17.8577 4.05308 17.8577Z" fill="#EC4899"/>
<path opacity="0.4" d="M17.8314 17.8577C19.7338 17.8577 21.2761 16.3226 21.2761 14.4289C21.2761 12.5351 19.7338 11 17.8314 11C15.929 11 14.3867 12.5351 14.3867 14.4289C14.3867 16.3226 15.929 17.8577 17.8314 17.8577Z" fill="#EC4899"/>
</g>
<defs>
<clipPath id="clip0_3384_81115">
<rect width="21" height="38" fill="white"/>
</clipPath>
</defs>
</svg>
