<svg width="1024" height="1024" viewBox="0 0 1024 1024" fill="none" xmlns="http://www.w3.org/2000/svg">
<path d="M552 283C582.376 283 607 274.493 607 264C607 253.507 582.376 245 552 245C521.624 245 497 253.507 497 264C497 274.493 521.624 283 552 283Z" fill="#1E1B1B"/>
<path d="M589.5 253C593.642 253 597 249.642 597 245.5C597 241.358 593.642 238 589.5 238C585.358 238 582 241.358 582 245.5C582 249.642 585.358 253 589.5 253Z" fill="#1E1B1B"/>
<path d="M514.5 253C518.642 253 522 249.642 522 245.5C522 241.358 518.642 238 514.5 238C510.358 238 507 241.358 507 245.5C507 249.642 510.358 253 514.5 253Z" fill="#1E1B1B"/>
<path d="M494.5 279C498.642 279 502 275.642 502 271.5C502 267.358 498.642 264 494.5 264C490.358 264 487 267.358 487 271.5C487 275.642 490.358 279 494.5 279Z" fill="#1E1B1B"/>
<path d="M489.5 298C493.642 298 497 294.642 497 290.5C497 286.358 493.642 283 489.5 283C485.358 283 482 286.358 482 290.5C482 294.642 485.358 298 489.5 298Z" fill="#1E1B1B"/>
<path d="M482.5 321C486.642 321 490 317.642 490 313.5C490 309.358 486.642 306 482.5 306C478.358 306 475 309.358 475 313.5C475 317.642 478.358 321 482.5 321Z" fill="#1E1B1B"/>
<path d="M479.5 343C483.642 343 487 339.642 487 335.5C487 331.358 483.642 328 479.5 328C475.358 328 472 331.358 472 335.5C472 339.642 475.358 343 479.5 343Z" fill="#1E1B1B"/>
<path d="M479.5 365C483.642 365 487 361.642 487 357.5C487 353.358 483.642 350 479.5 350C475.358 350 472 353.358 472 357.5C472 361.642 475.358 365 479.5 365Z" fill="#1E1B1B"/>
<path d="M479.5 392C483.642 392 487 388.642 487 384.5C487 380.358 483.642 377 479.5 377C475.358 377 472 380.358 472 384.5C472 388.642 475.358 392 479.5 392Z" fill="#1E1B1B"/>
<path d="M479.5 419C483.642 419 487 415.642 487 411.5C487 407.358 483.642 404 479.5 404C475.358 404 472 407.358 472 411.5C472 415.642 475.358 419 479.5 419Z" fill="#1E1B1B"/>
<path d="M606.5 278C610.642 278 614 274.642 614 270.5C614 266.358 610.642 263 606.5 263C602.358 263 599 266.358 599 270.5C599 274.642 602.358 278 606.5 278Z" fill="#1E1B1B"/>
<path d="M613.5 298C617.642 298 621 294.642 621 290.5C621 286.358 617.642 283 613.5 283C609.358 283 606 286.358 606 290.5C606 294.642 609.358 298 613.5 298Z" fill="#1E1B1B"/>
<path d="M625.5 321C629.642 321 633 317.642 633 313.5C633 309.358 629.642 306 625.5 306C621.358 306 618 309.358 618 313.5C618 317.642 621.358 321 625.5 321Z" fill="#1E1B1B"/>
<path d="M627.5 343C631.642 343 635 339.642 635 335.5C635 331.358 631.642 328 627.5 328C623.358 328 620 331.358 620 335.5C620 339.642 623.358 343 627.5 343Z" fill="#1E1B1B"/>
<path d="M627.5 365C631.642 365 635 361.642 635 357.5C635 353.358 631.642 350 627.5 350C623.358 350 620 353.358 620 357.5C620 361.642 623.358 365 627.5 365Z" fill="#1E1B1B"/>
<path d="M624.5 392C628.642 392 632 388.642 632 384.5C632 380.358 628.642 377 624.5 377C620.358 377 617 380.358 617 384.5C617 388.642 620.358 392 624.5 392Z" fill="#1E1B1B"/>
<path d="M620.5 419C624.642 419 628 415.642 628 411.5C628 407.358 624.642 404 620.5 404C616.358 404 613 407.358 613 411.5C613 415.642 616.358 419 620.5 419Z" fill="#1E1B1B"/>
</svg>
