<svg width="1024" height="1024" viewBox="0 0 1024 1024" fill="none" xmlns="http://www.w3.org/2000/svg">
<path d="M529.702 388.371C530.089 388.371 530.403 388.064 530.403 387.686C530.403 387.307 530.089 387 529.702 387C529.314 387 529 387.307 529 387.686C529 388.064 529.314 388.371 529.702 388.371Z" fill="#1E1B1B"/>
<path d="M540.702 391.371C541.089 391.371 541.403 391.064 541.403 390.686C541.403 390.307 541.089 390 540.702 390C540.314 390 540 390.307 540 390.686C540 391.064 540.314 391.371 540.702 391.371Z" fill="#1E1B1B"/>
<path d="M551.702 394.371C552.089 394.371 552.403 394.064 552.403 393.686C552.403 393.307 552.089 393 551.702 393C551.314 393 551 393.307 551 393.686C551 394.064 551.314 394.371 551.702 394.371Z" fill="#1E1B1B"/>
<path d="M564.702 394.371C565.089 394.371 565.403 394.064 565.403 393.686C565.403 393.307 565.089 393 564.702 393C564.314 393 564 393.307 564 393.686C564 394.064 564.314 394.371 564.702 394.371Z" fill="#1E1B1B"/>
<path d="M578.702 388.371C579.089 388.371 579.403 388.064 579.403 387.686C579.403 387.307 579.089 387 578.702 387C578.314 387 578 387.307 578 387.686C578 388.064 578.314 388.371 578.702 388.371Z" fill="#1E1B1B"/>
<path d="M522.702 395.371C523.089 395.371 523.403 395.064 523.403 394.686C523.403 394.307 523.089 394 522.702 394C522.314 394 522 394.307 522 394.686C522 395.064 522.314 395.371 522.702 395.371Z" fill="#1E1B1B"/>
<path d="M530.702 399.371C531.089 399.371 531.403 399.064 531.403 398.686C531.403 398.307 531.089 398 530.702 398C530.314 398 530 398.307 530 398.686C530 399.064 530.314 399.371 530.702 399.371Z" fill="#1E1B1B"/>
<path d="M538.702 403.371C539.089 403.371 539.403 403.064 539.403 402.686C539.403 402.307 539.089 402 538.702 402C538.314 402 538 402.307 538 402.686C538 403.064 538.314 403.371 538.702 403.371Z" fill="#1E1B1B"/>
<path d="M553.702 404.371C554.089 404.371 554.403 404.064 554.403 403.686C554.403 403.307 554.089 403 553.702 403C553.314 403 553 403.307 553 403.686C553 404.064 553.314 404.371 553.702 404.371Z" fill="#1E1B1B"/>
<path d="M563.702 404.371C564.089 404.371 564.403 404.064 564.403 403.686C564.403 403.307 564.089 403 563.702 403C563.314 403 563 403.307 563 403.686C563 404.064 563.314 404.371 563.702 404.371Z" fill="#1E1B1B"/>
<path d="M573.702 404.371C574.089 404.371 574.403 404.064 574.403 403.686C574.403 403.307 574.089 403 573.702 403C573.314 403 573 403.307 573 403.686C573 404.064 573.314 404.371 573.702 404.371Z" fill="#1E1B1B"/>
<path d="M582.702 399.371C583.089 399.371 583.403 399.064 583.403 398.686C583.403 398.307 583.089 398 582.702 398C582.314 398 582 398.307 582 398.686C582 399.064 582.314 399.371 582.702 399.371Z" fill="#1E1B1B"/>
<path d="M588.702 392.371C589.089 392.371 589.403 392.064 589.403 391.686C589.403 391.307 589.089 391 588.702 391C588.314 391 588 391.307 588 391.686C588 392.064 588.314 392.371 588.702 392.371Z" fill="#1E1B1B"/>
</svg>
