<svg width="63" height="49" viewBox="0 0 63 49" fill="none" xmlns="http://www.w3.org/2000/svg">
<g clip-path="url(#clip0_3326_9590)">
<path d="M31.5003 56C41.311 56 49.2642 48.165 49.2642 38.5C49.2642 28.835 41.311 21 31.5003 21C21.6895 21 13.7363 28.835 13.7363 38.5C13.7363 48.165 21.6895 56 31.5003 56Z" fill="#EDE9FE"/>
<path d="M31.4995 34.9996C36.8953 34.9996 41.2694 30.2987 41.2694 24.4998C41.2694 18.7009 36.8953 14 31.4995 14C26.1037 14 21.7295 18.7009 21.7295 24.4998C21.7295 30.2987 26.1037 34.9996 31.4995 34.9996Z" fill="#8B5A3C"/>
<path d="M31.4995 20.9998C37.8763 20.9998 43.0458 18.6493 43.0458 15.7499C43.0458 12.8505 37.8763 10.5 31.4995 10.5C25.1226 10.5 19.9531 12.8505 19.9531 15.7499C19.9531 18.6493 25.1226 20.9998 31.4995 20.9998Z" fill="#1E1B1B"/>
<path d="M19.0649 21.8749C20.5365 21.8749 21.7295 20.6997 21.7295 19.2499C21.7295 17.8002 20.5365 16.625 19.0649 16.625C17.5933 16.625 16.4004 17.8002 16.4004 19.2499C16.4004 20.6997 17.5933 21.8749 19.0649 21.8749Z" fill="#1E1B1B"/>
<path d="M18.1772 28.8749C19.6488 28.8749 20.8418 27.6997 20.8418 26.2499C20.8418 24.8002 19.6488 23.625 18.1772 23.625C16.7056 23.625 15.5127 24.8002 15.5127 26.2499C15.5127 27.6997 16.7056 28.8749 18.1772 28.8749Z" fill="#1E1B1B"/>
<path d="M18.1772 35.8749C19.6488 35.8749 20.8418 34.6997 20.8418 33.2499C20.8418 31.8002 19.6488 30.625 18.1772 30.625C16.7056 30.625 15.5127 31.8002 15.5127 33.2499C15.5127 34.6997 16.7056 35.8749 18.1772 35.8749Z" fill="#1E1B1B"/>
<path d="M43.935 21.8749C45.4066 21.8749 46.5996 20.6997 46.5996 19.2499C46.5996 17.8002 45.4066 16.625 43.935 16.625C42.4635 16.625 41.2705 17.8002 41.2705 19.2499C41.2705 20.6997 42.4635 21.8749 43.935 21.8749Z" fill="#1E1B1B"/>
<path d="M44.8227 28.8749C46.2943 28.8749 47.4873 27.6997 47.4873 26.2499C47.4873 24.8002 46.2943 23.625 44.8227 23.625C43.3512 23.625 42.1582 24.8002 42.1582 26.2499C42.1582 27.6997 43.3512 28.8749 44.8227 28.8749Z" fill="#1E1B1B"/>
<path d="M44.8227 35.8749C46.2943 35.8749 47.4873 34.6997 47.4873 33.2499C47.4873 31.8002 46.2943 30.625 44.8227 30.625C43.3512 30.625 42.1582 31.8002 42.1582 33.2499C42.1582 34.6997 43.3512 35.8749 44.8227 35.8749Z" fill="#1E1B1B"/>
<path d="M24.3948 15.3124C26.1116 15.3124 27.5034 13.9413 27.5034 12.2499C27.5034 10.5586 26.1116 9.1875 24.3948 9.1875C22.6779 9.1875 21.2861 10.5586 21.2861 12.2499C21.2861 13.9413 22.6779 15.3124 24.3948 15.3124Z" fill="#1E1B1B"/>
<path d="M38.6057 15.3124C40.3225 15.3124 41.7143 13.9413 41.7143 12.2499C41.7143 10.5586 40.3225 9.1875 38.6057 9.1875C36.8889 9.1875 35.4971 10.5586 35.4971 12.2499C35.4971 13.9413 36.8889 15.3124 38.6057 15.3124Z" fill="#1E1B1B"/>
</g>
<defs>
<clipPath id="clip0_3326_9590">
<rect width="63" height="49" fill="white"/>
</clipPath>
</defs>
</svg>
