<svg width="55" height="48" viewBox="0 0 55 48" fill="none" xmlns="http://www.w3.org/2000/svg">
<path d="M27.5002 39.4283C36.2192 39.4283 43.2874 34.0558 43.2874 27.4285C43.2874 20.8012 36.2192 15.4287 27.5002 15.4287C18.7811 15.4287 11.7129 20.8012 11.7129 27.4285C11.7129 34.0558 18.7811 39.4283 27.5002 39.4283Z" fill="#FEF3C7"/>
<path d="M18.729 31.5423C19.1165 31.5423 19.4307 31.2353 19.4307 30.8566C19.4307 30.4779 19.1165 30.1709 18.729 30.1709C18.3415 30.1709 18.0273 30.4779 18.0273 30.8566C18.0273 31.2353 18.3415 31.5423 18.729 31.5423Z" fill="#1E1B1B"/>
<path d="M22.2378 33.2571C22.6253 33.2571 22.9394 32.9501 22.9394 32.5714C22.9394 32.1927 22.6253 31.8857 22.2378 31.8857C21.8503 31.8857 21.5361 32.1927 21.5361 32.5714C21.5361 32.9501 21.8503 33.2571 22.2378 33.2571Z" fill="#1E1B1B"/>
<path d="M25.7466 34.972C26.1341 34.972 26.4482 34.665 26.4482 34.2863C26.4482 33.9076 26.1341 33.6006 25.7466 33.6006C25.3591 33.6006 25.0449 33.9076 25.0449 34.2863C25.0449 34.665 25.3591 34.972 25.7466 34.972Z" fill="#1E1B1B"/>
<path d="M29.2544 34.972C29.6419 34.972 29.956 34.665 29.956 34.2863C29.956 33.9076 29.6419 33.6006 29.2544 33.6006C28.8669 33.6006 28.5527 33.9076 28.5527 34.2863C28.5527 34.665 28.8669 34.972 29.2544 34.972Z" fill="#1E1B1B"/>
<path d="M32.7622 33.2571C33.1497 33.2571 33.4639 32.9501 33.4639 32.5714C33.4639 32.1927 33.1497 31.8857 32.7622 31.8857C32.3747 31.8857 32.0605 32.1927 32.0605 32.5714C32.0605 32.9501 32.3747 33.2571 32.7622 33.2571Z" fill="#1E1B1B"/>
<path d="M36.27 31.5423C36.6575 31.5423 36.9717 31.2353 36.9717 30.8566C36.9717 30.4779 36.6575 30.1709 36.27 30.1709C35.8825 30.1709 35.5684 30.4779 35.5684 30.8566C35.5684 31.2353 35.8825 31.5423 36.27 31.5423Z" fill="#1E1B1B"/>
<path d="M20.4829 28.1146C20.8704 28.1146 21.1846 27.8076 21.1846 27.4289C21.1846 27.0502 20.8704 26.7432 20.4829 26.7432C20.0954 26.7432 19.7812 27.0502 19.7812 27.4289C19.7812 27.8076 20.0954 28.1146 20.4829 28.1146Z" fill="#1E1B1B"/>
<path d="M23.9917 29.8284C24.3792 29.8284 24.6934 29.5214 24.6934 29.1427C24.6934 28.764 24.3792 28.457 23.9917 28.457C23.6042 28.457 23.29 28.764 23.29 29.1427C23.29 29.5214 23.6042 29.8284 23.9917 29.8284Z" fill="#1E1B1B"/>
<path d="M31.0073 29.8284C31.3948 29.8284 31.709 29.5214 31.709 29.1427C31.709 28.764 31.3948 28.457 31.0073 28.457C30.6198 28.457 30.3057 28.764 30.3057 29.1427C30.3057 29.5214 30.6198 29.8284 31.0073 29.8284Z" fill="#1E1B1B"/>
<path d="M34.5171 28.1146C34.9046 28.1146 35.2187 27.8076 35.2187 27.4289C35.2187 27.0502 34.9046 26.7432 34.5171 26.7432C34.1296 26.7432 33.8154 27.0502 33.8154 27.4289C33.8154 27.8076 34.1296 28.1146 34.5171 28.1146Z" fill="#1E1B1B"/>
</svg>
