<svg width="1024" height="1024" viewBox="0 0 1024 1024" fill="none" xmlns="http://www.w3.org/2000/svg">
<path opacity="0.4" d="M524.5 348C526.433 348 528 346.433 528 344.5C528 342.567 526.433 341 524.5 341C522.567 341 521 342.567 521 344.5C521 346.433 522.567 348 524.5 348Z" fill="#EC4899"/>
<path opacity="0.4" d="M582.5 348C584.433 348 586 346.433 586 344.5C586 342.567 584.433 341 582.5 341C580.567 341 579 342.567 579 344.5C579 346.433 580.567 348 582.5 348Z" fill="#EC4899"/>
<path d="M544 391C550.667 397.667 557.333 397.667 564 391" stroke="#EC4899" stroke-width="1.71359"/>
<path d="M544 385C550.667 391.667 557.333 391.667 564 385" stroke="#EC4899" stroke-width="1.71359"/>
</svg>
