<svg width="1024" height="1024" viewBox="0 0 1024 1024" fill="none" xmlns="http://www.w3.org/2000/svg">
<g transform="translate(-111.985 -74.643) scale(1.1990)">
<path d="M507.23 460.84L523.4 442.139C537.667 432.238 548.367 428.937 555.5 432.238C562.633 428.937 573.333 432.238 587.6 442.139L603.77 460.84Q609 466.891 609 474.891V556H502V474.891Q502 466.891 507.23 460.84Z" fill="#5B21B6"/>
<path d="M529 443.833C545.667 429.389 562.333 429.389 579 443.833V469.833C562.333 472.722 545.667 472.722 529 469.833V443.833Z" fill="#7C3AED"/>
<path opacity="0.7" d="M554 448C556.761 448 559 445.761 559 443C559 440.239 556.761 438 554 438C551.239 438 549 440.239 549 443C549 445.761 551.239 448 554 448Z" fill="#8B5A3C"/>
</g>
</svg>
