<svg width="64" height="64" viewBox="0 0 64 64" fill="none" xmlns="http://www.w3.org/2000/svg">
<g clip-path="url(#clip0_3317_5146)">
<path d="M31.735 79.3361C45.5057 79.3361 56.6691 68.1727 56.6691 54.4019C56.6691 40.6312 45.5057 29.4678 31.735 29.4678C17.9642 29.4678 6.80078 40.6312 6.80078 54.4019C6.80078 68.1727 17.9642 79.3361 31.735 79.3361Z" fill="#10B981"/>
<path d="M11.334 27.2009C11.334 19.6451 18.1342 15.8672 31.7347 15.8672C45.3351 15.8672 52.1354 19.6451 52.1354 27.2009" fill="#D97706"/>
<path d="M15.8672 20.4014H47.6016H15.8672ZM15.8672 23.8015H47.6016H15.8672Z" fill="black"/>
<path d="M15.8672 20.4014H47.6016M15.8672 23.8015H47.6016" stroke="#FBBF24" stroke-width="1.70009"/>
<path d="M31.7347 47.6023C38.62 47.6023 44.2017 41.5132 44.2017 34.0018C44.2017 26.4905 38.62 20.4014 31.7347 20.4014C24.8493 20.4014 19.2676 26.4905 19.2676 34.0018C19.2676 41.5132 24.8493 47.6023 31.7347 47.6023Z" fill="#A06B4A"/>
<path d="M28.335 39.6689C30.6017 41.1801 32.8684 41.1801 35.1352 39.6689" stroke="#3C2415" stroke-width="1.36007" stroke-linecap="round"/>
</g>
<defs>
<clipPath id="clip0_3317_5146">
<rect width="63.47" height="63.47" fill="white"/>
</clipPath>
</defs>
</svg>
