<svg width="1024" height="1024" viewBox="0 0 1024 1024" fill="none" xmlns="http://www.w3.org/2000/svg">
<path d="M552 288C583.48 288 609 280.837 609 272C609 263.163 583.48 256 552 256C520.52 256 495 263.163 495 272C495 280.837 520.52 288 552 288Z" fill="#2E1A10"/>
<path d="M499.385 275.357C493.538 304.786 493.538 334.214 499.385 363.643M525.692 268C519.846 307.238 519.846 341.571 525.692 371M578.308 268C584.154 307.238 584.154 341.571 578.308 371M604.615 275.357C610.462 304.786 610.462 334.214 604.615 363.643" stroke="#2E1A10" stroke-width="10"/>
</svg>
