<svg width="48" height="37" viewBox="0 0 48 37" fill="none" xmlns="http://www.w3.org/2000/svg">
<g clip-path="url(#clip0_3326_9656)">
<path d="M24.0003 42.286C31.4751 42.286 37.5347 36.3698 37.5347 29.0717C37.5347 21.7737 31.4751 15.8574 24.0003 15.8574C16.5254 15.8574 10.4658 21.7737 10.4658 29.0717C10.4658 36.3698 16.5254 42.286 24.0003 42.286Z" fill="#FDE2E2"/>
<path d="M23.9995 26.4281C28.1105 26.4281 31.4432 22.8784 31.4432 18.4997C31.4432 14.121 28.1105 10.5713 23.9995 10.5713C19.8884 10.5713 16.5557 14.121 16.5557 18.4997C16.5557 22.8784 19.8884 26.4281 23.9995 26.4281Z" fill="#A06B4A"/>
<path d="M23.9994 13.2145C28.8579 13.2145 32.7966 11.4397 32.7966 9.25034C32.7966 7.06097 28.8579 5.28613 23.9994 5.28613C19.1408 5.28613 15.2021 7.06097 15.2021 9.25034C15.2021 11.4397 19.1408 13.2145 23.9994 13.2145Z" fill="#2E1A10"/>
<path d="M15.8789 11.8927C14.9766 17.1783 14.9766 22.4639 15.8789 27.7495M19.9391 10.5713C19.0368 17.6188 19.0368 23.7853 19.9391 29.0709M28.0596 10.5713C28.9619 17.6188 28.9619 23.7853 28.0596 29.0709M32.1198 11.8927C33.0221 17.1783 33.0221 22.4639 32.1198 27.7495" stroke="#2E1A10" stroke-width="2.91027"/>
</g>
<defs>
<clipPath id="clip0_3326_9656">
<rect width="48" height="37" fill="white"/>
</clipPath>
</defs>
</svg>
