<svg width="61" height="17" viewBox="0 0 61 17" fill="none" xmlns="http://www.w3.org/2000/svg">
<path fill-rule="evenodd" clip-rule="evenodd" d="M7.9998 1.2998C4.02335 1.2998 0.799805 4.52335 0.799805 8.4998C0.799805 12.4763 4.02335 15.6998 7.9998 15.6998C11.9763 15.6998 15.1998 12.4763 15.1998 8.4998C15.1998 4.52335 11.9763 1.2998 7.9998 1.2998ZM11.0746 6.66667C11.2772 6.40446 11.2289 6.02765 10.9667 5.82503C10.7045 5.62242 10.3277 5.67073 10.125 5.93294L7.16473 9.76392L5.84578 8.29842C5.62411 8.05212 5.24473 8.03215 4.99843 8.25383C4.75212 8.4755 4.73215 8.85488 4.95383 9.10118L6.75383 11.1012C6.87286 11.2334 7.04446 11.306 7.22228 11.2994C7.40009 11.2927 7.56577 11.2075 7.67457 11.0667L11.0746 6.66667Z" fill="#BABAB7"/>
<path d="M32.2725 13.1641C30.3584 13.1641 29.0459 12.3369 28.6631 11.1885C28.6152 11.0381 28.5811 10.874 28.5811 10.71C28.5811 10.2656 28.8545 9.97852 29.2715 9.97852C29.6201 9.97852 29.8457 10.1357 29.9961 10.5049C30.3037 11.4277 31.1992 11.8584 32.3408 11.8584C33.5918 11.8584 34.4873 11.2158 34.4873 10.334C34.4873 9.56836 33.9678 9.08984 32.6484 8.80273L31.5684 8.57715C29.5996 8.16016 28.7041 7.24414 28.7041 5.82227C28.7041 4.13379 30.1875 2.97168 32.2861 2.97168C33.9883 2.97168 35.3281 3.77148 35.7109 5.09082C35.7451 5.18652 35.7656 5.30273 35.7656 5.44629C35.7656 5.84277 35.4854 6.10254 35.0889 6.10254C34.7197 6.10254 34.4941 5.93164 34.3369 5.57617C34.002 4.66699 33.25 4.27734 32.2656 4.27734C31.1104 4.27734 30.2559 4.83789 30.2559 5.74023C30.2559 6.45801 30.7686 6.93652 32.0469 7.20996L33.1201 7.43555C35.1914 7.87305 36.0391 8.7002 36.0391 10.1357C36.0391 11.9951 34.5762 13.1641 32.2725 13.1641ZM38.1683 13.1299C37.7377 13.1299 37.43 12.8359 37.43 12.3506V3.78516C37.43 3.2998 37.7377 3.00586 38.1683 3.00586C38.599 3.00586 38.9066 3.2998 38.9066 3.78516V8.87793H38.9203L41.9076 5.95215C42.0921 5.75391 42.2494 5.67871 42.4681 5.67871C42.8304 5.67871 43.1107 5.95898 43.1107 6.30762C43.1107 6.51953 43.0492 6.65625 42.8578 6.83398L40.6361 8.93945L43.0765 11.9609C43.2338 12.1592 43.2748 12.2959 43.2748 12.4805C43.2748 12.8564 42.9808 13.1299 42.5843 13.1299C42.3109 13.1299 42.1468 13.041 41.9486 12.7676L39.5629 9.81445L38.9066 10.4297V12.3506C38.9066 12.8359 38.599 13.1299 38.1683 13.1299ZM45.3698 4.72168C44.8982 4.72168 44.5154 4.33887 44.5154 3.87402C44.5154 3.40234 44.8982 3.0332 45.3698 3.0332C45.8484 3.0332 46.2312 3.40234 46.2312 3.87402C46.2312 4.33887 45.8484 4.72168 45.3698 4.72168ZM45.3698 13.1299C44.9255 13.1299 44.6316 12.8223 44.6316 12.3506V6.46484C44.6316 5.98633 44.9255 5.67871 45.3698 5.67871C45.8142 5.67871 46.1081 5.98633 46.1081 6.46484V12.3506C46.1081 12.8223 45.8142 13.1299 45.3698 13.1299ZM48.5518 13.1299C48.1212 13.1299 47.8136 12.8359 47.8136 12.3506V3.78516C47.8136 3.2998 48.1212 3.00586 48.5518 3.00586C48.9825 3.00586 49.2901 3.2998 49.2901 3.78516V12.3506C49.2901 12.8359 48.9825 13.1299 48.5518 13.1299ZM51.7407 13.1299C51.31 13.1299 51.0024 12.8359 51.0024 12.3506V3.78516C51.0024 3.2998 51.31 3.00586 51.7407 3.00586C52.1713 3.00586 52.4789 3.2998 52.4789 3.78516V12.3506C52.4789 12.8359 52.1713 13.1299 51.7407 13.1299ZM56.7889 13.1367C55.3738 13.1367 54.3348 12.5557 53.993 11.6738C53.9451 11.5645 53.9314 11.4619 53.9314 11.3662C53.9314 10.9971 54.198 10.7783 54.5672 10.7783C54.8133 10.7783 55.0252 10.8945 55.2098 11.168C55.5789 11.749 56.0096 12.0088 56.8641 12.0088C57.7049 12.0088 58.2723 11.6465 58.2723 11.0518C58.2723 10.5801 57.992 10.3271 57.2195 10.1426L56.0848 9.87598C54.6902 9.54785 54.0066 8.86426 54.0066 7.83887C54.0066 6.54004 55.1346 5.67871 56.8436 5.67871C58.1424 5.67871 59.2088 6.3418 59.4139 7.18945C59.4275 7.27148 59.4412 7.33984 59.4412 7.4082C59.4412 7.73633 59.2361 7.95508 58.867 7.95508C58.6277 7.95508 58.4158 7.87305 58.2723 7.64062C57.951 7.09375 57.5135 6.80664 56.7889 6.80664C55.9959 6.80664 55.449 7.19629 55.449 7.75684C55.449 8.20801 55.7977 8.52246 56.5564 8.7002L57.6707 8.95996C59.1814 9.30859 59.7625 9.84863 59.7625 10.915C59.7625 12.248 58.5662 13.1367 56.7889 13.1367Z" fill="#BABAB7"/>
</svg>
