<svg width="1255" height="1223" viewBox="0 0 1255 1223" fill="none" xmlns="http://www.w3.org/2000/svg">
<g clip-path="url(#clip0_3384_119086)">
<path opacity="0.5" d="M882.575 653.877C937.847 642.586 986.209 665.169 1006.94 710.334C1027.66 762.274 1013.85 823.248 979.3 868.413C951.665 913.579 903.302 942.936 854.94 929.387C806.577 915.837 792.759 875.188 799.668 830.023C806.577 778.082 834.213 721.626 882.575 653.877Z" fill="#2A5E30"/>
<path d="M817.496 494.82C869.313 506.111 886.585 551.277 862.404 596.442" stroke="#B5F04D" stroke-opacity="0.15" stroke-width="1.19571" stroke-dasharray="4.98 3.99"/>
<path d="M779.497 607.733C800.224 641.607 827.86 664.19 817.496 693.548" stroke="#B5F04D" stroke-opacity="0.1" stroke-width="0.996429" stroke-dasharray="3.99 4.98"/>
<g opacity="0.55">
<path opacity="0.5" d="M181.091 208.331C198.261 208.331 212.181 199.231 212.181 188.006C212.181 176.781 198.261 167.682 181.091 167.682C163.92 167.682 150 176.781 150 188.006C150 199.231 163.92 208.331 181.091 208.331Z" fill="url(#paint0_linear_3384_119086)"/>
<path opacity="0.5" d="M188 206.072H174.182V219.622H188V206.072Z" fill="url(#paint1_linear_3384_119086)"/>
<path opacity="0.5" d="M267.452 169.94C280.807 169.94 291.634 162.863 291.634 154.132C291.634 145.402 280.807 138.324 267.452 138.324C254.097 138.324 243.271 145.402 243.271 154.132C243.271 162.863 254.097 169.94 267.452 169.94Z" fill="url(#paint2_linear_3384_119086)"/>
<path d="M409.867 -2H396.049V9.29136H409.867V-2Z" fill="url(#paint3_linear_3384_119086)"/>
<path opacity="0.5" d="M371.086 154.132C386.349 154.132 398.722 146.044 398.722 136.066C398.722 126.089 386.349 118 371.086 118C355.824 118 343.451 126.089 343.451 136.066C343.451 146.044 355.824 154.132 371.086 154.132Z" fill="#224E27"/>
<path d="M610.226 122.205C623.581 122.205 634.407 115.128 634.407 106.397C634.407 97.6668 623.581 90.5894 610.226 90.5894C596.871 90.5894 586.045 97.6668 586.045 106.397C586.045 115.128 596.871 122.205 610.226 122.205Z" fill="url(#paint4_linear_3384_119086)"/>
<path opacity="0.6" d="M876.091 146.649C893.261 146.649 907.181 137.549 907.181 126.324C907.181 115.1 893.261 106 876.091 106C858.92 106 845 115.1 845 126.324C845 137.549 858.92 146.649 876.091 146.649Z" fill="#224E27"/>
<path opacity="0.6" d="M883 144.391H869.182V157.94H883V144.391Z" fill="#224E27"/>
<path opacity="0.6" d="M979.726 169.232C993.081 169.232 1003.91 162.155 1003.91 153.424C1003.91 144.694 993.081 137.616 979.726 137.616C966.371 137.616 955.544 144.694 955.544 153.424C955.544 162.155 966.371 169.232 979.726 169.232Z" fill="url(#paint5_linear_3384_119086)"/>
<path opacity="0.6" d="M1083.36 205.364C1098.62 205.364 1111 197.275 1111 187.298C1111 177.32 1098.62 169.231 1083.36 169.231C1068.1 169.231 1055.73 177.32 1055.73 187.298C1055.73 197.275 1068.1 205.364 1083.36 205.364Z" fill="#224E27"/>
<path opacity="0.5" d="M131.545 510.523C150.624 510.523 166.09 500.412 166.09 487.94C166.09 475.468 150.624 465.357 131.545 465.357C112.467 465.357 97.0005 475.468 97.0005 487.94C97.0005 500.412 112.467 510.523 131.545 510.523Z" fill="#224626"/>
<path opacity="0.5" d="M138.454 508.265H124.636V524.073H138.454V508.265Z" fill="#224626"/>
<path opacity="0.5" d="M207.544 472.132C222.807 472.132 235.18 464.044 235.18 454.066C235.18 444.089 222.807 436 207.544 436C192.282 436 179.909 444.089 179.909 454.066C179.909 464.044 192.282 472.132 207.544 472.132Z" fill="#224626"/>
<path opacity="0.5" d="M283.543 496.973C300.714 496.973 314.633 487.874 314.633 476.649C314.633 465.424 300.714 456.324 283.543 456.324C266.372 456.324 252.453 465.424 252.453 476.649C252.453 487.874 266.372 496.973 283.543 496.973Z" fill="#224626"/>
<path opacity="0.3" d="M427.141 411.264H413.323V424.813H427.141V411.264Z" fill="#224626"/>
<path d="M506.593 375.131C519.948 375.131 530.775 368.054 530.775 359.324C530.775 350.593 519.948 343.516 506.593 343.516C493.238 343.516 482.412 350.593 482.412 359.324C482.412 368.054 493.238 375.131 506.593 375.131Z" fill="url(#paint6_linear_3384_119086)"/>
<path opacity="0.6" d="M1007.49 366.098C1022.75 366.098 1035.13 358.01 1035.13 348.032C1035.13 338.054 1022.75 329.966 1007.49 329.966C992.228 329.966 979.855 338.054 979.855 348.032C979.855 358.01 992.228 366.098 1007.49 366.098Z" fill="#224626"/>
<path d="M1076.58 397.714C1089.93 397.714 1100.76 390.637 1100.76 381.906C1100.76 373.176 1089.93 366.098 1076.58 366.098C1063.22 366.098 1052.4 373.176 1052.4 381.906C1052.4 390.637 1063.22 397.714 1076.58 397.714Z" fill="url(#paint7_linear_3384_119086)"/>
</g>
<g opacity="0.5">
<path d="M1004 1079.46L1052.36 1023L1100.73 1079.46H1004Z" fill="#1C4122"/>
<path d="M1024.73 1083.97L1066.18 1038.81L1107.63 1083.97H1024.73Z" fill="#183A1E"/>
<path d="M481.991 955.509L530.354 905.827L578.716 955.509H481.991Z" fill="#1C4122"/>
<path d="M516.537 960.026L557.991 914.86L606.353 960.026H516.537Z" fill="#183A1E"/>
<path d="M115.817 729.682L160.725 680L205.634 729.682H115.817Z" fill="#1C4122"/>
<path d="M150.363 734.199L188.362 689.033L233.271 734.199H150.363Z" fill="#183A1E"/>
<path d="M102 887.761L143.454 842.596L184.908 887.761H102Z" fill="#1C4122"/>
</g>
<path opacity="0.85" d="M682.77 1097.78C692.31 1097.78 700.043 1092.72 700.043 1086.49C700.043 1080.25 692.31 1075.2 682.77 1075.2C673.231 1075.2 665.498 1080.25 665.498 1086.49C665.498 1092.72 673.231 1097.78 682.77 1097.78Z" fill="#F0C040"/>
<path opacity="0.2" d="M682.771 1106.81C699.942 1106.81 713.862 1097.71 713.862 1086.49C713.862 1075.26 699.942 1066.16 682.771 1066.16C665.601 1066.16 651.681 1075.26 651.681 1086.49C651.681 1097.71 665.601 1106.81 682.771 1106.81Z" fill="#F0C040"/>
<path d="M725.822 1084.33H724.427L726.553 1078.17H728.231L730.355 1084.33H728.959L727.416 1079.57H727.368L725.822 1084.33ZM725.735 1081.9H729.031V1082.92H725.735V1081.9ZM736.242 1080.32H734.924C734.9 1080.15 734.851 1080 734.777 1079.87C734.703 1079.73 734.607 1079.62 734.491 1079.52C734.375 1079.43 734.24 1079.36 734.088 1079.31C733.938 1079.26 733.774 1079.23 733.598 1079.23C733.279 1079.23 733.001 1079.31 732.765 1079.47C732.528 1079.63 732.345 1079.86 732.214 1080.16C732.084 1080.46 732.019 1080.82 732.019 1081.25C732.019 1081.68 732.084 1082.05 732.214 1082.35C732.347 1082.65 732.531 1082.88 732.768 1083.03C733.004 1083.18 733.278 1083.26 733.589 1083.26C733.763 1083.26 733.925 1083.23 734.073 1083.19C734.223 1083.14 734.357 1083.08 734.473 1082.99C734.589 1082.9 734.686 1082.79 734.762 1082.66C734.84 1082.53 734.894 1082.38 734.924 1082.22L736.242 1082.23C736.207 1082.51 736.122 1082.78 735.986 1083.04C735.852 1083.3 735.67 1083.54 735.442 1083.74C735.215 1083.95 734.944 1084.11 734.629 1084.23C734.317 1084.35 733.963 1084.41 733.568 1084.41C733.018 1084.41 732.527 1084.29 732.094 1084.04C731.663 1083.79 731.322 1083.43 731.071 1082.96C730.823 1082.49 730.698 1081.92 730.698 1081.25C730.698 1080.57 730.825 1080 731.077 1079.53C731.33 1079.06 731.673 1078.7 732.106 1078.45C732.539 1078.21 733.026 1078.08 733.568 1078.08C733.925 1078.08 734.255 1078.13 734.56 1078.23C734.867 1078.33 735.139 1078.48 735.375 1078.67C735.612 1078.86 735.804 1079.09 735.953 1079.37C736.103 1079.65 736.199 1079.97 736.242 1080.32ZM742.61 1080.32H741.293C741.269 1080.15 741.22 1080 741.146 1079.87C741.071 1079.73 740.976 1079.62 740.86 1079.52C740.744 1079.43 740.609 1079.36 740.457 1079.31C740.306 1079.26 740.143 1079.23 739.967 1079.23C739.648 1079.23 739.37 1079.31 739.133 1079.47C738.897 1079.63 738.713 1079.86 738.583 1080.16C738.453 1080.46 738.388 1080.82 738.388 1081.25C738.388 1081.68 738.453 1082.05 738.583 1082.35C738.715 1082.65 738.9 1082.88 739.136 1083.03C739.373 1083.18 739.647 1083.26 739.958 1083.26C740.132 1083.26 740.293 1083.23 740.442 1083.19C740.592 1083.14 740.726 1083.08 740.842 1082.99C740.958 1082.9 741.054 1082.79 741.131 1082.66C741.209 1082.53 741.263 1082.38 741.293 1082.22L742.61 1082.23C742.576 1082.51 742.491 1082.78 742.355 1083.04C742.22 1083.3 742.039 1083.54 741.81 1083.74C741.584 1083.95 741.313 1084.11 740.998 1084.23C740.685 1084.35 740.332 1084.41 739.936 1084.41C739.387 1084.41 738.896 1084.29 738.463 1084.04C738.032 1083.79 737.691 1083.43 737.44 1082.96C737.191 1082.49 737.067 1081.92 737.067 1081.25C737.067 1080.57 737.193 1080 737.446 1079.53C737.699 1079.06 738.042 1078.7 738.475 1078.45C738.908 1078.21 739.395 1078.08 739.936 1078.08C740.293 1078.08 740.624 1078.13 740.929 1078.23C741.236 1078.33 741.508 1078.48 741.744 1078.67C741.981 1078.86 742.173 1079.09 742.322 1079.37C742.472 1079.65 742.568 1079.97 742.61 1080.32ZM743.544 1084.33V1078.17H745.974C746.44 1078.17 746.837 1078.25 747.165 1078.42C747.496 1078.58 747.748 1078.81 747.92 1079.12C748.095 1079.42 748.182 1079.77 748.182 1080.18C748.182 1080.59 748.094 1080.94 747.917 1081.23C747.741 1081.53 747.485 1081.75 747.15 1081.91C746.818 1082.06 746.415 1082.14 745.941 1082.14H744.314V1081.09H745.731C745.979 1081.09 746.186 1081.06 746.35 1080.99C746.515 1080.92 746.637 1080.82 746.717 1080.69C746.8 1080.55 746.841 1080.38 746.841 1080.18C746.841 1079.97 746.8 1079.8 746.717 1079.66C746.637 1079.52 746.514 1079.41 746.347 1079.34C746.183 1079.27 745.975 1079.23 745.725 1079.23H744.847V1084.33H743.544ZM746.871 1081.52L748.402 1084.33H746.964L745.466 1081.52H746.871ZM750.164 1084.33H748.769L750.895 1078.17H752.573L754.697 1084.33H753.301L751.758 1079.57H751.71L750.164 1084.33ZM750.077 1081.9H753.373V1082.92H750.077V1081.9Z" fill="white" fill-opacity="0.55"/>
<path d="M558.411 708.227C566.996 708.227 573.956 703.677 573.956 698.065C573.956 692.452 566.996 687.902 558.411 687.902C549.826 687.902 542.866 692.452 542.866 698.065C542.866 703.677 549.826 708.227 558.411 708.227Z" fill="white" fill-opacity="0.75"/>
<path d="M558.411 716.13C573.673 716.13 586.046 708.042 586.046 698.064C586.046 688.087 573.673 679.998 558.411 679.998C543.148 679.998 530.775 688.087 530.775 698.064C530.775 708.042 543.148 716.13 558.411 716.13Z" fill="white" fill-opacity="0.15"/>
<path d="M593.458 697.031V691.234H594.684V693.79H594.76L596.846 691.234H598.316L596.164 693.83L598.341 697.031H596.875L595.287 694.648L594.684 695.384V697.031H593.458ZM602.535 691.234H603.761V694.999C603.761 695.421 603.66 695.791 603.458 696.108C603.258 696.425 602.977 696.673 602.617 696.85C602.256 697.026 601.837 697.113 601.357 697.113C600.876 697.113 600.455 697.026 600.095 696.85C599.734 696.673 599.454 696.425 599.254 696.108C599.054 695.791 598.954 695.421 598.954 694.999V691.234H600.18V694.894C600.18 695.115 600.228 695.311 600.324 695.483C600.422 695.655 600.56 695.789 600.737 695.888C600.915 695.986 601.121 696.035 601.357 696.035C601.595 696.035 601.802 695.986 601.977 695.888C602.155 695.789 602.291 695.655 602.388 695.483C602.486 695.311 602.535 695.115 602.535 694.894V691.234ZM604.769 691.234H606.281L607.877 695.129H607.945L609.542 691.234H611.053V697.031H609.864V693.258H609.816L608.316 697.003H607.506L606.006 693.244H605.958V697.031H604.769V691.234ZM613.062 697.031H611.749L613.75 691.234H615.33L617.328 697.031H616.015L614.563 692.559H614.517L613.062 697.031ZM612.98 694.752H616.083V695.709H612.98V694.752ZM621.039 692.901C621.016 692.673 620.919 692.495 620.747 692.369C620.576 692.243 620.342 692.179 620.048 692.179C619.848 692.179 619.679 692.208 619.541 692.264C619.404 692.319 619.298 692.395 619.224 692.494C619.153 692.592 619.117 692.703 619.117 692.828C619.113 692.931 619.135 693.022 619.182 693.099C619.231 693.177 619.298 693.244 619.383 693.3C619.468 693.355 619.566 693.403 619.677 693.445C619.789 693.484 619.907 693.518 620.034 693.547L620.555 693.671C620.808 693.728 621.04 693.803 621.251 693.898C621.462 693.992 621.646 694.108 621.8 694.246C621.955 694.384 622.075 694.546 622.16 694.733C622.247 694.92 622.291 695.134 622.293 695.375C622.291 695.73 622.2 696.038 622.021 696.298C621.844 696.557 621.587 696.758 621.251 696.901C620.917 697.043 620.514 697.113 620.042 697.113C619.574 697.113 619.167 697.042 618.819 696.898C618.474 696.755 618.204 696.542 618.01 696.261C617.817 695.978 617.716 695.628 617.707 695.211H618.893C618.906 695.405 618.962 695.568 619.06 695.698C619.16 695.826 619.293 695.923 619.459 695.99C619.627 696.054 619.817 696.086 620.028 696.086C620.236 696.086 620.416 696.056 620.569 695.995C620.724 695.935 620.843 695.851 620.928 695.743C621.013 695.636 621.056 695.512 621.056 695.372C621.056 695.242 621.017 695.133 620.94 695.044C620.864 694.955 620.753 694.88 620.606 694.818C620.46 694.755 620.282 694.699 620.071 694.648L619.439 694.489C618.951 694.37 618.565 694.184 618.282 693.932C617.999 693.679 617.858 693.338 617.86 692.91C617.858 692.559 617.951 692.252 618.14 691.99C618.331 691.727 618.592 691.523 618.924 691.375C619.256 691.228 619.634 691.155 620.057 691.155C620.487 691.155 620.862 691.228 621.183 691.375C621.506 691.523 621.757 691.727 621.936 691.99C622.115 692.252 622.208 692.556 622.214 692.901H621.039ZM624.343 691.234V697.031H623.117V691.234H624.343Z" fill="white" fill-opacity="0.45"/>
<path opacity="0.1" d="M644.773 311.9C652.404 311.9 658.591 307.855 658.591 302.867C658.591 297.878 652.404 293.833 644.773 293.833C637.142 293.833 630.955 297.878 630.955 302.867C630.955 307.855 637.142 311.9 644.773 311.9Z" fill="white" fill-opacity="0.65"/>
<path d="M742.181 417.616C755.536 417.616 766.363 410.538 766.363 401.808C766.363 393.077 755.536 386 742.181 386C728.826 386 718 393.077 718 401.808C718 410.538 728.826 417.616 742.181 417.616Z" fill="white" fill-opacity="0.12"/>
<path d="M773.556 395.989V394.978H778.317V395.989H776.542V400.775H775.33V395.989H773.556ZM779.392 400.775H778.078L780.08 394.978H781.659L783.658 400.775H782.344L780.892 396.303H780.847L779.392 400.775ZM779.31 398.497H782.412V399.453H779.31V398.497ZM784.356 394.978H785.867L787.464 398.873H787.532L789.128 394.978H790.64V400.775H789.451V397.002H789.403L787.903 400.747H787.093L785.593 396.988H785.545V400.775H784.356V394.978ZM792.649 400.775H791.336L793.337 394.978H794.916L796.915 400.775H795.602L794.149 396.303H794.104L792.649 400.775ZM792.567 398.497H795.669V399.453H792.567V398.497ZM797.613 400.775V394.978H798.838V399.765H801.324V400.775H797.613ZM802.136 400.775V394.978H806.042V395.989H803.361V397.37H805.841V398.381H803.361V399.765H806.053V400.775H802.136Z" fill="white" fill-opacity="0.4"/>
<path d="M625.698 108.6L626.867 110.575H626.912L628.087 108.6H629.471L627.702 111.498L629.511 114.397H628.101L626.912 112.418H626.867L625.678 114.397H624.274L626.089 111.498L624.308 108.6H625.698ZM630.247 114.397V108.6H632.534C632.974 108.6 633.349 108.684 633.658 108.852C633.968 109.018 634.204 109.249 634.366 109.545C634.53 109.839 634.612 110.179 634.612 110.564C634.612 110.949 634.529 111.289 634.363 111.583C634.197 111.878 633.956 112.107 633.641 112.271C633.328 112.435 632.949 112.517 632.503 112.517H631.045V111.535H632.305C632.541 111.535 632.735 111.494 632.888 111.413C633.043 111.33 633.158 111.216 633.234 111.071C633.311 110.924 633.35 110.755 633.35 110.564C633.35 110.372 633.311 110.204 633.234 110.06C633.158 109.915 633.043 109.803 632.888 109.723C632.733 109.642 632.537 109.602 632.299 109.602H631.473V114.397H630.247Z" fill="#F0C040" fill-opacity="0.8"/>
<path d="M1044.91 833.561C1061.36 833.561 1074.7 823.45 1074.7 810.978C1074.7 798.506 1061.36 788.396 1044.91 788.396C1028.45 788.396 1015.11 798.506 1015.11 810.978C1015.11 823.45 1028.45 833.561 1044.91 833.561Z" fill="#C8951A" fill-opacity="0.25" stroke="#C8951A" stroke-opacity="0.45" stroke-width="1.49464"/>
<path d="M788.723 804.109L789.893 806.085H789.938L791.113 804.109H792.497L790.728 807.008L792.536 809.906H791.127L789.938 807.928H789.893L788.704 809.906H787.3L789.114 807.008L787.334 804.109H788.723ZM793.272 809.906V804.109H795.56C795.999 804.109 796.374 804.193 796.684 804.361C796.993 804.527 797.229 804.758 797.391 805.054C797.555 805.349 797.637 805.688 797.637 806.073C797.637 806.458 797.554 806.798 797.388 807.092C797.222 807.387 796.982 807.616 796.667 807.78C796.353 807.945 795.974 808.027 795.529 808.027H794.071V807.044H795.33C795.566 807.044 795.761 807.004 795.914 806.923C796.068 806.84 796.183 806.725 796.259 806.58C796.336 806.433 796.375 806.264 796.375 806.073C796.375 805.881 796.336 805.713 796.259 805.57C796.183 805.424 796.068 805.312 795.914 805.233C795.759 805.152 795.563 805.111 795.325 805.111H794.498V809.906H793.272Z" fill="#F0C040" fill-opacity="0.8"/>
<path d="M554.354 597.342C553.72 596.435 553.016 595.642 552.241 594.961C551.473 594.27 550.638 593.707 549.738 593.271C548.847 592.833 547.899 592.537 546.894 592.381C545.89 592.225 544.843 592.223 543.754 592.374C541.968 592.622 540.487 593.291 539.313 594.38C538.139 595.468 537.4 596.935 537.097 598.779C536.795 600.623 537.05 602.799 537.865 605.305C538.68 607.811 539.805 609.866 541.239 611.469C542.673 613.072 544.28 614.212 546.059 614.891C547.839 615.569 549.661 615.779 551.525 615.52C553.253 615.28 554.659 614.715 555.744 613.826C556.836 612.925 557.539 611.774 557.852 610.372C558.172 608.958 558.044 607.366 557.468 605.595L558.66 605.665L549.593 606.925L548.582 603.816L560.063 602.221L561.074 605.33C561.849 607.714 561.993 609.86 561.506 611.769C561.029 613.677 560.021 615.245 558.482 616.473C556.95 617.691 554.986 618.466 552.592 618.799C549.922 619.17 547.381 618.892 544.967 617.967C542.563 617.041 540.436 615.544 538.584 613.477C536.742 611.409 535.325 608.849 534.333 605.796C533.588 603.506 533.238 601.403 533.281 599.487C533.331 597.559 533.736 595.869 534.493 594.414C535.251 592.96 536.323 591.777 537.709 590.865C539.095 589.954 540.754 589.364 542.687 589.095C544.277 588.874 545.834 588.899 547.358 589.17C548.889 589.43 550.33 589.904 551.682 590.593C553.041 591.271 554.272 592.138 555.375 593.196C556.475 594.245 557.391 595.452 558.122 596.818L554.354 597.342ZM571.021 615.824L561.61 586.879L565.261 586.372L569.452 599.262L585.526 597.028L581.335 584.139L584.985 583.631L594.397 612.576L590.746 613.083L586.537 600.137L570.463 602.371L574.672 615.317L571.021 615.824ZM602.942 611.389L599.115 611.92L600.773 581.438L604.541 580.914L625.022 608.321L621.195 608.852L604.264 585.739L604.028 585.771L602.942 611.389ZM600.679 599.886L616.105 597.742L617.116 600.851L601.69 602.995L600.679 599.886ZM644.212 575.402L653.623 604.346L650.09 604.837L626.273 584.394L625.979 584.435L633.368 607.161L629.718 607.668L620.306 578.723L623.839 578.232L647.733 598.724L648.028 598.683L640.62 575.901L644.212 575.402ZM662.164 603.159L658.337 603.691L659.995 573.208L663.764 572.685L684.244 600.091L680.417 600.623L663.486 577.509L663.251 577.542L662.164 603.159ZM659.901 591.657L675.328 589.513L676.339 592.622L660.912 594.766L659.901 591.657Z" fill="white" fill-opacity="0.05"/>
<g filter="url(#filter0_n_3384_119086)">
<path d="M5.69629 1177.96H1249.31V1223.13H5.69629V1177.96Z" fill="#2A5730"/>
</g>
<path opacity="0.5" d="M5.69629 1203.26C212.964 1196.49 420.233 1210.03 627.501 1201C834.769 1191.97 1042.04 1205.52 1249.31 1198.74" stroke="#FFFEFC" stroke-width="1.49464" stroke-dasharray="13.95 9.96"/>
<path opacity="0.2" d="M653.902 267C693.863 296.838 573.98 315.486 554 359" stroke="#EBF1EC" stroke-width="1.5" stroke-linecap="round" stroke-dasharray="8.97 6.97"/>
<path opacity="0.2" d="M695.902 602C735.863 631.838 615.98 650.486 596 694" stroke="#EBF1EC" stroke-width="1.5" stroke-linecap="round" stroke-dasharray="8.97 6.97"/>
<path opacity="0.2" d="M608.902 720C648.863 749.838 528.98 768.486 509 812" stroke="#EBF1EC" stroke-width="1.5" stroke-linecap="round" stroke-dasharray="8.97 6.97"/>
</g>
<defs>
<filter id="filter0_n_3384_119086" x="5.69629" y="1177.96" width="1243.61" height="45.165" filterUnits="userSpaceOnUse" color-interpolation-filters="sRGB">
<feFlood flood-opacity="0" result="BackgroundImageFix"/>
<feBlend mode="normal" in="SourceGraphic" in2="BackgroundImageFix" result="shape"/>
<feTurbulence type="fractalNoise" baseFrequency="2 2" stitchTiles="stitch" numOctaves="3" result="noise" seed="735" />
<feColorMatrix in="noise" type="luminanceToAlpha" result="alphaNoise" />
<feComponentTransfer in="alphaNoise" result="coloredNoise1">
<feFuncA type="discrete" tableValues="1 1 1 1 1 1 1 1 1 1 1 1 1 1 1 1 1 1 1 1 1 1 1 1 1 1 1 1 1 1 1 1 1 1 1 1 1 1 1 1 1 1 1 1 1 1 1 1 1 1 1 0 0 0 0 0 0 0 0 0 0 0 0 0 0 0 0 0 0 0 0 0 0 0 0 0 0 0 0 0 0 0 0 0 0 0 0 0 0 0 0 0 0 0 0 0 0 0 0 0 "/>
</feComponentTransfer>
<feComposite operator="in" in2="shape" in="coloredNoise1" result="noise1Clipped" />
<feFlood flood-color="rgba(0, 0, 0, 0.25)" result="color1Flood" />
<feComposite operator="in" in2="noise1Clipped" in="color1Flood" result="color1" />
<feMerge result="effect1_noise_3384_119086">
<feMergeNode in="shape" />
<feMergeNode in="color1" />
</feMerge>
</filter>
<linearGradient id="paint0_linear_3384_119086" x1="150" y1="167.682" x2="187.235" y2="224.639" gradientUnits="userSpaceOnUse">
<stop stop-color="#142916"/>
<stop offset="1" stop-color="#2A5730"/>
</linearGradient>
<linearGradient id="paint1_linear_3384_119086" x1="174.182" y1="206.072" x2="187.729" y2="219.887" gradientUnits="userSpaceOnUse">
<stop stop-color="#142916"/>
<stop offset="1" stop-color="#2A5730"/>
</linearGradient>
<linearGradient id="paint2_linear_3384_119086" x1="243.271" y1="138.324" x2="272.231" y2="182.624" gradientUnits="userSpaceOnUse">
<stop stop-color="#142916"/>
<stop offset="1" stop-color="#2A5730"/>
</linearGradient>
<linearGradient id="paint3_linear_3384_119086" x1="396.049" y1="-2" x2="407.114" y2="11.5409" gradientUnits="userSpaceOnUse">
<stop stop-color="#142916"/>
<stop offset="1" stop-color="#2A5730"/>
</linearGradient>
<linearGradient id="paint4_linear_3384_119086" x1="586.045" y1="90.5894" x2="615.005" y2="134.889" gradientUnits="userSpaceOnUse">
<stop stop-color="#142916"/>
<stop offset="1" stop-color="#2A5730"/>
</linearGradient>
<linearGradient id="paint5_linear_3384_119086" x1="955.544" y1="137.616" x2="984.504" y2="181.916" gradientUnits="userSpaceOnUse">
<stop stop-color="#142916"/>
<stop offset="1" stop-color="#2A5730"/>
</linearGradient>
<linearGradient id="paint6_linear_3384_119086" x1="482.412" y1="343.516" x2="511.372" y2="387.815" gradientUnits="userSpaceOnUse">
<stop stop-color="#142916"/>
<stop offset="1" stop-color="#2A5730"/>
</linearGradient>
<linearGradient id="paint7_linear_3384_119086" x1="1052.4" y1="366.098" x2="1081.36" y2="410.398" gradientUnits="userSpaceOnUse">
<stop stop-color="#142916"/>
<stop offset="1" stop-color="#2A5730"/>
</linearGradient>
<clipPath id="clip0_3384_119086">
<rect width="1255" height="1225" fill="white" transform="translate(0 -2)"/>
</clipPath>
</defs>
</svg>
