<svg width="1024" height="1024" viewBox="0 0 1024 1024" fill="none" xmlns="http://www.w3.org/2000/svg">
<path d="M480 373.5C481.907 373.5 483.762 372.626 485.492 370.967C487.225 369.306 488.809 366.878 490.149 363.84C492.83 357.764 494.5 349.336 494.5 340C494.5 330.664 492.83 322.236 490.149 316.16C488.809 313.122 487.225 310.694 485.492 309.033C483.762 307.374 481.907 306.5 480 306.5C478.093 306.5 476.238 307.374 474.508 309.033C472.775 310.694 471.191 313.122 469.851 316.16C467.17 322.236 465.5 330.664 465.5 340C465.5 349.336 467.17 357.764 469.851 363.84C471.191 366.878 472.775 369.306 474.508 370.967C476.238 372.626 478.093 373.5 480 373.5Z" fill="#8B5A3C" stroke="black"/>
<path d="M628 373.5C629.907 373.5 631.762 372.626 633.492 370.967C635.225 369.306 636.809 366.878 638.149 363.84C640.83 357.764 642.5 349.336 642.5 340C642.5 330.664 640.83 322.236 638.149 316.16C636.809 313.122 635.225 310.694 633.492 309.033C631.762 307.374 629.907 306.5 628 306.5C626.093 306.5 624.238 307.374 622.508 309.033C620.775 310.694 619.191 313.122 617.851 316.16C615.17 322.236 613.5 330.664 613.5 340C613.5 349.336 615.17 357.764 617.851 363.84C619.191 366.878 620.775 369.306 622.508 370.967C624.238 372.626 626.093 373.5 628 373.5Z" fill="#8B5A3C" stroke="black"/>
<path d="M476.347 371.695C478.196 371.695 479.695 370.196 479.695 368.347C479.695 366.499 478.196 365 476.347 365C474.499 365 473 366.499 473 368.347C473 370.196 474.499 371.695 476.347 371.695Z" fill="#F59E0B"/>
<path d="M628.347 370.695C630.196 370.695 631.695 369.196 631.695 367.347C631.695 365.499 630.196 364 628.347 364C626.499 364 625 365.499 625 367.347C625 369.196 626.499 370.695 628.347 370.695Z" fill="#F59E0B"/>
</svg>
