<svg width="47" height="37" viewBox="0 0 47 37" fill="none" xmlns="http://www.w3.org/2000/svg">
<g clip-path="url(#clip0_3326_9675)">
<path d="M23.4995 42.286C30.8187 42.286 36.752 36.3698 36.752 29.0717C36.752 21.7737 30.8187 15.8574 23.4995 15.8574C16.1804 15.8574 10.2471 21.7737 10.2471 29.0717C10.2471 36.3698 16.1804 42.286 23.4995 42.286Z" fill="#FCE7F3"/>
<path d="M23.4996 26.4281C27.5251 26.4281 30.7884 22.8784 30.7884 18.4997C30.7884 14.121 27.5251 10.5713 23.4996 10.5713C19.4742 10.5713 16.2109 14.121 16.2109 18.4997C16.2109 22.8784 19.4742 26.4281 23.4996 26.4281Z" fill="#A06B4A"/>
<path d="M14.2236 10.572C14.2236 6.16722 17.3159 3.96484 23.5004 3.96484C29.6848 3.96484 32.7771 6.16722 32.7771 10.572C32.7771 19.3815 32.3353 25.9887 31.4518 30.3934C30.5683 23.3458 31.0101 16.7387 32.7771 10.572M14.2236 10.572C14.2236 19.3815 14.6654 25.9887 15.5489 30.3934C16.4324 23.3458 15.9906 16.7387 14.2236 10.572Z" fill="#3C2415"/>
</g>
<defs>
<clipPath id="clip0_3326_9675">
<rect width="47" height="37" fill="white"/>
</clipPath>
</defs>
</svg>
