<svg width="1024" height="1024" viewBox="0 0 1024 1024" fill="none" xmlns="http://www.w3.org/2000/svg">
<path d="M541 310H511C508.239 310 506 312.239 506 315V335C506 337.761 508.239 340 511 340H541C543.761 340 546 337.761 546 335V315C546 312.239 543.761 310 541 310Z" stroke="#0F172A" stroke-width="1.5"/>
<path d="M597 311H567C564.239 311 562 313.239 562 316V336C562 338.761 564.239 341 567 341H597C599.761 341 602 338.761 602 336V316C602 313.239 599.761 311 597 311Z" stroke="#0F172A" stroke-width="1.5"/>
<path d="M545 325H563" stroke="#0F172A" stroke-width="2"/>
</svg>
