<svg width="59" height="47" viewBox="0 0 59 47" fill="none" xmlns="http://www.w3.org/2000/svg">
<g clip-path="url(#clip0_3326_9635)">
<path d="M29.5003 53.714C38.6882 53.714 46.1364 46.1988 46.1364 36.9283C46.1364 27.6578 38.6882 20.1426 29.5003 20.1426C20.3125 20.1426 12.8643 27.6578 12.8643 36.9283C12.8643 46.1988 20.3125 53.714 29.5003 53.714Z" fill="#D1FAE5"/>
<path d="M29.4998 20.9815C37.3093 20.9815 43.6401 16.8482 43.6401 11.7495C43.6401 6.65087 37.3093 2.51758 29.4998 2.51758C21.6902 2.51758 15.3594 6.65087 15.3594 11.7495C15.3594 16.8482 21.6902 20.9815 29.4998 20.9815Z" fill="#1E1B1B"/>
<path d="M29.4993 35.2499C34.5525 35.2499 38.6489 30.7408 38.6489 25.1786C38.6489 19.6165 34.5525 15.1074 29.4993 15.1074C24.446 15.1074 20.3496 19.6165 20.3496 25.1786C20.3496 30.7408 24.446 35.2499 29.4993 35.2499Z" fill="#8B5A3C"/>
</g>
<defs>
<clipPath id="clip0_3326_9635">
<rect width="59" height="47" fill="white"/>
</clipPath>
</defs>
</svg>
