<svg width="40" height="32" viewBox="0 0 40 32" fill="none" xmlns="http://www.w3.org/2000/svg">
<g clip-path="url(#clip0_3384_81830)">
<path d="M0.222656 7.31466L7.59766 0.580832C12.5143 -0.317012 16.2018 0.580832 18.6602 3.27436C21.1185 0.580832 24.806 -0.317012 29.7227 0.580832L37.0977 7.31466L31.5664 10.0082V31.5564H5.75391V10.0082L0.222656 7.31466Z" fill="#0EA5E9"/>
<path d="M14.9717 0.58114L18.6592 8.66173L22.3467 0.58114L20.5029 -0.765625H16.8154L14.9717 0.58114Z" fill="white"/>
<path d="M18.6604 6.50612C19.0677 6.50612 19.3979 6.26494 19.3979 5.96742C19.3979 5.6699 19.0677 5.42871 18.6604 5.42871C18.253 5.42871 17.9229 5.6699 17.9229 5.96742C17.9229 6.26494 18.253 6.50612 18.6604 6.50612Z" fill="#0F172A"/>
<path d="M18.6604 10.5471C19.0677 10.5471 19.3979 10.306 19.3979 10.0084C19.3979 9.71091 19.0677 9.46973 18.6604 9.46973C18.253 9.46973 17.9229 9.71091 17.9229 10.0084C17.9229 10.306 18.253 10.5471 18.6604 10.5471Z" fill="#0F172A"/>
</g>
<defs>
<clipPath id="clip0_3384_81830">
<rect width="40" height="32" fill="white"/>
</clipPath>
</defs>
</svg>
