<svg width="53" height="47" viewBox="0 0 53 47" fill="none" xmlns="http://www.w3.org/2000/svg">
<path d="M23.9633 18.4639H13.8212C12.8877 18.4639 12.1309 19.2154 12.1309 20.1424V26.8566C12.1309 27.7836 12.8877 28.5351 13.8212 28.5351H23.9633C24.8969 28.5351 25.6537 27.7836 25.6537 26.8566V20.1424C25.6537 19.2154 24.8969 18.4639 23.9633 18.4639Z" stroke="#0F172A" stroke-width="1.5"/>
<path d="M39.1782 18.4639H29.0361C28.1025 18.4639 27.3457 19.2154 27.3457 20.1424V26.8566C27.3457 27.7836 28.1025 28.5351 29.0361 28.5351H39.1782C40.1117 28.5351 40.8685 27.7836 40.8685 26.8566V20.1424C40.8685 19.2154 40.1117 18.4639 39.1782 18.4639Z" stroke="#0F172A" stroke-width="1.5"/>
<path d="M25.6543 23.5H27.3447" stroke="#0F172A" stroke-width="1.5"/>
</svg>
