<svg width="1024" height="1024" viewBox="0 0 1024 1024" fill="none" xmlns="http://www.w3.org/2000/svg">
<path d="M480 388.5C481.907 388.5 483.762 387.626 485.492 385.967C487.225 384.306 488.809 381.878 490.149 378.84C492.83 372.764 494.5 364.336 494.5 355C494.5 345.664 492.83 337.236 490.149 331.16C488.809 328.122 487.225 325.694 485.492 324.033C483.762 322.374 481.907 321.5 480 321.5C478.093 321.5 476.238 322.374 474.508 324.033C472.775 325.694 471.191 328.122 469.851 331.16C467.17 337.236 465.5 345.664 465.5 355C465.5 364.336 467.17 372.764 469.851 378.84C471.191 381.878 472.775 384.306 474.508 385.967C476.238 387.626 478.093 388.5 480 388.5Z" fill="#8B5A3C" stroke="black"/>
<path d="M627 388.5C628.907 388.5 630.762 387.626 632.492 385.967C634.225 384.306 635.809 381.878 637.149 378.84C639.83 372.764 641.5 364.336 641.5 355C641.5 345.664 639.83 337.236 637.149 331.16C635.809 328.122 634.225 325.694 632.492 324.033C630.762 322.374 628.907 321.5 627 321.5C625.093 321.5 623.238 322.374 621.508 324.033C619.775 325.694 618.191 328.122 616.851 331.16C614.17 337.236 612.5 345.664 612.5 355C612.5 364.336 614.17 372.764 616.851 378.84C618.191 381.878 619.775 384.306 621.508 385.967C623.238 387.626 625.093 388.5 627 388.5Z" fill="#8B5A3C" stroke="black"/>
<path d="M480 385V396.143" stroke="#FBBF24" stroke-width="2.78953"/>
<path d="M625 383V394.143" stroke="#FBBF24" stroke-width="2.78953"/>
<path d="M480.226 400.571C482.56 400.571 484.452 398.653 484.452 396.286C484.452 393.919 482.56 392 480.226 392C477.892 392 476 393.919 476 396.286C476 398.653 477.892 400.571 480.226 400.571Z" fill="#EC4899"/>
<path d="M625.226 400.571C627.56 400.571 629.452 398.653 629.452 396.286C629.452 393.919 627.56 392 625.226 392C622.892 392 621 393.919 621 396.286C621 398.653 622.892 400.571 625.226 400.571Z" fill="#EC4899"/>
<path d="M479.536 383.143C480.936 383.143 482.071 381.992 482.071 380.571C482.071 379.151 480.936 378 479.536 378C478.135 378 477 379.151 477 380.571C477 381.992 478.135 383.143 479.536 383.143Z" fill="#FBBF24"/>
<path d="M624.536 381.143C625.936 381.143 627.071 379.992 627.071 378.571C627.071 377.151 625.936 376 624.536 376C623.135 376 622 377.151 622 378.571C622 379.992 623.135 381.143 624.536 381.143Z" fill="#FBBF24"/>
</svg>
