<svg width="55" height="44" viewBox="0 0 55 44" fill="none" xmlns="http://www.w3.org/2000/svg">
<g clip-path="url(#clip0_3326_9690)">
<path d="M27.5004 50.285C36.0653 50.285 43.0086 43.2495 43.0086 34.5707C43.0086 25.892 36.0653 18.8564 27.5004 18.8564C18.9354 18.8564 11.9922 25.892 11.9922 34.5707C11.9922 43.2495 18.9354 50.285 27.5004 50.285Z" fill="#DCFCE7"/>
<path d="M27.5 31.4281C32.2107 31.4281 36.0294 27.2068 36.0294 21.9997C36.0294 16.7925 32.2107 12.5713 27.5 12.5713C22.7894 12.5713 18.9707 16.7925 18.9707 21.9997C18.9707 27.2068 22.7894 31.4281 27.5 31.4281Z" fill="#6B4226"/>
<path d="M19.7461 14.143C21.4591 14.143 22.8477 12.7359 22.8477 11.0002C22.8477 9.2645 21.4591 7.85742 19.7461 7.85742C18.0332 7.85742 16.6445 9.2645 16.6445 11.0002C16.6445 12.7359 18.0332 14.143 19.7461 14.143Z" fill="#2E1A10"/>
<path d="M27.5 11.3926C29.4271 11.3926 30.9893 9.80961 30.9893 7.85693C30.9893 5.90425 29.4271 4.32129 27.5 4.32129C25.5729 4.32129 24.0107 5.90425 24.0107 7.85693C24.0107 9.80961 25.5729 11.3926 27.5 11.3926Z" fill="#2E1A10"/>
<path d="M35.2539 14.143C36.9669 14.143 38.3555 12.7359 38.3555 11.0002C38.3555 9.2645 36.9669 7.85742 35.2539 7.85742C33.541 7.85742 32.1523 9.2645 32.1523 11.0002C32.1523 12.7359 33.541 14.143 35.2539 14.143Z" fill="#2E1A10"/>
<path d="M27.5001 18.8569C33.0672 18.8569 37.5802 17.4498 37.5802 15.7141C37.5802 13.9784 33.0672 12.5713 27.5001 12.5713C21.9329 12.5713 17.4199 13.9784 17.4199 15.7141C17.4199 17.4498 21.9329 18.8569 27.5001 18.8569Z" fill="#2E1A10"/>
</g>
<defs>
<clipPath id="clip0_3326_9690">
<rect width="55" height="44" fill="white"/>
</clipPath>
</defs>
</svg>
