<svg width="1024" height="1024" viewBox="0 0 1024 1024" fill="none" xmlns="http://www.w3.org/2000/svg">
<path d="M550 290C582.033 290 608 283.284 608 275C608 266.716 582.033 260 550 260C517.967 260 492 266.716 492 275C492 283.284 517.967 290 550 290Z" fill="#2E1A10"/>
<path d="M511 266C516.523 266 521 261.523 521 256C521 250.477 516.523 246 511 246C505.477 246 501 250.477 501 256C501 261.523 505.477 266 511 266Z" fill="#2E1A10"/>
<path d="M554 250C559.523 250 564 245.523 564 240C564 234.477 559.523 230 554 230C548.477 230 544 234.477 544 240C544 245.523 548.477 250 554 250Z" fill="#2E1A10"/>
<path d="M588 266C593.523 266 598 261.523 598 256C598 250.477 593.523 246 588 246C582.477 246 578 250.477 578 256C578 261.523 582.477 266 588 266Z" fill="#2E1A10"/>
</svg>
