<svg width="61" height="17" viewBox="0 0 61 17" fill="none" xmlns="http://www.w3.org/2000/svg">
<path fill-rule="evenodd" clip-rule="evenodd" d="M7.9998 1.2998C4.02335 1.2998 0.799805 4.52335 0.799805 8.4998C0.799805 12.4763 4.02335 15.6998 7.9998 15.6998C11.9763 15.6998 15.1998 12.4763 15.1998 8.4998C15.1998 4.52335 11.9763 1.2998 7.9998 1.2998ZM11.0746 6.66667C11.2772 6.40446 11.2289 6.02765 10.9667 5.82503C10.7045 5.62242 10.3277 5.67073 10.125 5.93294L7.16473 9.76392L5.84578 8.29842C5.62411 8.05212 5.24473 8.03215 4.99843 8.25383C4.75212 8.4755 4.73215 8.85488 4.95383 9.10118L6.75383 11.1012C6.87286 11.2334 7.04446 11.306 7.22228 11.2994C7.40009 11.2927 7.56577 11.2075 7.67457 11.0667L11.0746 6.66667Z" fill="#BABAB7"/>
<path d="M31.6777 13.1094C31.2061 13.1094 30.9463 12.877 30.8027 12.3506L28.5127 4.18164C28.4648 3.99707 28.4443 3.85352 28.4443 3.7168C28.4443 3.2998 28.7451 3.02637 29.1963 3.02637C29.5996 3.02637 29.8457 3.24512 29.9414 3.66211L31.7188 10.8604H31.7734L33.7012 3.79883C33.8447 3.25195 34.1045 3.02637 34.5762 3.02637C35.0342 3.02637 35.3008 3.25879 35.4375 3.77832L37.3721 10.8604H37.4268L39.1973 3.66211C39.2998 3.23828 39.5527 3.02637 39.9492 3.02637C40.4004 3.02637 40.7012 3.2998 40.7012 3.7168C40.7012 3.85352 40.6807 3.99707 40.626 4.18164L38.3428 12.3574C38.1924 12.877 37.9326 13.1094 37.4678 13.1094C36.9824 13.1094 36.7227 12.8906 36.5723 12.3574L34.6035 5.5625H34.5352L32.5732 12.3574C32.4229 12.8838 32.1562 13.1094 31.6777 13.1094ZM44.3343 13.1367C42.2767 13.1367 40.9232 11.7217 40.9232 9.4043C40.9232 7.09375 42.2836 5.67871 44.3343 5.67871C46.3851 5.67871 47.7455 7.09375 47.7455 9.4043C47.7455 11.7217 46.392 13.1367 44.3343 13.1367ZM44.3343 11.9199C45.4964 11.9199 46.2416 11.0039 46.2416 9.4043C46.2416 7.81152 45.4896 6.89551 44.3343 6.89551C43.1791 6.89551 42.4271 7.81152 42.4271 9.4043C42.4271 11.0039 43.1791 11.9199 44.3343 11.9199ZM49.7654 13.1299C49.321 13.1299 49.0271 12.8291 49.0271 12.3506V6.42383C49.0271 5.97266 49.3142 5.67871 49.7312 5.67871C50.1413 5.67871 50.4284 5.97266 50.4284 6.42383V7.03906H50.4626C50.6609 6.23242 51.3239 5.69238 52.0417 5.69238C52.3015 5.69238 52.4997 5.75391 52.6228 5.87012C52.7595 5.97949 52.821 6.15723 52.821 6.38965C52.821 6.62207 52.7458 6.79297 52.6023 6.90918C52.4519 7.03906 52.2331 7.10059 51.9255 7.10059C50.9138 7.10742 50.5036 7.78418 50.5036 8.67969V12.3506C50.5036 12.8291 50.2029 13.1299 49.7654 13.1299ZM54.5538 13.1299C54.1231 13.1299 53.8155 12.8359 53.8155 12.3506V3.78516C53.8155 3.2998 54.1231 3.00586 54.5538 3.00586C54.9845 3.00586 55.2921 3.2998 55.2921 3.78516V8.87793H55.3057L58.293 5.95215C58.4776 5.75391 58.6348 5.67871 58.8536 5.67871C59.2159 5.67871 59.4962 5.95898 59.4962 6.30762C59.4962 6.51953 59.4346 6.65625 59.2432 6.83398L57.0216 8.93945L59.462 11.9609C59.6192 12.1592 59.6602 12.2959 59.6602 12.4805C59.6602 12.8564 59.3663 13.1299 58.9698 13.1299C58.6964 13.1299 58.5323 13.041 58.3341 12.7676L55.9483 9.81445L55.2921 10.4297V12.3506C55.2921 12.8359 54.9845 13.1299 54.5538 13.1299Z" fill="#BABAB7"/>
</svg>
