<svg width="97" height="97" viewBox="0 0 97 97" fill="none" xmlns="http://www.w3.org/2000/svg">
<rect width="96.72" height="96.72" rx="16" fill="#F8F8F4"/>
<g clip-path="url(#clip0_3296_4667)">
<path d="M48.5435 109.196C62.3143 109.196 73.4777 98.0331 73.4777 84.2623C73.4777 70.4915 62.3143 59.3281 48.5435 59.3281C34.7728 59.3281 23.6094 70.4915 23.6094 84.2623C23.6094 98.0331 34.7728 109.196 48.5435 109.196Z" fill="#F59E0B"/>
<path d="M48.5427 58.1949C59.1838 58.1949 67.81 52.6132 67.81 45.7278C67.81 38.8424 59.1838 33.2607 48.5427 33.2607C37.9017 33.2607 29.2754 38.8424 29.2754 45.7278C29.2754 52.6132 37.9017 58.1949 48.5427 58.1949Z" fill="#1E1B1B"/>
<path d="M48.5438 78.5956C56.0551 78.5956 62.1443 71.999 62.1443 63.8618C62.1443 55.7245 56.0551 49.1279 48.5438 49.1279C41.0325 49.1279 34.9434 55.7245 34.9434 63.8618C34.9434 71.999 41.0325 78.5956 48.5438 78.5956Z" fill="#8B5A3C"/>
<path d="M45.1436 70.6621C47.4103 72.1733 49.677 72.1733 51.9438 70.6621" stroke="#3C2415" stroke-width="1.36007" stroke-linecap="round"/>
</g>
<defs>
<clipPath id="clip0_3296_4667">
<rect width="63.47" height="63.47" fill="white" transform="translate(16.8086 29.8604)"/>
</clipPath>
</defs>
</svg>
